<svg viewBox="0 0 1079 1458" version="1.1" xmlns="http://www.w3.org/2000/svg" desc="Created with imagetracer.js version 1.2.6" ><path fill="rgb(0,0,0)" stroke="rgb(0,0,0)" stroke-width="1" opacity="0" d="M 0 0 L 1079 0 L 1079 1458 L 0 1458 L 0 0 Z M 896 289 L 892 291 Q 886 294 885 302 L 887 310 L 895 316 L 910 320 L 936 331 L 921 338 L 896 345 L 891 352 Q 890 358 892 362 L 900 368 L 908 368 L 926 363 L 947 354 L 948 355 L 930 398 L 931 408 L 939 414 Q 948 416 952 412 L 958 402 L 987 331 Q 988 323 984 320 L 979 315 L 902 289 L 896 289 Z M 855 353 L 821 363 L 810 368 L 805 375 Q 804 382 807 386 Q 810 390 816 391 L 863 377 Q 867 374 869 368 L 867 360 Q 864 353 855 353 Z M 774 385 Q 752 393 737 408 L 727 419 L 728 428 Q 730 433 737 434 L 746 433 Q 760 418 780 409 Q 785 407 786 401 L 785 393 Q 782 386 774 385 Z M 706 447 L 703 448 Q 694 456 690 468 L 681 496 Q 680 504 683 508 L 691 512 Q 698 513 702 509 L 706 502 L 707 493 L 710 484 L 721 463 Q 722 456 719 453 Q 715 447 706 447 Z M 687 553 L 682 555 L 676 562 L 672 605 L 670 612 Q 669 618 672 621 L 681 626 Q 687 627 690 624 L 695 618 L 697 599 L 698 598 L 698 590 L 699 589 L 699 578 L 700 577 L 700 562 L 699 560 Q 696 553 687 553 Z M 665 658 L 660 660 L 655 666 Q 649 690 639 711 Q 638 717 641 720 L 651 725 L 658 724 L 664 717 L 680 672 L 678 664 L 671 658 L 665 658 Z M 620 760 L 618 761 L 613 766 L 589 810 Q 588 817 592 820 L 599 824 Q 606 825 610 822 Q 625 799 637 773 L 635 766 Q 632 758 620 760 Z M 560 854 L 557 855 L 518 900 Q 517 907 519 911 Q 522 915 529 917 L 536 916 Q 558 895 576 870 Q 577 863 574 860 L 567 854 L 560 854 Z M 478 937 L 451 959 L 435 970 L 428 978 Q 427 985 429 989 L 436 994 Q 444 995 448 992 L 487 962 Q 492 959 494 953 Q 495 945 491 942 L 485 937 L 478 937 Z M 381 1004 L 367 1012 L 332 1028 L 327 1036 Q 326 1043 330 1047 L 338 1051 L 345 1050 L 390 1028 Q 395 1026 396 1020 Q 397 1013 394 1010 L 387 1004 L 381 1004 Z M 159 1008 L 154 1010 L 103 1063 L 101 1064 L 95 1072 Q 94 1081 97 1085 L 156 1137 L 161 1139 Q 167 1140 171 1137 Q 175 1134 177 1128 Q 178 1121 175 1119 L 148 1094 L 142 1087 L 176 1087 L 177 1086 L 197 1086 L 200 1085 L 206 1078 L 205 1067 L 199 1061 L 158 1061 L 157 1062 L 142 1062 L 141 1061 L 155 1048 L 157 1045 L 171 1032 L 175 1025 Q 176 1017 173 1014 L 166 1008 L 159 1008 Z M 274 1048 L 261 1052 L 241 1055 L 234 1058 L 229 1067 Q 228 1073 231 1076 Q 234 1080 240 1081 L 265 1077 L 285 1071 Q 289 1068 290 1063 Q 291 1056 288 1054 Q 285 1046 274 1048 Z " /><path fill="rgb(149,132,216)" stroke="rgb(149,132,216)" stroke-width="1" opacity="1" d="M 895.5 289 L 901.5 289 L 978.5 315 L 984 319.5 Q 987.8 322.7 987 330.5 L 958 401.5 L 951.5 412 Q 948 416 938.5 414 L 931 407.5 L 930 397.5 L 948 354.5 L 946.5 354 L 925.5 363 L 907.5 368 L 899.5 368 L 892 361.5 Q 889.7 358.3 891 351.5 L 895.5 345 L 920.5 338 L 936 330.5 L 909.5 320 L 894.5 316 L 887 309.5 L 885 301.5 Q 886.1 294.1 891.5 291 L 895.5 289 Z " /><path fill="rgb(149,132,216)" stroke="rgb(149,132,216)" stroke-width="1" opacity="1" d="M 854.5 353 Q 864.3 352.7 867 359.5 L 869 367.5 Q 867.5 374 862.5 377 L 815.5 391 Q 809.8 389.8 807 385.5 Q 803.8 382.2 805 374.5 L 809.5 368 L 820.5 363 L 854.5 353 Z " /><path fill="rgb(149,132,216)" stroke="rgb(149,132,216)" stroke-width="1" opacity="1" d="M 773.5 385 Q 781.6 386.4 785 392.5 L 786 400.5 Q 784.6 406.6 779.5 409 Q 759.8 418.3 745.5 433 L 736.5 434 Q 730.4 432.6 728 427.5 L 727 418.5 L 736.5 408 Q 751.9 393.4 773.5 385 Z " /><path fill="rgb(149,132,216)" stroke="rgb(149,132,216)" stroke-width="1" opacity="1" d="M 705.5 447 Q 715.5 446.5 719 452.5 Q 722 455.5 721 462.5 L 710 483.5 L 707 492.5 L 706 501.5 L 701.5 509 Q 698.3 512.8 690.5 512 L 683 507.5 Q 679.7 503.8 681 495.5 L 690 467.5 Q 694.2 455.7 702.5 448 L 705.5 447 Z " /><path fill="rgb(149,132,216)" stroke="rgb(149,132,216)" stroke-width="1" opacity="1" d="M 686.5 553 Q 695.6 553.4 699 559.5 L 700 561.5 L 700 576.5 L 699 577.5 L 699 588.5 L 698 589.5 L 698 597.5 L 697 598.5 L 695 617.5 L 689.5 624 Q 686.6 626.6 680.5 626 L 672 620.5 Q 669.2 617.8 670 611.5 L 672 604.5 L 676 561.5 L 681.5 555 L 686.5 553 Z " /><path fill="rgb(149,132,216)" stroke="rgb(149,132,216)" stroke-width="1" opacity="1" d="M 664.5 658 L 670.5 658 L 678 663.5 L 680 671.5 L 664 716.5 L 657.5 724 L 650.5 725 L 641 719.5 Q 638.4 716.6 639 710.5 Q 649.1 690.1 655 665.5 L 659.5 660 L 664.5 658 Z " /><path fill="rgb(149,132,216)" stroke="rgb(149,132,216)" stroke-width="1" opacity="1" d="M 619.5 760 Q 631.7 758.3 635 765.5 L 637 772.5 Q 625.4 799.4 609.5 822 Q 606.2 825.2 598.5 824 L 592 819.5 Q 588.3 816.7 589 809.5 L 613 765.5 L 617.5 761 L 619.5 760 Z " /><path fill="rgb(149,132,216)" stroke="rgb(149,132,216)" stroke-width="1" opacity="1" d="M 559.5 854 L 566.5 854 L 574 859.5 Q 577 862.5 576 869.5 Q 557.9 894.9 535.5 916 L 528.5 917 Q 522 915.5 519 910.5 Q 516.5 907 518 899.5 L 556.5 855 L 559.5 854 Z " /><path fill="rgb(149,132,216)" stroke="rgb(149,132,216)" stroke-width="1" opacity="1" d="M 477.5 937 L 484.5 937 L 491 941.5 Q 494.8 944.7 494 952.5 Q 492.4 959.4 486.5 962 L 447.5 992 Q 443.8 995.3 435.5 994 L 429 988.5 Q 426.5 985 428 977.5 L 434.5 970 L 450.5 959 L 477.5 937 Z " /><path fill="rgb(149,132,216)" stroke="rgb(149,132,216)" stroke-width="1" opacity="1" d="M 380.5 1004 L 386.5 1004 L 394 1009.5 Q 396.7 1012.8 396 1019.5 Q 394.6 1025.6 389.5 1028 L 344.5 1050 L 337.5 1051 L 330 1046.5 Q 326.2 1043.3 327 1035.5 L 331.5 1028 L 366.5 1012 L 380.5 1004 Z " /><path fill="rgb(149,132,216)" stroke="rgb(149,132,216)" stroke-width="1" opacity="1" d="M 158.5 1008 L 165.5 1008 L 173 1013.5 Q 176.2 1016.8 175 1024.5 L 170.5 1032 L 157 1044.5 L 154.5 1048 L 141 1060.5 L 141.5 1062 L 156.5 1062 L 157.5 1061 L 198.5 1061 L 205 1066.5 L 206 1077.5 L 199.5 1085 L 196.5 1086 L 176.5 1086 L 175.5 1087 L 142 1087 L 147.5 1094 L 175 1118.5 Q 177.6 1121.4 177 1127.5 Q 175.5 1134 170.5 1137 Q 167.2 1139.7 160.5 1139 L 155.5 1137 L 97 1084.5 Q 93.5 1080.5 95 1071.5 L 100.5 1064 L 103 1062.5 L 153.5 1010 L 158.5 1008 Z " /><path fill="rgb(149,132,216)" stroke="rgb(149,132,216)" stroke-width="1" opacity="1" d="M 273.5 1048 Q 285.3 1046.2 288 1053.5 Q 290.6 1056.4 290 1062.5 Q 288.8 1068.3 284.5 1071 L 264.5 1077 L 239.5 1081 Q 233.8 1079.8 231 1075.5 Q 228.4 1072.6 229 1066.5 L 233.5 1058 L 240.5 1055 L 260.5 1052 L 273.5 1048 Z " /></svg>