<svg viewBox="0 0 1254 1254" version="1.1" xmlns="http://www.w3.org/2000/svg" desc="Created with imagetracer.js version 1.2.6" ><path fill="rgb(245,201,25)" stroke="rgb(245,201,25)" stroke-width="1" opacity="1" d="M 626.5 218 Q 631.8 217.2 633.5 220 Q 661.9 248.6 697.5 270 Q 730.2 290.3 768.5 305 L 797.5 315 L 835.5 325 L 880.5 333 L 889.5 333 L 890.5 334 L 909.5 335 L 910.5 336 L 922.5 336 L 923.5 337 L 935.5 337 L 944 343.5 L 947 350.5 L 947 584.5 L 946 585.5 L 946 599.5 L 945 600.5 L 945 610.5 L 944 611.5 L 943 626.5 L 937 657.5 L 927 693.5 L 913 729.5 Q 880.6 799.1 826.5 847 Q 784.9 883.9 735.5 913 L 658.5 955 L 631.5 968 L 625.5 968 Q 557.5 937.5 497.5 899 Q 442.6 864.9 400 818.5 Q 365.8 781.2 343 732.5 L 333 708.5 L 323 678.5 L 314 640.5 L 312 622.5 L 311 621.5 L 311 614.5 L 310 613.5 L 309 588.5 L 308 587.5 L 308 351.5 Q 309.4 343.9 314.5 340 L 317.5 338 L 326.5 336 L 344.5 336 L 345.5 335 L 365.5 334 L 366.5 333 L 380.5 332 L 419.5 325 L 457.5 315 L 492.5 303 L 536.5 283 L 567.5 265 Q 599.8 244.3 626.5 218 Z M 627 286 Q 604 305 577 320 L 544 337 L 503 354 L 463 367 L 431 375 L 385 383 L 368 384 L 363 386 L 358 394 L 358 591 L 359 592 L 359 605 L 361 614 L 361 621 L 366 649 Q 386 735 438 790 Q 467 821 504 846 Q 560 885 626 915 L 631 915 L 656 903 L 724 865 Q 760 842 793 814 Q 838 774 866 717 L 876 693 L 887 657 L 893 627 L 895 604 L 896 603 L 896 592 L 897 591 L 897 393 L 896 390 L 889 384 L 863 382 L 804 370 L 751 353 L 711 336 L 686 323 Q 656 307 632 287 L 627 286 Z " /><path fill="rgb(245,201,25)" stroke="rgb(245,201,25)" stroke-width="1" opacity="1" d="M 626.5 320 L 630.5 320 Q 652.8 336.7 678.5 350 L 731.5 375 L 770.5 389 L 798.5 397 L 802.5 397 L 830.5 404 L 859.5 408 L 866 413.5 L 868 417.5 L 868 580.5 L 867 581.5 L 867 596.5 L 866 597.5 L 864 621.5 L 859 647.5 L 854 665.5 L 842 698.5 Q 820.3 746.8 785.5 782 Q 783.3 781.3 784 783.5 L 750.5 813 L 705.5 844 L 658.5 871 L 632.5 884 L 625.5 885 L 561.5 851 L 522.5 826 Q 487 802.5 459 771.5 Q 432.7 742.3 415 704.5 L 400 664.5 L 394 640.5 L 390 617.5 L 390 611.5 L 389 610.5 L 389 604.5 L 388 603.5 L 388 592.5 L 387 591.5 L 387 418.5 L 392.5 410 L 399.5 407 L 413.5 406 L 453.5 398 L 457.5 396 L 475.5 392 L 516.5 378 L 549.5 364 L 579.5 349 L 626.5 320 Z M 629 363 Q 585 390 536 410 L 490 426 Q 476 428 465 433 L 428 440 L 424 445 L 424 570 L 423 571 L 426 613 L 431 640 L 439 668 Q 456 713 485 747 Q 511 774 543 796 L 595 828 L 628 845 Q 694 814 747 769 Q 774 745 794 713 L 809 684 L 820 653 L 827 622 L 829 601 L 830 600 L 830 589 L 831 588 L 831 444 L 825 439 L 805 436 L 773 428 L 726 412 Q 673 392 629 363 Z " /><path fill="rgb(245,201,25)" stroke="rgb(245,201,25)" stroke-width="1" opacity="1" d="M 746.5 523 L 747.5 525 L 746.5 523 Z " /><path fill="rgb(245,201,25)" stroke="rgb(245,201,25)" stroke-width="1" opacity="1" d="M 751.5 550 L 730.5 572 L 751.5 550 Z " /><path fill="rgb(245,201,25)" stroke="rgb(245,201,25)" stroke-width="1" opacity="1" d="M 723.5 578 L 722.5 580 L 723.5 578 Z " /><path fill="rgb(245,201,25)" stroke="rgb(245,201,25)" stroke-width="1" opacity="1" d="M 506.5 590 L 504.5 593 L 506.5 590 Z " /><path fill="rgb(245,201,25)" stroke="rgb(245,201,25)" stroke-width="1" opacity="1" d="M 531.5 591 L 538.5 599 L 531.5 591 Z " /><path fill="rgb(245,201,25)" stroke="rgb(245,201,25)" stroke-width="1" opacity="1" d="M 653.5 596 L 652.5 598 L 653.5 596 Z " /><path fill="rgb(245,201,25)" stroke="rgb(245,201,25)" stroke-width="1" opacity="1" d="M 540.5 600 L 564.5 625 L 540.5 600 Z " /><path fill="rgb(245,201,25)" stroke="rgb(245,201,25)" stroke-width="1" opacity="1" d="M 648.5 601 L 647.5 603 L 648.5 601 Z " /><path fill="rgb(245,201,25)" stroke="rgb(245,201,25)" stroke-width="1" opacity="1" d="M 645.5 604 L 644.5 606 L 645.5 604 Z " /><path fill="rgb(245,201,25)" stroke="rgb(245,201,25)" stroke-width="1" opacity="1" d="M 637.5 612 L 630.5 620 L 637.5 612 Z " /><path fill="rgb(245,201,25)" stroke="rgb(245,201,25)" stroke-width="1" opacity="1" d="M 625.5 624 L 619.5 631 L 625.5 624 Z " /><path fill="rgb(245,201,25)" stroke="rgb(245,201,25)" stroke-width="1" opacity="1" d="M 617.5 632 L 596.5 654 L 617.5 632 Z " /><path fill="rgb(245,201,25)" stroke="rgb(245,201,25)" stroke-width="1" opacity="1" d="M 555.5 666 L 583.5 695 L 555.5 666 Z " /><path fill="rgb(245,201,25)" stroke="rgb(245,201,25)" stroke-width="1" opacity="1" d="M 632.5 668 L 629.5 672 L 632.5 668 Z " /><path fill="rgb(245,201,25)" stroke="rgb(245,201,25)" stroke-width="1" opacity="1" d="M 623.5 677 L 620.5 681 L 623.5 677 Z " /><path fill="rgb(245,201,25)" stroke="rgb(245,201,25)" stroke-width="1" opacity="1" d="M 617.5 683 L 606.5 695 L 617.5 683 Z " /><path fill="rgb(245,201,25)" stroke="rgb(245,201,25)" stroke-width="1" opacity="1" d="M 585.5 695 L 586.5 697 L 585.5 695 Z " /><path fill="rgb(245,201,25)" stroke="rgb(245,201,25)" stroke-width="1" opacity="1" d="M 593.5 698 L 598 698.5 L 593.5 699 L 593.5 698 Z " /><path fill="rgb(0,0,0)" stroke="rgb(0,0,0)" stroke-width="1" opacity="0" d="M 0 0 L 1254 0 L 1254 1254 L 0 1254 L 0 0 Z M 627 218 Q 600 244 568 265 L 537 283 L 493 303 L 458 315 L 420 325 L 381 332 L 367 333 L 366 334 L 346 335 L 345 336 L 327 336 L 318 338 L 315 340 Q 309 344 308 352 L 308 588 L 309 589 L 310 614 L 311 615 L 311 622 L 312 623 L 314 641 L 323 679 L 333 709 L 343 733 Q 366 781 400 819 Q 443 865 498 899 Q 558 937 626 968 L 632 968 L 659 955 L 736 913 Q 785 884 827 847 Q 881 799 913 730 L 927 694 L 937 658 L 943 627 L 944 612 L 945 611 L 945 601 L 946 600 L 946 586 L 947 585 L 947 351 L 944 344 L 936 337 L 924 337 L 923 336 L 911 336 L 910 335 L 891 334 L 890 333 L 881 333 L 836 325 L 798 315 L 769 305 Q 730 290 698 270 Q 662 249 634 220 Q 632 217 627 218 Z " /><path fill="rgb(0,0,0)" stroke="rgb(0,0,0)" stroke-width="1" opacity="0" d="M 626.5 286 L 631.5 287 Q 656.2 307.2 685.5 323 L 710.5 336 L 750.5 353 L 803.5 370 L 862.5 382 L 888.5 384 L 896 389.5 L 897 392.5 L 897 590.5 L 896 591.5 L 896 602.5 L 895 603.5 L 893 626.5 L 887 656.5 L 876 692.5 L 866 716.5 Q 838 774 792.5 814 Q 760.5 842 723.5 865 L 655.5 903 L 630.5 915 L 625.5 915 Q 560.1 884.9 503.5 846 Q 467.2 821.3 438 789.5 Q 386.2 734.8 366 648.5 L 361 620.5 L 361 613.5 L 359 604.5 L 359 591.5 L 358 590.5 L 358 393.5 L 362.5 386 L 367.5 384 L 384.5 383 L 430.5 375 L 462.5 367 L 502.5 354 L 543.5 337 L 576.5 320 Q 603.5 305 626.5 286 Z M 627 320 L 580 349 L 550 364 L 517 378 L 476 392 L 458 396 L 454 398 L 414 406 L 400 407 L 393 410 L 387 419 L 387 592 L 388 593 L 388 604 L 389 605 L 389 611 L 390 612 L 390 618 L 394 641 L 400 665 L 415 705 Q 433 742 459 772 Q 487 802 523 826 L 562 851 L 626 885 L 633 884 L 659 871 L 706 844 L 751 813 L 784 784 Q 783 781 786 782 Q 820 747 842 699 L 854 666 L 859 648 L 864 622 L 866 598 L 867 597 L 867 582 L 868 581 L 868 418 L 866 414 L 860 408 L 831 404 L 803 397 L 799 397 L 771 389 L 732 375 L 679 350 Q 653 337 631 320 L 627 320 Z " /><path fill="rgb(0,0,0)" stroke="rgb(0,0,0)" stroke-width="1" opacity="0" d="M 628.5 363 Q 673 391.5 725.5 412 L 772.5 428 L 804.5 436 L 824.5 439 L 831 443.5 L 831 587.5 L 830 588.5 L 830 599.5 L 829 600.5 L 827 621.5 L 820 652.5 L 809 683.5 L 794 712.5 Q 774.1 744.6 746.5 769 Q 694.2 814.2 627.5 845 L 594.5 828 L 542.5 796 Q 510.5 774.5 485 746.5 Q 455.6 713.4 439 667.5 L 431 639.5 L 426 612.5 L 423 570.5 L 424 569.5 L 424 444.5 L 427.5 440 L 464.5 433 Q 475.6 428.1 489.5 426 L 535.5 410 Q 585.4 389.9 628.5 363 Z M 733 521 L 728 523 L 654 596 L 652 599 L 647 603 Q 648 605 646 604 L 644 607 L 638 612 L 630 621 L 626 624 L 619 632 L 618 632 L 596 654 L 541 600 Q 538 601 539 599 L 528 588 L 522 586 Q 511 585 507 590 L 500 601 Q 499 609 502 614 L 584 695 L 594 699 L 598 699 L 607 695 L 723 580 L 724 578 L 731 572 L 752 551 L 755 545 Q 756 535 753 530 Q 748 520 733 521 Z " /><path fill="rgb(249,249,251)" stroke="rgb(249,249,251)" stroke-width="1" opacity="1" d="M 734.5 521 L 743.5 522 L 752 528.5 Q 756.1 533 755 542.5 L 752 549.5 L 633.5 668 L 629 671.5 L 624.5 677 L 620 680.5 L 618.5 683 L 604.5 696 Q 599.9 698.9 591.5 698 L 584.5 695 L 503 614.5 L 500 602.5 Q 501.8 593.3 508.5 589 Q 512.8 585.8 520.5 586 L 528.5 589 L 594.5 654 L 596.5 654 L 726.5 524 L 734.5 521 Z " /></svg>