<svg viewBox="0 0 1254 1254" version="1.1" xmlns="http://www.w3.org/2000/svg" desc="Created with imagetracer.js version 1.2.6" ><path fill="rgb(0,0,0)" stroke="rgb(0,0,0)" stroke-width="1" opacity="0" d="M 0 0 L 1254 0 L 1254 1254 L 0 1254 L 0 0 Z M 606 130 L 605 131 L 591 131 L 590 132 L 571 133 L 570 134 L 550 136 L 529 140 L 484 152 L 453 163 Q 370 197 309 253 Q 236 319 191 413 L 174 454 L 162 491 L 149 551 L 149 558 L 146 574 L 146 584 L 145 585 L 145 599 L 144 600 L 144 654 L 145 655 L 145 669 L 146 670 L 146 679 L 147 680 L 149 702 L 154 730 L 162 763 L 174 800 Q 211 898 277 969 Q 342 1040 437 1083 L 488 1102 L 531 1113 L 559 1118 L 565 1118 L 566 1119 L 573 1119 L 574 1120 L 596 1121 L 597 1122 L 619 1122 L 620 1123 L 659 1122 L 660 1121 L 681 1120 L 682 1119 L 709 1116 L 754 1106 L 797 1092 Q 888 1056 954 993 Q 1021 930 1063 843 L 1084 792 L 1097 748 L 1107 697 L 1108 682 L 1109 681 L 1109 670 L 1110 669 L 1110 655 L 1111 654 L 1111 600 L 1110 599 L 1110 585 L 1109 584 L 1109 574 L 1108 573 L 1106 551 L 1095 498 L 1083 459 Q 1043 350 970 276 L 968 274 L 962 267 L 961 267 Q 942 247 921 231 L 889 208 Q 849 182 803 163 L 752 146 L 712 137 L 694 135 L 693 134 L 686 134 L 685 133 L 678 133 L 677 132 L 666 132 L 665 131 L 650 131 L 649 130 L 606 130 Z " /><path fill="rgb(0,0,0)" stroke="rgb(0,0,0)" stroke-width="1" opacity="0" d="M 612.5 166 L 660.5 167 L 661.5 168 L 688.5 170 L 712.5 175 L 717.5 175 L 759.5 186 L 802.5 202 Q 893.6 242.9 956 312.5 Q 1018.2 379.8 1052 475.5 L 1066 526.5 L 1073 566.5 L 1074 584.5 L 1075 585.5 L 1075 598.5 L 1076 599.5 L 1076 655.5 L 1075 656.5 L 1075 668.5 L 1074 669.5 L 1074 678.5 L 1073 679.5 L 1071 700.5 L 1062 743.5 L 1049 785.5 L 1030 830.5 Q 991.3 909.3 930.5 966 Q 867.1 1027.1 776.5 1061 L 725.5 1076 L 686.5 1083 L 670.5 1084 L 669.5 1085 L 656.5 1085 L 655.5 1086 L 600.5 1086 L 599.5 1085 L 586.5 1085 L 585.5 1084 L 561.5 1082 L 517.5 1073 L 475.5 1060 L 437.5 1044 Q 359.2 1005.3 303 944.5 Q 272.3 911.7 248 872.5 L 224 828.5 L 206 785.5 L 190 730.5 L 182 686.5 L 181 668.5 L 180 667.5 L 180 655.5 L 179 654.5 L 179 600.5 L 180 599.5 L 180 587.5 L 181 586.5 L 181 577.5 L 182 576.5 L 182 568.5 L 185 554.5 L 185 548.5 L 195 502.5 Q 206.3 461.8 223 426.5 Q 262.7 342.7 327.5 284 Q 383.3 231.3 459.5 199 L 495.5 186 L 537.5 175 L 559.5 171 L 572.5 170 L 573.5 169 L 582.5 169 L 593.5 167 L 611.5 167 L 612.5 166 Z M 517 390 Q 508 391 504 396 L 497 405 L 494 416 L 494 841 L 496 849 L 500 856 Q 505 862 515 865 L 527 865 L 537 861 L 793 693 L 858 652 Q 867 645 870 633 L 870 622 L 865 610 L 857 601 L 839 589 L 543 398 L 529 391 L 517 390 Z " /><path fill="rgb(251,250,251)" stroke="rgb(251,250,251)" stroke-width="1" opacity="1" d="M 605.5 130 L 648.5 130 L 649.5 131 L 664.5 131 L 665.5 132 L 676.5 132 L 677.5 133 L 684.5 133 L 685.5 134 L 692.5 134 L 693.5 135 L 711.5 137 L 751.5 146 L 802.5 163 Q 849.2 181.8 888.5 208 L 920.5 231 Q 942.1 247.4 960.5 267 L 962 267 L 967.5 274 L 970 275.5 Q 1043.3 350.2 1083 458.5 L 1095 497.5 L 1106 550.5 L 1108 572.5 L 1109 573.5 L 1109 583.5 L 1110 584.5 L 1110 598.5 L 1111 599.5 L 1111 653.5 L 1110 654.5 L 1110 668.5 L 1109 669.5 L 1109 680.5 L 1108 681.5 L 1107 696.5 L 1097 747.5 L 1084 791.5 L 1063 842.5 Q 1020.8 930.3 953.5 993 Q 888.2 1055.7 796.5 1092 L 753.5 1106 L 708.5 1116 L 681.5 1119 L 680.5 1120 L 659.5 1121 L 658.5 1122 L 619.5 1123 L 618.5 1122 L 596.5 1122 L 595.5 1121 L 573.5 1120 L 572.5 1119 L 565.5 1119 L 564.5 1118 L 558.5 1118 L 530.5 1113 L 487.5 1102 L 436.5 1083 Q 342.4 1040.1 277 968.5 Q 211.3 898.2 174 799.5 L 162 762.5 L 154 729.5 L 149 701.5 L 147 679.5 L 146 678.5 L 146 669.5 L 145 668.5 L 145 654.5 L 144 653.5 L 144 599.5 L 145 598.5 L 145 584.5 L 146 583.5 L 146 573.5 L 149 557.5 L 149 550.5 L 162 490.5 L 174 453.5 L 191 412.5 Q 235.5 318.5 308.5 253 Q 369.6 197.1 452.5 163 L 483.5 152 L 528.5 140 L 549.5 136 L 569.5 134 L 570.5 133 L 589.5 132 L 590.5 131 L 604.5 131 L 605.5 130 Z M 613 166 L 612 167 L 594 167 L 583 169 L 574 169 L 573 170 L 560 171 L 538 175 L 496 186 L 460 199 Q 383 231 328 284 Q 263 343 223 427 Q 206 462 195 503 L 185 549 L 185 555 L 182 569 L 182 577 L 181 578 L 181 587 L 180 588 L 180 600 L 179 601 L 179 655 L 180 656 L 180 668 L 181 669 L 182 687 L 190 731 L 206 786 L 224 829 L 248 873 Q 272 912 303 945 Q 359 1005 438 1044 L 476 1060 L 518 1073 L 562 1082 L 586 1084 L 587 1085 L 600 1085 L 601 1086 L 656 1086 L 657 1085 L 670 1085 L 671 1084 L 687 1083 L 726 1076 L 777 1061 Q 867 1027 931 966 Q 991 909 1030 831 L 1049 786 L 1062 744 L 1071 701 L 1073 680 L 1074 679 L 1074 670 L 1075 669 L 1075 657 L 1076 656 L 1076 600 L 1075 599 L 1075 586 L 1074 585 L 1073 567 L 1066 527 L 1052 476 Q 1018 380 956 313 Q 894 243 803 202 L 760 186 L 718 175 L 713 175 L 689 170 L 662 168 L 661 167 L 613 166 Z " /><path fill="rgb(251,250,251)" stroke="rgb(251,250,251)" stroke-width="1" opacity="1" d="M 516.5 390 L 528.5 391 L 542.5 398 L 838.5 589 L 856.5 601 L 865 609.5 L 870 621.5 L 870 632.5 Q 866.7 645.2 857.5 652 L 792.5 693 L 536.5 861 L 526.5 865 L 514.5 865 Q 505.3 862.2 500 855.5 L 496 848.5 L 494 840.5 L 494 415.5 L 497 404.5 L 503.5 396 Q 508.3 391.3 516.5 390 Z " /></svg>