<svg viewBox="0 0 1657 1553" xmlns="http://www.w3.org/2000/svg"><path fill="#4b8e11" stroke="#4b8e11" d="m840.5 143 13 2 9 4 38 29q19.9 11.1 37 25l10 5 17 12 11 5 3 3 42 21 28 12 6 1 4 3 6 1 7 4 6 1 16 7 7 1 5 3 8 1 5 3 9 1 6 3 9 1q7.1 4.9 19 5l6 3q11 0 18 4l12 1 8 3 18 2 5 2 12 1 12 3 23 2 6 2 57 3 11 3 8 4 10.5 8 9 13.5 3 7 4 21-1 1-1 199-1 1v21l-1 1v34l-1 1v15l-1 1-1 43-1 1v15l-1 1-1 23-1 1v10l-1 1v12l-3 16-1 18-3 13-2 22-3 11v7l-3 9-1 13-3 8-2 14-3 7-1 9-3 7-6 24-2 3-1 7-3 6-2 10-17 46-24 55-37 65-26 38-21 27.5q-2.7-1.1-2 1.5l-19.5 23.5-2.5 1.5-41.5 43.5-19 18h-1.5l-1.5 3-12.5 10.5q.8 2.3-1.5 1.5l-51 42-4.5 2q1.1 2.7-1.5 2l-3.5 2.5q.8 2.3-1.5 1.5l-24 18-49 32-60 34-26 13-27 11q-8.7 2.8-22 1l-24-9-34-17q-13-10-30-16l-25-16-4-1-63-41-51.5-39.5q.8-2.2-1.5-1.5l-3.5-2q1.1-2.7-1.5-2l-38.5-32.5q.8-2.2-1.5-1.5l-9-9H545l-2.5-4-2.5-1.5-2.5-3.5q-2.2.8-1.5-1.5l-4-3-1.5-2.5-3.5-2.5q.8-2.2-1.5-1.5l-2.5-4-4-2.5-1.5-2.5-2.5-1.5-1.5-2.5-2.5-1.5-9.5-11.5-2.5-1.5-29-35-2-4.5q-2.7 1.1-2-1.5l-2-3.5q-2.7 1.1-2-1.5l-21-28-25-40-1-4-12-19-5-12-3-3q-6.8-19.2-17-35l-1-6-3-4q-.3-6.2-4-9l-1-6-7-13-1-7-12-29-1-8-3-5-2-11-2-2-1-9-3-6-1-9-4-10q.2-10.7-4-17v-6l-4-13-1-11-3-8-1-13-3-8-1-14-4-18v-10l-4-20-1-23-3-16-1-34-1-1v-10l-2-11v-32l-1-1v-25l-1-1-1-44-1-1-2-187 1-1 1-11q3.5-3.5 4-10l4-8 10.5-12.5 6-5 22-9h15l1-1h12l8-2 26-1 15-3 15-1 9-3 20-2 9-3 11-1q7-4 18-4l7-3 11-1 6-3 9-1 6-3 13-2 6-3 8-1 5-3 7-1q6-4 15-5l2-2 9-2 2-2 6-1 7-4 6-1 2-2 27-10 20-11 31-14 64-38 22-16h2l26-20 7-4zm5.5 3-4 1v1h8zm11 4-2 2 3 1q3 1 2-2zm6 4-1 4 2 2-5-1-5 3q-6-1-9 2h6l2 4 8 5 1 3 15 7 16 11 1 3 4 2 4 6 2 7 25 12 5 1 12 8q2-1 1 2l4 1 11 9 34 18h3l19 7 4 3q6 0 9 4h3l6 4 6 1 4 3 11 4 8 1 13 7 9 2 5 3 7 1 5 3 8 1 5 3 11 1 6 3 10 1 7 3 15 1 15 4h9l9 4h8l10 4 15 1 9 3 38 2 5 2h23l1 1 20 1q2 3 9 3l6 5 8 11 2 9v8l1 1v19l-1 1v11l2 11v26l-1 1v27l1 1-1 2 1 4-1 2v105l-1 1v16l-1 1v34l-1 1v21l-2 11v17l-1 1v23l-1 1-2 34-1 1v12l-5 27-3 32-5 17-1 14q-4 8-4 20l-3 8-1 12-5 10v3l-2 2-2 10-3 6 1 2-2 11-8 18v3l-4 1-1 3-1-2-3-3-4 1-3 4q-2-2-3 1l-6-1q-5 2-3 9l6 1h9l1-1q2 1 1-3l4-1 2 1-3 2 1 3-1 11-2 7-7 14-3 3-1 4-3 3-1 9q-4 3-4 11l-13 22q1 2-1 1-4 1-3 7l-4 5v4l-4 6v3l-12 17-7 18-11 12-8 17-12 14q1 2-1 1l-23 29-6 5h-2l-2 3-4-3-3 3q1 7-2 11l-10 13-2 5-9 8-3 4-7 2-2 5-3 1-2 3-5 3-2 6-12 10h-4l-2 4q-3-1-2 3l-3 1-2 4q-3-1-4 2l-13-1-3-2h-2q-6 1-8-2l-2-2q-1-3-5-2-3-1-1-2-1-3 2-2l2-6q-2-6 2-5 5-3 6-9l19-13 3-4q3 1 2-1l5-4q-1-4 3-3l8-13q2 1 1-2l3-2 3-5 5-4 1-2 9-6 20-23 3-2 10-12 9-17q-1-4 2-3l2-4 3-2 2-5 11-17 3-2 1-2 11-10 5-2v-3l5-8 1-6 3-3 1-6 4-6v-3l5-10 3-3 1-5 4-4q-1-4 2-3l1-1 1-6 12-22 5-13v-3l11-21 1-10q4-4 4-11l4-6 1-5 3-2q2-6 1-17l3-6 1-12 4-13v-6l2-2 2-8v-14q4-9 4-21l3-5 1-20 3-8 1-16 3-11 2-35 2-8v-10l1-1 1-43 3-17v-59l1-1 1-35 1-1v-67l1-1-1-3v-49l1-1v-34q-4-3-4-9l-6-7-8-4-18-1-14-4h-12l-11-4h-7l-2-2-8-2q-8-1-11 3h-18l-10-2q-7-1-10 2l9 1h12l5 4 21 1 6 3 40 1 5 3h25l1 1q3-1 1 3l3 2q-1 3 2 2l5 11v11l-1 1v19l1 1v30l-2 8v12l-1 1v103l-1 1v37l-1 1v10l-2 6v30l-1 1v17l-1 1v17l-2 4-2 39-3 8-1 21-3 9v12l-4 11-1 14-3 6-1 13-3 5-1 10q-5 7-5 20l-2 3-1 8-4 9q0 8-4 13l-1 8-3 5-1 7q-4 3-4 11l-4 7v3l-8 18-1 6-3 4-1 6-12 24-1 5-3 3-13 27-3 3-1 4-3 3-10 19-3 1v3l-14 21q1 2-1 1-9 16-21 29-3-1-2 3l-3 1-1 4-13 16-3 1-1 3q1 2-1 1l-8 10-2 1-2 3-3 1-2 4q1 2-1 1l-2 3-2 1-2 4-2 1-2 3-2 1-2 3-2 1-3 4-6 4-2 3-2 1-2 3-2 1-3 4h-1l-10 10q-3-1-2 2l-13 10-2 3-3 1-2 3-9 6-2 3-3 1-16 13q-3-1-2 2l-3 1-29 22q-3-1-2 2-6 1-9 6-4-1-3 2l-20 13-4 1-3 3-26 14-3 3-4 1-17 11-26 13-5 1-6 4h-3l-5 4-9 1v5q5 5 6 15v13l-2 10 1 4q1 6-2 9v5l2 7-5 1h-10l-2 2q3 3 12 1l3 3 4 1h5l6-3 8-1 6-4h4l6-4 6-1 3-3 4-1q3 1 2-1l5-3q4 1 3-1l8-4q2 1 1-2l6-1 3-3 12-6q2 1 1-2l7-2 3-3 5-1 1-3 6-1 4-4h2l7-5q2 1 1-1l5-3q2 1 1-1l4-3q5 2 3-3l5-1 1-3 3-1q4 2 3-2 1-3 5-2l4-4h3l4-4 4-1 1-3 4-1q2 1 1-1l9-7h2l1-2 4-2 1-2 9-7q3 1 2-1l4-3q2 1 1-1l5-3 1-3 6-2q-1-5 4-3l1-2q-1-3 3-2l1-2 4-3q2 1 1-1l4-3q3 1 2-1 1-4 5-3l3-4q4 1 2-3l4-1 1-3 8-6q2 1 1-1l6-4q-1-5 4-3v-2l4-2 1-4 4-1q-1-4 3-3l1-4 4-1q-1-4 3-3l1-2 4-3q2 1 1-3l3-1q2 1 1-2l4-2 2-4q3 1 2-2l4-2q-1-4 3-5 2 1 1-2l4-2 2-4q3 1 2-2l4-2 1-2q-1-3 2-2l2-3 3-2 5-6q-1-3 2-2v-2h2l1-5 4-2q-1-4 3-3l1-3 3-2q1-6 6-8-1-5 3-3l1-3 3-2q3-8 9-13v-2l3-2 2-4q-1-4 2-3l1-3 3-2 2-5 3-2 1-2q-1-4 2-3l3-5q-1-3 2-2l1-4 3-2 2-5q-1-3 2-2l5-8 1-4 3-3 1-5 3-2 2-6 11-17 1-5 3-3 1-6 3-3 2-8q-1-3 2-2l2-7q-1-3 2-2l1-6q5-4 5-11l3-3 1-7 3-3 1-7 3-4 1-7 3-4 1-7 4-7 1-8 3-4 1-9 3-4 1-9 3-4 1-9 3-5q0-9 4-14l1-11 4-10q0-12 4-19l1-15 3-7 1-17 3-9 1-21q3-2 1-7l2-3v-9l1-1 1-24 2-4 2-43 2-9v-13l1-1 1-66 1-1 1-28 1-1V477l1-1V370l-5-16-5-9-4-4q1-4-2-3l-2-2-5-3-2-3q-7 0-11-5-7 2-8-1h-23l-5-2h-10l-1-1h-19l-1-1h-8l-8-3-21-1-5-3h-22l-1 4h-17l-5-1-3-2q-1-3 7-2h17v-3l-18-1-2-3-16-1-7-4h-7l-8-4-10-1-4-3h-7l-5-1-3-3-12-1-2-3-12-1-2-3-10-1-2-3-8-2q-3 1-2-2l-7-1-5-4-7-1-3-3-8-1-3-3-8-2q-3 1-2-2l-8-1-2-3-3-1q-6 2-5-1-1-4-7-3l-2-2-6-3q-3 1-2-1l-1-2-6-1-2-3-6-1-2-3-6-1-2-2q-1-3-4-2l-4-4h-3l-2-2-4-3q-5 1-3-3l-4-1-2-3-4-1-4-4h-2l-10-8h-2l-4-4-6-2q1-4-3-2l-3-4-5-1-2-2-3-2-2-3-4-2q-3 1-2-1l-3-3q-3 1-2-1l-3-2-2-2-5-4q-3 1-2-2l-4-1-2-3zm-25 16-21 13-39 29-38 24-57 30-23 9-2 2-5 1-20 10q-4-1-3 2 10 1 17-2l3 1h11l11-3q15-10 35-16l48-25 11-4 19-10 37-27 11-12 5-14 4-4 4-1q3 1 2-2zm-83 27v1h4zm-6 4 1 2 2-1zm-7 4v1h3zm152 7-1 1q-7-2-6 2l7 1q5 2 7-1 2 1 1-2-2-2-8-1Zm-52 11-2 4h5v-1zm28 2-1 1q-4-1-3 2l-7 3-10-2 1 2q5-2 3 4h4l5 4h4l-1-4h-3l12-8q-1-3-4-2Zm-32 6q-12 5-21 13h-2l-2 3-5 2-33 24-4 1-3 3-4 1-3 3-4 1-3 3q-10 2-15 8l-14 6-3 3q-6 0-8 4l-6 1-3 3-16 8-5 1-6 4h-3l-6 4-6 1-4 3-6 1-4 3-9 2-2 2q-10 0-15 5l-9 1-5 3-10 1-5 3-9 1-4 3-10 1-5 3-5 1-12 1-2 2-5 1h-8l-13 4-17 1-3 2q-5-1-6 1h-13l-12 4-18 1-7 3-36 1-10 3h-27l4-3h6l11-3 19-1 1-1 16-1 1-1h11l1-1h11l8-3q2 1 1-2l3-1-7-3-30 1-1 1-70 1-5 1-6 4-5 8 1 11 1 1 1 26 1 3 6 2 3 2 1-1q-1-5 1-6v-15l-1-1 3-9 1 5v14l-1 1 1 2 1 155 1 1 1 16 1 1 1 51 1 1v10l2 6 1 40 1 1v10l2 5 2 35 3 11 1 22 3 10 1 18 3 10 2 19 2 3 1 13 3 5 1 11 4 10 1 10 2 2 1 8q5 5 5 15l3 5 1 8 3 4 1 8 3 4 1 7 4 7 5 15 3 4 1 6 3 3 1 5 8 14 1 5 13 26 3 3 4 10 4 5 1 4 7 9 10 18 33 46 17 21q-1 2 2 1l23 28q-1 2 2 1l2 4 3 1v2l13 13q-1 2 2 1l2 4 3 1 4 5q2-1 1 2l3 1 2 4 7 5q2-1 1 2l40 34 40 30h2l16 12 5 2 7 6 5 2 28 19 6 2 3 3 42 24 28 14h3l4 3h7l6-4 11-4 34-17 3-3 4-1 43-25 49-33 64-50 1-3q10-6 18-15 2 1 1-1l3-2 2-4h2l24-24q-1-3 2-2l6-8 17-18q-1-3 2-2l11-14q-1-3 2-2l2-3q-1-3 2-2l43-61 34-63 4-11 3-4 1-5 3-4 2-8 7-15 1-6 2-2q1-9 5-13l21-69 16-76 3-32 3-15v-11l3-16 1-34 2-10v-15l1-1 1-50 1-1v-24l1-1v-28l1-1v-73l1-2v-84l-5-9-11-6-42-2-16-3-19-1-11-3-16-1-7-3-14-1-7-3-12-1-7-3-11-1q-8-4-18-4l-6-3-13-2-5-3h-4q-7-4-16-5l-5-3-7-1q-4-4-11-4l-4-3-9-2-2-2-28-10-51-25-3-3-13-6-33-20-58-41zm29 9-1 2 3 1zm13 9-2 2h4l3 5q3-1 2 2l6 3 1 3 4 1q2-1 1 2l32 20q2-1 1 2h3l15 9 20 9 3 3 5 1 3 3 10 5h3l15 8h3l7 4 6 1 4 3 6 1 4 3 7 1 4 3q9 0 15 5l7 1 4 3 9 1 3 3h6l8 4q8-1 13 2 2-1 1 2l7 1h11l4 3h11l1 1q3 1 4-1l-6-3h-5l-7-4-8-1-5-3-8-1-12-4h-5l-9-4h-5q-6-5-15-5-4-3-10-4l-3-3-5-1-4-4h-2l-7-5q-4 1-3-2l-2-1-12-1-11-6-19-6-27-13-17-11-4-1-2-2-4-3q-3 1-2-1l-5-3q-3 1-2-2l6-1q1-3-1-2l-5-6q-2-5-8-5h-2l-4-2q-6-1-7 2h-6l-3-3-6-1-3-3h-3zm-244 10v1h3zm-45 17v1h5zm-11 4v1h2zm-14 4v1h2zm-216 38v1h3zm6 0v1h12zm-40 12v2l3-1zm-4 4v3l2-1q1-3-2-2Zm313 0v1h6zm-304 19-3 4-4 1q-1 8 3 12l1-9 3-3zm840 13-1 2h12zm127 547-2 5 1 5 4-2-1-6h-1zm6 3v2q-4 1 0 3 6 2 4-3zm14 5 1 2q1-3-1-2Zm-38 38v6h3q2-1 0-2 2-6-3-4Zm-828 45-2 2 1 2h1zm31 62 2 4q2 1 1-2zm4 6q-1 5 3 6v-4zm6 7-2 3 3 2q2-6-1-5Zm4 6q-3 6 1 5 1-4-1-5Zm5 6-2 1v2q-1 2 2 1zm4 5-2 2 1 4h1zm4 8q-3 2 0 3 3-1 0-3Zm3 5v2q-1 2 2 1 2-4-2-3Zm8 12v2l2 1q1-4-2-3Zm5 5v3h1q1-4-1-3Zm5 6-1 4 2-1zm4 5-2 3 3 1zm2 5v3l12 17q-1 2 3 1v3l4 2 1 3 6 3 2 2q1-4-1-5-5 1-3-3l-3-2-1-3-3-2-6-8-2-2-2-4-4-1q2-6-3-4Zm29 34v1q2-1 1 2h1q1-4-2-3Zm5 6v3l4 1-2-2q1-3-2-2Zm4 4v3l6 6q3-1 2 3l4 1-2-4-2-2-2-2-4-3q1-3-2-2Zm14 13q-4 2 1 4 3-2-1-4Zm3 5v2l2 1q1-4-2-3Zm6 4q-3 2 0 3 3-1 0-3Zm3 5 2 2q1-3-2-2Zm5 3-2 3 4 1zm4 3-2 4 3 1 4 5q2-1 1 2 5 6 14 9l1 1q1-4-2-3l-2-4-2-1q-3 1-2-3l-2-1q-3 1-2-3h-2l-3-4-4-1zm25 23-2 2h3zm13 13q-1 2 2 1l2 2q1-5-4-3Zm5 4 3 3q2-4-3-3Zm5 4 3 3q2-4-3-3Zm5 4q-1 3 3 2 1 2 2 0zm7 5q-1 2 3 2 1-3-3-2Zm7 3-3 2 3 1q3-1 0-3Zm4 5v1h4zm-99 3q-2 3 1 2zm105 1q-1 3 3 2 1-3-3-2Zm5 4v2h3zm8 5 1 1 1 1q1-3-2-2Zm11 8 1 1q1 4 3 1 1-4-4-2Zm5 4 7 7 4 1 10 7q4 1 3-1-1-3-4-2l-3-4q-6 2-5-2l-7-4q1-3-5-2Zm27 17v1h3zm7 4 1 1q1 2 2 0zm7 4q-1 2 3 2 1-3-3-2Zm-113 3q-2 3 1 2zm119 1q-1 3 4 2 1-4-4-2Zm7 4v2l4 2v-2zm-114 3q-2 3 1 2zm119 1q7 8 20 11 1-3-3-2l-2-4-4-1q-5 2-4-2-1-3-7-2Zm-115 4v1h2zm7 4q-1 3 2 2 1-3-2-2Zm6 4q-2 3 1 2zm127 1v1h3zm-115 8v1h2zm21 11q-3 2 0 3t2-1zm4 5v2h4zm7 4v2h4zm5 4v2h6q-1-3-6-2Zm8 4v2h4zm8 4 2 3q2 1 1-1zm7 4q-3 2 0 3 6 1 5-1-1-3-5-2Zm16 1-1 2h6zm6 2v4h7l-1-3zm-16 1v3q5-2 7 2v2h6q1 2 2 0l-1-3q-5 1-7-1v-3zm18 8-2 3h6zm7 5-1 2h5q-1-3-4-2Zm9 4-3 2 3 1 2-1zm5 5q0 3 5 2 1-4-5-2Zm7 3v3h8q-2-4-8-3Zm24 2 1 3v2h-6v-1l-1-2-10-1v4h7l2 4h7l1 1h1v-4l3-1 3 1 4-1-1-2-1-2zm2 10v3l6 1 3-1q-2-4-9-3Z"/><path fill="#4b8e11" stroke="#4b8e11" d="M960.5 226q3.8-1 2.5 2zm6 4 4.5.5-4.5.5zm-127 43 7 1 6.5 5q-1.1 2.7 1.5 2l48 34 29 17 32 16 5 1 14 8 5 1 4 3 5 1 4 3 8 2 12 6 21 6 5 3 7 1 5 3 8 1 22 8 8 1 6 3 8 1 3 2q10.7.8 18 5l11 1 13 4h7l13 4 16 1 8 3 17 1 12 3h14l1 1h13l9 2h9l3.5 3.5-1 160-1 1v25l-1 1v21l-1 1-1 46-1 1-1 23-2 11v13l-1 1-1 17-2 9-1 17-3 11-1 16-3 9-5 31-3 8-6 28-17 55-6 13-2 8-2 2-2 8-3 4-9 23-22 43-3 3-22 38-16 23q-27 38-59.5 70.5-2.2-.7-1.5 1.5-17.2 20.4-38 35.5l-1.5 3-47 38-14.5 9q1.1 2.7-1.5 2l-18 14-37 24-79 43-72-39-9-7-10-5-23-16h-2l-37-26-31-24-7-7-5.5-3-1.5-3-7.5-5-1.5-3-15.5-13-1.5-3-7.5-6.5q.8-2.2-1.5-1.5l-4-5q-2.2.8-1.5-1.5l-5-4-1.5-2.5-2.5-1.5-30-34-28-36-20-30-29-50-2-6-7-11-21-50-1-6-11-27-1-7-7-19-2-12-3-6v-4l-4-12-1-11-3-8-2-16-2-4-1-12-3-9v-6l-5-25v-10l-4-22-1-30-1-1v-9l-2-9-1-37-1-1v-14l-2-10v-33l-1-1v-29l-1-1-1-130 2.5-2.5h8l1-1h7l17-3h9l1-1h9l6-2 15-1 12-3 14-1 16-4 13-1 8-3 12-1 7-3 14-2 6-3 10-1 3-2 11-2 6-3 8-1 5-3 8-1 5-3 10-2 2-2 9-2 2-2 6-1 7-4 6-1 4-3 15-5 4-3 14-5 14-8 5-1 24-12 43-25zm1.5 1-14 10q-4-1-3 2l-4 2q-3-1-2 2l-5 2-32 21q-4-1-3 2l-8 5-4 1-3 3-4 1-3 3-6 2q-3-1-2 2l-5 1-5 4-14 5-3 3-5 1-18 9q-4-1-3 2l-8 2-13 7-7 1-3 3-7 1-7 4h-4l-6 4h-5q-6 5-16 5l-5 3-9 1-4 3-9 1-5 3-12 1-4 3-11 1-10 4-11 1-9 3-13 1-4 2-20 2-3 2q-5-1-6 1l-18 1-4 2-13 1-1 1h-14l-9 3h-8l-1 1h-16l-2 2 1 3q2 5-1 7v22l1 1v13l-1 1 1 98 1 1v26l2 9 2 62 2 9v9l1 1 1 37 3 10 1 24 3 7 1 18 3 6 1 14 3 6 1 14 4 11v7q2 1 1 6l3 6 1 12 3 4 1 10q4 4 4 14l3 4 1 8 4 9v4q4 4 5 13l3 4 1 7 2 2 2 10q4 3 4 10l12 24v3l9 16q-1 3 2 2l2 7 8 11v3q4 1 4 7l8 11 1 5 25 38q-1 2 2 1l2 4q-1 2 2 1l19 26q-1 2 2 1l2 4q-1 2 2 1l5 8 4 2 6 9q-1 2 2 1l2 4 3 1 1 3 3 1 1 3 3 1 2 4 4 2q-1 3 3 2l1 4 3 1h1v4l4 2q-1 3 3 2l1 3 4 1 1 3 3 1 1 4 6 2 3 4 2-1-3-3-2-2-2-2-6-6q1-5-3-3l-1-2q1-3-2-2l-2-2-8-6-2-5h-2v-4h-2l-2-3-4-2v-5h2l4-8q-6-5-17-3l-2-2-3-2 1-4q2-6-1-7-1-6 1-7l-4-8-15-20-13-22-12-15-10-17-3-3-2-3-2-2-6-6-1-8-3-6v-3l-3-4-1-6-15-28-9-21-5-16-4-7v-3l-3-4-2-10-2-2-2-9-3-5-1-8-3-5-1-10-2-3-2-14-2-4q-2-17-7-29 2-6-3-4l-2-1v-9l-1-1v-8l-1-1v-9l-2-8-1-15-4-14-1-41-1-1v-10l-1-1v-11l-1-1v-36l-1-1 1-4-2-10v-10l-1-1-1-75-1-1v-51l1-1v-17l-1-1 1-29 3-3h22l10-2 17-1 11-3 18-1 5-2 24-2 4-2 16-2 43-11 98-34 21-12 14-5 33-17 19-13q3 1 2-1l9-6 4-1 3-3 4-1 3-3 4-1 11-9q2 1 1-1l3-2 1-2q3-6 11-8l2 1 2 5 20 13 18 9 31 21h2l1 3 6 2 9 7 13 5 3 3 36 13 4 3 5 1 34 16 21 6 5 3 7 1 6 3q9 0 14 4l9 1 10 4h4l5 3 9 1 9 4 12 1 6 3 15 1 11 3 17 1 11 3 18 1 10 3 18 2 2 2 7 1v10l1 1v187l-1 1v32l-1 1v10l-1 1v21l-1 1v17l-4 18-1 19-3 9-1 16-2 2-1 5-1 14-3 9-1 11-3 6-1 9-3 7-1 10q-4 5-5 14l-2 2-2 10-3 3-1 9q-4 4-4 12l-3 3-2 9-2 2q0 9-5 15l-1 7-7 14-1 6-3 4v3l-5 13-21 40-33 53-25 33-3 1q-9 15-22 27 1 2-1 1l-7 8q1 2-1 1l-3 4-3 1v2l-11 11q-3-1-2 2l-7 6q-3-1-2 2l-23 18-12 12-29 18q-3-1-2 2l-2 1q-4-1-3 2l-14 8q1 3-4 1-4 1-3 5l-2 1q-4-1-2 3l-3 1-2 3-4 2q-3-1-2 2l-14 10-23 9-17 11-24 12-5 1-6 4-7-2-11-9h-2l-2-3-5-2-10-7-4-1-3-3h-3l-7-4-16-3-10-5-4-4q1-3-1-2-4-2-2-7l-3-1q-3 1-2-3h-2l-3-4-16-8h-8l-1 1-4-1-6 4h-4l-1-3q-6 2-5-1l-6-3q-2 5 4 3l1 4 5 1 1 3 4 1 1 3 4 1 2 4 4 1q4-1 2 3l5 1 1 3 6 1 1 3 6 2q2-1 1 2l5 2q3-1 1 3l6 1 1 3 5 1 1 3 6 2q2-1 1 2l5 2q2-1 1 2l6 2q2-1 1 2l7 2 1 3q4-1 7 2 2-1 1 2 7 0 11 5 4-2 3 2 1 3 7 2l1 3 7 2 1 3 6 1 10 7h4q5-6 15-8l3-3 5-1 1-3 6-2q2 1 1-2l14-6q2 1 1-2l5-2q3 1 2-1l15-8q2 1 1-2l5-1 7-5q2 1 1-1l19-12q2 1 1-2l5-1 10-8h2l1-2 4-3q2 1 1-2l9-6q3 1 2-1l5-3 1-3 5-2q2 1 1-1l4-3q2 1 1-1l4-3q2 1 1-1l9-7q4 1 2-3l4-1 1-3 4-1 1-3 9-6q4 1 2-3l3-1q2 1 1-1l4-3 1-3 3-1q2 1 1-1l4-3 1-2 3-2 1-2 3-2 1-2 3-2 1-2 3-2 1-2 3-2 1-2 3-2 1-2 4-3 1-2 3-2 1-2 3-2 5-7 3-2 1-2 3-2 1-3 3-2 3-4q-1-3 2-2l2-3q-1-3 2-2l14-19 3-2 1-3 12-15v-2l3-2 6-10q-1-3 2-2l11-19q-1-3 2-2l2-6 11-16 10-21 3-3v-3q4-4 5-11l3-3v-3l12-24 1-6 12-28 1-7 4-10v-4l3-5 2-10 2-2q1-12 5-19l1-9 3-6q0-11 4-18l1-12 3-7 1-13 3-8 1-17 4-19 1-23 2-5v-8l1-1 1-31 2-8v-10l1-1 1-61 1-1v-13l1-1v-28l1-1V453l1-1v-21l-1-2q-5 1-6-1h-13l-15-3-25-1-9-3h-9l-15-4-16-1-7-3-13-1-7-3-12-1-6-3-12-2-2-2-9-1-8-4-9-1-4-3-8-1-9-4h-4l-8-4h-5l-4-3-8-1-7-4h-5q-4-5-12-5l-3-3-6-1-7-4h-3l-3-3q-8 0-10-5h-3q-4-4-11-5l-34-17-17-11-4-1-16-12h-2l-15-12h-2l-13-9-14-12zm-7 34-4 5h-2v4h-2q-4 2 1 5l-1 1-4-1-1 4-1-1h-3l-9 5-8 20-16 4-24 15-6 2-3 3-22 10q-3-1-2 2-6 0-9 5l-17 4q-4 4-11 4l-2 2-9 2-4 3-6 1-4 3-7 1-4 3-7 1-5 3q-9 1-14 5l-7 1-5 3-10 2-3 2-9 1-7 3-9 1-7 3q-10 1-17 4l-17 2-8 3h-7l-14 4-18 1-8 3-19 1q-5 4-13 4l-3 4v9l-1 1 2 126 1 1v13l1 1v14l1 1 1 39 1 1 1 18 1 1 1 28 1 1 1 16 1 1 1 23 3 11 1 13 3 11 2 18 3 9q0 12 4 21l1 12 8 26 1 9q4 4 4 12l4 7 5 2 8-2 18-12 11-11q11-19 26-33-1-3 2-2l10-20q1-3 6-2v-3l-4-9v-29l5-10q-1-4 2-3 2-1 1-4 2-2 0-3l-9 6-12 16-4-4 3-16 8-15 27-21 1-2 5-4q-1-3 2-2l2-3 3-2v-1l9-9q-1-3 2-2l2-4 7-5q2 1 1-1l5-3 1-3h3q12-11 29-17h9l1 1q2-1 1 2l7 5q4 1 4-2v-6l-8-11-6-16v-17l5-16 8-11v-2l9-11 13-22q-1-3 2-2l1-2 10-6q10 0 17-4l16 1-12 1-10 8-9 11-11 27-2 8q2 6-2 5l1 11 2-7 6-4 6 1h2l5 2 3-2h6q1 4 7 3l1 3 7 4 7 2 2-1q2 5 12 3l1-1 2-11-1-5 2-1-2-1q-1-3 3-2l-1-2 1-3-4-2 1-2-5-3-5 1q-3-1-2-6l-2-2-3-2q1-7-3-9-1-7 1-9h3l8-6q4 1 3-1l5-4v-10l2-1-1-1q2-4 9-2l3-2q-1-3 2-2l2 4-2 32-3 7-1 13-3 6-1 12-1 1q1 2-2 1l-1 6v20l-3 8v9l-1 1v15l-3 9-2 18-1 1 1 15 1 1v35l1 1q-2 4 2 3l1 3q1 3 8 2l8-10 2-25 9-30 1-20 2-6 2-18 2-6v-8l1-1v-9l1-1v-28l2-10v-2l-1-5 2-44q3-2 1-8l2-3 2 5q-1 2 2 1l7-10-2-6h-1l-4-6q1-7-2-10l-1 2-3-16 1-3q2-6-1-7-1-3 2-2l1 2v8l3 1 3-8-1-7h2l3-4v-43l-2-7q-1-5 2-5l1-36 1-1v-49l-1-1v-17l1-1zm8 4-1 12 2-1q1-8-1-11Zm162 246-15 5-5 4q-3-1-2 2l-2 1-3 4-3 1-7 9q-3-1-2 2l-16 13q-3-1-2 2l-2 1-2 3-4 2v3l-5 7-16 21-9 9q1 2-1 1l-26 34-2 1-18 20-5 10-20 19-2 3-2 1-4 5q-3-1-2 2l-4 2-23 32-5 4-11 12-3 2-5-2-3-4q-3 1-2-1l-31-29-17-17-3-2v-1l-21-22q-3 1-2-1l-4-3-1-2q1-3-1-2l-3-4-18-9-11 1-12 7-2 3-4 2-10 14q1 2-1 1l-2 3-7 6-2 3-2 1-20 21-7 14-7 9-4 10v23l3 8 11 13 3 8 10 10q2-1 1 2l5 4q-1 3 3 1l10 19q-1 2 2 1l2 4 4 3q-1 3 2 2l1 4 3 1 1 3 3 1 1 3 3 1 1 3 4 2 1 3 3 1 1 3 3 1 2 4q-1 2 2 1l10 15 3 1 1 3q-1 2 2 1l9 13q17 14 30 32l3 1 18 24 2 3 21 19 9 4 10 2h7l9-3 1-2q1-3 5-2l-3-4 3-2 12-14q-1-3 2-2l2-3 3-2 10-11q-1-3 2-2l1-2 6-5h2v16l1 4h7l1-1q5 2 14 1l2-4h-10l-2-1q0-9 6-12-1-3 3-2l1-4 3-1q2 1 1-1l4-3v-2l5-5v-2l3-2 1-3 3-2 2-4q-1-5 3-3v-5l-3 4-2 1-4 5q-3-1-2 2-2 3-7 3h-2l-2 2-8 1-2 2q1 2-3 1l1-2q-1-3 2-2l1-4 8-10 3-2 6-9 3-2 15-19q-1-3 2-2l5-7 3-2 1-2 3-2 10-11q-1-3 2-2l1-2 7-6q3 1 2-1l4-3q2 1 1-2l3-2 1-3q-1-3 2-2 2-6 7-9-1-3 2-2l6-7q-1-3 2-2l26-32 3-2 1-2 3-2 1-2 10-7q-1-3 2-2h2l-1 2 1 4 5-2-2 5-1 10-10 9-2 3-10 10h-2l-8 13v4l-4 9-1 11-3 6q-2 7 2 10l2-7 5-2q-1-3 2-2l6-7 7-6 12-14 12-28 8-11 4-1q5 2 3-3h2l2-1q-2-5 3-4l1-4 3-1h1v-4l3-1-1-4-8 6-2 3-4 1-2 4q-5-1-3 3l-5 1-5-1-1-2q-1-5 1-6-1-4 3-2l1-3q-1-3 2-2l2-4q1-5-4-3l-2-3v-3l4-5v-2l3-2 1-2 3-2 2-4 4-2v-2h4v-4q3-1 2 3l7 2h-4l-2 6-1 2q5 2 3-3l5-1 1-3 7-1 1-3 4-1h6v-3l-3-1-2 1-3-1-2 1-3-1q2-8-3-6v-3l8-11q-1-3 2-2l23-26q-1-3 2-2l13-17 2-6-2-25-2-6-8-8-8-7-2-4-1-12-9-12-4-3q1-3-1-2l-20-24-2-3q-5-8-13-11l-2-3q-7 1-9-4zm-245 87-3 3v1h4zm462 104-2 4-3 1v3h5l1-3q1-4-1-5Zm-154 14-8 3-12 8q-16 13-26 32l3 3 6-2 1-3 12-9 1-2 12-10 1-3 9-7q-1-3 2-2l2-3-1-3q1-3-2-2Zm9 3v3q3-1 0-3Zm137 0-2 3q1 2 6 1l1-3zm-141 5-2 3 4-1zm145 12-2 2q-1 2 2 1zm-189 4-2 2h3q1-3-1-2Zm25 1q-1 3 2 2 1-3-2-2Zm158 3-9 6q-1 3 3 2l1 2v9q6 1 7-3-2-6 2-5l2-3v-8zm-162 1v3l3-2zm-78 70-4 3-19 25-39 45q1 2-1 1l-24 32q1 2-1 1l-18 20-2 4 2 2q6 1 9-3l16-1 1-1 6 3 9 2 13 8 1 3 3 1q2-1 1 2l3 1 8 11 2 6v1h5l1-6 5-8 18-15 15-6q4 1 2-3l-1-2-13-2-2-2-5-1-10-5-8-9-2-16-2 2-1 10-3 8-6 6-7 3-15 2-4 2h-8l-2-1 14-10q15-13 25-31-1-3 2-2l29-43 4-9 2-15 2-4q2-7-1-9Zm-504 5-1 15 4 5q-1 4 2 3l1-2v-3l-4-7v-4zm487 7-3 3h3q3-1 0-3Zm-352 2 1 1q1 2 2 0zm346 2v2q-2 1 1 2l2-1q1-5-3-3Zm-340 2 1 2q3 1 4-1zm338 3-2 2 2 3 1-3q1-3-1-2Zm-4 7-1 3h1zm20 15v3l2-1q1-3-2-2Zm-3 7-1 3h1zm-4 6-2 5h2zm-38 2-2 2h2zm-4 3-3 3q-1 2 3 1zm38 2-2 4-4 1q-2 5 3 4l1-4 4-2q1-4-2-3Zm-42 2-1 1q-3-1-2 2-2 1 1 2l2-1zm-5 5-2 4 3-1q1-4-1-3Zm-3 4q-4 1-3 6l-2 1h4l1-4zm44 6q-2 8 2 13l1-4-1-5q1-5-2-4Zm-49 1-3 3q-1 4 3 2zm38 4-2 6 2-1zm-5 7v4l3-1q1-5-3-3Zm-4 5q1 3-2 5 1 2-1 1l-3 4q1 3-3 1l-1 4-5 3 3 1 6-3 3-4 1 1h6l1-3q1-7-3-8 1-3-2-2Zm24 0v10l2 1q2-1 1 2l8 5q6 0 9 4 6-2 8 1 6 1 9-1l-6-3h-4l-13-6q-3 1-2-1l-5-3q-4-1-3-6zm-78 37-2 4h10l1 1q5-2 4 2l-13 3q9 0 16 3 4-1 3 2l24 8q5 1 7-2l4 3 1 4 3 1 1-3-3-2-2-3q2-5-2-4l-2-2-8-7h-2l-2-3q-7 0-11-5zm-50 28-2 3h2q3-1 0-3Zm126 2-2 2v8h2l1-5q1-4-1-5Zm-129 1-4 6h3l2-3q1-4-1-3Zm-5 6-2 2q2 3 3 0t-1-2Zm-77 17-1 1h-9l-7 3q-4-1-3 2l13 1 1 1 23 1 9 2h8l1 1h16q7-2 11-7-1-3 2-2l1-3q-7-1-9 3h-14l-1-1-17-1-1-1zm-128 112v2l5 1v-2zm32 41v3h4v-1zm5 4v3q4 1 3-1zm4 4v3l4 1 2 4q3-1 2 2l4 2 1 3q6 1 9 6h2l1 3 4 1q3-1 1 3l7 1v-5q-4 1-3-2l5 2 1-4q-6-7-15-11h-4q0 3-4 2l1-4h-4l-8-4q-3 1-2-1zm37 29 2 4q3 1 2-2zm155 33v18l4-1 3-5-5-10q1-3-2-2Zm246.5-989 4.5.5-4.5.5zm92 25 5.5.5-5.5.5zm37 8h8l.5 2q-6.7 1-8.5-2Z"/><path fill="#4b8e11" stroke="#4b8e11" d="m758.5 473 3.5 2 .5 3 .5-2 8.5-1h2l14 4 4.5 3.5 2.5 4.5q3.8.8 4.5-1.5-.7-2.6 2-1.5 2.4 3.9 1 13.5l-2.5 9.5q-2.5-1.2-1.5-5-2.7 1.1-2-1.5l-1.5.5-7 6h-4l-3 3h-5l-2 2-10 3-8.5 6.5q-2.7 3.3-2 10l1 2-.5 1.5 3.5 2.5q.8 2.3-1.5 1.5l-1 1h-13l-4.5-1-1-5.5 3-1.5 2-5.5v-4l3-5 1-15 3-4 1-11 1.5-1.5q2.3.8 1.5-1.5l2-5.5q2.7 1.1 2-1.5zm-3.5 15-2 2v13l4-1 1-2q2-6-1-7 2-6-2-5Zm-4 18-2 18 4 1q1-5-2-7-1-6 1-7zm-47-26h5v4.5l2.5 5.5q2.3-.7 1.5 1.5l4.5 9.5q2.3-.7 1.5 1.5l2 3-2 2-1 6-1.5 1.5-2.5-1-3-8.5-1-13-4.5-7.5H704zm299.5 93h6l8.5 6.5 7.5 9.5 2.5 1.5 5.5 7.5 2.5 1.5 2.5 3.5q2.3-.7 1.5 1.5l5.5 6.5 2.5 1.5 5 7.5 3 1.5 1.5 2.5 2.5 1.5q-.7 2.3 1.5 1.5l10 10h1.5l2.5 4q2.3-.7 1.5 1.5l8 6.5 7 10.5v5l-1.5 2.5-.5-1.5q2.3-1.2 1-6l-2-4-23.5-23.5-13.5-12.5-10.5-12.5q-2.2.8-1.5-1.5l-9-9V595l-3-1.5-10.5-12.5-2.5-1.5q.8-2.2-1.5-1.5l-6-4-5 1-5 3-16.5 16.5-9 12.5-3 1.5-5 7.5-3 1.5-15.5 18.5q-2.2-.7-1.5 1.5l-6.5 7.5q-2.2-.7-1.5 1.5l-6.5 7.5q-2.2-.7-1.5 1.5L917 669l-3 1.5-5.5 7.5-2.5 1.5-14 18.5q-2.7-1.1-2 1.5l-6.5 7.5q-2.2-.7-1.5 1.5l-6.5 7.5q-2.2-.7-1.5 1.5l-35 40-5 7.5-3 1.5-35.5 40.5q-2.2-.7-1.5 1.5-3.6 6.4-11.5 8.5-1.5-2.5-7-1l-4-2-15.5-12.5q.8-2.2-1.5-1.5l-37-36H716v-1.5L670.5 715q-2.6-3.9-10-3-10.3 4.7-16.5 13.5L630 744q-2.7-1.1-2 1.5L613 765q-2.7-1.1-2 1.5l-2 3.5q-2.7-1.1-2 1.5l-10 14-2 7v10l3 12 4 7 25 31.5 3 1.5 15.5 19.5q2.3-.7 1.5 1.5l9 11.5 3 1.5 2.5 3.5q2.3-.7 1.5 1.5l27.5 30.5 2.5 1.5 35.5 40.5 2.5 1.5 5.5 7.5q2.3-.7 1.5 1.5l27 29v1.5l3 1.5 6.5 7.5q2.1 3.4 7.5 3.5l-3.5.5-11.5-10.5q.8-2.2-1.5-1.5l-4-5q-2.2.8-1.5-1.5l-9.5-10.5-2.5-1.5-2.5-3.5q-2.2.8-1.5-1.5l-6-7.5-4-2.5-5.5-7.5-2.5-1.5-5.5-7.5-2.5-1.5-1.5-2.5-2.5-1.5-2.5-3.5q-2.2.8-1.5-1.5l-5-6.5-3-1.5-2.5-3.5q-2.2.8-1.5-1.5l-6-6V926l-4-2.5-1.5-2.5-2.5-1.5V917q-3.7 1.5-3-1.5l-1-2.5-4-2.5-1.5-2.5-2.5-1.5-2.5-3.5q-2.2.8-1.5-1.5l-4-2.5-1-4-3-1.5-1.5-2.5-3.5-2.5q.8-2.2-1.5-1.5l-9-12q-2.2.8-1.5-1.5l-1-2.5-3-1.5-2.5-3.5q-2.6.8-1.5-2.5l-37-46-4-10-1-14q2.2-13.3 10.5-20.5 2.3.8 1.5-1.5l2.5-3.5q2.3.8 1.5-1.5l31.5-39.5q2.3.8 1.5-1.5l5-6.5 10.5-8 6-1 6.5 2.5q-.8 2.6 2.5 1.5l2.5 4 3 1.5 6.5 8.5h1.5q-1.5 3.8 1.5 3l4 5 2.5 1.5 1.5 2.5 2.5 1.5 2.5 3.5q2.3-.7 1.5 1.5l23.5 23.5h1.5l2.5 4q2.3-.7 1.5 1.5l4 2.5 2.5 4 2.5 1.5 1.5 2.5 2.5 1.5 1.5 2.5 3.5 2.5q-.7 2.3 1.5 1.5l6.5 5.5 1.5 2.5 10 8 5.5 2q-1.3 3.3 3.5 2 1.2 2.3 6 1l4.5-2 1.5-3 2.5-1.5 1.5-2.5 2.5-1.5 7-9.5q2.7 1.1 2-1.5l10.5-11.5q2.3.8 1.5-1.5l2.5-3.5 2.5-1.5 4-6.5 4-2.5 6-8.5q2.7 1.1 2-1.5l6-7.5 3-1.5 1-3.5 3-1.5 14.5-18.5q2.3.8 1.5-1.5l2.5-3.5 2.5-1.5 1.5-2.5 2.5-1.5 2.5-3.5q2.6.8 1.5-2.5l4-3 14.5-18.5 2.5-1.5 1.5-3.5 2.5-1.5 2.5-3.5q2.6.8 1.5-2.5l4-3 6-8.5 3-1.5 5-7.5 3-1.5 2.5-3.5q2.3.8 1.5-1.5l1-2.5 3-1.5 2.5-3.5q2.3.8 1.5-1.5l1-2.5 3-1.5 7.5-9.5q2.3.8 1.5-1.5l5-6.5 4-2.5 1.5-2.5 2.5-1.5 1.5-3.5 2.5-1.5q10.2-15.8 24.5-27.5z"/><path fill="#4b8e11" stroke="#4b8e11" d="m1089.5 668-.5 1.5-2 3-1 2.5-3 1.5-15.5 18.5-2.5 1.5-5.5 7.5-2.5 1.5-9.5 11.5.5-1.5 5-7.5 3-1.5zm-44 49 .5 1.5-7 9.5-3 1.5-6.5 8.5-1.5-.5 3-2zm-18 22-.5 1.5q.8 2.3-1.5 1.5l-15 17 4.5-5.5 5-7.5 3-1.5zm25.5 19q3-1 2 2-3 1-2-2Zm-43.5 2-7.5 8.5q.8 2.3-1.5 1.5l-8 10q-2.2-.7-1.5 1.5L979.5 795l-1.5-.5 13.5-15.5 2.5-1.5zm-32 36-3.5 4.5-4.5 5.5 3.5-4.5zm-9 11-1 2-1.5-.5zm-3 3-4 5zm-5 6-8.5 9.5-9.5 11.5-2 1 1-2q2.3.8 1.5-1.5l15-16V817zm-21 23-3.5 4.5-1.5 2.5q-2.2-.7-1.5 1.5l-44 49-4 6.5-3 1.5-6.5 8.5q-2.2-.7-1.5 1.5l-6.5 7.5-1.5-.5 3-1.5 5.5-8 2.5-1.5 18-22.5 3-1.5 35.5-41.5q2.3.8 1.5-1.5zm-312 28q3.8-1 2.5 2zm5 4h1.5v4h4v3l-4-1.5-3-4zm8 8q3-.9 1.5 3.5 1.2 2.5 5 1.5l-1.5 3q-3.3 1.1-2.5-1.5l-3-1.5-1-3.5zm225 44-4.5 5.5-10.5 13.5-1.5-.5 2-.5zm-17 20-.5 1.5q-6.5 5-9 12.5l-2.5 1 3.5-4.5zm-13 16-.5 1.5q.8 2.3-1.5 1.5l-1.5.5zm-4 5-.5 1.5-7.5 10.5 2.5-3.5zm-9 13-2.5 3.5-29.5 36.5-3 2-3 1v-1h2l6.5-5.5 10-14.5q2.7 1.1 2-1.5zm80 28 2.5.5q-2.1 3.3-2.5-.5Zm-153 274q2.3-.7 1.5 1.5zm263 17 11 4h5l3.5 3.5-1 2 4 3q-.9 3 3.5 1.5l3-3 1 1 7.5 1.5-3 2-5.5 7.5-7 5-7.5 3-1 4-5 2.5q.8 2.6-2.5 1.5l-6 4h-6.5l-2.5-4-13 1-1-1h-16l-11.5-4 1-5 6-2 1.5-3 3.5-1.5 1.5-2.5 4-1 9-7q5.5.5 7.5-2.5-.7-2.2 1.5-1.5zm-100 64q6.5-1 7.5 3.5-1.3 4.2 3.5 2.5l-3 4-2 1q-1.2-2.3-6-1l-3 3-15 2-7.5-2.5 4-3 1.5-2.5h3l8-4h4zm41 11h9l.5 2-3 1.5-1.5 2.5-9 1-1.5-2.5zM845 1401q4.7-.7 6 3.5l-4.5 6.5q-2.6.8-1.5-2.5l-1-4z"/><path fill="#fdfdfc" stroke="#fdfdfc" d="M0 0h1657v1553H0zm837 140-15 5-50 36-25 14-29 19-41 21-24 10-4 3-5 1-4 3-13 4-6 4h-4l-7 4-6 1-5 3-21 6-6 3h-4q-7 5-17 5l-6 3-9 1-6 3-10 1-6 3q-14 0-22 5h-8l-11 4-14 1-7 3-17 1-7 3-22 1-9 3h-20l-1 1-28 1-4 2-10 1q-3 4-9 4l-13 9-2 3-4 2-13 24-1 10-2 3q1 4-1 6l1 88 1 1v24l1 1v23l1 1v87l1 1v20l2 8v14l1 1v37l1 1v11l2 7v7l1 1v23l1 1v9l3 11 1 24 3 8 1 20 3 7 1 16 3 7 1 13 4 11v8l4 11 1 12 3 5 1 10 3 5 1 10 3 5 1 10 3 4 1 9 4 7 1 8 3 4v4l4 7 1 7 3 4 1 7 3 3 1 6 4 7v3l8 15 1 6 7 11 1 6q4 2 4 8l8 12 1 5 3 3 1 5 13 21q-1 2 2 1l1 5 9 14q-1 2 2 1l15 24q-1 2 2 1l1 4 9 12q-1 2 2 1l2 5 3 1 1 4 21 26q-1 2 2 1l2 4 3 1 6 8q-1 2 2 1l9 12 3 1 1 3 3 1 1 3 12 10 1 3 3 1 1 3 3 1 1 3 12 10q2-1 1 2l3 1 1 3 8 5 1 3 3 1 2 4 14 10q2-1 1 2l45 35 25 17 1 3 4 1 25 17q2-1 1 2l5 2q3-1 2 2l32 19q3-1 2 2l73 39 27 12 11 2 19-1 14-5 15-8 5-1 3-3 22-10 21-12q2 1 1-2l5-1 10-6q2 1 1-2l5-1 7-5q2 1 1-2l11-5 46-30 1-3 4-1 1-3h3l25-19q-1-3 3-2l2-4h3l37-30 1-2 5-4q-1-3 3-2l1-2 3-2 1-2 27-25q2 1 1-1l3-2 1-2 3-2 2-4 4-2q-1-3 2-2l2-3 3-2v-1l23-25 4-3q-1-4 2-3l2-3 3-2 1-2q-1-3 2-2l7-10 3-2 1-2q-1-3 2-2l2-3q-1-3 2-2l31-43v-2l17-26q-1-4 2-3l3-7 14-23 2-6 3-3 1-5 8-15v-3l12-24 5-13v-3l3-4 1-6q4-5 5-13l2-2 6-21 3-6 1-7 3-6 1-7 3-5 1-9 3-6 6-28 2-4 1-10 3-8 1-13 3-10 2-20 3-12 1-17 3-13 1-22 3-15v-17l1-1 1-28 2-10 2-91 2-10v-51l1-1V368l-4-13-4-8-4-4v-2l-14-14h-2l-5-4q-8 0-12-4l-42-1-13-3-22-1-8-3-19-1-7-3-15-1-11-4h-9l-11-4h-7l-11-4-11-1-5-3-9-1-6-3-9-1-22-8h-4l-5-3-9-2-19-8h-3l-4-3-6-1-37-16-34-17-27-17q-4 1-3-2l-5-2-21-15-17-10-48-36-13-5z"/><path fill="#fdfdfc" stroke="#fdfdfc" d="M837.5 234h6l10 7 4 1 4 4h2.5l1.5 3 7 5h2l11 9h2.5l1.5 3 11.5 6q-1.1 2.7 1.5 2l19 13q6.2.8 9 5h3.5l1.5 3 21.5 10q-1.1 2.7 1.5 2l6.5 2q-1.1 2.7 1.5 2l8 5 5 1 3 3 5 1 6 4h3l6 4 6 1 3 3q7 0 10 4l7 1 4 3 7 1 14 7 7 1 5 3q9.6.4 15 5l8 1 4 3 10 1 5 3 10 1 11 4h8l10 4h8l11 4 14 1 6 3 18 1 6 3 24 1 7 3 35 1 12 3h11l6.5 4.5 3 9v53l-1 1v66l-1 1-1 99-1 1v14l-1 1v12l-1 1-1 46-1 1v13l-3 17v15l-4 18v14q-2.7 1.8-1 8l-2 3q1.3 4.7-1 6l-1 16-3 6-1 16-3 6-1 12-4 11v7l-3 6-1 10-4 9-1 8-3 4-1 9q-4.2 4.3-4 13l-3 4-1 8-4 6-1 7.5q-3-1.2-2 2.5l-2 8.5q-2.7-1.1-2 1.5l-2 8.5q-2.7-1.1-2 1.5l-2 8-3 3-1 6-3 3-1 6-8 15-1 5.5-3 1.5v3l-8 12q-.4 7.1-5 10v3l-8 11-1 5.5-3 1.5-1 4.5q-2.7-1.1-2 1.5l-2 5.5-4 2.5-5.5 10.5q-2.2-.7-1.5 1.5l-6 8v2.5l-3 1.5-1.5 3.5-2.5 1.5q-.6 5.9-5 8v2.5l-4 2.5-6.5 9.5q-2.2-.7-1.5 1.5l-2.5 3.5q-2.6-.8-1.5 2.5l-4 3-10.5 14.5-2.5 1.5q1.1 3.3-1.5 2.5l-2.5 1-1.5 4-2.5 1.5-1.5 2.5-3.5 2.5-1.5 2.5q-2.2-.7-1.5 1.5l-1 2.5-3 1.5-27.5 28.5q-2.2-.7-1.5 1.5l-4 2.5-1.5 3-3.5 2.5q.8 2.3-1.5 1.5l-2.5 1-2.5 4q-2.2-.7-1.5 1.5l-5 4q.8 2.3-1.5 1.5l-3.5 2.5q.8 2.3-1.5 1.5l-13.5 10-1.5 3-3.5 1.5-1.5 2.5h-2l-8.5 6.5-1.5 2.5-3.5 1.5-1.5 2.5-3.5 1.5q.8 2.3-1.5 1.5-3.5 5-9.5 6l-1.5 3-4.5 2.5q.8 2.3-1.5 1.5l-4.5 2-1.5 3h-2q-5.2 6.4-13.5 9l-1.5 3-4 1-7.5 5.5q.8 2.6-2.5 1.5l-4.5 2q1.1 2.7-1.5 2l-4.5 2q1.1 2.7-1.5 2l-5.5 2-1.5 3-5 1-3 3-4 1-8.5 5.5q.8 2.6-2.5 1.5l-10 5-4 4h-3q-2.7 4.3-9 5l-3 3-13 5-3 3q-7.4.6-11 5h-3l-6 4-8 2-8-2-5-4h-3l-6-4h-3l-3-3q-6.2-.7-9-5l-5-1-17-11-6.5-2q1.1-2.7-1.5-2l-5.5-2-1.5-3-5.5-1-1.5-3-4-1-3-3-12.5-6q1.1-2.7-1.5-2l-7-5-4.5-1-1.5-3h-2l-9.5-6.5q.8-2.6-2.5-1.5l-24-17-3.5-1q1.1-2.7-1.5-2l-7-6H670l-2.5-4-3.5-1q1.1-2.7-1.5-2-3.5-5-9.5-6l-1.5-3-3.5-1q1.1-2.7-1.5-2l-7-6H637l-2.5-4-7.5-5.5-1.5-2.5-2.5-1.5-1.5-2.5-17.5-14-2.5-4-2.5-1.5q.8-2.2-1.5-1.5l-2.5-1-2.5-4q-2.2.8-1.5-1.5l-5-6.5-3-1.5-2.5-3.5q-2.2.8-1.5-1.5l-4-2.5v-1.5l-24.5-27.5q-2.2.8-1.5-1.5l-6.5-7.5q-2.2.8-1.5-1.5l-17-21-2-4.5q-2.7 1.1-2-1.5l-9-12-1-3.5-3-1.5v-2l-20-27-20-33-2-6-3-3-13-26-4-11-4-6-1-5-8-15v-3l-4-6-1-6-11-26-1-8-3-5-2-10-2-2-1-8-3-5-1-9-4-10-1-10-3-5-1-12-3-5-1-15-3-7-1-17-3-8-1-21-3-9q1.7-6.3-1-8v-14l-1-1v-7l-3-16-1-33-1-1-1-17-1-1-1-41-1-1v-8l-2-9-1-62-1-1v-43l-1-1v-20l-1-1v-87l6.5-8.5h30l1-1 26-1 5-2 24-1 16-4 18-1 8-3 17-1 6-3 14-1 6-3 13-1 5-3 12-1 5-3 9-1 8-4h6l8-4 9-1 4-3h6l8-4 8-1 4-3 7-1 6-4h4l6-4h4l6-4 6-1 3-3 6-1 3-3 7.5-2q-1.2-3 2.5-2l21-10 3-3 5-1 3-3 26-13 11-8 10.5-5 1.5-3 4-1 10-8zm4.5 35-40 26q-3-1-2 2l-26 15q-3-1-2 2l-4 1-10 7-14 6-3 3-5 1-3 3-5 1-3 3-6 1-3 3q-8 1-11 5h-3l-6 4h-3l-6 4-6 1-3 3h-4l-6 4-7 1-4 3q-9 1-14 5h-4l-6 4h-5l-8 4-9 1-4 3-9 1-4 3-11 1-5 3-10 1-10 4h-8l-8 4h-12l-9 4h-13q-2 2-6 1l-5 3-21 1-5 3-23 1-16 4h-19l-1 1-12 1-6 2-1 3v107l1 1v27l1 1v10l1 1v23l1 1v38l1 1v14l2 7v10l1 1 1 39 3 12v19l1 1v10l3 9 1 21 3 6 1 17 4 10v10l4 10v9l4 11 1 12 3 4v6l4 9 1 10 3 4 1 9 3 4 1 8 3 4 2 10 3 4 1 7 3 4 1 7 3 3 1 7 3 3 1 7 3 3q0 7 5 11l1 6 3 3v3q5 2 5 10l3 3 6 12q-1 2 2 1l1 6 34 54q-1 2 2 1l6 11 3 1 1 4 3 1 6 11 21 25q-1 2 2 1l9 13 3 1 1 3 3 1 20 22q-1 2 2 1v2h2v2h2l15 15q2-1 1 2l8 6q2-1 1 2l8 5 2 4 14 10q2-1 1 2l4 2q2-1 1 2l21 15q2-1 1 2l5 2q2-1 1 2l15 10h2l1 3 6 2 18 12q2-1 1 2l5 2q3-1 2 2l43 26 19 9 12 8 5 1 10 7 6 2 6-1q2-5 10-5l3-3 5-1 1-3 6-1 3-3 6-2 3-3 4-1 3-3 4-1 3-3 4-1 3-3 4-1 21-13q2 1 1-1l21-14 4-1 1-3 4-1 12-9q2 1 1-3l5-1 1-3 5-2q2 1 1-1l4-2 1-3 4-1 11-9 1-3 4-1 1-3 3-1q2 1 1-1l10-7 2-4q4 1 5-2-1-3 3-2l1-2 18-16q2 1 1-1l4-3 1-2 3-2 1-2 3-2 1-2 3-2 1-2 3-2 1-2 4-3v-1l23-25 3-2 1-2q-1-3 2-2l2-3q-1-3 2-2l11-14q-1-3 2-2l6-8q-1-3 2-2l2-6 4-2q-1-4 2-3l13-18 27-45q-1-4 2-3l18-35 1-5 3-3 1-6 7-13 1-6 3-4q1-8 5-12v-3l4-7 1-6 2-2 2-11 2-2 2-7v-4l3-4 1-8 3-5 1-9 4-11 1-9 3-7 1-10 2-4 2-11v-5l3-8 1-13 3-10 1-18 2-5 1-15 1-1v-14l3-13 1-32 2-10v-14l1-1 2-92 1-1v-32l1-1V430l-5-6-33-1-20-4-21-1-6-3q-6 2-7-1h-12l-5-3-16-1-5-3-5-1h-9l-5-3-10-1-8-4h-6l-8-4-10-1-4-3-9-1-8-4h-5l-4-3-8-1-8-4h-4l-7-4-8-1-14-7-6-1-6-4h-4l-5-4h-3l-14-8-14-5-3-3-13-5-5-4h-3l-3-3-6-2-3-3-10-5q-3 1-2-1l-35-24q-3 1-2-1l-9-7h-3l-2-4q-4 1-3-1z"/><path fill="#fdfdfc" stroke="#fdfdfc" d="M680.5 408q7.6-1.5 6.5 2l-5.5 1-3 3-21 12-6 2-10 7h-4l-3-4-13.5-.5 10-1.5q-1.7-4.1 2.5-3l5-1 7-4 7-1 4-3 6-1 4-3 6-1zM558 447l7 .5-6 1.5-2.5 5-3.5 1v5h-2.5l-15 6-61 12-4.5-1 2-5.5-1.5-2.5-12.5 2q1 7.3-2 11.5v8l-1 1-.5 48.5-2.5-72.5 2-3.5 2.5-1 26-1 6-3 20-1 6-3 16-1 13-4H558zm183.5 42q2.3 1.8 1.5 6.5l-4 13-1 15q-2.4 7.1-8 11l4.5 6.5 7 4 14.5 1q1.3 3.3-3.5 2l-9 4h-5l-11 4-8 1-6.5 5.5q.8 2.3-1.5 1.5-10.4 11-15.5 26-2.7-1.1-2 1.5l-2.5 3.5q-3.3-1.1-2.5 1.5l-1 2.5q-3.3 1.3-2-3.5l3-6 1-16-2-6-7-9.5-7.5-5-14-3h-22l-3.5-2.5 1.5-3.5 2-1h15l1 1 20 1 11-4 13.5-10.5 5-9 1-15v-2l.5-3.5 4.5 8.5 1 6 4.5 4.5 2 1 2.5-1 2-6.5 16.5-22.5zm262 89 8 1 6.5 5.5 5.5 7.5 2.5 1.5 1.5 2.5 2.5 1.5 2.5 3.5h1.5q-1.5 3.8 1.5 3l4 5 2.5 1.5 10 13.5 4 2.5q-.7 2.3 1.5 1.5l30.5 30.5 1 5-2.5 4.5q-2.2-.7-1.5 1.5l-6.5 8.5q-2.2-.7-1.5 1.5l-10.5 11.5q-2.2-.7-1.5 1.5l-15 16v1.5l-3 1.5-9 12.5-3 1.5-11.5 14.5q-2.6-.8-1.5 2.5l-4 3-5 7.5-3 1.5-7 9.5q-2.7-1.1-2 1.5l-6.5 7.5q-2.2-.7-1.5 1.5l-1 2.5-4 2.5q.8 2.3-1.5 1.5l-4 5q-2.2-.7-1.5 1.5l-1 2.5-3 1.5-6 9.5-3 1.5-1 3.5-4 2.5-1.5 2.5q-2.2-.7-1.5 1.5l-1 2.5-3 1.5-2.5 3.5q-2.2-.7-1.5 1.5L936.5 839l-2.5 1.5-5.5 7.5q-2.2-.7-1.5 1.5l-1 2.5-4 2.5-5 7.5q-2.7-1.1-2 1.5l-7.5 8.5-2.5 1.5-5.5 7.5-2.5 1.5-5.5 7.5-2.5 1.5-2.5 3.5q-2.2-.7-1.5 1.5l-1 2.5-3 1.5-10 13.5-3 1.5-5 7.5-3 1.5-15.5 19.5q-2.2-.7-1.5 1.5l-1 2.5-3 1.5-1 3.5q-2.7-1.1-2 1.5l-19 24v2.5l-4 2.5-1.5 2.5q-2.2-.7-1.5 1.5l-1 2.5-3 1.5-1 3-17.5 20.5-5 2-7.5-3-2.5-4-2.5-1.5-22-26.5-3-1.5-2.5-3.5q-2.2.8-1.5-1.5l-4-2.5-1-4-3-1.5-2.5-3.5q-2.2.8-1.5-1.5l-15-16V945q-2.7 1.1-2-1.5l-6-7.5-3-1.5-2.5-3.5q-2.6.8-1.5-2.5l-4-3-2.5-3.5q-2.2.8-1.5-1.5l-1-2.5-3-1.5-6-8.5-3-1.5-5-7.5-4-2.5-1.5-2.5q-2.2.8-1.5-1.5l-5-6.5-4-2.5-10-13.5q-2.7 1.1-2-1.5L634.5 856q-2.2.8-1.5-1.5L613.5 831q-2.2.8-1.5-1.5l-9-11-4-9-1-17 1-5 4-7 18.5-23.5q2.3.8 1.5-1.5l11.5-14.5q2.3.8 1.5-1.5l1-2.5 3-1.5 16.5-18.5 7-2q9.3 2.7 13.5 10.5l13 15.5 3 1.5 2.5 3.5q2.3-.7 1.5 1.5l10.5 10.5h1.5v1.5l11.5 11.5q2.3-.7 1.5 1.5l4 2.5 2.5 4 2.5 1.5 1.5 2.5 2.5 1.5 1.5 2.5 24 22h2.5l2.5 4 10 6 8 1 7.5-4 1.5-3 2.5-1.5 4-6.5 4-2.5 1.5-2.5 2.5-1.5 5.5-7.5 2.5-1.5 15.5-18.5q2.3.8 1.5-1.5l1-2.5 4-2.5 1.5-2.5q2.3.8 1.5-1.5l15.5-18.5q2.3.8 1.5-1.5l1-2.5 3-1.5 2.5-3.5q2.3.8 1.5-1.5l1-2.5 3-1.5 13-15 1-3.5 4-2.5 1.5-2.5q2.3.8 1.5-1.5l1-2.5 4-2.5 1.5-2.5q2.3.8 1.5-1.5l1-2.5 3-1.5 3-5.5q2.7 1.1 2-1.5l1-2.5 4-2.5 1.5-2.5q2.3.8 1.5-1.5l1-2.5 4-2.5 1.5-2.5q2.3.8 1.5-1.5l11.5-13.5q2.3.8 1.5-1.5l1-2.5 4-2.5 1.5-2.5 2.5-1.5q-1.1-3.3 1.5-2.5l4-5 2.5-1.5 5.5-7.5q2.3.8 1.5-1.5l11-13.5 3-1.5 5.5-7.5 2.5-1.5 5.5-7.5 2.5-1.5 1.5-2.5 2.5-1.5 1.5-2.5zm59 190 .5 5-17 13.5-1.5 2.5-8.5 6-2.5 4-2.5 1.5q.8 2.3-1.5 1.5l-1.5.5 1-4.5q2.7 1.1 2-1.5l10-13.5 4-2.5q-.7-2.2 1.5-1.5l8-7zm-96 102 .5 9.5-3 4-1 9-1.5 1.5-2.5 1.5-1 5.5-3 1.5-1 4.5q-2.7-1.1-2 1.5l-2 6.5-3 1.5-1 5.5-4 2.5q1.1 3.3-1.5 2.5l-2.5 5-3 1.5-2 5.5-3 1.5-1.5 3.5q-2.2-.7-1.5 1.5l-5 7v2L911.5 966q-2.2-.7-1.5 1.5l-5 2.5-1.5 3-3.5 1.5q.8 2.3-1.5 1.5l-10.5 5-2.5 4-15 5q-3-1.5 0-3l2.5-1.5 1.5-2.5 3.5-2.5q-.7-2.2 1.5-1.5l5-7q2.3.8 1.5-1.5l1-3.5q3.8 1.5 3-1.5l1-3.5 3-1.5 6.5-10.5q2.3.8 1.5-1.5l10-12V934l4-2.5 14.5-18.5q2.3.8 1.5-1.5l1-2.5 4-2.5q-.7-2.2 1.5-1.5l4-5 2.5-1.5q-1.2-3.7 2.5-2.5l1.5-4 4-1 1.5-4 2.5-1.5 2.5-5.5q2.3.8 1.5-1.5l1-3.5 3-1.5z"/><path fill="#aed17b" stroke="#aed17b" d="M836.5 140h12l13 5 48 36 17 10 21 15 5.5 2q-1.2 3 2.5 2l27 17 34 17 37 16 6 1 4 3h3l19 8 9 2 5 3h4l22 8 9 1 6 3 9 1 5 3 11 1 11 4h7l11 4h9l11 4 15 1 7 3 19 1 8 3 22 1 13 3 42 1q4.5 3.5 12 4l5 4h2l14.5 13.5v2l4 4 4 8 4 13v166l-1 1v51l-2 10-2 91-2 10-1 28-1 1v17l-3 15-1 22-3 13-1 17-3 12-2 20-3 10-1 13-3 8-1 10-2 4-6 28-3 6-1 9-3 5-1 7-3 6-1 7-3 6-6 21-2 2q-.9 8.1-5 13l-1 6-3 4v3l-5 13-12 24v3l-8 15-1 5-3 3-2 6-14 23-3 7.5q-3-1.2-2 2.5l-17 26v2l-31.5 43.5q-2.2-.7-1.5 1.5l-2.5 3.5q-2.2-.7-1.5 1.5l-1 2.5-3 1.5-7.5 10.5q-2.2-.7-1.5 1.5l-1 2.5-3 1.5-2.5 3.5q-2.6-.8-1.5 2.5l-4 3-23 25v1.5l-3 1.5-2.5 3.5q-2.2-.7-1.5 1.5l-4 2.5-2.5 4-2.5 1.5-1.5 2.5-2.5 1.5q.8 2.3-1.5 1.5l-26.5 24.5-1.5 2.5-2.5 1.5-1.5 2.5q-3.3-1.1-2.5 1.5l-5 4-1.5 2.5-37 30h-2.5l-2.5 4q-3.3-1.1-2.5 1.5l-25.5 19.5h-2.5l-1.5 3-3.5 1-1.5 3-46 30-10.5 5q1.1 2.7-1.5 2l-7 5-4.5 1q1.1 2.7-1.5 2l-10 6-4.5 1q1.1 2.7-1.5 2l-21 12-22 10-3 3-5 1-15 8-14 5-19 1-11-2-27-12-72.5-39q1.3-3-2.5-2l-31.5-19.5q.8-2.6-2.5-1.5l-4.5-2q1.1-2.7-1.5-2l-25-17-3.5-1-1.5-3-25-17-44.5-35.5q.8-2.2-1.5-1.5l-13.5-10-2.5-4-2.5-1.5-1.5-2.5-7.5-5.5-1.5-2.5-2.5-1.5q.8-2.2-1.5-1.5l-11.5-10.5-1.5-2.5-2.5-1.5-1.5-2.5-2.5-1.5-1.5-2.5-11.5-10.5-1.5-2.5-2.5-1.5-1.5-2.5-2.5-1.5-9.5-11.5q-2.2.8-1.5-1.5l-6.5-7.5-2.5-1.5-2.5-3.5q-2.2.8-1.5-1.5l-21-26-1-3.5-3-1.5-2.5-4.5q-2.2.8-1.5-1.5l-9-12-1-3.5q-2.7 1.1-2-1.5l-15.5-23.5q-2.2.8-1.5-1.5l-9-14-1-4.5q-2.7 1.1-2-1.5l-13-21-1-5-3-3-1-5-8-12q0-6-4-8l-1-6-7-11-1-6-8-15v-3l-4-7-1-6-3-3-1-7-3-4-1-7-4-7v-4l-3-4-1-8-4-7-1-9-3-4-1-10-3-5-1-10-3-5-1-10-3-5-1-12-4-11v-8l-4-11-1-13-3-7-1-16-3-7-1-20-3-8-1-24-3-11v-9l-1-1v-23l-1-1v-7l-2-7v-11l-1-1v-37l-1-1v-14l-2-8v-20l-1-1v-87l-1-1v-23l-1-1v-24l-1-1-1-88q2.3-1.2 1-6l2-3 1-10 13-23.5 4-2.5 1.5-2.5 13-9q6.2-.3 9-4l10-1 4-2 28-1 1-1h20l9-3 22-1 7-3 17-1 7-3 14-1 11-4h8q8.5-5 22-5l6-3 10-1 6-3 9-1 6-3q10.7-.3 17-5h4l6-3 21-6 5-3 6-1 7-4h4l6-4 13-4 4-3 5-1 4-3 24-10 41-21 29-19 25-14 50-36zm4.5 3-14 3-7 4-26 20h-2l-22 16-64 38-31 14-20 11-27 10-2 2-6 1-7 4-6 1-2 2-9 2-2 2q-10 1-15 5l-7 1-5 3-8 1-6 3-13 2-6 3-9 1-6 3-11 1-7 3q-11 0-18 4l-11 1-9 3-20 2-9 3-15 1-15 3-26 1-8 2h-12l-1 1h-15l-22 9-6 5-11 13-4 8q-1 6-4 10l-1 11-1 1 2 187 1 1 1 44 1 1v25l1 1v32l2 11v10l1 1 1 34 3 16 1 23 4 20v10l4 18 1 14 3 8 1 13 3 8 1 11 4 13v6q4 6 4 17l4 10 1 9 3 6 1 9 2 2 2 11 3 5 1 8 12 29 1 7 7 13 1 6q4 2 4 9l3 4 1 6q10 15 17 35l3 3 5 12 12 19 1 4 25 40 21 28q-1 2 2 1l2 4q-1 2 2 1l2 5 29 35 3 1 9 12 3 1 1 3 3 1 1 3 4 2 3 4q2-1 1 2l4 2 1 3 4 3q-1 2 2 1l2 4 3 1 2 4h2l9 9q2-1 1 2l39 32q2-1 1 2l4 2q2-1 1 2l52 39 63 41 4 1 25 16q16 6 30 16l34 17 24 9q13 2 22-1l27-11 26-13 60-34 49-32 24-18q2 1 1-1l4-3q2 1 1-2l5-2 51-42q2 1 1-1l13-11 1-3h2l19-18 41-43 3-2 19-23q-1-3 2-2l21-27 26-38 37-65 24-55 17-46 2-10 3-6 1-7 2-3 6-24 3-7 1-9 3-7 2-14 3-8 1-13 3-9v-7l3-11 2-22 3-13 1-18 3-16v-12l1-1v-10l1-1 1-23 1-1v-15l1-1 1-43 1-1v-15l1-1v-34l1-1v-21l1-1 1-199 1-1-4-21-3-7-9-14-10-8-8-4-11-3-57-3-6-2-23-2-12-3-12-1-5-2-18-2-8-3-12-1q-7-4-18-4l-6-3q-12 0-19-5l-9-1-6-3-9-1-5-3-8-1-5-3-7-1-16-7-6-1-7-4-6-1-4-3-6-1-28-12-42-21-3-3-11-5-17-12-10-5q-18-14-37-25l-38-29-9-4z"/><path fill="#aed17b" stroke="#aed17b" d="m837.5 170 10.5 1q1.3 3-2.5 2l-4 1-3.5 3.5-5 14-11.5 12.5-37 27-19 10-11 4-48 25q-19.1 6.4-35 16l-11 3h-11l-3-1q-6.3 3.4-16.5 2-1.2-3 2.5-2l20-10 5-1 2-2 23-9 57-30 38-24 39-29z"/><path fill="#aed17b" stroke="#aed17b" d="m837.5 231 9 1 58 41 33 20 13 6 3 3 51 25 28 10 2 2 9 2 4 3q7.2.3 11 4l7 1 5 3q9.9.6 16 5h4l5 3 13 2 6 3q10.7.4 18 4l11 1 7 3 12 1 7 3 14 1 7 3 16 1 11 3 19 1 16 3 42 2 11.5 5.5 5 9v84l-1 2v73l-1 1v28l-1 1v24l-1 1-1 50-1 1v15l-2 10-1 34-3 16v11l-3 15-3 32-16 76-21 69q-4.1 4.9-5 13l-2 2-1 6-7 15-2 8-3 4-1 5-3 4-4 11-34 63-43 61.5q-2.7-1.1-2 1.5l-2 3.5q-2.7-1.1-2 1.5l-11.5 14.5q-2.2-.7-1.5 1.5l-17 18-6 8.5q-2.7-1.1-2 1.5l-24.5 24.5h-1.5l-2.5 4-2.5 1.5q.8 2.3-1.5 1.5-7.5 9.4-17.5 15l-1.5 3-64 50-49 33-43 25-4 1-3 3-34 17-11 4-6 4h-7l-4-3h-3l-28-14-42-24-3-3-6-2-28-19-5-2-7-6-5-2-16-12h-2l-40-30-39.5-34.5q.8-2.2-1.5-1.5l-6.5-5-2.5-4-2.5-1.5q.8-2.2-1.5-1.5l-3.5-5-3-1.5-2.5-3.5q-2.2.8-1.5-1.5l-13-13v-1.5l-3-1.5-2.5-3.5q-2.2.8-1.5-1.5l-23.5-27.5q-2.2.8-1.5-1.5l-17-21-33-46-10-18-7-9-1-4-4-5-4-10-3-3-13-26-1-5-8-14-1-5-3-3-1-6-3-4-5-15-4-7-1-7-3-4-1-8-3-4-1-8-3-5q-.4-9.6-5-15l-1-8-2-2-1-10-4-10-1-11-3-5-1-13-2-3-2-19-3-10-1-18-3-10-1-22-3-11-2-35-2-5v-10l-1-1-1-40-2-6v-10l-1-1-1-51-1-1-1-16-1-1-1-155-1-2 1-1v-14l-1.5-4.5-2.5 8.5 1 1v15q-2.2 1.3-1 6l-1.5 1.5-3-2-5.5-2-1-3.5-1-26-1-1-1-11 4.5-7.5 6-4 5-1 70-1 1-1 30-1 7.5 2.5-3 1.5q1.1 2.7-1.5 2l-8 3h-11l-1 1h-11l-1 1-16 1-1 1-19 1-11 3h-6l-3.5 2.5 26.5.5 10-3 36-1 7-3 18-1 12-4h13q1.2-2.3 6-1l3-2 17-1 13-4h8l5-1 2-2 12-1 5-1 5-3 10-1 4-3 9-1 5-3 10-1 5-3 9-1q5.4-4.6 15-5l2-2 9-2 4-3 6-1 4-3 6-1 6-4h3l6-4 5-1 16-8 3-3 6-1q2-4 8-4l3-3 14-6q5.8-5.7 15-8l3-3 4-1 3-3 4-1 3-3 4-1 33-24 5.5-2 1.5-3h2q9-8 21-13Zm.5 3-37 24-10 8-4 1-2 3-10 5-11 8-26 13-3 3-5 1-3 3-21 10q-4-1-3 2l-7 2-3 3-6 1-3 3-6 1-6 4h-4l-6 4h-4l-6 4-7 1-4 3-8 1-8 4h-6l-4 3-9 1-8 4h-6l-8 4-9 1-5 3-12 1-5 3-13 1-6 3-14 1-6 3-17 1-8 3-18 1-16 4-24 1-5 2-26 1-1 1h-30l-7 9v87l1 1v20l1 1v43l1 1 1 62 2 9v8l1 1 1 41 1 1 1 17 1 1 1 33 3 16v7l1 1v14q3 1 1 8l3 9 1 21 3 8 1 17 3 7 1 15 3 5 1 12 3 5 1 10 4 10 1 9 3 5 1 8 2 2 2 10 3 5 1 8 11 26 1 6 4 6v3l8 15 1 5 4 6 4 11 13 26 3 3 2 6 20 33 20 27v2l3 1 1 4 9 12q-1 2 2 1l2 5 17 21q-1 2 2 1l6 8q-1 2 2 1l24 28v1l4 3q-1 2 2 1l2 4 3 1 5 7q-1 2 2 1l2 4 3 1q2-1 1 2l3 1 2 4 18 14 1 3 3 1 1 3 8 5 2 4h3l7 6q2-1 1 2l4 1 1 3q6 1 10 6 2-1 1 2l4 1 2 4h3l7 6q2-1 1 2l4 1 24 17q3-1 2 2l10 6h2l1 3 5 1 7 5q2-1 1 2l13 6 3 3 4 1 1 3 6 1 1 3 6 2q2-1 1 2l7 2 17 11 5 1q2 4 9 5l3 3h3l6 4h3l5 4 8 2 8-2 6-4h3q3-4 11-5l3-3 13-5 3-3q6-1 9-5h3l4-4 10-5q3 1 2-1l9-6 4-1 3-3 5-1 1-3 6-2q2 1 1-2l5-2q2 1 1-2l5-2q3 1 2-1l8-6 4-1 1-3q8-3 14-9h2l1-3 5-2q2 1 1-1l5-3 1-3q6-1 10-6 2 1 1-1l4-2 1-2 4-2 1-2 9-7h2l1-2 4-2 1-3 14-10q2 1 1-1l4-3q2 1 1-1l5-4q-1-3 2-2l2-4 3-1q2 1 1-1l4-3 1-3 4-2q-1-3 2-2l27-28 3-2 1-2q-1-3 2-2l1-2 4-3 1-2 3-2 1-4 3-1q2 1 1-2l3-2 10-14 4-3q-1-4 2-3l2-3q-1-3 2-2l6-9 4-3v-2q4-3 5-8l3-2 1-3 3-2v-2l6-8q-1-3 2-2l5-10 4-3 2-5q-1-3 2-2l1-4 3-2 1-5 8-11v-3q5-3 5-10l8-12v-3l3-2 1-5 8-15 1-6 3-3 1-6 3-3 2-8q-1-3 2-2l2-8q-1-3 2-2l2-8q-1-4 2-3l1-7 4-6 1-8 3-4q0-9 4-13l1-9 3-4 1-8 4-9 1-10 3-6v-7l4-11 1-12 3-6 1-16 3-6 1-16q2-2 1-6l2-3q-2-7 1-8v-14l4-18v-15l3-17v-13l1-1 1-46 1-1v-12l1-1v-14l1-1 1-99 1-1v-66l1-1v-53l-3-9-6-5h-11l-12-3-35-1-7-3-24-1-6-3-18-1-6-3-14-1-11-4h-8l-10-4h-8l-11-4-10-1-5-3-10-1-4-3-8-1q-6-5-15-5l-5-3-7-1-14-7-7-1-4-3-7-1q-3-4-10-4l-3-3-6-1-6-4h-3l-6-4-5-1-3-3-5-1-8-5q-3 1-2-2l-6-2q-3 1-2-2l-21-10-2-3h-3q-3-4-9-5l-19-13q-3 1-2-2l-11-6-2-3h-2l-11-9h-2l-7-5-2-3h-2l-4-4-4-1-10-7z"/><path fill="#aed17b" stroke="#aed17b" d="m841.5 269 15.5 10.5q-.8 2.6 2.5 1.5l2.5 4h2.5l9.5 6.5q-.7 2.3 1.5 1.5l35.5 23.5q-.7 2.3 1.5 1.5l10 5 3 3 6 2 3 3h3l5 4 13 5 3 3 14 5 14 8h3l5 4h4l6 4 6 1 14 7 8 1 7 4h4l8 4 8 1 4 3h5l8 4 9 1 4 3 10 1 8 4h6l8 4 10 1 5 3h9l5 1 5 3 16 1 5 3h12q1.5 2.5 7 1l6 3 21 1 20 4 33 1 5.5 5.5v115l-1 1v32l-1 1-2 92-1 1v14l-2 10-1 32-3 13v14l-1 1-1 15-2 5-1 18-3 10-1 13-3 8v5l-2 11-2 4-1 10-3 7-1 9-4 11-1 9-3 5-1 8-3 4v4l-2 7-2 2-2 11-2 2-1 6-4 7v3q-4.2 4.3-5 12l-3 4-1 6-7 13-1 6-3 3-1 5-18.5 35.5q-2.6-.8-1.5 2.5l-27 45-13.5 18.5q-2.6-.8-1.5 2.5l-4 2.5-2 6q-2.7-1.1-2 1.5l-6.5 8.5q-2.2-.7-1.5 1.5l-11.5 14.5q-2.2-.7-1.5 1.5l-2.5 3.5q-2.2-.7-1.5 1.5l-1 2.5-3 1.5-23 25v1.5l-4 2.5-1.5 2.5-2.5 1.5-1.5 2.5-2.5 1.5-1.5 2.5-2.5 1.5-1.5 2.5-2.5 1.5-1.5 2.5-3.5 2.5q.8 2.3-1.5 1.5l-17.5 15.5-1.5 2.5q-3.3-1.1-2.5 1.5-1.2 3.3-5 2.5l-2.5 4-9.5 6.5q.8 2.3-1.5 1.5l-2.5 1-1.5 3-3.5 1-1.5 3-11 9-3.5 1-1.5 3-3.5 1.5q.8 2.3-1.5 1.5l-4.5 2-1.5 3-4.5 1q1.5 3.8-1.5 3l-12 9-3.5 1-1.5 3-4 1-20.5 13.5q.8 2.3-1.5 1.5l-21 13-4 1-3 3-4 1-3 3-4 1-3 3-4 1-3 3-6 2-3 3-5.5 1-1.5 3-5 1-3 3q-7.1.4-10 5l-6 1-6-2-10-7-5-1-12-8-19-9-42.5-26.5q.8-2.6-2.5-1.5l-4.5-2q1.1-2.7-1.5-2l-18-12-5.5-2-1.5-3h-2l-14.5-10.5q.8-2.2-1.5-1.5l-4.5-2q1.1-2.7-1.5-2l-20.5-15.5q.8-2.2-1.5-1.5l-3.5-2.5q.8-2.2-1.5-1.5l-13.5-10-2.5-4-7.5-5.5q.8-2.2-1.5-1.5l-7.5-6.5q.8-2.2-1.5-1.5l-15-15H611v-2h-2v-2q-2.7 1.1-2-1.5l-20.5-21.5-2.5-1.5-1.5-2.5-2.5-1.5-9.5-12.5q-2.2.8-1.5-1.5l-21-25-6-10.5-3-1.5-1-3.5-3-1.5-6.5-10.5q-2.2.8-1.5-1.5l-34-54-1-5.5q-2.7 1.1-2-1.5l-6-12-3-3q-.4-7.1-5-10v-3l-3-3-1-6q-4.9-3.1-5-11l-3-3-1-7-3-3-1-7-3-3-1-7-3-4-1-7-3-4-2-10-3-4-1-8-3-4-1-9-3-4-1-10-4-9v-6l-3-4-1-12-4-11v-9l-4-10v-10l-4-10-1-17-3-6-1-21-3-9v-10l-1-1v-19l-3-12-1-39-1-1v-10l-2-7v-14l-1-1v-38l-1-1v-23l-1-1v-10l-1-1v-27l-1-1v-107l1-2.5 5.5-2 12-1 1-1h19l16-4 23-1 5-3 21-1 5-3q4.7 1.3 6-1h13l9-4h12l8-4h8l10-4 10-1 5-3 11-1 4-3 9-1 4-3 9-1 8-4h5l6-4h4q5.2-4.3 14-5l4-3 7-1 6-4h4l3-3 6-1 6-4h3l6-4h3q3.6-4.4 11-5l3-3 6-1 3-3 5-1 3-3 5-1 3-3 14-6 10-7 4.5-1q-1.1-2.7 1.5-2l26.5-15q-1.1-2.7 1.5-2zm-1.5 4-45 30-43 25-24 12-5 1-14 8-14 5-4 3-15 5-4 3-6 1-7 4-6 1-2 2-9 2-2 2-10 2-5 3-8 1-5 3-8 1-6 3-11 2-3 2-10 1-6 3-14 2-7 3-12 1-8 3-13 1-16 4-14 1-12 3-15 1-6 2h-9l-1 1h-9l-17 3h-7l-1 1h-8l-3 3 1 130 1 1v29l1 1v33l2 10v14l1 1 1 37 2 9v9l1 1 1 30 4 22v10l5 25v6l3 9 1 12 2 4 2 16 3 8 1 11 4 12v4l3 6 2 12 7 19 1 7 11 27 1 6 21 50 7 11 2 6 29 50 20 30 28 36 30 34 3 1 1 3 5 4q-1 2 2 1l4 5q2-1 1 2l8 6 1 3 16 13 1 3 8 5 1 3 6 3 7 7 31 24 37 26h2l23 16 10 5 9 7 72 39 79-43 37-24 18-14q2 1 1-2l15-9 47-38 1-3q21-15 38-35-1-3 2-2 32-33 59-70l16-23 22-38 3-3 22-43 9-23 3-4 2-8 2-2 2-8 6-13 17-55 6-28 3-8 5-31 3-9 1-16 3-11 1-17 2-9 1-17 1-1v-13l2-11 1-23 1-1 1-46 1-1v-21l1-1v-25l1-1 1-160-3-4h-9l-9-2h-13l-1-1h-14l-12-3-17-1-8-3-16-1-13-4h-7l-13-4-11-1q-8-4-18-5l-3-2-8-1-6-3-8-1-22-8-8-1-5-3-7-1-5-3-21-6-12-6-8-2-4-3-5-1-4-3-5-1-14-8-5-1-32-16-29-17-48-34q-3 1-2-2l-6-5z"/><path fill="#aed17b" stroke="#aed17b" d="m833.5 308 1.5 2.5-1 1v17l1 1v49l-1 1-1 36q-2.7.8-2 5l2 7v43l-3.5 4.5-1.5-.5 1 7-3.5 8.5-2.5-1.5v-8l-1.5-1.5q-2.2-.7-1.5 1.5 2.5 1.5 1 7l-1 3 2.5 16.5 1-2q3.4 2.6 2.5 9.5l3.5 6.5 1.5-.5 2 6-7.5 10.5q-2.2.8-1.5-1.5l-2.5-4.5-1.5 2.5q1.7 6.3-1 8l-2 44 1 5v2l-2 10v28l-1 1v9l-1 1v8l-2 6-2 18-2 6-1 20-9 30-2 25-8.5 10.5q-6.2 1.3-7.5-2.5l-1.5-2.5q-3 .9-1.5-3.5l-1-1v-35l-1-1-1-15 1-1 2-18 3-9v-15l1-1v-9l3-8v-20l1-5.5q2.7 1.1 2-1.5l1-1 1-12 3-6 1-13 3-7 2-32-2.5-3.5q-2.2-.7-1.5 1.5l-3.5 2.5q-6.7-1.7-8.5 1.5l.5 1.5-1.5.5v10l-5 4q.9 3-3.5 1.5l-8 6H762q-1.8 2.4-1 8.5 3.8 2.2 3 9l2.5 2.5 2.5 1.5q-1.2 5.3 1.5 6.5l5-1 5.5 2.5-1 2 4 2-1 3 1 2.5q-4.1-1.3-3 2l2 .5-2 1 1 5-2 11-1.5 1.5q-9.7 2.3-12-3l-2 1-7-2-6.5-4.5-1.5-2.5q-6 1-7-3h-6l-3 2-5-2h-2l-6-1-5.5 4-2.5 7-.5-11q4 1.4 2-5.5l2-8 11-27 8.5-10.5 10-8 12.5-1.5-16.5-.5q-6.3 4.2-17 4l-9.5 5.5-1.5 2.5q-2.2-.7-1.5 1.5l-13 22-9 11v2l-8 11-5 16v17l6 16 8 11v6q-.5 3-4.5 2.5l-6.5-5.5q.8-2.2-1.5-1.5l-1-1h-9q-16.5 6.5-29 17H637l-1.5 3-4.5 2.5q.8 2.3-1.5 1.5l-6.5 5-2.5 4q-2.2-.7-1.5 1.5l-9 9v1.5l-3 1.5-2.5 3.5q-2.2-.7-1.5 1.5l-5 4-1.5 2.5-26.5 21-8 14.5-3 16 3.5 4.5 12-16 9-6q2.8 1.3.5 2.5.8 3.8-1.5 4.5-2.6-.8-1.5 2.5l-5 10v29l4 9v3.5q-4.6-1.2-6 1.5L564 850q-2.7-1.1-2 1.5-14.8 14.7-26 33L524.5 896l-18 12-8 2-4.5-2.5-4-7q-.5-7.5-4-12l-1-9-8-26-1-12q-3.8-8.7-4-21l-3-9-2-18-3-11-1-13-3-11-1-23-1-1-1-16-1-1-1-28-1-1-1-18-1-1-1-39-1-1v-14l-1-1v-13l-1-1-2-126 1-1v-9l2.5-3.5q8.3-.2 13-4l19-1 8-3 18-1 14-4h7l8-3 17-2q7-3.5 17-4l7-3 9-1 7-3 9-1 3-2 10-2 5-3 7-1q5.2-4.3 14-5l5-3 7-1 4-3 7-1 4-3 6-1 4-3 9-2 2-2q7.2-.3 11-4l17-4q3.1-4.6 9.5-5-1.1-2.7 1.5-2l22-10 3-3 6-2 24-15 16.5-4 8-20 8.5-5h3l1.5.5.5-3.5 4 1 1.5-1.5q-5.2-2.3-1.5-4.5h2.5v-4h1.5zM681 408l-8 4-6 1-4 3-6 1-4 3-7 1-7 4-5 1q-5-1-3 3l-10 2h14l3 4h4l10-7 6-2 21-12 3-3 5-1q1-3-6-2Zm-123 39v3h-14l-13 4-16 1-6 3-20 1-6 3-26 1-3 1-2 4 3 72v-48l1-1v-8q3-5 2-12l13-2 1 3-2 5 5 1 61-12 15-6h2v-5l4-1 2-5 6-1zm201 26-3 5q1 2-2 1l-2 6q1 2-1 1l-2 2-1 11-3 4-1 15-3 5v4l-2 5-3 2 1 5 5 1h13l1-1q2 1 1-1l-3-3v-1l-1-2q-1-7 2-10l9-7 10-3 2-2h5l3-3h4l7-6h1q-1 2 2 1-1 4 2 5l2-9q1-10-1-14-3-1-2 2-1 2-4 1l-3-4-4-4-14-4h-2l-9 1v2l-1-3zm-55 7v5h2l4 8 1 13 3 8 3 1 1-1 1-6 2-2-2-3q1-3-1-2l-5-9q1-3-1-2l-3-5v-5zm38 9-4 2-17 23-2 6-2 1-2-1-5-4-1-6-4-9-1 4v2l-1 15-5 9-13 10-11 4-20-1-1-1h-15l-2 1-2 4 4 2h22l14 3 7 5 7 10 2 6-1 16-3 6q-1 4 2 3l1-2q-1-3 3-2l2-3q-1-3 2-2 5-15 16-26 2 1 1-1l7-6 8-1 11-4h5l9-4q4 1 3-2l-14-1-7-4-5-6q6-4 8-11l1-15 4-13q1-5-1-7Z"/><path fill="#aed17b" stroke="#aed17b" d="M754.5 488q4.6-1.4 2.5 4.5 2.5 1.5 1 7l-1 2.5-4 1v-13.5zm-4 18 1.5 4.5q-2.5 1.5-1 7 3 2.3 2 7.5l-4-1.5zm257 68 7.5 4 1.5 3 2.5 1.5 10.5 12.5q2.3-.7 1.5 1.5l9 9v1.5l3 1.5 21.5 23.5 24.5 23.5q2.8 2.7 2 9l-9 13-27.5 30.5q-2.2-.7-1.5 1.5l-6.5 7.5q-2.2-.7-1.5 1.5l-15.5 18.5q-2.2-.7-1.5 1.5l-6.5 7.5q-2.2-.7-1.5 1.5L992.5 779l-2.5 1.5-22.5 27.5q-2.2-.7-1.5 1.5l-6.5 7.5q-2.2-.7-1.5 1.5l-15 16v1.5l-3 1.5-5 7.5-3 1.5-35.5 41.5q-2.2-.7-1.5 1.5L875.5 912l-2.5 1.5-4 6.5-3 1.5-15 19.5q-2.7-1.1-2 1.5-16.8 17.7-30 39l-12 13-2 4.5q-2.7-1.1-2 1.5l-11.5 14.5q-2.8 4.2-9 5l-4-1-10.5-9.5-1.5-2.5q-2.2.8-1.5-1.5l-27-29V975l-3-1.5-5.5-7.5-2.5-1.5-35.5-40.5-2.5-1.5-26-29V892l-4-2.5-1.5-2.5q-2.2.8-1.5-1.5l-9-11.5-3-1.5-15.5-19.5q-2.2.8-1.5-1.5l-28-35-4-14v-10l3-9 9-13.5q2.7 1.1 2-1.5l2-3.5q2.7 1.1 2-1.5l15-19.5q2.7 1.1 2-1.5l23.5-26.5 7-4h5l11.5 9.5 39 41v1.5h1.5q17.5 20.7 38.5 36l1.5 3 14 11 4 2q5.5-1.5 7 1 7.9-2.1 11.5-8.5-.7-2.2 1.5-1.5l37-42q2.3.8 1.5-1.5l40-46V716l3-1.5 5-7.5 3-1.5 5-7.5q2.7 1.1 2-1.5l15.5-18.5 2.5-1.5 5.5-7.5q2.3.8 1.5-1.5l11-13.5 3-1.5 5-7.5 3-1.5 5-7.5 3-1.5 15.5-18.5q2.3.8 1.5-1.5l6.5-7.5q2.3.8 1.5-1.5l25.5-27.5 5-3zm-3.5 4-8 5-2 3-2 1-2 3-2 1-6 8-2 1-6 8-3 1-11 14q1 2-1 1l-6 8-2 1-4 5q-3-1-2 3l-2 1-2 3-4 2-1 3q1 2-1 1l-12 14q1 2-1 1l-2 3-4 2-1 3q1 2-1 1l-2 3-4 2-1 3q1 2-2 1l-3 6-3 1-1 3q1 2-1 1l-2 3-4 2-1 3q1 2-1 1l-2 3-4 2-1 4-13 15-3 1-1 3q1 2-1 1l-3 4-3 1-1 3q1 2-1 1l-16 19q1 2-1 1l-2 3-4 2-1 3q1 2-1 1l-16 19-2 1-6 8-2 1-2 3-4 2-4 7-2 1-2 3-7 4-8-1-10-6-3-4h-2l-24-22-2-2-2-2-2-2-2-2-3-4-4-2q1-3-1-2l-12-11v-2h-1l-11-10q1-3-1-2l-3-3-3-2-13-15q-4-8-13-11l-7 2-17 19-3 1-1 3q1 2-1 1l-12 15q1 2-1 1l-19 24-4 7-1 5 1 17 4 9 9 11q-1 2 2 1l19 24q-1 2 2 1l10 13q-1 2 2 1l10 14 4 2 5 7q-1 2 2 1l1 3 4 2 5 8 3 1 6 9 3 1 1 3q-1 2 2 1l2 4 4 3q-1 3 2 2l2 4 3 1 6 8q-1 2 2 1v2l15 16q-1 2 2 1l2 4 3 1 1 4 4 3q-1 2 2 1l2 4 3 1 22 27 3 1 2 4 8 3 5-2 17-20 1-3 3-2 1-2q-1-3 2-2l1-2 4-3v-2l19-24q-1-3 2-2l1-3 3-2 1-2q-1-3 2-2l15-19 3-2 5-7 3-2 10-13 3-2 1-2q-1-3 2-2l2-3 3-2 5-7 3-2 5-7 3-2 7-8q-1-3 2-2l5-7 4-3 1-2q-1-3 2-2l5-7 3-2 15-17q-1-3 2-2l2-3 3-2 1-2q-1-3 2-2l1-2 4-3 1-3 3-2 6-9 3-2 1-2q-1-3 2-2l4-5q2 1 1-1l4-3 1-2q-1-3 2-2l6-7q-1-3 2-2l7-9 3-2 5-7 4-3q-1-4 2-3l11-14 3-2 9-12 3-2v-1l15-16q-1-3 2-2l10-11q-1-3 2-2l6-8q-1-3 2-2l2-4-1-5-30-31q-3 1-2-1l-4-3-10-13-2-2-4-5q-3 1-2-3h-1l-3-3-2-2-2-2-2-2-6-7-6-6zm-245.5 67 1.5 4h-4v-1.5zm308 118q3.3-1.1 2.5 1.5l1 3-2.5 3.5q-2.2-.7-1.5 1.5l-9 7.5-1.5 3-11.5 9.5-1.5 2.5-11.5 9-1.5 3-6 2-2.5-3.5q10.2-18.3 25.5-31.5l12-8zm-3.5 5-8 4-8 7q-3-1-2 2l-4 2-10 14q1 2-2 1l-1 5 2-1q2 1 1-1l3-2 2-4 9-6 1-2 17-14zm-92.5 94q3.3 1.8 1.5 8.5l-2 4-2 15-4 9-29.5 43.5q-2.2-.7-1.5 1.5-10.2 18.3-25.5 31.5l-13.5 9.5 1.5 1.5h8l4-2 15-2 7-3 6.5-6.5 3-8 1-10 1.5-1.5 2.5 15.5 7.5 9.5 10 5 5 1 2 2 13 2 1.5 1.5q1.7 4.8-2.5 3.5l-15 6-17.5 14.5-5 8-1 6.5h-5v-1.5l-2-6-8.5-10.5-2.5-1.5q.8-2.2-1.5-1.5l-2.5-1-1.5-3-13-8-9-2-6-3-1 1-16 1q-2.3 3.7-9 3l-1.5-2.5 2-4 17.5-19.5q2.3.8 1.5-1.5l23.5-31.5q2.3.8 1.5-1.5l39-45 18.5-24.5zm-3.5 8-2 4-3 1-1 4q1 2-1 1l-3 6-2 1-2 4-4 1-1 4q-4-1-3 3l-2 1-4 5q-3-1-2 2l-4 2-1 3q1 2-1 1l-15 19-4 2v3l-10 12q1 2-1 1l-7 11-3 1-1 4q1 3-3 1l-1 4q1 2-1 1l-5 7q-3-1-2 2l-3 2-2 3-2 1q-3 2 0 3l15-5 2-4 11-5q2 1 1-1l4-2 1-3 5-2q-1-3 2-2l10-11v-2l5-7q-1-3 2-2l1-3 3-2 2-5 3-2 3-5q2 1 1-2l4-3 1-5 3-2 2-6q-1-3 2-2l1-4 3-2 1-5 3-2 1-1 1-9 3-4zm-500.5-3 2.5 6.5v4l4 7v3l-1 2.5q-3.3 1.3-2-3.5l-4-5zm135 9 3.5.5q-1.3 2.8-2.5.5zm6 4 5.5.5q-.7 2.3-4.5 1.5zm213 144q3 1.5 0 3-2.6-.8-1.5 2.5l-2.5 3.5q-3.3-1.1-2.5 1.5-1.5 3-3 0l4-3q-.5-4 2.5-4.5l2.5-1.5zm-85 26h23l1 1 17 1 1 1h14q3-3.9 9.5-3l-1.5 3q-2.2-.7-1.5 1.5-4.1 5.4-11.5 7.5h-16l-1-1h-8l-9-2-23-1-1-1-12.5-1q-1.2-3 2.5-2l7-3h9z"/><path fill="#1e5c0a" stroke="#1e5c0a" d="m845.5 146 4.5 1.5-8.5.5v-1zm11 4 3.5 1q1.3 3-2.5 2l-2.5-1.5zm6 4 4.5 1 1.5 3 4.5 1q-1.1 2.7 1.5 2l5.5 3.5 1.5 2.5 3.5 1.5q-.7 2.3 1.5 1.5l3.5 2.5q-.7 2.3 1.5 1.5l4.5 2 1.5 3 3.5 1.5 1.5 2.5 5.5 1 2.5 4q4.4-1.5 3.5 1.5l5.5 2.5 4 4h2l10 8h2l4 4 4.5 1 1.5 3 4.5 1q-1.7 4.1 2.5 3l4.5 2.5 1.5 2.5h3l4 4q3.8-.7 4.5 1.5l1.5 2.5 6.5 1 1.5 3 6.5 1 1.5 3 6 1 1.5 1.5q-.7 2.3 1.5 1.5l6.5 2.5 1.5 2.5q6.3-1.2 7.5 2.5-.9 3.4 4.5 1.5l3.5 1 1.5 3 8.5 1q-1.1 2.7 1.5 2l8 2 3 3 8 1 3 3 7 1 5 4 7.5 1q-1.1 2.7 1.5 2l8.5 2 1.5 3 10.5 1 1.5 3 12.5 1 1.5 3 12 1 3 3 5 1h7l4 3 10 1 8 4h7l7 4 16.5 1 1.5 3 18.5 1-.5 3h-17q-7-1.5-6.5 1.5l2.5 2.5 5 1h17.5l.5-4h22l5 3 21 1 8 3h8l1 1h19l1 1h10l5 2h23q1.8 2.8 8 1 4.2 4.7 11.5 5l1.5 3 5.5 2.5 1.5 2.5q3.8-1.2 2.5 2.5l4 4 5 9 5 16v106l-1 1v107l-1 1-1 28-1 1-1 66-1 1v13l-2 9-2 43-2 4-1 24-1 1v9l-2 3q1.5 5.5-1 7l-1 21-3 9-1 17-3 7-1 15q-4.2 7.3-4 19l-4 10-1 11q-4 5-4 14l-3 5-1 9-3 4-1 9-3 4-1 9-3 4-1 8-4 7-1 7-3 4-1 7-3 4-1 7-3 3-1 7-3 3q-.1 7.9-5 11l-1 6.5q-2.7-1.1-2 1.5l-2 7.5q-2.7-1.1-2 1.5l-2 8-3 3-1 6-3 3-1 5-11 17-2 6.5-3 1.5-1 5-3 3-1 4-5.5 8.5q-2.2-.7-1.5 1.5l-2 5.5-3 1.5-1 4.5q-2.7-1.1-2 1.5l-3.5 5.5q-2.6-.8-1.5 2.5l-1 2.5-3 1.5-2.5 5.5-2.5 1.5-1.5 3.5q-2.6-.8-1.5 2.5l-2 4.5-3 1.5v2q-6.4 5.2-9 13.5l-3 1.5-1 3.5q-4.1-1.7-3 2.5-5.2 2.8-6 8.5l-3 1.5-1.5 3.5q-3.7-1.2-2.5 2.5l-4 2.5-1 5h-2v2q-2.7-1.1-2 1.5l-5.5 6.5-2.5 1.5-2.5 3.5q-2.2-.7-1.5 1.5l-1 2.5-4 1.5q1.3 3.8-2.5 2.5l-1.5 4-4 1.5q1.1 3.3-1.5 2.5-3.2 1.2-2.5 5l-4 1.5q1.3 3.8-2.5 2.5l-1.5 4-4 1.5q1.1 3.3-1.5 2.5l-2.5 1q1.5 3.7-1.5 3l-3.5 2.5-1.5 2.5q-3.7-1.2-2.5 2.5l-4 1.5-1.5 4q-3.7-1.2-2.5 2.5l-4 1.5-1 4-4 1.5v2.5q-5.2-2.1-4 2.5l-6 4q.8 2.3-1.5 1.5l-7.5 6-1.5 3-3.5 1q1.7 4.1-2.5 3l-2.5 4q-3.8-.7-5 2.5.8 2.6-2.5 1.5l-3.5 2.5q.8 2.3-1.5 1.5l-3.5 2.5-1.5 2.5q-3.3-1.1-2.5 1.5l-1 2.5q-5.2-2.1-4 2.5l-6 2.5-1.5 3-4.5 2.5q.8 2.3-1.5 1.5l-3.5 2.5q.8 2.6-2.5 1.5l-8.5 6.5-1.5 2.5-3.5 1.5-1.5 2.5h-2l-8.5 6.5q.8 2.3-1.5 1.5l-3.5 1-1.5 3-4 1-4 4h-3l-4 4q-3.7-.7-4.5 1.5 1.3 4.2-3.5 2.5l-2.5 1-1.5 3-4.5 1q1.8 4.5-3.5 3l-3.5 2.5q.8 2.3-1.5 1.5l-4.5 2.5q.8 2.3-1.5 1.5l-7 5h-2l-4 4-5.5 1-1.5 3-5 1-3 3-6.5 2q1.1 2.7-1.5 2l-12 6-3 3-5.5 1q1.1 2.7-1.5 2l-7.5 3.5q.9 3-3.5 1.5l-4.5 2.5q.8 2.6-2.5 1.5l-4 1-3 3-6 1-6 4h-4l-6 4-8 1-6 3h-5l-4-1-3-3q-8.2 1.7-11.5-1.5l1.5-1.5h10l5.5-1-2-7.5v-5q2.8-2.7 2-9l-1-4 2-10v-13q-1.5-9-6-15v-4.5l8.5-1 5-4h3l6-4 5-1 26-13 17-11 4-1 3-3 26-14 3-3 4-1 20.5-13.5q-.8-2.6 2.5-1.5 3.5-5 9.5-6-1.1-2.7 1.5-2l29-22 3.5-1q-1.1-2.7 1.5-2l16-13 3.5-1 1.5-3 9.5-6.5 1.5-2.5 3.5-1 1.5-3 13.5-10q-1.1-2.7 1.5-2l10-10h1.5l2.5-4 2.5-1.5 1.5-2.5 2.5-1.5 1.5-2.5 6.5-4 2.5-4 2.5-1.5 1.5-2.5 2.5-1.5 1.5-2.5 2.5-1.5 1.5-3.5 2.5-1.5 1.5-2.5q2.3.8 1.5-1.5l2-3.5 3-1.5 1.5-2.5 2.5-1.5 7.5-9.5q2.3.8 1.5-1.5l1-2.5 3-1.5 13-16 1-3.5 3-1.5q-1.1-3.3 1.5-2.5 12.2-12.8 21-29 2.3.8 1.5-1.5l14-21v-2.5l3-1.5 10-19 3-3 1-4 3-3 13-27 3-3 1-5 12-24 1-6 3-4 1-6 8-18v-3l4-7q.3-7.2 4-11l1-7 3-5 1-8q3.8-4.7 4-13l4-9 1-8 2-3q.4-12.1 5-20l1-10 3-5 1-13 3-6 1-14 4-11v-12l3-9 1-21 3-8 2-39 2-4v-17l1-1v-17l1-1v-30l2-6v-10l1-1v-37l1-1v-103l1-1v-12l2-8v-30l-1-1v-19l1-1v-11l-5.5-10.5q-2.6.8-1.5-2.5l-3-1.5q1.5-3.7-1.5-3l-1-1h-25l-5-3-40-1-6-3-21-1-5-4h-12l-8.5-1.5q2.7-2.8 9.5-1.5l10 2h18q3.5-3.5 11-3l8 2 2 2h7l11 4h12l14 4 18 1 8 4 6.5 6.5q.3 6.2 4 9v34l-1 1v49l1 3-1 1v67l-1 1-1 35-1 1v59l-3 17-1 43-1 1v10l-2 8-2 35-3 11-1 16-3 8-1 20-3 5q-.2 12.3-4 21v14l-2 8-2 2v6l-4 13-1 12-3 6q1.4 11.6-1 17.5l-3 1.5-1 5-4 6q-.3 7.2-4 11l-1 10-11 21v3l-5 13-12 22-1 6-1.5 1.5q-2.6-.8-1.5 2.5l-4 4-1 5-3 3-5 10v3l-4 6-1 6-3 3-1 6-5 8v3.5l-5.5 2-10.5 9.5-1.5 2.5-2.5 1.5-11 17-2 5.5-3 1.5-2.5 4.5q-2.6-.8-1.5 2.5l-9 17-10.5 12.5-2.5 1.5-20.5 23.5-8.5 5.5-1.5 2.5-4.5 3.5-3.5 5.5-2.5 1.5q1.1 3.3-1.5 2.5l-8 13q-3.7-1.2-2.5 2.5l-5 4q.8 2.6-2.5 1.5l-3 4-18.5 13q-.8 6.1-6.5 9-3.4-.9-1.5 4.5l-2.5 6.5q-2.2-.7-1.5 1.5-2.2 1.3.5 2.5 4.5-1 5.5 1.5l1.5 2.5q2 3 8 2h2l3 2 13 1q1.1-2.7 4.5-2l1.5-4 3.5-1.5q-1.1-3.3 1.5-2.5l2.5-4h3.5l12.5-10.5 2-5.5 5-3.5 1.5-2.5 3.5-1 2-5 7-2 2.5-4 9.5-8.5 2-5 10-13q2.9-3.6 2-11l2.5-2.5 4.5 3 1.5-3h2l6.5-5.5 22.5-28.5q2.3.8 1.5-1.5l12-14 8-17 11-12 7-18 12-17v-3l4-6v-4l4-5q-.6-5.1 2.5-6.5 2.3.8 1.5-1.5l13-22q.3-7.2 4-11l1-9 3-3 1-4 3-3 7-14 2-7 1-11-1-3 3-2-2.5-.5-3.5 1q1.5 3.8-1.5 3l-1 1h-9l-5.5-1q-1.8-7.1 2.5-9l6 1q1.8-3.1 3.5-1.5l2.5-3.5 4-1 3.5 2.5.5 2.5 1.5-3 4-1.5v-3l8-18 2-11-1-2 3-6 2-10 2-2v-3l5-10 1-12 3-8q.3-11.7 4-20l1-14 5-17 3-32 5-27v-12l1-1 2-34 1-1v-23l1-1v-17l2-11v-21l1-1v-34l1-1v-16l1-1v-105l1-2-1-4 1-2-1-1v-27l1-1v-26l-2-11v-11l1-1v-19l-1-1v-8l-2-9-8.5-10.5-6-5q-6 0-9-3l-20-1-1-1h-23l-5-2-38-2-9-3-15-1-10-4h-8l-9-4h-9l-15-4-15-1-7-3-10-1-6-3-11-1-5-3-8-1-5-3-7-1-5-3-9-2-13-7-8-1-11-4-4-3-6-1-6-4h-3q-2.8-3.7-9-4l-4-3-19-7h-3l-34-18-11-9-3.5-1q1.1-2.7-1.5-2l-12-8-5-1-24.5-12.5-2-7-4-5.5-4-2.5-1.5-2.5-16-11-14.5-7-1.5-3-7.5-5.5-2.5-3.5-5.5-.5q2.8-2.2 8.5-1.5l5-3 5 1-1.5-2.5zm98.5 72 2 2q1-3-2-2Zm6 4v1h4zm121 54v1h4zm92 25v1h5zm37 8q1 3 8 2v-2zm-204 979-15 9q-3-1-2 2-2 3-7 2l-9 7-4 1-2 3-3 1-2 3-6 2-1 5 12 4h16l1 1 13-1 2 4h7l6-4q3 1 2-1l5-3 1-4 8-3 7-5 5-7 3-2-7-2-1-1-3 3q-5 1-4-1l-4-3 1-2-3-4h-5zm-100 64-5 3h-4l-8 4h-3l-2 3-4 3 8 2 15-2 3-3q4-1 6 1l2-1 3-4q-5 2-4-2-1-5-7-4Zm41 11-6 5 2 2 9-1 1-2 3-2v-2zm-109 30-1 4 1 4q-1 3 2 2l4-6q-1-5-6-4ZM754.5 197l4.5.5-4.5.5zm-6 4 3.5.5-2.5 1.5zm-7 4 3.5.5-3.5.5z"/><path fill="#1e5c0a" stroke="#1e5c0a" d="M893.5 212q6.1-.7 8.5 1 1.1 2.7-1.5 2-1.5 2.5-7 1l-6.5-1q-1.4-4 5.5-2zm-52 11 3.5 2.5v1.5h-5zm28 2q3.8-.7 4.5 1.5l-12 8 3 .5 1 4h-4.5l-5-4H853q2.2-5.6-3.5-4l-1-2 10 2 7.5-3q-1.2-3 2.5-2zm-3 15 2 3-2.5-1.5zm13 9 6 4h3l3 3 6 1 3 3h6q1.7-2.8 7-2l4 2h2q6.4.1 8.5 4.5l4.5 6.5q2.6-.7 1.5 2l-6 1q-1.1 2.7 1.5 2l5.5 2.5q-.7 2.3 1.5 1.5l4.5 2.5 1.5 2.5 4 1 17 11 27 13 19 6 11 6 12 1 2.5 1q-1.2 3 2.5 2l7 5h2l4 4 5 1 3 3q6.5.5 10 4 9.6.4 15 5h5l9 4h5l12 4 8 1 5 3 8 1 7 4h5l6.5 2.5q-.7 2.3-4.5 1.5l-1-1h-11l-4-3h-11l-6.5-1q1.1-2.7-1.5-2-4.6-2.9-13-2l-8-4h-6l-3-3-9-1-4-3-7-1q-5.4-4.6-15-5l-4-3-7-1-4-3-6-1-4-3-6-1-7-4h-3l-15-8h-3l-10-5-3-3-5-1-3-3-20-9-15-9H932q1.1-2.7-1.5-2L899 266.5q.8-2.2-1.5-1.5l-3.5-1-1.5-3-5.5-3.5q.8-2.6-2.5-1.5l-3-5-3.5-.5zm-244 10 3.5.5-3.5.5zm205 15 5 1 14 12 13 9h2l15 12h2l16 12 4 1 17 11 34 17q7.4.6 11 5h3q2.9 4.6 10 5l3 3h3l7 4 6 1 3 3q8.2.3 12 5h5l7 4 8 1 4 3h5l8 4h4l9 4 8 1 4 3 9 1 8 4 9 1 2 2 12 2 6 3 12 1 7 3 13 1 7 3 16 1 15 4h9l9 3 25 1 15 3h13q1.2 2.3 6 1l1.5 1.5v21l-1 1v121l-1 1v28l-1 1v13l-1 1-1 61-1 1v10l-2 8-1 31-1 1v8l-2 5-1 23-4 19-1 17-3 8-1 13-3 7-1 12q-4 7-4 18l-3 6-1 9q-4.4 7.6-5 19l-2 2-2 10-3 5v4l-4 10-1 7-12 28-1 6-12 24v3l-3 3q-.6 7.4-5 11v3l-3 3-10 21-11 16-2 6.5q-2.7-1.1-2 1.5l-11 19.5q-2.7-1.1-2 1.5l-6 10.5-3 1.5v2l-12 15-1 3.5-3 1.5-14.5 19.5q-2.2-.7-1.5 1.5l-2 3.5q-2.7-1.1-2 1.5l-3.5 4.5-2.5 1.5-1.5 3.5-2.5 1.5-1.5 2.5-2.5 1.5-5.5 7.5-2.5 1.5-1.5 2.5-2.5 1.5-1.5 2.5-3.5 2.5-1.5 2.5-2.5 1.5-1.5 2.5-2.5 1.5-1.5 2.5-2.5 1.5-1.5 2.5-2.5 1.5-1.5 2.5-2.5 1.5-1.5 2.5-2.5 1.5-1.5 2.5-3.5 2.5q.8 2.3-1.5 1.5l-2.5 1-1.5 3-3.5 2.5q.8 2.3-1.5 1.5l-2.5 1q1.7 4.1-2.5 3l-8.5 6-1.5 3-3.5 1-1.5 3-3.5 1q1.7 4.1-2.5 3l-8.5 6.5q.8 2.3-1.5 1.5l-3.5 2.5q.8 2.3-1.5 1.5l-3.5 2.5q.8 2.3-1.5 1.5l-4.5 2-1.5 3-4.5 2.5q.8 2.6-2.5 1.5l-8.5 6q1.1 2.7-1.5 2l-3.5 2.5-1.5 2.5h-2l-10 8-4.5 1q1.1 2.7-1.5 2l-18.5 11.5q.8 2.3-1.5 1.5l-7 5-4.5 1q1.1 2.7-1.5 2l-14.5 7.5q.8 2.6-2.5 1.5l-4.5 2q1.1 2.7-1.5 2l-13.5 6q1.1 2.7-1.5 2l-5.5 2-1.5 3-5 1-3 3q-9.2 2.3-15 8h-4l-10-7-5.5-1-1.5-3-6.5-2-1.5-3q-5.1.6-6.5-2.5.9-3-3.5-1.5-3.4-4.9-10.5-5 1.1-2.7-1.5-2-2-2.8-6.5-2l-1.5-3-6.5-2.5q.8-2.2-1.5-1.5l-5.5-2q1.1-2.7-1.5-2l-4.5-2.5q.8-2.2-1.5-1.5l-5.5-2-1.5-3-4.5-1-1.5-3-5.5-1q1.5-3.7-1.5-3l-4.5-2.5q.8-2.2-1.5-1.5l-5.5-2.5-1.5-2.5-5.5-1-1.5-3-4.5-1q1.7-4.1-2.5-3l-3.5-1-2.5-4-3.5-1.5-1.5-2.5-3.5-1.5-1.5-2.5-4.5-1-1.5-4q-5.2 1.5-3.5-3l6 2.5q-.9 3.4 4.5 1.5l1.5 3h3.5l6-4 4 1 1-1h8l16.5 8 2.5 4h2.5q-1.5 3.7 1.5 3l3.5 1q-1.5 5.4 1.5 7 2.3-.7 1.5 1.5l3.5 4.5 10 5 16 3 7 4h3l3 3 4 1 10 7 5.5 2 1.5 3h2l11 9 7 2 6-4 5-1 24-12 17-11 23-9 14.5-10.5q-.7-2.2 1.5-1.5l4.5-2 1.5-3 3.5-1q-1.5-3.7 1.5-3l2.5-1q-.7-3.8 2.5-5 5.4 1.9 4.5-1.5l14-8q-.8-2.6 2.5-1.5l2.5-1q-1.1-2.7 1.5-2l29-18 12-12 23.5-18.5q-.7-2.2 1.5-1.5l7.5-6.5q-.7-2.2 1.5-1.5l11.5-11.5v-1.5l3-1.5 2.5-3.5q2.3.8 1.5-1.5l6.5-7.5q2.3.8 1.5-1.5 12.9-11.8 22-26.5l3-1.5 25-33 33-53 21-40 5-13v-3l3-4 1-6 7-14 1-7q4.6-5.4 5-15l2-2 2-9 3-3q.5-7.5 4-12l1-9 3-3 2-10 2-2q.7-8.8 5-14l1-10 3-7 1-9 3-6 1-11 3-9 1-14 1-5 2-2 1-16 3-9 1-19 4-18v-17l1-1v-21l1-1v-10l1-1v-32l1-1v-187l-1-1V454l-7.5-1-2-2-18-2-10-3-18-1-11-3-17-1-11-3-15-1-6-3-12-1-9-4-9-1-5-3h-4l-10-4-9-1q-5-4-14-4l-6-3-7-1-5-3-21-6-34-16-5-1-4-3-36-13-3-3-13-5-9-7-5.5-2-1.5-3h-2l-31-21-18-9-19.5-13.5-2.5-4.5-2-1q-7.2 1.8-10.5 7.5l-1.5 2.5-2.5 1.5q.8 2.3-1.5 1.5l-11 9-4 1-3 3-4 1-3 3-4 1-8.5 5.5q.8 2.6-2.5 1.5l-19 13-33 17-14 5-21 12-98 34-43 11-16 2-4 2-24 2-5 2-18 1-11 3-17 1-10 2h-22l-2.5 2.5-1 29 1 1v17l-1 1v51l1 1 1 75 1 1v10l2 10-1 4 1 1v36l1 1v11l1 1v10l1 1 1 41 4 14 1 15 2 8v9l1 1v8l1 1v9l1.5 1.5q5.3-1.7 3.5 3.5 5.4 12.6 7 29l2 4 2 14 2 3 1 10 3 5 1 8 3 5 2 9 2 2 2 10 3 4v3l4 7 5 16 9 21 15 28 1 6 3 4v3l3 6 1 8 5.5 6.5 2.5 1.5 1.5 3.5 3.5 2.5 10 17 12 15 13 22 15 20 4 8q-2.5 1.5-1 7 2.5 1.5 1 7l-1 4.5 3 1.5 1.5 2.5q11.5-1.5 17.5 2.5l-4 8.5h-2v5l4 1.5 1.5 3.5h2.5v4h1.5l2.5 5 8 5.5 1.5 2.5q3.3-1.1 2.5 1.5l1 2.5q4.1-1.7 3 2.5l5.5 6.5 2.5 1.5 1.5 2.5 3.5 2.5-2.5 1.5-2.5-4-6-2-1.5-4-2.5-1.5-1.5-2.5-3.5-1.5-1.5-2.5q-3.7 1.3-2.5-2.5l-4-1.5v-4h-1.5l-2.5-1-1.5-4q-3.7 1.3-2.5-2.5l-4-1.5-2.5-4-2.5-1.5-1.5-2.5-2.5-1.5-1.5-2.5-2.5-1.5-2.5-3.5q-2.2.8-1.5-1.5l-6-8.5-4-2.5-5.5-7.5q-2.2.8-1.5-1.5l-2.5-3.5q-2.2.8-1.5-1.5l-19.5-25.5q-2.2.8-1.5-1.5l-2.5-3.5q-2.2.8-1.5-1.5l-25-38-1-5-8-11q-.3-5.1-4-7v-3l-8-11-2-6.5q-3 1.3-2-2.5l-9-16v-3l-12-24q0-7-4-10l-2-10-2-2-1-7-3-4q-.5-8.5-5-13v-4l-4-9-1-8-3-4q.5-9.5-4-14l-1-10-3-4-1-12-3-6q1.3-4.8-1-6v-7l-4-11-1-14-3-6-1-14-3-6-1-18-3-7-1-24-3-10-1-37-1-1v-9l-2-9-2-62-2-9v-26l-1-1-1-98 1-1v-13l-1-1v-22q2.5-1.5 1-7l-1-3 1.5-1.5h16l1-1h8l9-3h14l1-1 13-1 4-2 18-1q1.2-2.2 6-1l3-2 20-2 4-2 13-1 9-3 11-1 10-4 11-1 4-3 12-1 5-3 9-1 4-3 9-1 5-3q10.3-.2 16-5h5l6-4h4l7-4 7-1 3-3 7-1 13-7 8.5-2q-1.2-3 2.5-2l18-9 5-1 3-3 14-5 5-4 5.5-1q-1.1-2.7 1.5-2l6-2 3-3 4-1 3-3 4-1 8.5-5.5q-.8-2.6 2.5-1.5l32-21 5.5-2q-1.1-2.7 1.5-2l4.5-2.5q-.8-2.6 2.5-1.5zM750 1279l1 2q1-3-1-2ZM590.5 276l5.5.5-5.5.5zm-11 4 2.5.5-2.5.5zm-14 4 2.5.5-2.5.5z"/><path fill="#1e5c0a" stroke="#1e5c0a" d="M841.5 312q3 3 1.5 10.5l-2 1zm-492 10 3.5.5-3.5.5zm6 0 12.5.5-12.5.5zM316 334l3 .5-3 1.5zm-4 4q2.7-1.1 2 1.5l-2 1zm312.5 0 6.5.5-6.5.5zm-304 19 .5 4.5-3 3-1.5 9.5q-3.9-3.8-2.5-12l4-1zm840 13 11.5 1.5-12.5.5zm-157 188 17 1q2.8 4.8 9.5 4l1.5 3q8.8 3.3 13.5 10.5l2 3 19.5 24.5q2.3-.7 1.5 1.5l4 3 9 12 1 12 2 4 7.5 7.5 8.5 7.5 2 6 2 25-2 6-13.5 17.5q-2.2-.7-1.5 1.5l-23.5 26.5q-2.2-.7-1.5 1.5l-8 11v3.5q5.3-1.8 3 5.5l2.5 1.5 2-1 3 1 2-1 3.5 1v3h-6.5l-3.5 1-1.5 3-6.5 1-1.5 3-4.5 1q1.8 4.5-3.5 3l1.5-2.5 2-5.5 4-.5-7-1.5q1.3-4.1-2-3v4h-4v1.5l-4 2.5-2.5 4-2.5 1.5-1.5 2.5-2.5 1.5v2l-4 5v3l2 3.5q5.2-2.1 4 2.5l-2.5 4.5q-2.2-.7-1.5 1.5l-1 3.5q-3.8-1.5-3 1.5-2.3 1.3-1 6l1 2.5 4.5 1 5.5-1q-1.7-4.1 2.5-3l2.5-4 4-1.5 1.5-2.5 8-6 1.5 3.5-3 1.5v4h-1.5l-2.5 1-1.5 4q-4.2-1.3-2.5 3.5l-2.5 1.5-1.5-.5q1.8 5.3-3.5 3.5l-3.5 1-8 10.5-12 28-12 14.5-7 5.5-6.5 7.5q-2.2-.7-1.5 1.5l-5 2.5-2.5 7q-3-3-1.5-10.5l3-6 1-11 4-9v-4l8-12.5h1.5l10.5-10.5 1.5-2.5 10.5-9.5 1-10 2-4.5-5 2-2.5-6q-2.2-.7-1.5 1.5l-10 7-1.5 2.5-2.5 1.5-1.5 2.5-2.5 1.5-26.5 32.5q-2.2-.7-1.5 1.5l-6.5 7.5q-2.2-.7-1.5 1.5-5.3 3.5-7 9.5-2.7-1.1-2 1.5l-1 3.5-3 1.5q1.1 3.3-1.5 2.5l-3.5 2.5q.8 2.6-2.5 1.5l-6.5 5.5-1.5 2.5q-2.2-.7-1.5 1.5L909.5 904l-2.5 1.5-1.5 2.5-2.5 1.5-5.5 7.5q-2.2-.7-1.5 1.5L880.5 938l-2.5 1.5-6 9.5-3 1.5-8 10-1 4.5q-2.7-1.1-2 1.5l-1 2.5q3.7 1.5 3-1.5l1.5-1.5 8-1 2-2h2q5.6.1 7.5-3.5-.7-2.2 1.5-1.5l4-5 2.5-1.5 2.5-3.5.5 5q-4.1-1.7-3 2.5l-2.5 4.5-2.5 1.5-1.5 3.5-2.5 1.5v2l-5 5v2.5l-4 2.5q.8 2.3-1.5 1.5l-2.5 1-1.5 4q-3.3-1.1-2.5 1.5-5.7 3.3-6 12l1.5 1.5H869l1.5-4h27q4.2 4.7 11.5 5l1.5 3h2l8.5 6.5 1.5 2.5q4.2-1.3 2.5 3.5l2 3.5 3 1.5-1.5 3.5-2.5-1.5-1.5-3.5-4-3q-1.7 2.8-7 2l-23.5-8q1.3-3.3-3.5-2-6.1-3.4-15.5-3.5l13-2.5q1.4-3.7-4.5-2l-1-1H869l-2.5 4q-8.9 1.4-14-1l-1 1H845l-1-4.5V984h-2.5l-5.5 4.5-1.5 2.5q-2.2-.7-1.5 1.5l-10.5 11.5-2.5 1.5-2.5 3.5q-2.2-.7-1.5 1.5l-12.5 14.5-2.5 1.5 3 4.5q-3.8-1-5 1.5l-1.5 2.5-9 3h-7l-10-2-9-4-20.5-19.5-2-3-18.5-23.5-2.5-1.5q-13.3-17.7-30-32l-9.5-12.5q-2.2.8-1.5-1.5l-1-2.5-3-1.5-10-14.5q-2.7 1.1-2-1.5l-2.5-3.5-2.5-1.5-1.5-2.5-2.5-1.5-1.5-2.5-3.5-2.5-1.5-2.5-2.5-1.5-1.5-2.5-2.5-1.5-1.5-2.5-2.5-1.5-1.5-3.5q-2.6.8-1.5-2.5l-4-3-2.5-3.5q-2.2.8-1.5-1.5L615 860q-3.8 1.5-3-1.5l-5-4q.8-2.2-1.5-1.5l-9.5-10.5-3-8-11-13-3-8v-23l4-10 7-9 7-14 19.5-20.5 2.5-1.5 1.5-2.5 7.5-6.5 1.5-2.5q2.3.8 1.5-1.5l10-13.5 4-2.5 1.5-2.5 12-7 11-1 18.5 9 2.5 4q2.3-.7 1.5 1.5l1 2.5 4 2.5q-.7 2.3 1.5 1.5l21.5 21.5v1.5l3 1.5 16.5 17.5 31.5 28.5q-.7 2.3 1.5 1.5l3 4 5 2 3.5-2.5 10.5-11.5 5.5-4.5 23-31.5 4-2.5q-.7-2.2 1.5-1.5l4-5 2.5-1.5 1.5-2.5 20.5-19.5 5-10 17.5-19.5 2.5-1.5 25.5-33.5q2.3.8 1.5-1.5l9-9 16-21 5-7V607l4-2.5 1.5-2.5 2.5-1.5q-.7-2.2 1.5-1.5l16.5-13q-1.1-2.7 1.5-2l7.5-9 3-1.5 2.5-3.5 2.5-1.5q-.7-2.2 1.5-1.5l5-4zm.5 15-7 4q-15 12-25 28l-2 1-2 4-2 1-2 3-4 2-5 7q1 2-1 1l-8 10-3 1-1 3q1 2-1 1l-3 4-3 1-1 3q1 2-1 1l-3 4-3 1-5 8-3 1-6 9-4 3q1 3-1 2l-3 4-2 1-2 4-2 1-15 19-4 3q1 3-1 2l-3 4-2 1-2 3-2 1-3 4q1 2-1 1l-15 19-3 1-1 4-3 1-6 8q1 2-2 1l-6 9-4 2-4 7-2 1-3 4q1 2-1 1l-11 12q1 2-2 1l-7 10-2 1-2 3-2 1-2 3-4 2q-5 1-6-1-5 1-4-2l-5-2-10-8-2-2-6-6q-3 1-2-1l-3-3-2-2-2-2-2-2-2-2-3-4-4-2q1-3-1-2l-3-4h-1l-24-23q1-3-1-2l-3-3-2-2-2-2-2-2-4-5q-3 1-2-3h-1l-7-8-3-2-2-4q-4 1-3-1l-6-3-6 1-11 8-5 7q1 2-1 1l-32 40q1 2-1 1l-3 4q1 2-1 1-9 7-11 21l1 14 4 10 37 46q-1 3 2 2l2 4 3 1 1 3q-1 2 2 1l9 12q2-1 1 2l4 2 1 3 3 1 1 4 4 3q-1 2 2 1l2 4 3 1 1 3 4 2 1 3q-1 3 3 1v3l3 1 1 3 4 2v3l6 6q-1 2 2 1l2 4 3 1 5 7q-1 2 2 1l2 4 3 1 1 3 3 1 5 8 3 1 5 8 4 2 6 8q-1 2 2 1l2 4 3 1 9 11q-1 2 2 1l4 5q2-1 1 2l12 10h8l1-1 3-2 36-44 5-9 3-2 1-3 3-2 2-4 8-9q-1-3 2-2l15-18q-1-3 2-2l6-7q-1-3 2-2l6-8 3-2 4-6 44-49q-1-3 2-2l5-7 3-2 23-26q-1-3 2-2l10-12q-1-3 2-2l11-13q-1-3 2-2l6-8 3-2 22-26 3-2 1-2q-1-3 2-2l6-8 3-2 7-9q-1-3 2-2l9-11 3-2 5-7 3-2 15-18 3-2 1-2q-1-3 2-2l3-6v-5l-7-11-8-6q1-3-1-2l-3-4h-1l-10-10q-3 1-2-1l-2-2-2-2-3-2-5-7-2-2-6-6q1-3-1-2l-3-3-2-2-6-7-2-2-8-9-8-7zm49 185q-1 3 2 2 1-3-2-2ZM628 867l2 2q1-3-2-2Zm5 4-2 2 3 2q1-5-1-4Zm1 4v2l4 1q2-5-4-3Zm7 4-2 2 1 3 3 2q-1 2 3 1l1-3q-4 1-5-1 1-5-1-4Zm262 126q0 4 2 1zm317.5-256q2.3.8 1.5 4.5l-1 3.5h-5v-3l3-1.5zm-145 17q3 1.5 0 3zm137 0 5.5 1-1.5 3q-4.5 1-5.5-1.5zm-141 5 2.5 1.5-4 1.5zm145 12 .5 3q-2.7 1.1-2-1.5z"/><path fill="#1e5c0a" stroke="#1e5c0a" d="M1027.5 787q2.6-.7 1.5 2l-3-.5zm25.5 1q3-1 2 2-3 1-2-2Zm157.5 3h6.5v7.5l-2 3.5q-3.7-1.4-2 4.5-1.4 4.5-7 3.5v-9.5l-1.5-1.5-3 1 .5-1.5 1.5-3.5zm-161.5 1 3 .5-3 2zm-95.5 82q3 1.5 0 3l-2.5-.5z"/><path fill="#1e5c0a" stroke="#1e5c0a" d="M948 878q4.1-1.7 3 2.5l-2.5 1.5q-2.7-1.2-.5-2.5zm-2.5 5q2.3-.7 1.5 1.5l-1.5 3.5-1.5-3.5zm-4 7 .5 2.5h-1zm20.5 15q2.7-1.1 2 1.5l-2 1zm-3.5 7 .5 2.5h-1zm329 5 1 2 1.5-.5 1 6.5-4 2-1-5.5zm-333 1 .5 5-2-.5zm-38 2 .5 2-2-.5z"/><path fill="#1e5c0a" stroke="#1e5c0a" d="m1294 920 4 1.5q1.8 5.7-4.5 3.5-3.2-1.7.5-3.5zm-381.5 3 .5 4q-3.7 1.5-3-1.5zm38 2q3.8-1.2 2.5 2.5l-4 2.5-1.5 4q-4.6 1.2-2.5-4l4-1.5zm357 0q2.3-.7 1.5 1.5zm-399 2 .5 3.5-2.5 1.5q-2.7-1.2-.5-2.5-.7-2.2 1.5-1.5z"/><path fill="#1e5c0a" stroke="#1e5c0a" d="M903.5 932q2.6-.8 1.5 2.5l-3 1.5zm-3 4 .5 2.5-1 4.5h-4v5h-3q-.7-4.7 3.5-6 3 .9 1.5-3.5zm44.5 6q3.3-1.3 2 3.5l1 5-1.5 4.5q-3-4.6-1.5-13Zm-11.5 5 .5 4.5-2 1zm-4.5 7q4.1-1.7 3 2.5l-3 1.5zm-4 5q2.7-1.1 2 1.5 3.6 1.9 3 8l-1 3.5h-6.5l-1-1-3 4-6 3-2.5-1.5 5-3 1-3.5q3.8 1.5 3-1.5l2.5-3.5q2.3.8 1.5-1.5 2.8-1.1 2-4.5Zm24 0 4 2.5q-.6 5.1 2.5 6.5l5.5 2.5q-.7 2.3 1.5 1.5l13 6h4l6.5 2.5q-2.7 2.8-9.5 1.5-1.8-2.8-8-1-2.8-3.7-9-4l-7.5-5.5q.8-2.2-1.5-1.5l-1.5-1.5zm321 4q4.5-1.7 3 3.5 2.3 1.3-.5 2.5h-2.5zm-828.5 45 .5 3.5h-1l-1-2zm505 18q2.3.8 1.5 4.5l-1 5.5-2-.5v-8zM473 1070l3 1.5q1.1 3.3-1.5 2.5zm4 6 3 1.5-.5 4.5q-3.5-1.3-2.5-6Zm5.5 7q3.4-.9 1.5 4.5l-3-2zm4 6q2.5 1.2 1.5 5-4.1 1.2-1.5-5Zm5 6 .5 4q-2.7 1.1-2-1.5l-.5-1.5zm4 5 .5 5.5h-1l-1-4zm4 8q3 1.5 0 3-3-1.5 0-3Zm3 5q4.2-1.1 2.5 3-2.7 1.1-2-1.5zm5 5 1.5 3.5h-1zm3.5 7q3-1.2 2 2.5l-2-1zm4.5 5q2.6-.8 1.5 2.5h-1zm5 6 1.5 2.5-2 1zm4 5 1.5 4-3-1.5zm2.5 5q4.5-1.7 3 3.5l4 1.5 1.5 4 2.5 1.5 6 8.5 3 1.5 1 3.5 3 1.5q-1.7 4.8 2.5 3.5 2.5 1.2 1.5 5 4.1-1.7 3 2.5h-1q.8-2.2-1.5-1.5l-8.5-6-1.5-3-3.5-2.5v-2.5q-3.7 1.5-3-1.5l-12-17zm81 16 5 1-.5 2-4.5-1zm-47 24q2.7-1.1 2 1.5l4 2.5 1.5 3 2.5 1.5 1.5 2.5 2.5 1.5 2 4.5-4-1.5q1.3-3.7-2.5-2.5l-5.5-6.5v-2.5l-4-1.5zm17.5 17q4.5 2 1 4-4.5-2-1-4Zm61.5 0 4 1.5v1.5h-4zm5 4 3 1.5 1.5 2.5 3.5 1.5q-.7 2.3 1.5 1.5l8 4h3l1.5-.5-1 4.5q4.3 1 3.5-2h4q9.5 3.5 15.5 10.5l-1.5 4.5-4.5-2q-1.1 3.3 3 2v5h2.5l1.5 4-4-1.5q1.3-3.7-2.5-2.5l-4.5-1q1.5-3.7-1.5-3l-3.5-1-1.5-3h-2q-2.8-5.3-8.5-6l-1.5-3-3.5-2.5q.8-2.6-2.5-1.5l-1.5-4-4-1.5-1.5-3.5-3.5-.5zm-63 1q3-1.2 2 2.5l-2-1zm5.5 4q3 1.5 0 3-3-1.5 0-3Zm3 5q3.8-1 2.5 2zm5 3 3 4 1.5-.5q-.7 2.3 1.5 1.5l2.5 1 2.5 4h2.5q-1.5 3.7 1.5 3l2.5 1q-1.5 3.7 1.5 3l2.5 1 1.5 4q3.8-1.2 2.5 2.5l-1.5-.5q-8.3-3.2-13.5-9.5.8-2.2-1.5-1.5l-4-5-2.5-1.5q1.1-3.3-1.5-2.5l-2.5-1zm29 26 1 2-2.5-.5zm13 13q5.9-2.1 4.5 2.5l-2.5-1.5q-3 .5-2-1Zm5 4q5.3-1.5 3.5 3zm5 4q5.3-1.5 3.5 3zm5.5 4 5 1.5q-1.2 2.8-2.5.5-3.7 1-2.5-2Zm188 2q2.7-1.1 2 1.5l5 10-3 5.5-4 1zm-181.5 3q4.8-1.3 3.5 2-4.2 0-3.5-2Zm7 3q3 1.5 0 3l-2.5-1.5zm4 5 4.5.5-4.5.5zm-99 3 1 2q-2.8.7-1-2Zm105 1q4.8-1.3 3.5 2-3.8.8-3.5-2Zm5.5 4 3 1.5-3 .5zm7.5 5q3.3-1.1 2.5 1.5l-1.5-.5zm11 8q5.4-1.9 4.5 1.5-1.7 3.3-3.5-.5zm5 4q6.1-1.2 5.5 1.5l7 4q-1.4 4.6 4.5 2.5l3 4q3.8-.7 4.5 1.5.9 3-3.5 1.5l-10-7-4-1zm27 17 3.5.5-3.5.5zm7 4 3.5.5q-1.2 2.8-2.5.5zm7 4q4.8-1.3 3.5 2-4.2 0-3.5-2Zm-113 3 1 2q-2.8.7-1-2Zm119 1q5.9-1.7 4.5 2-4.7 1-4.5-2Zm7.5 4 4 1.5v2.5h6.5l1.5 4 8 1 1.5 4q4.8-1.3 3.5 2-15.1-3.6-25-13.5zm-114.5 3 1 2q-2.8.7-1-2Zm4 5 2.5.5-2.5.5zm7.5 4q3-1 2 2-3 1-2-2Zm5.5 4 1 2q-2.8.7-1-2Zm127 1 3.5.5-3.5.5zm-115 8 2.5.5-2.5.5zm21 11 2.5 1.5q.8 2.6-2.5 1.5-3-1.5 0-3Zm4.5 5 4 1.5-4 .5zm7 4 4 1.5-4 .5zm5 4q4.6-1.2 6 1.5l-6 .5zm8 4 4 1.5-4 .5zm8 4 3 1.5q.8 2.3-1.5 1.5zm6.5 4q4.5-1 5.5 1.5.6 2.8-5.5 1.5-3-1.5 0-3Zm16 1 5.5 1.5-6.5.5zm6.5 2 6 1 1 2.5-7 .5zm-16 1h7v2.5q1.6 3 7 1.5l1 2.5q-1.2 2.8-2.5.5H748v-2.5q-1.6-3-7-1.5zm17.5 8 4.5 2.5-6.5.5zm7 5q3.8-.7 4.5 1.5l-5.5.5zm9 4 2.5 1.5-2.5 1.5-2.5-1.5zm5 5q6.9-2 5.5 2-4.9.8-5.5-2Zm7.5 3h4.5l4 3 9 1 1.5 1.5-.5 1.5h6.5v-2.5l-1.5-2.5 10 1 1.5 1.5 1 2-4.5 1.5-3-1-2.5 1q-2.3 6.4 5.5 4l3.5 2.5-3.5 1.5-5.5-1q1.5-3.7-1.5-3l-1-1H804l-2.5-4H795v-4h-8z"/></svg>