<?xml version="1.0" encoding="UTF-8" standalone="no"?>
<svg
   viewBox="0 0 1908 826"
   version="1.1"
   desc="Created with imagetracer.js version 1.2.6"
   id="svg51"
   width="1908"
   height="826"
   xmlns="http://www.w3.org/2000/svg"
   xmlns:svg="http://www.w3.org/2000/svg">
  <defs
     id="defs51" />
  <path
     fill="#f7f8f9"
     stroke="#f7f8f9"
     stroke-width="1"
     opacity="1"
     d="m 682,142.5 61.5,118.5 4,10 10,17 4,10 8,14 4.5,4.5 6,1 4.5,4.5 q 1,5.5 -2.5,6.5 l -25,7 -45,21 -2.5,-1 -2,-5.5 4,-7 v -5 l -6,-15.5 H 697 l -1,-1 h -15 l -1,-1 h -13 l -1,1 q -13.6,-1.4 -21.5,1 l -5,11.5 -1,7 4,5 v 2 l -4.5,6.5 -5,-1 -30,-16 -15,-7 -15,-5 -2.5,-2.5 q 0.5,-5.5 4.5,-7.5 8.4,-0.1 11.5,-5.5 l 78,-134 z m -4.5,105 -13,30 h 13 l 1,1 1,-1 h 10 z"
     id="path5" />
  <path
     fill="#f7f8f9"
     stroke="#f7f8f9"
     stroke-width="1"
     opacity="1"
     d="m 551,147.5 5.5,2 -1,32.5 1,1 v 13 l 1,1 2,20.5 -5.5,2 -4.5,-3.5 -3.5,-5.5 -2,-1 h -41 l -4.5,1 v 16 H 519 l 2.5,-1 1,-5.5 3.5,-3.5 7.5,1 -1,28.5 1,1 v 14 l 2,8 v 7 q -1.5,3 -7.5,1.5 l -5,-7 -12,-1 -1,1 h -11.5 v 14 H 535 l 6,-2 2.5,-2.5 q 0.1,-8.4 5.5,-11.5 5.5,-1 6.5,2.5 l -1,20 -1,1 v 33 l 1,1 1,22.5 -5.5,1 -4.5,-3.5 -2.5,-5.5 q -5.4,-3.1 -15,-2 l -4,1 -1,-1 h -74 l -1,1 -21,1 q -4.3,-0.7 -3.5,-6.5 l 3.5,-4.5 q 7.5,-0.5 10.5,-5.5 l 2,-6 q -1.3,-10.3 1,-17 l -1,-3 1,-1 v -97 l -1,-1 -1,-20 -3.5,-4.5 q -6.6,-0.9 -9.5,-5.5 -1.2,-6.2 2.5,-7.5 l 70,1 1,-1 h 34 q 1.8,-2.8 8,-1 l 3.5,-2.5 2,-7 2.5,-2.5 z"
     id="path6" />
  <path
     fill="#f7f8f9"
     stroke="#f7f8f9"
     stroke-width="1"
     opacity="1"
     d="m 934,147.5 5.5,2.5 -1,49 1,1 v 12 l 3,16 -1,2.5 -6.5,1 q -5.6,-2.4 -5.5,-10.5 l -5.5,-5.5 q -4.4,-3.1 -13,-2 -9.6,2.4 -14.5,9.5 -5.1,9.4 -3,26 l 2,11 v 22 q -5,28 -23.5,42.5 -12.5,11 -31,16 l -11,2 h -19 l -4.5,3.5 -5.5,7.5 q -4.7,0.8 -5.5,-2.5 l -1,-9 1,-1 v -43 l -1,-1 v -12 l -1,-1 -1,-13 q 1.8,-3.2 6.5,-3.5 l 4.5,3.5 q 0.1,6.4 4.5,8.5 l 9,1 8.5,-6.5 q 3.5,-6.5 2,-18 l -3,-16 v -23 q 5.7,-26.3 23.5,-40.5 12.5,-11 31,-16 4.8,1.3 6,-1 h 29 q 1.8,2.7 8,1 l 5.5,-3.5 q 0.6,-5.9 4.5,-8.5 z"
     id="path7" />
  <path
     fill="#f7f8f9"
     stroke="#f7f8f9"
     stroke-width="1"
     opacity="1"
     d="m 1476,147.5 4.5,2.5 -1,32 1,1 1,19 3,14 -5.5,3.5 -4.5,-2 q -0.4,-4.7 -4.5,-7 l -3,-1 h -41 l -2.5,0.5 v 16.5 h 19.5 l 4.5,-3.5 q -0.7,-5.7 3.5,-6.5 5.4,-0.6 7.5,1 v 8.5 l -1,1 v 19 l 1,1 v 16 l 1,1 1,12.5 q -2.1,1.6 -7.5,1 l -5,-7 -15,-1 -1,1 h -8.5 v 14 h 35.5 l 5,-1 4.5,-3.5 q 0,-7.5 4.5,-10.5 l 4,-1 3.5,2.5 -1,20 -1,1 v 34 l 2,11 v 11.5 l -5.5,1 -4.5,-3.5 -2.5,-5.5 -6,-2 h -86 l -1,1 -25.5,1 -2,-5.5 3,-5.5 10,-3 2,-3.5 1,-11 1,-1 V 197 l -1,-1 -1,-17 -4.5,-5.5 q -6.4,0.4 -8.5,-3.5 l -1,-5 3.5,-4.5 2,1 h 28 l 1,1 h 40 l 1,-1 h 36 l 5,-1 4.5,-3.5 q 0.1,-6.4 4.5,-8.5 z"
     id="path8" />
  <path
     fill="#f7f8f9"
     stroke="#f7f8f9"
     stroke-width="1"
     opacity="1"
     d="m 93,151.5 5.5,2.5 3.5,6.5 9,2 1,-1 h 32 l 1,1 h 70 q 8.2,-1.3 12,-7 l 1.5,3.5 -1,1 v 36 l 1,1 v 11 l 1,1 1,16.5 -3.5,2 h -4 l -3.5,-3.5 -1,-6 -2,-3.5 -7.5,-2 h -17.5 l 1,3.5 -1,1 v 82 l 1,1 v 17 l 1,5 3.5,4.5 8,2 3.5,3.5 q 1,6.5 -2.5,8.5 l -19,-1 -1,-1 h -49 l -1,1 -21,1 -3.5,-5.5 4.5,-6.5 h 4 l 6.5,-3 3,-7.5 q -1.7,-6.2 1,-8 V 212.5 H 111 l -5,1 -4.5,3.5 -4.5,9.5 -4,1 -3.5,-2.5 v -10 l 2,-11 v -51 z"
     id="path9" />
  <path
     fill="#f7f8f9"
     stroke="#f7f8f9"
     stroke-width="1"
     opacity="1"
     d="m 311,158.5 h 43 l 11,2 q 19.4,6.1 31.5,19.5 13.1,12.9 13,39 l -1,1 v 10 l -3,11 q -4.4,12.6 -13.5,20.5 l -11.5,8.5 22.5,23.5 q 3,3 9,3 1.3,-2.2 6,-1 l 4.5,4.5 v 3 q -32.6,24.9 -61.5,53.5 l -5.5,-6.5 q 2,-15 -3,-23 l -38.5,-49.5 -0.5,9.5 1,1 v 25 l 3,12.5 13,5.5 1,6 q -1.2,4.8 -8.5,3.5 l -1,-1 h -11 l -1,-1 h -51 l -1,1 -16,1 q -3.2,-1.7 -3.5,-6.5 l 3.5,-4.5 q 7.8,-0.7 11.5,-5.5 l 3,-12 2,-79 -1,-1 v -45 q -2.7,-1.7 -1,-8 l -2.5,-4.5 q -2.3,-2.7 -8,-2 l -3.5,-3.5 v -5 l 2,-3.5 37.5,1 1,-1 27,-1 z m 2.5,54 v 31 l 20,-1 16,-9 q 5,-2 3,-11 l -2,-3 h -5 l -11,-6 z"
     id="path10" />
  <path
     fill="#f7f8f9"
     stroke="#f7f8f9"
     stroke-width="1"
     opacity="1"
     d="m 1240,158.5 h 42 l 11,2 q 20.5,6.5 32.5,21.5 12.5,14 10,43 l -2,11 -4,11 -9.5,13.5 -14.5,9.5 25.5,24.5 7,2 q 1.3,-2.2 6,-1 4.8,1.3 3.5,8.5 -31.5,23.5 -58.5,51.5 l -5.5,-4.5 -1,-4 1,-1 v -12 l -13,-21 -29.5,-35.5 -0.5,24.5 1,1 1,18 2,4.5 6.5,3 h 4 l 2.5,2.5 1,5 -3.5,4.5 -15,-1 -1,-1 h -51 l -1,1 -18.5,1 -2,-5.5 3.5,-5.5 q 6.9,-0.6 10.5,-4.5 l 3,-10 1,-24 1,-1 v -78 l -1,-1 v -26 l -2,-8 -3.5,-3.5 q -7.2,-0.3 -9.5,-5.5 v -3 l 3.5,-4.5 2,1 h 38 l 1,-1 25,-1 z m 0.5,54 v 31 h 17 l 10,-4 8,-9 v -7 q -5,-7 -14,-10 z"
     id="path11" />
  <path
     fill="#f7f8f9"
     stroke="#f7f8f9"
     stroke-width="1"
     opacity="1"
     d="m 957,159.5 h 8 l 1,1 h 25 l 1,1 h 23 l 1,-1 h 21 l 5,-1 q 4,1.5 2.5,8.5 l -2.5,3.5 q -6.4,-0.4 -8.5,3.5 l -2,5 v 73 l 3,12 q 2.6,7.4 8.5,11.5 4.1,3.9 13,3 7.8,-1.7 12.5,-6.5 l 6,-13 1,-11 1,-1 v -66 l -2,-8.5 -7.5,-2 -3.5,-2.5 q -1.5,-8 3.5,-9.5 5.5,2.5 15,1 l 1,1 h 55 l 1,-1 h 13 q 3.8,1.3 2.5,7.5 l -3.5,3.5 q -7.5,0.5 -10.5,5.5 l -2,6 v 33 l 1,1 v 31 l -1,1 -1,17 -6,22 q -6.7,17.3 -18.5,29.5 -11.8,12.2 -29,19 l -21,5 h -22 l -15,-3 -19,-8 q -12.1,-6.9 -20.5,-17.5 -13.3,-16.2 -19,-40 l -1,-12 -1,-1 v -12 l -1,-1 v -29 l 1,-1 v -18 l 1,-1 v -21 l -2.5,-4.5 q -6.6,-0.4 -9.5,-4.5 -1,-6.5 2.5,-8.5 z"
     id="path12" />
  <path
     fill="#f7f8f9"
     stroke="#f7f8f9"
     stroke-width="1"
     opacity="1"
     d="m 792.5,414.5 q 2.7,-1.1 2,1.5 16.2,41.3 37.5,77.5 L 851.5,443 v -11 l -2.5,-3.5 -2.5,-1.5 q -1.1,-7.6 3.5,-9.5 l 43,19 36.5,13.5 1,4 -2.5,3.5 q -3,3 -10,2 l -5.5,4.5 -18,38 -28,72 -18,52 -2.5,3.5 -2.5,-1.5 -47.5,-87.5 -47,89 q -2.2,0.8 -1.5,-1.5 l -3,-4 -13,-32 -50,-111 -8,-14 -4.5,-4.5 -9,-1 -3.5,-3.5 1,-6.5 31.5,-9 52.5,-21 3,7.5 -3.5,4.5 -4.5,3.5 -1,8 21,49.5 q 3,1.3 2,-2.5 l 20,-42 z"
     id="path31" />
  <path
     fill="#f7f8f9"
     stroke="#f7f8f9"
     stroke-width="1"
     opacity="1"
     d="m 1076,419.5 3.5,2 -1,28.5 1,1 v 18 l 2,7 1,17.5 -6.5,1 -2.5,-1 -4.5,-8 -2,-1 h -46 l -2.5,0.5 v 16 l -1,1 20.5,0.5 6.5,-4.5 q -0.7,-5.7 3.5,-6.5 7,-1.5 8.5,2.5 l -1,2 v 36 l 1,1 v 9 l 1,1 1,13 -6.5,2.5 -3.5,-2.5 q -0.2,-4.7 -3.5,-6.5 l -13,-1 -1,1 h -12.5 v 16 h 30.5 l 11,-2 5.5,-4.5 q 0,-7.5 4.5,-10.5 l 5,-1 3.5,2.5 -1,12 -1,1 -1,35 1,1 v 13 l 1,1 1,18 -6.5,2.5 -8,-10 -2,-1 h -30 l -1,-1 h -48 l -1,1 -40,1 q -3.7,-1.2 -2.5,-7.5 l 2,-3.5 q 6.8,-0.5 11,-4.5 l 4,-12 v -14 l 1,-1 v -88 l -1,-1 v -26 q -2.8,-1.8 -1,-8 -2.2,-1.2 -1,-6 l -3.5,-5.5 q -7.5,-0.5 -10.5,-5.5 -0.8,-5.8 2.5,-7.5 l 88,1 1,-1 h 28 l 4,-1 3.5,-3.5 q 0.6,-5.9 4.5,-8.5 z"
     id="path32" />
  <path
     fill="#f7f8f9"
     stroke="#f7f8f9"
     stroke-width="1"
     opacity="1"
     d="m 315,423.5 q 7,-1.5 8.5,2.5 0.5,5.6 4.5,7.5 l 3,1 h 107 l 5.5,-3.5 4.5,-7.5 q 6.8,-1.7 8.5,1.5 v 8 l -1,1 v 33 l 1,1 v 13 l 1,1 1,19.5 q -2.1,1.6 -7.5,1 l -3.5,-3.5 -2,-7.5 -8.5,-3 h -17.5 l -1,5.5 v 62 l 1,1 v 35 q 2.8,1.7 1,8 0.9,6.6 5.5,9.5 l 8.5,3.5 q 2.8,1.7 2,7 l -2,3.5 H 422 l -1,-1 h -19 l -1,-1 h -32 l -1,1 h -20 l -1,1 h -10.5 l -2,-3.5 v -3 l 4.5,-5.5 q 8.3,-0.7 11.5,-6.5 l 3,-9 V 489 l -1.5,-1.5 h -11 l -1,1 -11,1 -5.5,3.5 q -0.4,6.6 -4.5,9.5 l -3,1 -5.5,-3.5 1,-14 1,-1 v -18 l 1,-1 v -38 -2 z"
     id="path33" />
  <path
     fill="#f7f8f9"
     stroke="#f7f8f9"
     stroke-width="1"
     opacity="1"
     d="m 562,428.5 23,1 13,3 q 24.8,8.7 40.5,26.5 13.7,14.8 21,36 l 4,16 v 29 q -8.5,40.5 -35.5,62.5 -12.8,11.2 -31,17 l -19,4 h -20 l -19,-4 -17,-7 q -16.3,-9.2 -27.5,-23.5 -10.3,-13.2 -17,-30 l -5,-20 -1,-18 1,-1 v -9 l 2,-9 8,-21 q 9.1,-17.4 23.5,-29.5 l 24,-15 10,-4 z m -0.5,61 -12,6 -11,12 -5,16 q 1,16 9,26 l 11,8 14,4 q 17,0 26,-10 8,-8 10,-21 1,-19 -8,-28 -9,-15 -34,-13 z"
     id="path34" />
  <path
     fill="#f7f8f9"
     stroke="#f7f8f9"
     stroke-width="1"
     opacity="1"
     d="m 1186,428.5 h 18 l 1,1 h 10 l 10,2 q 23,6 36.5,21.5 6.5,7.5 10,18 l 3,15 v 8 l -1,1 v 9 l -5,17 q -6.1,13.9 -17.5,22.5 l -8.5,4.5 24.5,25.5 q 4,3.5 13,2 l 1,-1 5.5,5.5 v 4 l -5.5,5.5 q -27.2,20.3 -50.5,44.5 l -5.5,6.5 -6.5,-5.5 -1,-4 q 3.6,-2.9 2,-11 l -4,-11 -41,-51.5 -2,0.5 v 17 l 1,1 1,24 q 0.9,6.6 5.5,9.5 l 9,2 2.5,2.5 1,6 -2,3.5 h -9.5 l -1,-1 h -20 l -1,-1 h -36 l -1,1 -25,1 q -3.5,-2 -2.5,-8.5 l 3.5,-3.5 q 8.4,-0.1 11.5,-5.5 l 3,-12 2,-51 -1,-1 v -67 l -1,-1 v -19 q -0.9,-6.6 -5.5,-9.5 -2.2,0.8 -1.5,-1.5 l 7,-5 -1.5,-3.5 -2.5,-1.5 30.5,-0.5 1,-1 h 10 l 1,-1 18,-1 1,-1 h 15 z m -13.5,60 v 34 q 18,2 29,-5 l 7,-9 q 1,-9 -3,-12 -5,-6 -14,-8 z"
     id="path35" />
  <path
     fill="#f7f8f9"
     stroke="#f7f8f9"
     stroke-width="1"
     opacity="1"
     d="m 1289,604.5 q 21.8,-1.7 28.5,11.5 l 4,11 v 8 q -2.5,13.5 -12.5,19.5 -7.2,4.8 -21,3 -9.3,-3.2 -14.5,-10.5 -6.2,-7.3 -4,-23 2.8,-9.2 9.5,-14.5 z m 2.5,5 -7,3 q -9,5 -11,17 0,9 4,15 5,7 15,9 12,0 18,-6 l 6,-11 v -9 l -3,-8 q -5,-11 -22,-10 z"
     id="path37" />
  <path
     fill="#f7f8f9"
     stroke="#f7f8f9"
     stroke-width="1"
     opacity="1"
     d="m 1283.5,616.5 h 18.5 l 4.5,3.5 1,7 -4.5,5.5 -1.5,0.5 7,13.5 -2.5,-1 -4,1 -7,-12 h -4.5 V 645 q -1.6,3 -7,1.5 z m 7,5 v 8 l 9,-1 q 2,-1 1,-4 -3,-4 -10,-3 z"
     id="path38" />
  <path
     fill="#000000"
     stroke="#000000"
     stroke-width="1"
     opacity="0"
     d="m 0.5,0.5 h 1907 v 825 H 0.5 Z m 1621,77 -11,3 -9,6 -13,15 q -9,15 -13,36 h 46 l 1,-1 2,1 16,-1 -1,4 v 2 h -52 l 4,7 -5,3 -8,9 -8,17 8,1 h 9 l 1,-1 h 8 l 1,1 h 52 q 1,-3 3,1 11,2 18,-2 l 5,1 12,-1 2,7 q 6,7 16,10 15,2 22,-4 l 8,-9 3,-3 h 70 l 24,-13 1,-3 -33,-21 h -53 l -1,-6 h 15 l 1,1 h 33 v 0 -6 h -41 l -1,-1 h -9 l -3,-2 53,-1 q -3,-21 -13,-35 l -12,-12 -11,-3 -7,1 -6,3 -13,14 -9,21 -3,-1 q 2,-13 9,-21 v -2 l -4,4 -8,19 -4,1 q 3,-15 12,-25 l 13,-12 q -1,-3 -2,-1 l -4,-1 h -21 l -1,1 -4,-1 h -39 l -1,1 h -8 l -1,-1 q -14,0 -19,7 l -12,16 -6,16 -2,10 1,2 h -5 l 6,-23 8,-14 v -2 q -9,7 -13,19 l -4,15 q 2,7 -4,5 l 2,-12 4,-12 10,-16 12,-9 q -1,-3 -2,-1 -4,-3 -12,-1 z m 158,3 q 8,8 14,21 l 5,14 2,13 15,9 1,1 q -3,-26 -14,-42 l -15,-13 z m 30,20 -1,2 9,20 3,19 12,8 1,1 -1,-11 -5,-14 q -7,-15 -18,-25 z m -8,33 v 4 l 33,21 q 3,1 1,-3 l -30,-21 z m -1119,9 -18,34 -78,134 q -3,5 -11,5 -5,2 -5,8 l 3,2 15,5 15,7 30,16 5,1 4,-6 v -2 l -4,-5 1,-7 5,-12 q 8,-2 22,-1 l 1,-1 h 13 l 1,1 h 15 l 1,1 h 8 l 6,16 v 5 l -4,7 2,5 3,1 45,-21 25,-7 q 3,-1 2,-6 l -4,-5 -6,-1 -5,-4 -8,-14 -4,-10 -10,-17 -4,-10 z m -131,5 -2,1 -3,3 -2,7 -3,2 q -7,-2 -8,1 h -34 l -1,1 -70,-1 q -4,1 -3,8 3,4 10,5 l 3,5 1,20 1,1 v 97 l -1,1 1,3 q -2,6 -1,17 l -2,6 q -3,4 -10,5 l -4,5 q -1,5 4,6 l 21,-1 1,-1 h 74 l 1,1 4,-1 q 9,-1 15,2 l 2,6 5,3 5,-1 -1,-22 -1,-1 v -33 l 1,-1 1,-20 q -1,-4 -6,-3 -6,3 -6,12 l -2,2 -6,2 h -37 v -14 h 12 l 1,-1 12,1 5,7 q 5,1 7,-1 v -7 l -2,-8 v -14 l -1,-1 1,-29 -7,-1 -4,4 -1,5 -2,1 h -21 v -16 l 5,-1 h 41 l 2,1 3,6 5,3 5,-2 -2,-20 -1,-1 v -13 l -1,-1 1,-33 z m 383,0 -2,1 q -4,3 -5,9 l -5,3 q -7,2 -8,-1 h -29 q -2,2 -6,1 -19,5 -31,16 -18,14 -24,41 v 23 l 3,16 q 1,11 -2,18 l -8,6 -9,-1 q -5,-2 -5,-8 l -4,-4 q -5,0 -7,4 l 1,13 1,1 v 12 l 1,1 v 43 l -1,1 1,9 q 1,3 6,2 l 5,-7 5,-4 h 19 l 11,-2 q 18,-5 31,-16 18,-14 23,-42 v -22 l -2,-11 q -2,-17 3,-26 5,-8 15,-10 8,-1 13,2 l 5,6 q 0,8 6,10 l 6,-1 1,-2 -3,-16 v -12 l -1,-1 1,-49 z m 542,0 -2,1 q -5,2 -5,9 l -4,3 -5,1 h -36 l -1,1 h -40 l -1,-1 h -28 l -2,-1 -4,5 1,5 q 2,3 9,3 l 4,6 1,17 1,1 v 114 l -1,1 -1,11 -2,3 -10,3 -3,6 2,5 26,-1 1,-1 h 86 l 6,2 2,6 5,3 5,-1 v -11 l -2,-11 v -34 l 1,-1 1,-20 -3,-3 -4,1 q -5,3 -5,11 l -4,3 -5,1 h -36 v -14 h 9 l 1,-1 15,1 5,7 q 5,1 7,-1 l -1,-12 -1,-1 v -16 l -1,-1 v -19 l 1,-1 v -9 q -2,-2 -7,-1 -5,1 -4,7 l -4,3 h -20 v -16 l 3,-1 h 41 l 3,1 q 4,2 4,7 l 5,2 5,-3 -3,-14 -1,-19 -1,-1 1,-32 z m -1383,4 -2,2 v 51 l -2,11 v 10 l 4,2 4,-1 4,-9 5,-4 5,-1 h 19 v 98 q -3,1 -1,8 l -3,7 -6,3 h -4 l -5,7 4,5 21,-1 1,-1 h 49 l 1,1 19,1 q 3,-2 2,-8 l -3,-4 -8,-2 -4,-4 -1,-5 v -17 l -1,-1 v -82 l 1,-1 -1,-4 h 18 l 7,2 2,4 1,6 4,3 h 4 l 3,-2 -1,-16 -1,-1 v -11 l -1,-1 v -36 l 1,-1 -1,-4 q -4,6 -12,7 h -70 l -1,-1 h -32 l -1,1 -9,-2 -4,-6 z m 218,7 -1,1 -27,1 -1,1 -38,-1 -2,4 v 5 l 4,3 q 5,-1 8,2 l 2,5 q -2,6 1,8 v 45 l 1,1 -2,79 -3,12 q -4,4 -11,5 l -4,5 q 0,4 4,6 l 16,-1 1,-1 h 51 l 1,1 h 11 l 1,1 q 7,1 8,-3 l -1,-6 -13,-6 -3,-12 v -25 l -1,-1 1,-10 38,50 q 5,7 3,23 l 6,6 q 28,-29 61,-53 v -3 l -4,-5 q -5,-1 -6,1 -7,0 -9,-3 l -23,-23 12,-9 q 9,-8 13,-20 l 3,-11 v -10 l 1,-1 q 0,-27 -13,-39 -12,-14 -31,-20 l -11,-2 z m 929,0 -1,1 -25,1 -1,1 h -38 l -2,-1 -4,5 v 3 q 2,5 10,5 l 3,4 2,8 v 26 l 1,1 v 78 l -1,1 -1,24 -3,10 q -4,3 -10,4 l -4,6 2,5 19,-1 1,-1 h 51 l 1,1 15,1 3,-4 -1,-5 -2,-3 h -4 l -7,-3 -2,-4 -1,-18 -1,-1 1,-25 29,36 13,21 v 12 l -1,1 1,4 6,4 q 26,-28 58,-51 1,-8 -3,-9 -5,-1 -6,1 l -7,-2 -26,-24 15,-10 9,-13 4,-11 2,-11 q 2,-29 -10,-43 -12,-15 -32,-22 l -11,-2 z m -283,1 q -4,2 -3,9 3,4 10,4 l 2,5 v 21 l -1,1 v 18 l -1,1 v 29 l 1,1 v 12 l 1,1 1,12 q 6,23 19,40 8,10 21,17 l 19,8 15,3 h 22 l 21,-5 q 17,-7 29,-19 11,-12 18,-29 l 6,-22 1,-17 1,-1 v -31 l -1,-1 v -33 l 2,-6 q 3,-5 11,-6 l 3,-3 q 1,-7 -2,-8 h -13 l -1,1 h -55 l -1,-1 q -10,2 -15,-1 -5,1 -4,10 l 4,2 7,2 2,9 v 66 l -1,1 -1,11 -6,13 q -5,4 -12,6 -9,1 -13,-3 -6,-4 -9,-11 l -3,-12 v -73 l 2,-5 q 2,-4 9,-4 l 2,-3 q 2,-7 -2,-9 l -5,1 h -21 l -1,1 h -23 l -1,-1 h -25 l -1,-1 z m 879,10 -21,12 -3,3 v 10 l 25,-12 v -12 z m -265,14 -2,2 v 10 h 24 l 1,-1 h 23 l 1,1 h 13 l 1,-1 h 37 l 1,1 h 19 l 7,-1 -2,-2 -7,-8 h -93 l -1,-1 z m 167,1 -11,10 h 80 v -9 -1 z m 98,3 -21,11 v 86 l 2,1 19,-10 z m -265,12 -2,2 v 57 l 1,1 -1,28 2,1 h 12 l 1,-1 v -86 l -1,-2 z m 16,0 v 89 h 38 l 1,-1 v -73 l -1,-2 q -3,1 -2,-1 l 3,-2 v -9 -1 z m 43,0 v 9 l 4,-1 2,-6 q -1,-3 -6,-2 z m 10,0 q -3,1 -2,5 l 3,2 -1,2 -2,1 v 10 l 10,9 12,7 19,6 h 9 l 1,1 h 10 l 1,-1 h 8 q 2,-3 9,-2 l 24,-10 1,-2 v -2 -24 l -1,-2 h -60 l -1,2 q 7,1 11,8 l -1,2 -10,-7 q -8,-1 -10,3 -3,1 -2,-2 l 8,-5 z m 107,0 -2,2 v 23 q 1,2 6,1 v -25 q 0,-1 -4,-1 z m 8,0 v 27 h 2 l 2,4 -4,2 v 56 h 38 l 1,-6 -1,-3 v -80 z m 44,0 -2,2 v 86 l 2,1 h 9 l 1,-1 v -87 -1 z m -164,10 q -3,4 1,3 z m -4,8 -1,70 q 1,2 5,1 v -30 l 1,-1 q 1,-9 -2,-14 v -18 z m 119,13 -5,3 -9,9 -12,19 -9,19 -8,25 -7,14 -15,14 -14,5 q -14,1 -21,-5 -9,-7 -13,-18 1,-4 -2,-3 1,15 8,25 4,7 13,10 l 11,1 1,-3 8,-1 18,-11 6,-5 -3,5 -10,9 -10,5 -8,1 -2,2 v 238 l 1,1 v 44 l 1,2 8,5 8,2 h 25 l 5,-1 7,-4 3,-5 v -41 -2 h 1 v -273 l -1,-2 h -16 l 8,-26 h 24 l 1,-1 v -41 l -1,-1 5,-6 v 3 l -1,3 v 42 q 1,2 6,1 v -53 l 2,-2 z m -70,30 -15,4 -12,7 q -11,8 -14,25 l 1,13 6,13 q 6,8 18,11 h 6 l 7,-2 11,-7 10,-13 5,-10 7,-23 7,-12 -1,-2 -19,-4 z m 155,21 -21,11 -2,2 v 14 q 14,-5 25,-14 v -12 z m -266,13 v 15 l 2,1 h 64 v -7 l -1,-1 v -7 -1 z m 149,0 -5,14 5,1 h 21 l 1,1 h 67 v -15 -1 z m -926,120 -14,36 -20,42 q 1,3 -2,2 l -21,-49 1,-8 5,-4 3,-4 -3,-8 -52,21 -32,9 -1,7 4,3 9,1 4,5 8,14 50,111 13,32 3,4 q -1,2 2,1 l 47,-89 47,88 3,1 2,-3 18,-52 28,-72 18,-38 6,-5 q 7,1 10,-2 l 2,-3 -1,-4 -36,-14 -43,-19 q -5,2 -4,10 l 3,1 2,4 v 11 l -19,50 q -22,-36 -38,-77 1,-3 -2,-2 z m 284,5 -4,1 q -4,3 -5,9 l -3,3 -4,1 h -28 l -1,1 -88,-1 q -4,2 -3,8 3,4 11,5 l 3,6 q -1,4 1,6 -2,6 1,8 v 26 l 1,1 v 88 l -1,1 v 14 l -4,12 q -4,3 -11,4 l -2,4 q -1,6 3,7 l 40,-1 1,-1 h 48 l 1,1 h 30 l 2,1 8,10 6,-2 -1,-18 -1,-1 v -13 l -1,-1 1,-35 1,-1 1,-12 -3,-3 -5,1 q -5,3 -5,11 l -5,4 -11,2 h -31 v -16 h 13 l 1,-1 13,1 q 3,2 3,7 l 4,2 6,-2 -1,-13 -1,-1 v -9 l -1,-1 v -36 l 1,-2 q -1,-4 -8,-3 -5,1 -4,7 l -6,4 h -21 l 1,-1 v -16 l 3,-1 h 46 l 2,1 4,8 3,1 6,-1 -1,-17 -2,-7 v -18 l -1,-1 1,-29 z m -761,4 -2,3 v 2 38 l -1,1 v 18 l -1,1 -1,14 6,3 3,-1 q 4,-3 4,-9 l 6,-4 11,-1 1,-1 h 11 l 1,2 v 107 l -3,9 q -3,5 -11,6 l -5,6 v 3 l 2,3 h 11 l 1,-1 h 20 l 1,-1 h 32 l 1,1 h 19 l 1,1 h 12 l 2,-3 q 1,-6 -2,-7 l -8,-4 q -5,-3 -6,-9 2,-7 -1,-8 v -35 l -1,-1 v -62 l 1,-6 h 18 l 8,3 2,8 4,3 q 5,1 7,-1 l -1,-19 -1,-1 v -13 l -1,-1 v -33 l 1,-1 v -8 q -2,-4 -8,-2 l -5,8 -5,3 h -107 l -3,-1 q -5,-2 -5,-7 -2,-5 -8,-3 z m 247,5 -22,4 -10,4 -24,15 q -15,12 -24,30 l -8,21 -2,9 v 9 l -1,1 1,18 5,20 q 7,16 17,30 11,14 28,23 l 17,7 19,4 h 20 l 19,-4 q 18,-6 31,-17 27,-22 35,-62 v -29 l -4,-16 q -7,-22 -21,-36 -16,-18 -40,-27 l -13,-3 z m 624,0 -1,1 h -15 l -1,1 -18,1 -1,1 h -10 l -1,1 -31,1 3,1 1,4 -7,5 q -1,2 2,1 4,3 5,10 v 19 l 1,1 v 67 l 1,1 -2,51 -3,12 q -3,5 -11,5 l -4,4 q -1,6 3,8 l 25,-1 1,-1 h 36 l 1,1 h 20 l 1,1 h 9 l 2,-3 -1,-6 -2,-3 -9,-2 q -5,-3 -6,-9 l -1,-24 -1,-1 v -17 l 2,-1 41,52 4,11 q 2,8 -2,11 l 1,4 7,5 5,-6 q 23,-25 51,-45 l 5,-5 v -4 l -5,-6 -1,1 q -10,2 -13,-2 l -25,-25 9,-5 q 11,-9 17,-22 l 5,-17 v -9 l 1,-1 v -8 l -3,-15 q -4,-11 -10,-18 -13,-16 -36,-22 l -10,-2 h -10 l -1,-1 z m 476,163 -94,42 q -3,-1 -2,2 l 129,91 8,-4 120,-87 q 2,1 1,-2 h -2 l -91,-42 -1,42 -3,6 -9,6 -8,2 h -25 q -2,-2 -6,-1 l -9,-4 -7,-9 v -41 z m -373,13 -10,5 q -7,5 -10,15 -2,15 4,23 5,7 15,10 13,2 21,-3 9,-6 12,-19 v -8 l -4,-11 q -7,-14 -28,-12 z"
     id="path39" />
  <path
     fill="#000000"
     stroke="#000000"
     stroke-width="1"
     opacity="0"
     d="m 313.5,212.5 20.5,1 11,6 h 5 l 2.5,2.5 q 1.5,9 -3.5,11.5 l -16,9 -19.5,1 z"
     id="path45" />
  <path
     fill="#000000"
     stroke="#000000"
     stroke-width="1"
     opacity="0"
     d="m 1240.5,212.5 20.5,1 q 9.2,2.8 14.5,9.5 v 7 l -8.5,9.5 -10,4 h -16.5 z"
     id="path46" />
  <path
     fill="#000000"
     stroke="#000000"
     stroke-width="1"
     opacity="0"
     d="m 677,247.5 12.5,30 H 679 l -1,1 -1,-1 h -12.5 z"
     id="path47" />
  <path
     fill="#000000"
     stroke="#000000"
     stroke-width="1"
     opacity="0"
     d="m 1172.5,488.5 h 18.5 q 9.4,1.6 14.5,7.5 4,3.5 3,12 l -7.5,9.5 q -10.1,7.2 -28.5,5 z"
     id="path48" />
  <path
     fill="#000000"
     stroke="#000000"
     stroke-width="1"
     opacity="0"
     d="m 561,489.5 q 25.5,-2 34.5,12.5 8.8,9.2 8,28 -2.3,13.7 -10.5,21.5 -8.4,9.6 -26,10 l -14,-4 -10.5,-8.5 q -8.3,-9.2 -9,-26 l 5,-16 10.5,-11.5 z"
     id="path49" />
  <path
     fill="#000000"
     stroke="#000000"
     stroke-width="1"
     opacity="0"
     d="m 1291,609.5 q 17.2,-1.2 22.5,9.5 l 3,8 v 9 l -6.5,11.5 q -5.9,6.1 -18,6 -9.9,-2.1 -14.5,-9.5 -4.2,-5.3 -4,-15 2.4,-11.1 10.5,-16.5 z m -7.5,7 v 30 q 5,1 7,-1 v -11 h 5 l 7,12 4,-1 2,1 -7,-13 2,-1 4,-5 -1,-7 -4,-4 z"
     id="path50" />
  <path
     fill="#000000"
     stroke="#000000"
     stroke-width="1"
     opacity="0"
     d="m 1290.5,621.5 q 6.8,-1.1 10,2.5 0.8,3.8 -1.5,4.5 l -8.5,1 z"
     id="path51" />
</svg>
