<svg xmlns="http://www.w3.org/2000/svg" width="738" height="1421" viewBox="0 0 738 1421">
<g>
<path d="M 282.50 1332.66 C239.60,1306.62 183.57,1272.64 158.00,1257.15 C132.43,1241.65 110.49,1227.83 109.25,1226.43 C107.06,1223.95 107.00,1223.31 107.00,1201.06 C107.00,1180.74 107.19,1178.00 108.75,1176.21 C109.71,1175.11 136.82,1162.72 169.00,1148.69 C201.18,1134.65 238.98,1118.12 253.00,1111.95 C267.02,1105.77 282.33,1099.07 287.00,1097.06 L 295.50 1093.39 L 295.75 849.90 L 296.00 606.40 L 290.25 605.20 C281.99,603.48 267.45,595.99 260.80,590.03 C253.87,583.83 246.16,572.54 243.53,564.75 L 241.59 559.00 L 171.87 559.00 L 102.15 559.00 L 100.07 556.37 L 98.00 553.73 L 98.00 420.48 C98.00,295.01 98.10,287.10 99.75,285.18 C100.71,284.06 114.16,276.24 129.63,267.82 C145.09,259.39 157.92,252.17 158.13,251.76 C158.33,251.36 145.23,242.77 129.00,232.69 C106.62,218.78 99.28,213.72 98.59,211.76 C97.48,208.62 101.33,191.31 107.00,173.94 C124.95,118.96 163.41,81.48 208.52,75.04 C214.29,74.21 255.97,73.99 359.00,74.24 L 501.50 74.59 L 513.71 77.23 C550.29,85.14 582.08,101.04 605.36,123.07 C631.57,147.88 644.75,171.61 652.78,208.50 L 655.40 220.50 L 655.73 369.07 C656.05,510.53 655.98,517.71 654.28,519.21 C652.58,520.71 609.51,548.64 598.06,555.66 L 592.62 559.00 L 510.31 559.00 L 428.00 559.00 L 428.25 826.19 L 428.50 1093.39 L 471.50 1112.19 C495.15,1122.53 524.85,1135.57 537.50,1141.15 C550.15,1146.73 571.13,1155.92 584.12,1161.56 C613.86,1174.49 615.60,1175.38 616.36,1178.20 C617.44,1182.23 617.08,1222.74 615.94,1225.20 C615.26,1226.67 605.03,1233.45 587.69,1243.92 C572.74,1252.96 516.51,1287.04 462.74,1319.66 C408.98,1352.28 363.98,1379.20 362.74,1379.48 C361.05,1379.87 341.33,1368.36 282.50,1332.66 ZM 355.90 1346.59 L 356.12 1332.19 L 332.81 1318.23 C319.99,1310.55 280.25,1286.82 244.50,1265.49 C208.75,1244.16 166.73,1219.08 151.13,1209.77 C135.52,1200.46 122.12,1192.60 121.35,1192.30 C120.17,1191.85 119.99,1194.03 120.22,1205.55 L 120.50 1219.33 L 150.50 1237.53 C284.53,1318.83 283.82,1318.39 321.50,1341.35 C339.10,1352.08 353.99,1360.88 354.59,1360.92 C355.32,1360.97 355.75,1356.25 355.90,1346.59 ZM 376.27 1357.12 C382.84,1353.02 545.26,1254.56 582.00,1232.40 L 603.50 1219.44 L 603.78 1205.72 C603.93,1198.17 603.77,1192.00 603.42,1192.00 C603.07,1192.00 597.99,1194.85 592.14,1198.34 C586.29,1201.83 568.00,1212.70 551.50,1222.49 C535.00,1232.29 493.83,1256.83 460.00,1277.02 C426.17,1297.21 391.75,1317.75 383.50,1322.68 L 368.50 1331.62 L 368.22 1346.31 C368.04,1356.09 368.30,1361.00 369.00,1361.00 C369.58,1361.00 372.85,1359.25 376.27,1357.12 ZM 401.00 1297.27 C438.93,1274.60 567.72,1197.91 585.75,1187.27 C590.84,1184.26 595.00,1181.47 595.00,1181.05 C595.00,1180.64 593.31,1179.61 591.25,1178.76 C589.19,1177.92 575.58,1171.96 561.00,1165.52 C525.31,1149.76 513.85,1144.74 491.50,1135.03 C481.05,1130.49 462.92,1122.55 451.22,1117.39 C439.52,1112.22 429.39,1108.00 428.72,1108.00 C427.78,1108.00 427.57,1115.99 427.81,1143.25 C428.19,1185.12 427.98,1186.68 420.94,1194.37 C399.30,1218.06 329.37,1219.10 304.65,1196.10 C295.88,1187.94 296.05,1188.94 296.02,1145.34 L 296.00 1107.17 L 279.25 1114.47 C254.62,1125.20 139.40,1175.75 133.09,1178.59 L 127.68 1181.03 L 134.09 1184.85 C137.62,1186.96 147.93,1193.08 157.00,1198.46 C187.30,1216.43 279.02,1271.20 320.50,1296.09 C343.05,1309.63 361.73,1320.60 362.00,1320.49 C362.27,1320.38 379.83,1309.93 401.00,1297.27 ZM 376.03 1198.96 C393.77,1196.80 409.11,1190.79 413.01,1184.49 C414.99,1181.29 415.00,1179.17 415.00,870.13 L 415.00 559.00 L 395.08 559.00 L 375.16 559.00 L 373.96 562.75 C369.24,577.50 356.35,592.68 342.94,599.27 C333.93,603.70 321.71,607.00 314.34,607.00 L 309.00 607.00 L 309.00 894.81 L 309.00 1182.62 L 312.25 1185.97 C322.18,1196.21 350.84,1202.04 376.03,1198.96 ZM 323.90 592.46 C333.85,590.12 343.06,584.74 350.34,577.02 C359.23,567.60 362.16,560.11 367.59,532.98 C375.16,495.07 380.62,482.27 393.48,472.25 C395.97,470.32 398.00,468.34 398.00,467.87 C398.00,465.64 390.40,458.99 384.34,455.92 C378.11,452.76 376.92,452.50 368.55,452.54 C356.46,452.60 350.10,455.10 341.45,463.20 C328.09,475.70 318.08,498.28 315.43,521.90 C314.63,528.99 312.57,532.00 308.50,532.00 C305.53,532.00 302.00,528.78 302.00,526.07 C302.00,525.01 302.49,520.62 303.08,516.32 C305.96,495.47 315.43,472.97 326.82,459.96 L 331.18 454.97 L 326.34 452.80 C319.62,449.78 305.50,449.13 297.39,451.48 C283.13,455.59 274.79,463.26 267.05,479.38 C251.14,512.48 247.88,543.96 258.16,565.00 C262.07,572.99 272.36,583.63 279.87,587.43 C292.05,593.61 310.23,595.68 323.90,592.46 ZM 239.00 537.62 C239.00,533.02 239.28,527.84 239.62,526.12 L 240.25 523.00 L 175.62 523.00 L 111.00 523.00 L 111.00 533.83 C111.00,539.79 111.30,544.97 111.67,545.33 C112.03,545.70 140.83,546.00 175.67,546.00 L 239.00 546.00 L 239.00 537.62 ZM 584.00 534.50 L 584.00 522.99 L 483.25 523.25 L 382.50 523.50 L 380.80 533.00 C379.87,538.22 379.08,543.29 379.05,544.25 C379.00,545.91 384.53,546.00 481.50,546.00 L 584.00 546.00 L 584.00 534.50 ZM 621.50 525.35 L 643.00 511.64 L 643.00 501.24 C643.00,495.51 642.60,490.98 642.11,491.17 C641.62,491.35 631.53,497.80 619.68,505.50 L 598.15 519.50 L 597.82 529.76 C597.58,537.65 597.79,539.92 598.75,539.55 C599.43,539.28 609.67,532.90 621.50,525.35 ZM 145.50 420.50 L 145.50 331.50 L 128.50 331.50 L 111.50 331.50 L 111.24 419.94 C111.09,472.32 111.36,508.60 111.90,508.94 C112.40,509.25 120.17,509.50 129.15,509.50 L 145.50 509.49 L 145.50 420.50 ZM 215.76 420.04 L 216.01 331.00 L 184.01 331.00 L 152.00 331.00 L 152.00 419.96 L 152.00 508.92 L 159.75 509.21 C164.01,509.37 178.30,509.40 191.50,509.29 L 215.50 509.07 L 215.76 420.04 ZM 245.50 499.00 C247.23,493.23 250.08,485.19 251.82,481.15 C254.95,473.92 255.00,473.52 255.00,458.04 L 255.00 442.28 L 251.60 434.89 C245.77,422.21 241.00,402.37 241.00,390.79 C241.00,386.61 241.47,385.37 244.05,382.80 C246.70,380.15 247.61,379.82 251.05,380.28 L 255.00 380.81 L 255.00 355.90 L 255.00 331.00 L 238.50 331.00 L 222.00 331.00 L 222.00 419.83 C222.00,468.69 222.19,508.85 222.42,509.08 C222.65,509.31 227.23,509.50 232.60,509.50 L 242.36 509.50 L 245.50 499.00 ZM 443.49 508.84 C443.79,508.55 443.91,493.06 443.76,474.42 L 443.50 440.53 L 438.83 448.01 C431.53,459.73 421.14,470.13 408.00,478.88 C395.40,487.27 392.12,491.26 388.13,503.07 L 386.16 508.91 L 391.83 509.20 C401.32,509.70 442.93,509.41 443.49,508.84 ZM 482.76 420.23 L 483.01 330.95 L 466.76 331.23 L 450.50 331.50 L 450.23 347.00 L 449.95 362.51 L 456.80 365.70 C468.71,371.24 476.18,381.20 477.62,393.43 C478.21,398.45 478.03,399.34 475.97,401.53 C471.20,406.61 465.56,403.78 464.48,395.76 C464.09,392.87 463.21,389.42 462.53,388.10 C461.40,385.92 461.13,386.61 459.54,395.60 C458.57,401.05 456.03,410.78 453.89,417.23 L 450.00 428.97 L 450.00 468.96 L 450.00 508.95 L 464.25 509.27 C472.09,509.45 479.40,509.57 480.50,509.55 C482.48,509.50 482.50,508.73 482.76,420.23 ZM 553.50 420.50 L 553.50 331.50 L 521.50 331.50 L 489.50 331.50 L 489.24 420.23 L 488.99 508.96 L 508.74 509.23 C519.61,509.38 534.12,509.50 541.00,509.50 L 553.50 509.50 L 553.50 420.50 ZM 584.00 420.25 L 584.00 331.00 L 572.00 331.00 L 560.00 331.00 L 560.00 419.83 C560.00,468.69 560.19,508.85 560.42,509.08 C560.64,509.31 566.04,509.50 572.41,509.50 L 584.00 509.50 L 584.00 420.25 ZM 621.30 489.10 C631.64,482.39 640.76,476.65 641.55,476.34 C642.80,475.86 643.00,463.63 643.00,387.31 L 643.00 298.84 L 639.25 301.13 C637.19,302.39 627.06,308.97 616.75,315.74 L 598.00 328.06 L 598.00 416.14 L 598.00 504.23 L 600.25 502.76 C601.49,501.95 610.96,495.80 621.30,489.10 ZM 263.43 459.47 C265.00,457.07 264.98,456.79 263.05,454.33 L 261.00 451.73 L 261.00 456.87 C261.00,459.69 261.17,462.00 261.38,462.00 C261.60,462.00 262.52,460.86 263.43,459.47 ZM 419.73 452.20 C428.45,441.86 436.98,426.79 440.97,414.66 C443.15,408.05 445.98,397.00 445.50,397.00 C445.37,397.00 441.00,399.02 435.78,401.49 C416.08,410.83 391.84,416.99 366.68,419.07 C334.73,421.70 297.51,415.11 266.50,401.31 C261.00,398.86 256.01,396.64 255.41,396.38 C253.76,395.66 255.50,406.95 258.60,416.99 C261.71,427.10 265.79,435.45 271.17,442.73 L 275.11 448.06 L 277.80 446.17 C279.29,445.12 282.71,443.31 285.41,442.12 C301.86,434.92 318.96,435.24 336.03,443.09 L 342.56 446.09 L 348.08 443.56 C361.18,437.57 376.67,437.97 390.00,444.64 C397.33,448.30 405.67,455.15 407.91,459.33 L 409.28 461.89 L 412.48 459.45 C414.24,458.10 417.51,454.84 419.73,452.20 ZM 380.88 404.48 C399.95,401.54 420.34,395.09 437.00,386.75 C443.10,383.70 443.52,383.27 443.81,379.75 C444.04,377.00 443.73,376.00 442.67,376.00 C440.03,376.00 436.75,372.48 436.75,369.66 C436.75,366.44 439.55,363.00 442.15,363.00 C443.87,363.00 444.00,361.89 444.00,347.00 L 444.00 331.00 L 352.50 331.00 L 261.00 331.00 L 261.00 357.89 L 261.00 384.79 L 271.25 389.28 C306.92,404.89 344.45,410.10 380.88,404.48 ZM 452.00 378.00 C452.00,377.45 451.80,377.00 451.56,377.00 C451.32,377.00 450.84,377.45 450.50,378.00 C450.16,378.55 450.36,379.00 450.94,379.00 C451.52,379.00 452.00,378.55 452.00,378.00 ZM 256.81 312.06 C253.25,308.80 248.60,303.62 246.49,300.56 L 242.66 294.99 L 177.08 295.24 L 111.50 295.50 L 111.22 306.75 L 110.93 318.00 L 187.11 318.00 L 263.29 318.00 L 256.81 312.06 ZM 374.68 312.90 C371.54,310.10 366.91,304.93 364.39,301.40 L 359.82 295.00 L 353.64 295.00 L 347.45 295.00 L 343.03 301.08 C340.59,304.42 335.96,309.59 332.74,312.58 L 326.89 318.00 L 353.64 318.00 L 380.40 318.00 L 374.68 312.90 ZM 584.00 306.50 L 584.00 295.00 L 524.10 295.00 L 464.21 295.00 L 461.04 299.94 C459.29,302.66 454.74,307.84 450.91,311.44 L 443.96 318.00 L 513.98 318.00 L 584.00 318.00 L 584.00 306.50 ZM 311.03 311.58 C319.28,307.43 325.60,302.37 330.57,295.90 C336.07,288.77 342.08,276.92 344.90,267.68 C346.66,261.89 346.81,260.16 345.88,256.18 C344.57,250.57 344.47,226.33 345.72,220.00 C346.85,214.31 345.19,207.38 340.07,196.50 C333.13,181.76 323.47,171.32 311.15,165.28 C306.12,162.80 304.41,162.50 295.50,162.50 C286.36,162.50 284.94,162.77 279.00,165.61 C275.42,167.33 270.85,170.06 268.83,171.70 C244.35,191.45 234.31,235.12 246.12,270.48 C252.47,289.50 263.25,303.56 276.95,310.67 C283.97,314.31 287.35,314.97 297.09,314.60 C303.99,314.33 306.72,313.74 311.03,311.58 ZM 424.30 312.99 C437.20,309.01 448.83,297.68 456.64,281.50 C462.90,268.55 465.12,259.12 465.72,243.00 C466.30,227.14 464.57,214.94 460.08,203.38 C446.03,167.19 416.13,152.20 390.50,168.49 C380.38,174.92 370.37,187.98 364.81,202.00 C359.94,214.28 358.49,223.10 358.59,240.00 C358.66,253.73 358.98,256.53 361.34,264.50 C368.83,289.75 384.40,308.93 401.03,313.40 C408.74,315.47 416.72,315.33 424.30,312.99 ZM 618.50 298.99 C628.95,292.25 638.73,286.01 640.24,285.12 C642.95,283.52 642.99,283.36 642.99,273.32 L 643.00 263.14 L 620.75 277.46 L 598.50 291.77 L 598.00 301.90 C597.68,308.44 597.85,311.89 598.50,311.64 C599.05,311.42 608.05,305.73 618.50,298.99 ZM 236.00 281.47 C236.00,281.18 235.29,279.26 234.43,277.22 C233.57,275.17 232.06,270.12 231.08,266.00 L 229.30 258.50 L 201.89 258.34 L 174.48 258.19 L 168.99 261.41 C165.97,263.19 158.23,267.43 151.79,270.85 C145.35,274.27 138.15,278.17 135.79,279.52 L 131.50 281.98 L 183.75 281.99 C212.49,281.99 236.00,281.76 236.00,281.47 ZM 598.31 276.19 C603.36,273.00 611.42,267.94 616.21,264.94 C621.00,261.95 624.94,259.27 624.96,259.00 C624.98,258.73 591.95,258.50 551.56,258.50 L 478.12 258.50 L 476.02 266.88 C474.86,271.50 473.28,276.78 472.51,278.63 L 471.10 282.00 L 530.11 282.00 L 589.12 282.00 L 598.31 276.19 ZM 224.61 245.36 L 227.72 244.83 L 228.26 232.17 C228.56,225.20 229.12,218.71 229.51,217.75 C230.18,216.10 227.38,216.00 178.86,216.06 C138.75,216.10 127.90,216.38 129.33,217.31 C143.95,226.83 173.28,244.94 174.67,245.31 C177.19,245.97 220.77,246.02 224.61,245.36 ZM 624.00 244.85 C624.00,244.38 623.62,244.00 623.16,244.00 C622.69,244.00 610.81,237.70 596.75,230.00 L 571.18 216.00 L 523.98 216.00 C479.42,216.00 476.83,216.10 477.51,217.75 C477.91,218.71 478.47,225.12 478.75,232.00 C479.06,239.54 479.71,244.79 480.38,245.23 C481.96,246.25 624.00,245.87 624.00,244.85 ZM 642.59 233.28 C642.21,229.59 641.81,226.50 641.70,226.42 C641.38,226.19 614.37,211.11 604.50,205.65 C599.55,202.91 591.67,198.56 587.00,195.97 C582.33,193.39 578.43,191.32 578.35,191.38 C578.27,191.45 578.44,194.72 578.73,198.64 L 579.25 205.79 L 588.88 211.03 C594.17,213.92 603.90,219.21 610.50,222.80 C617.10,226.40 626.78,231.73 632.00,234.66 C637.22,237.59 641.90,239.99 642.39,239.99 C642.89,240.00 642.97,237.05 642.59,233.28 ZM 641.00 217.61 C641.00,214.85 637.18,198.56 634.97,191.92 C631.15,180.41 628.27,174.06 622.52,164.50 C611.39,145.97 595.14,129.19 576.00,116.46 C566.70,110.26 544.87,99.03 542.10,99.01 C541.34,99.00 543.00,101.42 545.80,104.38 C560.13,119.54 571.12,144.21 575.47,171.00 C576.41,176.77 577.47,182.09 577.84,182.81 C578.55,184.22 637.68,217.73 639.75,217.90 C640.44,217.95 641.00,217.82 641.00,217.61 ZM 236.17 195.59 C237.73,191.79 238.78,188.45 238.50,188.16 C238.09,187.76 195.38,187.69 122.49,187.98 L 116.48 188.00 L 114.91 195.00 C114.04,198.85 113.52,202.18 113.74,202.41 C113.96,202.63 140.96,202.74 173.74,202.66 L 233.34 202.50 L 236.17 195.59 ZM 564.79 195.44 L 564.50 187.87 L 519.50 187.89 C494.75,187.89 473.07,187.92 471.32,187.95 L 468.14 188.00 L 470.42 193.75 C471.68,196.91 472.98,200.29 473.32,201.25 C473.90,202.88 477.01,203.00 519.51,203.00 L 565.08 203.00 L 564.79 195.44 ZM 355.00 192.08 C355.00,191.58 355.27,190.45 355.61,189.58 C356.06,188.39 355.57,188.00 353.61,188.00 C350.70,188.00 350.55,188.29 352.04,191.07 C353.10,193.06 355.00,193.71 355.00,192.08 ZM 176.44 171.25 C182.72,137.45 199.64,107.83 223.00,89.73 L 226.50 87.02 L 220.34 87.01 C185.56,86.95 150.05,112.67 130.13,152.35 C124.51,163.56 119.00,177.17 119.00,179.87 C119.00,180.68 126.82,181.00 146.82,181.00 L 174.63 181.00 L 176.44 171.25 ZM 214.38 178.75 C216.38,168.00 221.38,149.81 224.34,142.55 C232.17,123.34 244.92,105.27 258.93,93.50 L 266.08 87.50 L 252.03 87.22 L 237.97 86.94 L 231.97 91.02 C205.92,108.71 187.58,139.87 181.52,176.75 L 180.82 181.00 L 197.39 181.00 C213.79,181.00 213.97,180.98 214.38,178.75 ZM 247.41 175.56 C258.46,159.52 277.20,149.00 294.72,149.00 C309.77,149.00 321.34,153.84 333.54,165.23 C337.56,168.99 342.13,174.07 343.68,176.53 L 346.50 181.00 L 353.62 181.00 L 360.73 181.00 L 363.47 176.87 C367.66,170.53 373.85,164.21 380.52,159.45 C386.22,155.38 386.69,154.72 388.89,147.82 C391.65,139.13 399.04,123.83 404.50,115.48 C406.65,112.19 413.45,104.44 419.59,98.25 L 430.77 87.00 L 354.54 87.00 L 278.31 87.00 L 270.91 92.16 C256.58,102.14 242.68,118.57 234.22,135.50 C229.07,145.83 223.71,162.52 221.15,176.25 L 220.26 181.00 L 231.96 181.00 L 243.67 181.00 L 247.41 175.56 ZM 564.00 180.61 C564.00,180.39 563.08,175.63 561.96,170.02 C555.09,135.76 541.36,112.91 519.00,98.53 C510.31,92.94 504.05,90.43 493.82,88.42 L 485.29 86.74 L 477.39 92.07 C458.85,104.57 442.52,126.28 434.45,149.14 L 433.08 153.03 L 438.74 156.23 C445.63,160.11 456.91,170.57 460.71,176.58 L 463.50 181.00 L 513.75 181.00 C541.39,181.00 564.00,180.82 564.00,180.61 ZM 401.64 149.86 C405.41,148.91 419.05,149.10 425.35,150.18 C426.82,150.43 427.78,149.03 429.94,143.50 C433.90,133.35 437.49,126.63 444.21,116.80 C449.95,108.40 462.84,94.74 469.94,89.53 L 473.39 87.00 L 458.35 87.00 L 443.31 87.00 L 436.14 92.04 C418.27,104.59 403.58,124.60 395.89,146.85 C394.24,151.61 394.22,152.13 395.65,151.58 C396.53,151.24 399.23,150.47 401.64,149.86 ZM 323.45 1145.55 L 321.00 1143.09 L 321.00 899.68 L 321.00 656.27 L 323.07 653.63 C325.72,650.27 330.24,650.07 332.44,653.22 C333.84,655.22 334.00,680.25 334.00,899.72 C334.00,1142.67 333.99,1144.01 332.00,1146.00 C329.32,1148.68 326.43,1148.52 323.45,1145.55 ZM 292.70 291.56 C283.69,288.34 278.20,282.94 273.29,272.46 C270.72,266.98 270.50,265.54 270.50,254.50 C270.50,243.15 270.67,242.14 273.60,235.95 C279.69,223.10 287.49,217.06 299.04,216.23 C305.06,215.80 306.63,216.07 311.36,218.39 C317.35,221.32 323.78,227.68 326.87,233.74 C327.97,235.90 329.61,241.33 330.52,245.80 C331.88,252.51 331.97,255.19 331.06,261.21 C327.71,283.40 309.72,297.63 292.70,291.56 ZM 308.84 277.11 C310.50,275.93 313.24,272.20 314.93,268.82 C323.12,252.44 314.95,229.00 301.05,229.00 C297.52,229.00 297.44,229.21 299.63,232.55 C300.81,234.35 301.12,236.45 300.75,240.21 C300.35,244.41 299.67,245.91 297.11,248.19 C293.58,251.35 290.30,251.72 285.95,249.47 L 283.00 247.95 L 283.00 254.44 C283.00,262.86 285.85,270.50 290.74,275.17 C292.81,277.14 295.17,279.03 296.00,279.35 C298.84,280.48 305.82,279.26 308.84,277.11 ZM 398.37 291.79 C393.52,290.23 385.84,283.95 382.26,278.62 C371.17,262.13 373.38,237.65 387.17,224.30 C397.47,214.33 411.51,213.18 422.33,221.44 C434.76,230.92 440.27,252.66 434.52,269.50 C428.56,286.95 413.05,296.51 398.37,291.79 ZM 413.08 277.73 C422.17,271.60 426.14,257.64 422.40,244.93 C419.65,235.57 413.02,229.01 406.30,229.00 L 403.10 229.00 L 405.03 233.25 C407.45,238.60 407.45,239.44 404.99,244.53 C402.05,250.60 395.98,252.78 391.25,249.46 C389.18,248.01 389.02,248.07 388.41,250.52 C387.57,253.86 388.70,262.35 390.59,266.86 C395.40,278.37 405.14,283.08 413.08,277.73 Z" fill="rgba(0,0,0,1)"/>
</g>
</svg>