<?xml version="1.0" encoding="UTF-8" standalone="no"?>
<svg
   width="738"
   height="1421"
   viewBox="0 0 738 1421"
   version="1.1"
   id="svg2"
   sodipodi:docname="icon-tower-solid.svg"
   inkscape:version="1.4 (e7c3feb1, 2024-10-09)"
   xmlns:inkscape="http://www.inkscape.org/namespaces/inkscape"
   xmlns:sodipodi="http://sodipodi.sourceforge.net/DTD/sodipodi-0.dtd"
   xmlns="http://www.w3.org/2000/svg"
   xmlns:svg="http://www.w3.org/2000/svg">
  <defs
     id="defs2" />
  <sodipodi:namedview
     id="namedview2"
     pagecolor="#ffffff"
     bordercolor="#000000"
     borderopacity="0.25"
     inkscape:showpageshadow="2"
     inkscape:pageopacity="0.0"
     inkscape:pagecheckerboard="0"
     inkscape:deskcolor="#d1d1d1"
     inkscape:zoom="0.29275158"
     inkscape:cx="365.4976"
     inkscape:cy="701.96034"
     inkscape:window-width="1280"
     inkscape:window-height="696"
     inkscape:window-x="0"
     inkscape:window-y="25"
     inkscape:window-maximized="0"
     inkscape:current-layer="svg2" />
  <path
     d="m 397.01,1225.74 c -8.4,2.22 -11.95,2.55 -30.51,2.84 -22.33,0.36 -30.19,-0.47 -43.75,-4.59 -13.43,-4.08 -23.53,-10.86 -26.4,-17.71 -1.12,-2.67 -1.35,-51.48 -1.35,-288 V 633.5 l 14.25,-0.13 c 11.03,-0.1 16.06,-0.61 22.25,-2.25 19.88,-5.27 38.22,-18.81 47.9,-35.37 2.88,-4.92 8.04,-16.99 8.99,-21 l 0.65,-2.75 h -12.88 l -1.2,3.75 c -2.77,8.65 -8.57,17.89 -15.95,25.37 -6.17,6.26 -9.2,8.44 -17.01,12.2 -12.81,6.17 -22.91,8.15 -37.48,7.35 -13.5,-0.73 -19.31,-2.26 -31.39,-8.24 -14.48,-7.17 -24.98,-18.64 -30.67,-33.52 L 239.83,572 h -70.78 c -70.09,0 -70.81,-0.02 -73.42,-2.07 L 93,567.85 v -137.8 c 0,-126.38 0.14,-137.92 1.64,-139.18 0.9,-0.75 14.44,-8.37 30.1,-16.93 15.66,-8.56 28.53,-15.96 28.61,-16.45 0.15,-0.9 -5.17,-4.37 -36.85,-24.05 C 95.37,220.31 93,218.35 93,213.93 c 0,-5.22 4.86,-25.3 9.11,-37.62 17.55,-50.91 49.5,-85.15 90.34,-96.81 15.17,-4.33 28.11,-4.64 173.55,-4.22 130.63,0.38 134.82,0.45 145.5,2.45 37.23,6.96 65.76,19.46 92,40.29 10.84,8.61 25.74,24.94 33.76,37 16.55,24.9 24.52,50.18 26.73,84.74 0.59,9.25 1,71.64 1,151.24 0,127.14 -0.11,135.68 -1.75,138.34 -1.13,1.85 -12.74,9.82 -33.14,22.75 L 598.7,572 H 430 v 316.55 c 0,274.46 -0.19,316.92 -1.45,319.35 -3.68,7.12 -14.88,13.45 -31.54,17.84 z m -15.79,108.92 c -9.51,5.69 -17.84,10.3 -18.5,10.26 -0.67,-0.04 -6.62,-3.34 -13.22,-7.34 -6.6,-3.99 -19.2,-11.53 -28,-16.76 -8.8,-5.23 -36.02,-21.44 -60.5,-36.01 -41.16,-24.51 -82.44,-49 -103,-61.12 -4.68,-2.76 -13.9,-8.24 -20.5,-12.18 -6.6,-3.94 -14.36,-8.48 -17.25,-10.09 -2.89,-1.61 -5.25,-3.21 -5.25,-3.56 0,-0.65 9.79,-5.02 87,-38.82 22.82,-9.99 50.08,-21.96 60.56,-26.6 10.49,-4.64 19.37,-8.44 19.75,-8.44 0.38,0 0.69,18.81 0.69,41.8 v 41.81 l 2.58,5.17 c 6.88,13.81 28.88,24.81 56.39,28.18 18.23,2.24 44.63,0.73 60.38,-3.44 21.93,-5.8 37.86,-18.25 40.01,-31.25 0.34,-2.07 0.62,-21.46 0.63,-43.09 l 0.01,-39.31 2.23,0.7 c 1.22,0.39 8.53,3.52 16.25,6.95 7.71,3.44 21.22,9.4 30.02,13.25 8.8,3.85 29.05,12.74 45,19.74 15.95,7 35.97,15.76 44.5,19.46 28.89,12.55 30.24,13.23 28.81,14.55 -0.72,0.66 -22.46,13.69 -48.31,28.96 -25.85,15.27 -50.15,29.66 -54,31.98 -10.89,6.55 -40.9,24.43 -76.5,45.57 -17.88,10.61 -40.28,23.95 -49.78,29.63 z m 6.9,75.6 c -9.41,4.95 -12.44,6.07 -17.5,6.45 -6.67,0.49 -10.16,-0.92 -21.86,-8.81 -2.93,-1.98 -8.02,-5.08 -11.3,-6.89 -3.28,-1.81 -9.11,-5.35 -12.96,-7.86 -6.74,-4.39 -9.64,-6.11 -21.38,-12.65 -2.96,-1.65 -8.59,-5.06 -12.5,-7.57 -3.92,-2.52 -10.72,-6.79 -15.12,-9.49 -4.4,-2.71 -12.5,-7.71 -18,-11.12 -5.5,-3.42 -13.38,-8.1 -17.5,-10.41 -10.5,-5.88 -23.59,-13.63 -29.5,-17.46 -2.75,-1.78 -6.4,-3.94 -8.12,-4.8 -3.15,-1.58 -18.24,-11.02 -37.37,-23.37 -5.77,-3.73 -11.78,-7.34 -13.35,-8.02 -1.57,-0.69 -4.5,-2.54 -6.51,-4.12 -2.01,-1.59 -6.56,-4.34 -10.11,-6.13 -10.01,-5.04 -14.03,-7.86 -15.07,-10.58 -0.56,-1.47 -3.5,-4.04 -7.13,-6.22 -4.43,-2.65 -7.05,-3.95 -8.61,-6.04 -2.28,-3.05 -2.27,-7.81 -2.24,-21.02 0.01,-1.6 0.01,-3.33 0.01,-5.19 0,-13.27 0.35,-23.98 0.78,-23.79 0.43,0.18 16.52,9.73 35.75,21.22 19.23,11.49 47.79,28.54 63.47,37.87 15.68,9.34 56.74,33.86 91.25,54.49 l 62.75,37.5 v 25.82 c 0,25.54 0.02,25.83 2.22,27.37 2.57,1.8 6.07,2.01 8.85,0.52 1.83,-0.98 1.93,-2.35 1.93,-26.98 v -25.95 l 3.75,-2.4 c 2.06,-1.31 31.42,-18.92 65.25,-39.13 114.32,-68.31 133.44,-79.74 159.17,-95.14 14.12,-8.45 25.88,-15.36 26.13,-15.36 0.25,0 0.65,4.31 0.88,9.57 0.23,5.36 0.9,9.86 1.51,10.25 2,1.25 3.3,8.59 3.3,18.68 0,20.11 -1.5,21.91 -35.99,43.1 -9.62,5.92 -25.38,15.46 -35,21.2 -21.41,12.78 -28.87,17.37 -36,22.16 -3.03,2.04 -11.12,6.95 -18,10.91 -6.88,3.97 -15.2,8.93 -18.5,11.03 -3.3,2.09 -10.5,6.43 -16,9.63 -5.5,3.21 -17.42,10.41 -26.5,16.01 -36.01,22.22 -43.94,26.95 -54.88,32.72 z M 297,606.31 c 5.97,1 21.01,0.54 26.76,-0.82 9.21,-2.17 17.84,-6.94 25.06,-13.86 10.41,-9.99 14.24,-19.34 20.27,-49.5 4.61,-23.13 7.86,-34.27 12.68,-43.47 3.46,-6.62 11.1,-15.54 16.23,-18.95 l 2.5,-1.66 -5.7,-5.43 c -12.2,-11.64 -29.2,-13.59 -45.53,-5.23 -14.79,7.57 -28.68,33.31 -33.16,61.45 -2,12.58 -3.62,15.45 -8.46,14.96 -1.75,-0.18 -3.72,-1.33 -4.83,-2.83 -1.8,-2.42 -1.82,-3.01 -0.39,-12.53 3.16,-21 11.5,-42.11 22.14,-56.05 2.99,-3.91 5.43,-7.39 5.43,-7.72 0,-0.34 -3.2,-1.58 -7.11,-2.77 -5.84,-1.78 -8.74,-2.07 -16.25,-1.66 -23.96,1.33 -37.17,14.33 -48,47.26 -9.07,27.59 -10.34,45.35 -4.53,63.19 4.04,12.41 13.43,23.55 24.56,29.11 5.9,2.96 13.75,5.74 18.33,6.51 z M 403.5,320.6 c 6.18,1.96 16.35,1.69 23.01,-0.6 19.81,-6.82 34.69,-26.92 41,-55.37 2.68,-12.07 1.69,-36.87 -1.94,-49.07 -6.34,-21.23 -19.45,-38.82 -34.14,-45.78 -6.46,-3.06 -7.64,-3.28 -17.43,-3.28 -9.79,0 -10.97,0.22 -17.41,3.27 -10.95,5.19 -20.05,15.12 -26.97,29.41 -8.15,16.84 -10.12,25.67 -10.1,45.32 0.03,18.71 1.8,27.05 8.9,42 8.64,18.19 20.16,29.38 35.08,34.1 z m -121.44,-0.63 c 24.58,8.84 52.66,-11.54 62.94,-45.68 1.93,-6.41 2.05,-7.97 1.08,-14.19 -1.36,-8.77 -1.38,-24.65 -0.04,-32.89 0.88,-5.44 0.73,-7.28 -1.11,-13.5 -5.85,-19.83 -18.26,-36.31 -32.73,-43.45 -7.34,-3.63 -7.98,-3.76 -18.18,-3.76 -9.93,0 -10.97,0.2 -17.27,3.3 -16.66,8.2 -29.75,27.33 -35.4,51.7 -2.91,12.57 -2.46,35.89 0.93,48.68 5.18,19.53 16.65,37.21 28.92,44.58 2.98,1.79 7.87,4.14 10.86,5.21 z M 106,339 v 182.04 l 20.75,-0.27 c 11.41,-0.15 20.64,-0.61 20.5,-1.02 C 147.11,519.34 147,478.5 147,429 V 339 Z M 447,450.8 V 521 h 46 V 339 h -46.05 l 0.27,15.74 0.28,15.74 4.69,0.67 c 6.07,0.86 16.04,6.2 19.99,10.71 4.16,4.73 8.58,14.47 9.37,20.64 0.54,4.21 0.3,5.43 -1.53,7.75 -2.58,3.27 -7.08,3.69 -9.86,0.91 -1.07,-1.07 -2.1,-4 -2.45,-6.97 -0.34,-2.82 -1.17,-6.16 -1.86,-7.41 -1.18,-2.17 -1.28,-2.06 -2.04,2.22 -3.12,17.65 -7.33,31.85 -12.92,43.62 z M 214,339 v 182 h 26.68 l 1.28,-5.75 c 2.02,-9.04 6.8,-21.87 12.14,-32.59 4.29,-8.62 4.9,-10.61 4.88,-16 -0.02,-5.58 -0.44,-6.81 -4.48,-13.04 -8.72,-13.46 -14.65,-33.98 -14.88,-51.45 -0.12,-9.05 -0.04,-9.4 2.69,-11.75 3.54,-3.05 5.54,-3.04 11.72,0.1 l 4.97,2.51 V 339 Z m 109.75,833.92 c 2.64,1.54 6.37,1.28 8.42,-0.58 1.76,-1.59 1.83,-10.74 1.83,-252.17 0,-231.7 -0.12,-250.65 -1.65,-252.34 -2.07,-2.28 -6.11,-2.36 -8.52,-0.18 -1.76,1.6 -1.83,10.77 -1.83,252.96 0,238.27 0.09,251.34 1.75,252.31 z M 559,339 v 182.05 l 31.5,-0.55 -0.03,-6.75 C 590.45,510.04 590.34,469.2 590.22,423 L 590,339 Z M 404.85,463.88 c 3.66,3.78 6.99,6.93 7.39,7 1.43,0.23 12.96,-12.41 17.38,-19.05 6.08,-9.15 12.74,-23.55 15.82,-34.19 2.65,-9.16 3.1,-12.05 1.81,-11.47 -0.41,0.18 -4.35,2.08 -8.75,4.22 -17.96,8.74 -43.36,15.4 -67.5,17.69 -34.67,3.29 -76.62,-3.97 -107.91,-18.68 -5.17,-2.43 -9.59,-4.24 -9.81,-4.01 -0.6,0.6 1.52,12.01 3.83,20.61 2.27,8.42 9.5,22.82 13.95,27.76 l 2.93,3.26 5.26,-2.92 c 2.89,-1.61 8.34,-3.87 12.12,-5.02 14.68,-4.47 27.14,-3.74 42.76,2.48 l 8.62,3.44 6.88,-2.62 c 4.84,-1.85 9.53,-2.77 15.87,-3.12 16.8,-0.94 28.5,3.41 39.35,14.62 z m -24.8,93.37 c -0.03,0.41 47.2,0.75 104.95,0.75 h 105 v -24.01 l -102.71,0.26 -102.7,0.25 -2.25,11 c -1.24,6.05 -2.27,11.34 -2.29,11.75 z m -271.4,-353 -0.69,2.75 h 123.2 l 1.64,-4.25 c 0.9,-2.34 3.04,-7.06 4.75,-10.5 l 3.11,-6.25 h -11.4 c -10.38,0 -11.35,-0.16 -10.89,-1.75 0.27,-0.96 1.25,-5.56 2.17,-10.21 6.38,-32.2 24.66,-62.24 47.99,-78.83 L 277.26,89 h -12.85 l -7.5,6.75 c -14.31,12.87 -21.68,22.23 -29.36,37.25 -6.21,12.12 -12.62,30.5 -14.48,41.5 -0.65,3.85 -1.39,8.01 -1.65,9.25 -0.45,2.22 -0.65,2.25 -16.94,2.25 -1.6,0 -3.06,0.01 -4.38,0.02 -7.15,0.04 -10.43,0.06 -11.57,-1.49 -0.97,-1.31 -0.4,-3.76 0.65,-8.27 0.23,-0.98 0.49,-2.07 0.75,-3.26 4.24,-19.11 14.01,-41.4 24,-54.76 6.34,-8.49 17.83,-19.91 25.44,-25.29 l 4.88,-3.45 -5.21,-0.31 c -4.73,-0.27 -5.62,0.04 -9.87,3.46 -23.94,19.27 -39.52,46.61 -46.57,81.73 l -2.24,11.12 -28.87,0.5 -28.86,0.5 -1.64,7.5 c -0.91,4.12 -1.96,8.74 -2.34,10.25 z M 347,415.26 c 6.03,0.32 21.2,-0.28 28,-1.1 l 5.5,-0.67 0.52,-74.49 H 326 v 74.82 l 8.25,0.6 c 4.54,0.34 10.27,0.71 12.75,0.84 z M 617.47,205.84 c 17.03,9.38 31.15,16.87 31.38,16.64 0.23,-0.22 -0.6,-4.81 -1.84,-10.19 -6.77,-29.4 -19.22,-51.83 -40.39,-72.83 -10.76,-10.67 -22.05,-19.26 -35.18,-26.8 -7.82,-4.48 -21.61,-10.66 -23.79,-10.66 -0.58,0 0.77,1.91 3.02,4.25 13.97,14.51 25.04,37.78 30.33,63.74 1.1,5.4 2,11.15 2,12.76 0,1.62 0.79,3.64 1.75,4.49 0.96,0.85 15.69,9.23 32.72,18.6 z m -305.54,90.7 c -19.88,10.07 -41.38,-6.17 -43.55,-32.88 -1.41,-17.32 6.9,-33.86 20.17,-40.14 18.74,-8.87 38.78,5.13 42.61,29.78 2.77,17.81 -5.43,36.24 -19.23,43.24 z m 107.96,-0.01 c -11.26,5.78 -23.37,3.18 -32.77,-7.02 -22,-23.86 -8.41,-68.54 20.83,-68.5 16.13,0.02 28.26,12.72 31.04,32.49 2.59,18.5 -5.1,35.83 -19.1,43.03 z M 106,302 v 23 h 155.4 l -5.72,-5.1 c -3.14,-2.8 -7.77,-7.97 -10.29,-11.5 l -4.57,-6.4 z m 0.22,244.25 -0.28,11.75 H 237 v -8.88 c 0,-4.88 0.28,-10.28 0.63,-12 l 0.62,-3.13 -65.87,0.25 -65.88,0.26 z M 453.34,319 l -6.41,6 H 591 v -9.92 c 0,-5.45 -0.27,-10.63 -0.61,-11.5 -0.54,-1.42 -6.92,-1.58 -61.83,-1.58 h -61.23 l -3.78,5.5 c -2.09,3.02 -6.68,8.2 -10.21,11.5 z M 477,205.87 c 0,0.83 12.62,1.13 47,1.13 h 47 v -4.35 c 0,-2.4 -0.29,-7.12 -0.64,-10.5 L 569.72,186 H 468.13 l 4.43,9.37 c 2.44,5.15 4.44,9.87 4.44,10.5 z m 127.21,336.09 c -0.24,8.81 -0.07,10.2 1.22,9.71 1.62,-0.62 13.69,-8.21 33.32,-20.93 L 651,522.8 v -10.4 c 0,-5.72 -0.18,-10.4 -0.41,-10.4 -0.22,0 -10.69,6.68 -23.25,14.84 l -22.84,14.84 z m 0.01,-233.14 c -0.16,5.6 0.02,10.18 0.4,10.18 0.38,0 10.97,-6.64 23.53,-14.75 L 651,289.5 v -10.24 -10.24 l -4.75,2.98 c -2.61,1.64 -13.08,8.3 -23.25,14.81 l -18.5,11.82 z m 43.28,-64.65 c 1.85,1.12 3.14,1.41 3.36,0.75 0.82,-2.44 -1.08,-11.81 -2.67,-13.15 -0.93,-0.78 -13.84,-8.08 -28.69,-16.21 -14.85,-8.14 -28.89,-15.87 -31.19,-17.19 l -4.2,-2.39 0.59,7.26 c 0.32,3.99 0.63,7.3 0.69,7.35 0.06,0.05 13.39,7.21 29.61,15.92 16.22,8.71 30.85,16.66 32.5,17.66 z M 333.34,319 l -6.41,6 h 54.23 l -5.64,-5.16 c -3.1,-2.83 -7.68,-8.01 -10.17,-11.5 L 360.82,302 h -13.49 l -3.78,5.5 c -2.09,3.02 -6.68,8.2 -10.21,11.5 z M 388,157.68 c 0,0.55 0.63,0.37 4.48,-1.24 2.86,-1.19 4.1,-2.52 5.35,-5.75 3.08,-7.95 11.15,-23.77 15.09,-29.57 5.53,-8.15 18.07,-21.22 25.76,-26.86 l 6.5,-4.76 -5.17,-0.31 c -6.18,-0.36 -8.3,1.01 -20.52,13.27 -12.58,12.63 -22.89,29.59 -29.13,47.96 -1.3,3.81 -2.36,7.08 -2.36,7.26 z m 44.67,-2.06 c 3.4,1.27 3.73,1.01 5.35,-4.12 1.82,-5.77 9.59,-21.02 14.27,-28 8.26,-12.31 23.64,-27.28 34.21,-33.3 1.66,-0.95 0.95,-1.14 -4.2,-1.17 -5.96,-0.03 -6.41,0.15 -12,4.82 -8.2,6.85 -19.31,18.81 -24.29,26.13 -4.83,7.11 -14.67,27.07 -15.57,31.57 -0.53,2.63 -0.25,3.14 2.23,4.07 z M 217,272.56 c 4.25,2.22 12.01,3.31 11.99,1.69 -0.03,-1.97 -2.86,-11.1 -4.3,-13.89 -3.58,-6.91 -18.44,-16.96 -23.93,-16.18 -2.8,0.4 -3.42,3.67 -1.76,9.21 1.49,4.98 11.75,15.9 18,19.17 z m 325.24,-22.58 c 7.63,1.58 16.76,-0.8 16.76,-4.37 0,-5.82 -17.16,-14.61 -28.53,-14.61 -5.88,0 -10.47,1.78 -10.47,4.06 0,4.97 11.53,12.71 22.24,14.92 z m -51.49,32.94 c 2.48,1.44 11.86,1.3 17.75,-0.28 14.29,-3.82 23.98,-13.17 17.34,-16.72 -3.17,-1.7 -16.31,-0.58 -22.92,1.96 -10.61,4.07 -17.14,12.14 -12.17,15.04 z M 598.49,270.2 c 6.04,2.09 12.46,2.29 14.97,0.46 2.62,-1.93 1.29,-6.22 -3.28,-10.53 -9.74,-9.2 -32.18,-13.83 -32.18,-6.65 0,5.11 9.62,12.96 20.49,16.72 z m -436.24,12.77 c 3.34,1.34 11.58,1.19 17.25,-0.33 4.06,-1.08 12.86,-4.88 14.34,-6.19 0.19,-0.16 -1.59,-2.85 -3.94,-5.97 -3.89,-5.14 -4.58,-5.63 -7.35,-5.17 -14.1,2.34 -28.11,14.52 -20.3,17.66 z m 387.33,0.24 c 7.64,2.65 17.9,2.03 26.52,-1.6 l 3.61,-1.51 -5.5,-5.68 -5.49,-5.67 -6.82,0.49 c -4.64,0.33 -8.62,1.37 -12.43,3.23 -8.66,4.24 -8.63,7.7 0.11,10.74 z M 483,244.66 v 7.61 l 6.25,-0.57 c 8.62,-0.79 13.32,-2.34 16.97,-5.61 3.51,-3.14 3.34,-5.02 -0.73,-7.69 -2.82,-1.85 -15.47,-3.12 -19.92,-2.01 -2.48,0.63 -2.57,0.92 -2.57,8.27 z m -351.5,41.04 -4,2.28 13.73,0.01 13.72,0.01 -0.97,-2.57 c -1.27,-3.33 -1.26,-9.14 0.02,-9.93 0.55,-0.34 1,-1.06 1,-1.59 0,-0.85 -10.91,4.62 -23.5,11.79 z m 85,-3.64 c 4.18,1.02 4.51,1.04 4.45,0.19 -0.03,-0.41 -2.63,-1.97 -5.79,-3.47 -8.63,-4.08 -17.44,-12.56 -21.37,-20.58 -2.93,-5.97 -3.33,-6.39 -3.61,-3.91 -1.01,8.84 14.1,24.78 26.32,27.77 z M 536,258.57 c 6.1,1.7 13.96,1.67 17,-0.07 2.41,-1.38 2.31,-1.43 -2.7,-1.46 -10.65,-0.08 -23.21,-4.26 -30.64,-10.2 l -3.83,-3.07 1.48,2.87 c 0.82,1.57 2.32,3.6 3.34,4.5 2.69,2.37 10.16,5.99 15.35,7.43 z m 58,20.55 c 5.98,1.93 9.14,2.22 12.99,1.19 2.02,-0.54 1.1,-1.01 -4.9,-2.48 -10.32,-2.54 -17.21,-5.93 -22.91,-11.26 -2.69,-2.51 -5.19,-4.57 -5.56,-4.57 -1.47,0 2.48,5.86 6.23,9.24 4.83,4.37 7.04,5.6 14.15,7.88 z m -117.5,5.53 -1.4,3.35 h 8.69 l -1.01,-3.97 c -1.3,-5.12 -0.49,-8.15 3.34,-12.51 l 3.09,-3.52 h -7.97 l -1.67,6.65 c -0.92,3.65 -2.3,8.15 -3.07,10 z m 5.5,-23.82 c 0,2.4 14.25,0.77 20.65,-2.36 4.93,-2.41 8.11,-5.04 7.21,-5.95 -0.24,-0.23 -2.68,0.68 -5.42,2.04 -2.97,1.47 -8.5,2.94 -13.71,3.64 -6.47,0.86 -8.73,1.54 -8.73,2.63 z M 350.81,191.97 c 1.48,3.28 2.93,5.98 3.23,6 0.51,0.03 5.96,-10.47 5.96,-11.49 0,-0.26 -2.68,-0.48 -5.94,-0.48 h -5.95 z M 560,261.92 c 0,0.37 1.48,0.51 3.3,0.29 2.91,-0.34 3.49,-0.93 5,-5.18 l 0.06,-0.18 c 1.28,-3.61 1.77,-4.99 1.3,-5.52 C 569.37,251 568.7,251 567.63,251 h -0.09 c -2,0 -2.68,0.74 -3.66,4.01 -0.66,2.21 -1.81,4.51 -2.54,5.12 -0.74,0.62 -1.34,1.42 -1.34,1.79 z m -24,8.48 1.07,2.91 2.71,-2.52 c 1.5,-1.39 3.62,-3.02 4.72,-3.63 1.73,-0.95 1.47,-1.11 -2,-1.14 -2.2,-0.03 -5.02,-0.32 -6.26,-0.65 -1.66,-0.45 -2.14,-0.24 -1.78,0.76 0.26,0.75 0.96,2.68 1.54,4.27 z m -16.5,15.25 -5,2.33 4.37,0.01 c 3.74,0.01 4.92,-0.54 8.25,-3.87 4.7,-4.7 5.18,-7.39 0.63,-3.55 -1.79,1.51 -5.5,3.79 -8.25,5.08 z m -329,-0.14 -5,2.47 4.04,0.01 c 3,0.01 4.92,-0.73 7.5,-2.89 3.38,-2.84 3.53,-5.74 0.16,-3.29 -0.93,0.68 -3.95,2.34 -6.7,3.7 z M 621.5,268 c 0,1.65 0.14,3 0.32,3 0.65,0 9.18,-5.2 9.18,-5.6 0,-0.22 -2.14,-0.4 -4.75,-0.4 -4.61,0 -4.75,0.09 -4.75,3 z M 447,387.48 c 0,1.94 0.2,3.52 0.44,3.52 0.25,0 2.09,-0.97 4.1,-2.16 3.86,-2.27 3.57,-2.95 -1.79,-4.22 -2.6,-0.62 -2.75,-0.47 -2.75,2.86 z M 227.74,284.8 l -3.2,3.2 h 4.34 c 4.23,0 4.32,-0.07 3.65,-2.75 -1,-3.96 -1.26,-3.98 -4.79,-0.45 z M 591,286.39 c 0,1.17 0.95,1.61 3.5,1.61 1.92,0 3.5,-0.45 3.5,-1 0,-0.55 -0.86,-1 -1.92,-1 -1.05,0 -2.63,-0.27 -3.5,-0.61 -1.04,-0.4 -1.58,-0.05 -1.58,1 z m -386.02,0.13 c -1.05,1.27 -0.6,1.47 3.15,1.4 2.4,-0.04 3.69,-0.33 2.87,-0.63 -0.82,-0.31 -2.24,-0.94 -3.14,-1.4 -1.09,-0.56 -2.07,-0.34 -2.88,0.63 z M 514,258.06 c 0,0.52 1.12,0.94 2.5,0.94 2.8,0 3.35,-1.46 0.91,-2.4 -1.77,-0.68 -3.41,0.02 -3.41,1.46 z m 19.99,28.45 c -1.03,1.24 -0.88,1.49 0.89,1.49 1.16,0 2.12,-0.42 2.12,-0.94 0,-1.73 -1.76,-2.05 -3.01,-0.55 z m 47.01,0.04 c -2.41,1.33 -2.42,1.38 -0.31,1.41 1.21,0.02 2.49,-0.44 2.85,-1.03 1.07,-1.72 0.13,-1.86 -2.54,-0.38 z"
     fill="#1b4670"
     id="path1"
     style="fill:#1a1a1a" />
</svg>
