<?xml version="1.0" encoding="UTF-8" standalone="no"?>
<svg
   viewBox="0 0 1254 1254"
   version="1.1"
   desc="Created with imagetracer.js version 1.2.6"
   id="svg2"
   xmlns="http://www.w3.org/2000/svg"
   xmlns:svg="http://www.w3.org/2000/svg">
  <defs
     id="defs2" />
  <path
     fill="rgb(19,19,14)"
     stroke="rgb(19,19,14)"
     stroke-width="1"
     opacity="0.996078431372549"
     d="M 724.5 339 Q 745.6 338.9 757.5 348 L 805 393.5 L 810.5 400 L 995 583.5 Q 1008.6 597.4 1008 625.5 Q 1005.4 647.4 993 659.5 L 852.5 801 L 846 806.5 L 760.5 893 Q 748.1 904.6 723.5 904 Q 700.9 900.1 690 884.5 Q 679.6 872.9 681 849.5 Q 683.8 834.3 692 824.5 L 817.5 698 L 827 689.5 L 844 671.5 L 310.5 671 Q 289.6 666.4 279 651.5 Q 269.3 639.2 269 617.5 Q 271.5 592 287.5 580 Q 297.5 571.5 313.5 569 L 844 568.5 L 782 508 L 780.5 506 L 773.5 498 L 692 418.5 Q 678.8 406.7 680 380.5 Q 684 359.5 698.5 349 Q 708.6 341.1 724.5 339 Z "
     id="path2" />
</svg>
