<svg viewBox="0 0 1254 1254" version="1.1" xmlns="http://www.w3.org/2000/svg" desc="Created with imagetracer.js version 1.2.6" ><path fill="rgb(251,251,252)" stroke="rgb(251,251,252)" stroke-width="1" opacity="1" d="M 615.5 336 L 641.5 336 L 665.5 342 Q 690.7 352.3 707 371.5 Q 720.7 386.8 728 408.5 L 732 427.5 L 732 450.5 L 728 469.5 L 720 488.5 Q 709.6 507.1 693.5 520 Q 678.4 532.4 657.5 539 L 643.5 542 L 623.5 543 L 622.5 542 L 614.5 542 L 603.5 540 L 588.5 535 L 576.5 529 L 555 513 L 540 493.5 L 531 475.5 L 525 451.5 L 525 426.5 L 528 411.5 L 537 389.5 Q 547.6 371.1 563.5 358 L 586.5 344 L 600.5 339 L 615.5 336 Z " /><path fill="rgb(251,251,252)" stroke="rgb(251,251,252)" stroke-width="1" opacity="1" d="M 407.5 405 L 424.5 405 L 440.5 409 Q 457 416 468 428.5 Q 476.8 438.7 482 452.5 L 485 468.5 L 485 480.5 Q 479.8 511.3 459.5 527 Q 449.6 535.6 435.5 540 L 426.5 542 L 405.5 542 Q 379.2 536.8 365 519.5 Q 353.7 507.8 349 489.5 L 348 484.5 L 348 462.5 Q 353.5 437.5 369.5 423 Q 383.6 409.1 407.5 405 Z " /><path fill="rgb(251,251,252)" stroke="rgb(251,251,252)" stroke-width="1" opacity="1" d="M 830.5 405 L 846.5 405 L 867.5 411 Q 883 418.5 893 431.5 Q 901.1 441.4 905 455.5 L 907 464.5 L 907 482.5 Q 902.1 509.1 885.5 524 Q 875.7 533.7 861.5 539 L 849.5 542 L 839.5 542 L 838.5 543 L 837.5 542 L 828.5 542 L 813.5 538 Q 799 532 789 521.5 Q 778.7 510.8 773 495.5 L 770 482.5 L 770 464.5 Q 776 434.5 796.5 419 L 809.5 411 L 830.5 405 Z " /><path fill="rgb(251,251,252)" stroke="rgb(251,251,252)" stroke-width="1" opacity="1" d="M 365.5 569 L 457.5 569 L 472.5 573 L 484 579.5 Q 455.4 605.9 444 649.5 L 442 660.5 L 442 668.5 L 441 669.5 L 439 741.5 L 438 742.5 L 438 766.5 L 437 767.5 L 437 791.5 L 436 797 L 305.5 797 L 298 791.5 L 296 787.5 L 296 770.5 L 297 769.5 L 298 732.5 L 299 731.5 L 299 715.5 L 300 714.5 L 300 696.5 L 301 695.5 L 301 679.5 L 302 678.5 L 302 660.5 L 303 659.5 L 304 632.5 L 311 610.5 Q 318.9 595.5 331.5 585 Q 344.7 573.2 365.5 569 Z " /><path fill="rgb(251,251,252)" stroke="rgb(251,251,252)" stroke-width="1" opacity="1" d="M 796.5 569 L 888.5 569 L 893.5 570 Q 920.3 577.7 935 597.5 Q 947.2 611.8 951 634.5 L 951 649.5 L 952 650.5 L 952 667.5 L 953 668.5 L 953 686.5 L 954 687.5 L 954 704.5 L 955 705.5 L 955 722.5 L 956 723.5 L 956 740.5 L 957 741.5 L 957 759.5 L 958 760.5 L 958 780.5 L 959 785.5 Q 957.2 792.7 951.5 796 L 948.5 797 L 818 797 L 817 743.5 L 816 742.5 L 816 719.5 L 815 718.5 L 815 695.5 L 814 694.5 L 814 670.5 L 813 669.5 L 813 661.5 L 811 650.5 Q 806.7 632.3 799 617.5 L 786 596.5 L 771 578 Q 782 572.2 796.5 569 Z " /><path fill="rgb(251,251,252)" stroke="rgb(251,251,252)" stroke-width="1" opacity="1" d="M 556.5 572 L 698.5 572 Q 699.7 574.3 704.5 573 Q 741.5 583 762 609.5 Q 780.2 630.8 786 664.5 L 787 699.5 L 788 700.5 L 788 725.5 L 789 726.5 L 790 780.5 L 791 781.5 L 791 806.5 L 792 807.5 L 792 829.5 L 793 830.5 L 793 856.5 Q 790.8 863.3 785.5 867 L 779.5 870 L 475.5 870 Q 468.1 867.4 464 861.5 L 462 857.5 L 462 830.5 L 463 829.5 L 463 805.5 L 464 804.5 L 464 781.5 L 465 780.5 L 465 755.5 L 466 754.5 L 468 684.5 L 469 683.5 L 469 666.5 L 470 665.5 L 471 654.5 Q 481.5 615 509.5 593 Q 527.8 577.3 556.5 572 Z " /><path fill="rgb(0,0,0)" stroke="rgb(0,0,0)" stroke-width="1" opacity="0" d="M 0 0 L 1254 0 L 1254 1254 L 0 1254 L 0 0 Z M 616 336 L 601 339 L 587 344 L 564 358 Q 548 371 537 390 L 528 412 L 525 427 L 525 452 L 531 476 L 540 494 L 555 513 L 577 529 L 589 535 L 604 540 L 615 542 L 623 542 L 624 543 L 644 542 L 658 539 Q 678 532 694 520 Q 710 507 720 489 L 728 470 L 732 451 L 732 428 L 728 409 Q 721 387 707 372 Q 691 352 666 342 L 642 336 L 616 336 Z M 408 405 Q 384 409 370 423 Q 353 437 348 463 L 348 485 L 349 490 Q 354 508 365 520 Q 379 537 406 542 L 427 542 L 436 540 Q 450 536 460 527 Q 480 511 485 481 L 485 469 L 482 453 Q 477 439 468 429 Q 457 416 441 409 L 425 405 L 408 405 Z M 831 405 L 810 411 L 797 419 Q 776 435 770 465 L 770 483 L 773 496 Q 779 511 789 522 Q 799 532 814 538 L 829 542 L 838 542 L 839 543 L 840 542 L 850 542 L 862 539 Q 876 534 886 524 Q 902 509 907 483 L 907 465 L 905 456 Q 901 441 893 432 Q 883 419 868 411 L 847 405 L 831 405 Z M 366 569 Q 345 573 332 585 Q 319 595 311 611 L 304 633 L 303 660 L 302 661 L 302 679 L 301 680 L 301 696 L 300 697 L 300 715 L 299 716 L 299 732 L 298 733 L 297 770 L 296 771 L 296 788 L 298 792 L 306 797 L 436 797 L 437 792 L 437 768 L 438 767 L 438 743 L 439 742 L 441 670 L 442 669 L 442 661 L 444 650 Q 455 606 484 580 L 473 573 L 458 569 L 366 569 Z M 797 569 Q 782 572 771 578 L 786 597 L 799 618 Q 807 632 811 651 L 813 662 L 813 670 L 814 671 L 814 695 L 815 696 L 815 719 L 816 720 L 816 743 L 817 744 L 818 797 L 949 797 L 952 796 Q 957 793 959 786 L 958 781 L 958 761 L 957 760 L 957 742 L 956 741 L 956 724 L 955 723 L 955 706 L 954 705 L 954 688 L 953 687 L 953 669 L 952 668 L 952 651 L 951 650 L 951 635 Q 947 612 935 598 Q 920 578 894 570 L 889 569 L 797 569 Z M 557 572 Q 528 577 510 593 Q 482 615 471 655 L 470 666 L 469 667 L 469 684 L 468 685 L 466 755 L 465 756 L 465 781 L 464 782 L 464 805 L 463 806 L 463 830 L 462 831 L 462 858 L 464 862 Q 468 867 476 870 L 780 870 L 786 867 Q 791 863 793 857 L 793 831 L 792 830 L 792 808 L 791 807 L 791 782 L 790 781 L 789 727 L 788 726 L 788 701 L 787 700 L 786 665 Q 780 631 762 610 Q 741 583 705 573 Q 700 574 699 572 L 557 572 Z " /></svg>