<?xml version="1.0" encoding="UTF-8" standalone="no"?>
<svg
   width="451.23474"
   height="166.11951"
   viewBox="0 0 451.23474 166.11951"
   version="1.1"
   id="svg2"
   xmlns="http://www.w3.org/2000/svg"
   xmlns:svg="http://www.w3.org/2000/svg">
  <defs
     id="defs2" />
  <g
     id="g2"
     transform="translate(-0.17186622,-2.5316552)">
    <path
       d="m 1.4834614,168.36692 c -1.02000004,-0.63 -1.52000004,-3.14 -1.23000004,-6.14 0.11,-1.05 5.95000004,-4.23 16.90999964,-9.2 23.41,-10.61 32.91,-14.7 34.1,-14.7 0.57,0 4.77,-1.76 9.34,-3.91 14.77,-6.95 56.519999,-23.41 69.809999,-27.52 3.02,-0.94 7.07,-2.31 9,-3.05 1.93,-0.74 8.23,-2.79 14,-4.539997 19.04,-5.79 26.42,-8.1 33.5,-10.48 25.8,-8.67 54.69,-16.5 60.86,-16.5 4.4,0 6.09,1.92 4.58,5.22 -1.46,3.21 -5.17,5.32 -12.48,7.08 -3.28,0.79 -10.01,2.68 -14.96,4.19 -9.8,2.99 -49.95,14.789997 -58,17.049997 -17.06,4.78 -23.52,6.8 -36.5,11.4 -7.98,2.83 -17.88,6.44 -22,8.01 -4.12,1.58 -10.739999,3.84 -14.699999,5.04 -3.96,1.2 -8.89,3.04 -10.96,4.09 -2.07,1.06 -4.27,1.92 -4.9,1.92 -1.57,0 -4.92,3.86 -4.07,4.7 0.81,0.81 7.17,-0.41 29.629999,-5.7 22.72,-5.34 62.94,-13.01 68.2,-13 1.48,0 7.33,-0.88 13,-1.96 13.75,-2.61 41.81,-5.04 58.1,-5.04 11.39,0.01 13.64,0.28 16.45,1.99 3.64,2.22 4.16,4.88 1.42,7.36 -1.55,1.4 -4.42,1.65 -18.75,1.66 -20.5,0.02 -49.25,2.13 -67.08,4.92 -7.23,1.13 -13.76,2.29 -14.5,2.56 -0.74,0.28 -5.61,1.19 -10.84,2.03 -5.23,0.84 -13.55,2.41 -18.5,3.5 -4.95,1.09 -13.5,2.88 -19,3.98 -5.5,1.11 -14.949999,3.16 -20.999999,4.57 -6.05,1.4 -13.93,3.13 -17.5,3.84 -10.02,2 -20.84,4.54 -28,6.59 -3.57,1.02 -8.96,2.17 -11.96,2.55 -3,0.38 -9.3,2.03 -14,3.66 -9.5099996,3.31 -16.4299996,4.78 -17.9699996,3.83 z m 330.8299986,-6.14 c -1.5,-1.5 -1.93,-2.85 -1.53,-4.75 2.79,-12.91 2.99,-15.39 1.88,-23.42 -1.2,-8.73 -3.4,-16.8 -7.69,-28.23 -7.62,-20.319997 -11.01,-36.459997 -11.04,-52.499997 -0.01,-11.06 2.32,-24.01 4.84,-26.9 0.77,-0.88 1.72,-2.64 2.11,-3.91 1.23,-4.04 11.63,-13.6500001 18.03,-16.6600001 8.37,-3.94 13.14,-4.29 20.76,-1.52 12.62,4.6 18.9,12.6400001 20.61,26.4100001 1.41,11.36 3.57,12.99 9.71,7.33 11.72,-10.79 31.54,-16.58 43.15,-12.6 5.4,1.85 11.77,6.33 14.99,10.55 2.61,3.42 2.8,4.36 3.13,15.33 0.35,11.46 0.29,11.81 -2.93,18.57 -4.2,8.84 -8.07,14.56 -14.37,21.27 -10.06,10.709997 -28.37,23.259997 -52.37,35.879997 -15.27,8.03 -17.34,9.45 -25.16,17.33 -4.69,4.72 -10.78,11.13 -13.55,14.25 -5.46,6.15 -7.35,6.79 -10.57,3.57 z m 22.7,-30.63 c 3.79,-2.88 9.38,-6.6 12.4,-8.28 3.02,-1.68 8.88,-5.19 13,-7.8 4.12,-2.61 10.2,-6.26 13.5,-8.1 3.3,-1.85 6.23,-3.64 6.5,-3.98 0.28,-0.33 3.69,-2.74 7.58,-5.349997 6.43,-4.31 19.53,-16.69 25.67,-24.26 1.34,-1.65 3.69,-6.24 5.23,-10.21 2.36,-6.08 2.72,-8.2 2.29,-13.62 -0.9,-11.11 -5.86,-14.9 -19.43,-14.79 -12.2,0.09 -24.6,7.3 -33.97,19.75 -5.9,7.84 -8.72,10.37 -11.57,10.37 -3.42,0 -4.61,-3.9 -4.6,-15 0.03,-22.98 -4.48,-33.12 -16.44,-36.95 -4.81,-1.54 -12.42,0.51 -18.49,4.98 -9.51,7 -16.55,30.15 -13.22,43.47 0.55,2.2 1.62,7.15 2.39,11 0.77,3.85 2.09,8.8 2.93,11 0.85,2.2 1.56,5.12 1.59,6.5 0.03,1.38 1.45,6.1 3.16,10.499997 3.64,9.34 6.55,19.18 8.57,29 2.1,10.17 2,9.98 4.17,8.36 1.01,-0.75 4.94,-3.71 8.74,-6.59 z"
       fill="rgb(180,163,63)"
       id="path2"
       style="fill:#fdc417;fill-opacity:1" />
  </g>
</svg>
