<svg width="145" height="111" viewBox="0 0 145 111" fill="none" xmlns="http://www.w3.org/2000/svg">
<path d="M0.885591 110.413C0.0749058 110.012 -0.241075 108.951 0.199297 108.104C0.472385 107.579 3.57358 104.57 6.33448 102.149C11.5217 97.6028 29.8701 82.4902 38.5317 75.6319C45.6105 70.025 56.1623 62.2303 58.6416 60.7756C59.8898 60.0425 61.1937 60.1514 62.2117 61.0734C62.9967 61.7836 63.2426 62.3148 63.254 63.3314C63.2712 64.8849 63.0253 65.1569 59.4051 67.6053C52.9096 71.9966 41.7301 80.2093 34.8143 85.6702C29.2696 90.0486 14.6887 101.993 13.3132 103.283C13.206 103.384 13.5592 103.308 14.0996 103.112C14.6415 102.918 15.5022 102.61 16.0127 102.428C21.1441 100.604 30.0631 96.9656 40.1759 92.5714C42.8468 91.4103 44.3009 90.7717 52.4721 87.1693C59.9284 83.8833 68.6772 80.5845 69.9382 80.5845C71.6683 80.5845 73.2668 82.3914 73.0023 84.048C72.8722 84.8569 72.4275 85.6616 71.8756 86.084C71.6154 86.2816 70.2156 86.8586 68.7644 87.3654C62.5949 89.5189 55.4145 92.1634 50.6133 94.049C49.1593 94.6203 44.4853 96.4588 40.2288 98.1354C32.3365 101.242 25.9582 103.678 22.3752 104.954C15.2606 107.485 7.16804 109.823 3.40486 110.434C1.74203 110.705 1.4718 110.702 0.885591 110.413ZM83.2638 74.591C81.8183 73.9123 80.796 72.4648 80.6759 70.9227C80.6044 69.9878 80.6359 69.8561 83.7042 58.6781C83.9744 57.693 84.7493 54.8265 85.4256 52.3066C86.1019 49.7866 86.6824 47.649 86.7139 47.5545C86.7625 47.4084 84.8122 46.001 77.9221 41.2116C77.1758 40.6919 75.3085 39.3947 73.7758 38.328C72.243 37.2627 70.3943 35.9927 69.6695 35.5074C68.0209 34.4006 67.276 33.6317 66.9114 32.6567C66.3323 31.1032 66.6426 29.5153 67.7707 28.2797C68.986 26.9481 69.2205 26.8908 74.6336 26.5901C77.1901 26.4484 82.16 26.1678 85.6787 25.9673C89.1974 25.7669 92.3286 25.6036 92.6374 25.6036C93.1807 25.6036 93.2051 25.5822 93.4138 24.9235C93.9714 23.1581 96.0417 16.8153 98.318 9.89258C100.142 4.34725 100.94 2.11365 101.246 1.68841C101.732 1.01833 102.753 0.323913 103.584 0.0976901C104.314 -0.0998973 105.618 0.0146459 106.225 0.32964C106.831 0.643203 107.917 1.64689 108.156 2.11509C108.259 2.31554 108.935 4.21982 109.66 6.34603C110.384 8.47224 111.256 11.0165 111.596 12.0016C112.571 14.8165 116.097 25.2013 116.097 25.2586C116.097 25.2872 121.775 25.3287 128.715 25.3502L141.333 25.3889L142.048 25.7182C142.951 26.1348 143.752 26.9051 144.238 27.8229C144.556 28.4243 144.616 28.7221 144.616 29.6843C144.616 30.6894 144.561 30.9342 144.167 31.6888C143.643 32.691 143.224 33.1048 141.476 34.3462C140.768 34.8487 137.873 36.9635 135.042 39.0467C132.211 41.1286 128.479 43.8619 126.749 45.1204C125.019 46.379 123.575 47.4328 123.539 47.4642C123.416 47.5702 123.792 48.7972 126.969 58.6781C129.619 66.9109 130.109 68.5918 130.109 69.4265C130.109 71.6601 128.468 73.4341 126.183 73.6703C124.836 73.8092 124.103 73.4742 121.362 71.4654C119.999 70.466 115.847 67.4363 112.132 64.7288L105.38 59.8092L101.338 63.0665C99.1143 64.8577 95.6872 67.6196 93.7212 69.206C91.7553 70.791 89.5677 72.555 88.86 73.1234C87.0241 74.601 86.6824 74.7571 85.1425 74.8172C84.0959 74.8587 83.7456 74.8158 83.2638 74.591ZM87.8348 67.8687C88.87 67.0168 91.841 64.6128 94.4361 62.5267C97.0311 60.4406 100.119 57.9421 101.299 56.9756C103.863 54.8738 104.313 54.6132 105.374 54.6132C106.345 54.6118 106.631 54.7592 108.933 56.4516C109.925 57.179 113.228 59.5872 116.273 61.8037C119.319 64.0201 122.504 66.3439 123.351 66.9681C124.197 67.5924 124.909 68.0849 124.93 68.0634C124.953 68.0405 124.878 67.7399 124.765 67.3948C124.65 67.0497 123.901 64.7059 123.099 62.1859C122.297 59.666 121.397 56.864 121.1 55.9576C118.892 49.2225 118.385 47.5201 118.388 46.8543C118.392 45.8306 118.804 45.0488 119.697 44.3659C120.531 43.7273 132.265 35.0864 136.329 32.1183L138.875 30.257L126.236 30.1854C112.253 30.1066 113.126 30.1696 112.401 29.1831C112.204 28.9154 110.954 25.4046 109.376 20.6869C107.897 16.2641 106.207 11.2327 105.623 9.50457L104.558 6.36321L103.048 11.0079C101.309 16.3543 99.0986 23.214 98.0434 26.5343C97.2456 29.0457 96.9268 29.6098 96.0532 30.0551C95.3554 30.413 95.2754 30.4202 89.2174 30.6922C86.5837 30.8096 81.9827 31.033 78.9945 31.1891C76.0062 31.3437 73.3383 31.4711 73.0666 31.4726C72.6319 31.474 72.5962 31.4998 72.7806 31.6816C72.9679 31.8692 75.094 33.3711 79.1374 36.1717C80.4057 37.0508 84.7937 40.1177 89.459 43.3851C91.2362 44.6307 91.5751 45.013 91.801 46.0282C91.9497 46.6925 91.8868 46.9746 90.3627 52.5213C88.461 59.4398 87.7404 62.0943 86.7282 65.9086C85.7988 69.4036 85.7959 69.4165 85.8817 69.4165C85.9203 69.4165 86.7982 68.7192 87.8348 67.8687ZM95.8516 53.3074C95.63 52.9695 95.6471 52.769 96.1461 49.7637C96.9682 44.8183 97.0998 43.8819 97.0154 43.5483C96.9725 43.3765 95.5385 41.9404 93.8284 40.3554C90.2383 37.0279 90.1482 36.9291 90.2711 36.4366C90.3827 35.9913 90.7773 35.8596 92.8633 35.5661C93.7284 35.4458 95.6171 35.1823 97.0612 34.9819C98.5038 34.7814 99.7963 34.5581 99.9322 34.4851C100.068 34.412 101.056 32.4963 102.128 30.2283C104.219 25.8041 104.429 25.4991 105.134 25.8757C105.395 26.0174 106.002 27.1228 107.487 30.1711C109.104 33.4914 109.56 34.3089 109.866 34.4493C110.075 34.5452 112.028 34.8487 114.209 35.1265C118.629 35.6878 118.953 35.7422 119.207 35.9469C119.401 36.103 119.444 36.7559 119.276 36.9878C119.218 37.068 117.747 38.4998 116.007 40.1707C113.767 42.3227 112.82 43.3249 112.766 43.6056C112.723 43.8232 112.916 45.1949 113.193 46.651C114.05 51.1382 114.101 51.4246 114.191 52.2006C114.261 52.8091 114.23 53.0096 114.023 53.2387C113.561 53.7498 113.785 53.8543 107.304 50.103C106.203 49.4645 105.148 48.9433 104.961 48.9433C104.772 48.9419 102.869 49.9971 100.7 51.3043C98.5038 52.6273 96.6265 53.6668 96.4335 53.6668C96.2219 53.6668 95.996 53.5279 95.8516 53.3074Z" fill="url(#paint0_radial_72_3)"/>
<path d="M97.1209 43.8563L96.1819 52.7762C96.161 52.9752 96.3707 53.1169 96.5475 53.0233L104.519 48.8031C104.59 48.7653 104.676 48.7643 104.748 48.8004L113.225 53.0388C113.401 53.1271 113.606 52.9854 113.585 52.789L112.645 43.8563C112.637 43.7842 112.661 43.7125 112.711 43.6595L119.309 36.5902C119.446 36.4431 119.362 36.2022 119.163 36.1724L109.751 34.7605C109.676 34.7494 109.611 34.7051 109.572 34.6401L104.86 26.6287C104.761 26.4601 104.515 26.4656 104.423 26.6385L100.192 34.6313C100.155 34.7015 100.086 34.7498 100.008 34.7616L90.6027 36.1724C90.4036 36.2022 90.3197 36.4431 90.457 36.5902L97.055 43.6595C97.1044 43.7125 97.1285 43.7842 97.1209 43.8563Z" fill="url(#paint1_radial_72_3)"/>
<defs>
<radialGradient id="paint0_radial_72_3" cx="0" cy="0" r="1" gradientUnits="userSpaceOnUse" gradientTransform="translate(61.1328 64.7429) rotate(132.709) scale(44.2295 57.8149)">
<stop stop-color="#FEE85E"/>
<stop offset="1" stop-color="#FCBF37"/>
</radialGradient>
<radialGradient id="paint1_radial_72_3" cx="0" cy="0" r="1" gradientTransform="matrix(-8.51644 6.97482 -6.90611 -12.3924 105 43)" gradientUnits="userSpaceOnUse">
<stop stop-color="#FEE85E"/>
<stop offset="1" stop-color="#FCBF37"/>
</radialGradient>
</defs>
</svg>
