<svg width="71" height="71" viewBox="0 0 71 71" fill="none" xmlns="http://www.w3.org/2000/svg"><circle cx="35.743" cy="37.83" r="32.823" fill="#fff"/><path d="m33.414 0 .939.035-.94.035zm2.92 0 1.148.035-1.148.035zm-3.963.07.66.034-.66.035zm5.354 0 .66.034-.66.035zm-5.98.07.452.034-.452.035zm6.884 0 .452.034-.452.035zm-7.44.069.382.034-.383.035zm8.136 0 .382.034-.382.035zm-8.693.07.313.034-.313.035zm9.249 0 .313.034-.313.035zm-9.736.069.313.034-.313.035zm10.292 0 .244.034-.244.035zM29.66.418l.313.034-.313.035zm11.196 0 .243.034-.243.035zM29.24.486l.244.035-.244.034zm12.03 0 .244.035-.243.034zm-12.447.07.244.034-.244.035zm12.865 0 .174.034-.174.035zM28.477.625l.243.035-.243.034zm13.56 0 .174.035-.174.034zm-13.908.07.243.034-.243.035zm14.255 0 .174.034-.174.035zM27.851.764l.174.035-.174.034zm14.812 0 .173.035-.173.034zm-15.16.07.174.034-.174.035zm15.507 0 .174.034-.174.035zM27.225.903l.174.035-.174.035zm16.063 0 .174.035-.174.035zm-16.341.07.174.034-.174.035zm16.62 0 .173.034-.173.035zm-17.455.208.174.035-.174.035zm18.29 0 .173.035-.174.035zm.277.07.174.034-.174.035zm-19.054.07.174.034-.174.035zm19.541.069.174.035-.174.034zm-20.027.07.173.034-.173.035zm-.487.138.174.035-.174.035zm-.835.279.105.034-.244.105v-.07zm23.505.208.243.105-.104.034zm-24.478.14.104.034-.243.104v-.07zm25.382.208.243.104-.104.035zm-26.078.07.105.034-.244.105v-.07zm-.695.278.104.034-.243.105v-.07zm27.607 0 .244.104-.105.035zm-28.233.278.104.035-.243.104v-.07zm28.86 0 .382.174-.105.034-.278-.139zM20.2 3.338l.105.035-.8.382v-.07zm-1.39.695-.07.14-.14.069.07-.14zm33.03.07.244.174-.104-.035zm-17.523 6.12.382.034-.382.035zm1.808 0 .382.034-.382.035zm-2.364.069.243.035-.244.034zm3.06 0 .173.035-.174.034zm-3.408.07.174.034-.174.035zm3.755 0 .174.034-.174.035zm-4.103.069.174.035-.174.035zm4.45 0 .175.035-.174.035zm2.643.974.244.173-.105-.034zm-9.874.139-.07.139-.14.07.07-.14zm10.222.07.243.173-.104-.035zm3.268 3.198.174.243-.139-.07zm.209.348.243.382-.139-.07zm-17.455.278-.034.104-.313.66-.035-.104zm-.486.973.034.105-.104.174-.035-.105zm-.14.348.035.104-.104.174-.035-.104zm-.208.556.035.174h-.07zm39.777.14.173.243-.139-.07zm-39.916.347.035.174h-.07zm19.61.278.035.174h-.07zm20.723.14.174.243-.14-.07zm-40.472.208.034.174h-.069zm19.819 0 .034.174h-.07zm-19.889.348.035.313h-.07zm19.958 0 .035.313h-.07zm.07.486.034.592h-.07zm-20.097.07.034.522h-.07zm-21.766.695.035.105-.105.174-.035-.105zm41.863.626.034.591h-.07zm-30.667.07.452.035-.452.034zm1.46 0 .313.035-.313.034zm38.038 0 .383.035-.383.034zm1.391 0 .382.035-.382.034zm-52.433.07.035.104-.104.174-.035-.105zm11.126 0 .174.034-.174.035zm2.504 0 .174.034-.174.035zm8.484 0 .034.451h-.07zm28.441 0 .244.034-.244.035zm2.504 0 .174.034-.174.035zm-42.28.069.174.035-.174.034zm31.362.556.035.313h-.07zm-19.958.14.035.243h-.07zm-13.282.069-.07.139-.138.07.07-.14zm33.17.278.035.243h-.07zm-19.818.07.034.243h-.069zm.07.347.034.174h-.07zm19.679 0 .035.174h-.07zm-19.61.278.035.174h-.07zm.07.278.034.174h-.07zm19.4 0 .036.174h-.07zm-19.123.905.105.243h-.07zm.14.347.104.244h-.07zm22.6.557-.035.104-.104.243-.035-.104zm-47.009.208L1.67 25l-.104.243-.035-.174zm67.106.07.035.174h-.07zm-24.617.208-.035.105-.174.313.035-.105zM1.356 25.8l.035.174h-.07zm67.662.14.035.173h-.07zm-41.932.138.313.383-.209-.14zm-4.45.278.034.174h-.07zm39.498.07.035.174h-.07zm7.023 0 .035.174h-.07zm-68.01.14.035.173h-.07zm46.8 0 .035.173h-.07zm-39.498.069.035.174h-.07zm14.256.07.035.173h-.07zm39.498.069.035.174h-.07zm-61.125.07.035.173h-.07zm46.8.069.035.243h-.07zm21.418.139.035.174h-.07zm-68.288.07.035.173h-.07zm7.372 0 .034.312h-.07zm14.394 0 .035.312h-.07zm39.499.139.034.382h-.069zm7.093.07.035.173h-.07zm-68.427.138.035.174h-.07zm46.87.14.034 1.008h-.07zm21.626 0 .035.173h-.07zM.87 27.745l.035.174h-.07zm7.441 0 .035.87h-.07zm61.195.209.035.174h-.07zM.8 28.094l.034.174h-.07zm68.774.209.035.174h-.07zm-68.844.07.035.243h-.07zm28.86.208.52.382-.104-.035q-.346-.104-.417-.347m32.683 0 .034.382h-.069zm7.371 0 .035.243h-.07zM.661 28.72l.034.243h-.07zm22.113.07.035.382h-.07zm17.802.139-.07.139-.138.07.07-.14zm-32.196.069.034.243h-.07zm21.835 0 .243.174-.104-.035zm39.498 0 .035.174h-.07zm-21.835.07.035.243h-.07zm-47.287.07.035.242h-.07zm39.638 0-.07.138-.139.07.07-.14zm21.974.138.035.174h-.07zm-31.362.07.59.313-.103.034-.418-.208zm38.942 0 .035.313h-.07zm-47.078.07.035.173h-.07zm16.967 0 .105.034-.522.243v-.07zm-39.15.069.034.243h-.07zm7.927 0 .035.174h-.07zm39.499.07.034.173h-.07zm14.186.069.035.174h-.07zm-30.598.07.244.104-.105.035zm-8.9.069.034.174h-.07zm9.248.07.313.104-.174.035zm6.815 0 .104.034-.243.105v-.07zm31.154 0 .034.243h-.07zm-69.401.07.035.312h-.07zm22.114.138.034.174h-.07zm15.507 0 .174.035-.174.035zm-.278.07.174.034-.174.035zm-4.868.07.243.034-.243.035zm4.59 0 .173.034-.173.035zm-4.242.069.174.035-.174.034zm3.894 0 .243.035-.243.034zm32.753 0 .035.313h-.07zm-36.334.07q.36-.12.278.138-.362.12-.278-.139m3.268 0 .348.104-.348.034zm-36.474.138.035.313h-.07zm32.615 0 .382.035-.382.035zm4.38 0 .383.035-.382.035zm-4.728.07.243.035-.243.035zm5.285 0 .313.035-.313.035zm-5.633.07.244.034-.244.035zm6.12 0 .243.034-.243.035zm-6.468.069.174.035-.174.034zm6.815 0 .174.035-.174.034zm-7.162.07.243.034-.243.035zm7.51 0 .174.034-.174.035zm30.876 0 .034.382h-.07zm-38.664.07.174.034-.174.035zm8.066 0 .174.034-.174.035zm-39.081.069.035.452h-.07zm30.737 0 .173.034-.174.035zm-.279.07.174.034-.174.035zm9.388.069.174.034-.174.035zm29.902.278.035.382h-.07zm-40.541.07.104.034-.243.105v-.07zm11.752 0 .243.104-.104.035zm-41.029.139.035.451h-.07zm28.929 0 .104.034-.243.104v-.069zm12.448 0 .243.104-.104.034zm-12.796.139.104.034-.243.105v-.07zm-19.61.07.174.242-.14-.07zm32.892 0 .244.103-.105.035zm28.025.208.034.452h-.069zm-69.957.278.035.591h-.07zm43.254.139.243.174-.104-.035zm-16.273.139-.07.14-.138.069.07-.14zm43.045.14.035.59h-.07zM.104 33.03l.035.94H.07zm33.727.07.591.035-.591.034zm2.364 0 .591.035-.59.034zm-2.99.07.244.034-.244.035zm3.894 0 .313.034-.313.035zm-4.38.069.243.035-.244.035zm5.006 0 .244.035-.244.035zm-5.424.07.174.034-.174.035zm5.841 0 .174.034-.174.035zm-6.536.139.174.034-.174.035zm38.664 0 .035.938h-.07zm-31.084.07.173.034-.173.035zm-8.415.138.174.035-.174.035zM.035 34.56l.035 1.982H0zm42.697.209.591.313-.104-.035-.487-.209zm15.508.07-.07.138-.209.07v-.07zm-14.395.486.243.174-.104-.035zm9.318.07.174.035-.174.034zm-38.873.139-.07.139-.243-.035zm39.36 0 .104.035q-.07.173-.382.104v-.07zm2.642 0 .383.104-.313.035zm-39.22.07.243.034-.243.035zm.487.069.174.035-.174.034zm35.396 0 .243.035-.243.034zm3.824 0 .174.035-.174.034zm-43.393.07.174.034-.174.035zm4.52 0 .174.034-.173.035zm39.22 0 .175.034-.174.035zm-45.27.486.105.035-.244.104v-.07zm58.414.417.035 1.009h-.07zm-59.457.07.105.035-.174.104zm-10.709.278.035.87H.07zM70.2 37.9l.035.591h-.07zm-70.026.278.035.591h-.07zm69.957.487.034.522h-.069zm-69.888.348.035.452h-.07zm28.094.139.383.035-.383.034zm1.252 0 .383.035-.383.034zm11.057 0 .313.035-.313.034zm1.252 0 .382.035-.382.034zm-13.908.07.174.034-.174.035zm2.155 0 .174.034-.174.035zm10.153 0 .174.034-.174.035zm2.156 0 .174.034-.174.035zm-14.742.069.173.035-.173.034zm42.35.07.034.452h-.07zm-42.768.069.105.035-.244.104v-.07zm-26.981.209.035.382h-.07zm43.67.139.314.243-.174-.104zm-15.367.139h1.043l1.043.278q1.147.451 1.843 1.356.611.71.904 1.738l.139.557v1.39q-.376 2.059-1.774 3.095l-1.634.87q-.069.381.174.451l.695.14.974.417a6.6 6.6 0 0 1 1.982 1.634l1.147 1.773q.376.132.313-.104a7.1 7.1 0 0 1 1.773-2.4l1.044-.764.834-.418 1.113-.278.104-.104.07-.278-.07-.174q-1.572-.43-2.434-1.634-.556-.73-.834-1.739l-.14-1.46.07-.07.07-.764.556-1.322 1.147-1.286 1.252-.696.904-.208h1.043q.084.153.417.07l1.252.486 1.356 1.217.765 1.46.209 1.044v.695l-.278 1.321-.487.974-1.148 1.217-1.564.8q-.07.381.174.451l.486.07 1.182.487a6.5 6.5 0 0 1 1.843 1.495q.725.84 1.182 1.947l.487 1.738v8.762l.07.07-.104.243-3.2 1.252-3.129.834-1.947.348-1.182.07-.07.07-3.615.138-.21-.07-.138.07-.07-.07h-1.112l-.07-.069h-.765l-.07-.07-1.112-.069-2.642-.487q-3.165-.757-5.807-1.947v-8.657q.195-.12.07-.557l.417-1.46.417-.904a6.7 6.7 0 0 1 1.565-1.912 6.4 6.4 0 0 1 1.669-1.044l1.112-.278.104-.104.07-.348-1.147-.521-1.148-.939q-.709-.75-1.043-1.878l-.139-.695v-1.182q.347-1.912 1.565-2.956l1.182-.764zm41.376.07.034.312h-.07zm-69.61.208.035.313h-.07zm69.54.278.035.383h-.07zm-69.47.209.035.313h-.07zm69.4.347.035.244h-.07zm-69.33.07.034.313h-.07zm69.261.348.035.243h-.07zm-69.192.07.035.243h-.07zm32.892.069.174.243-.139-.07zm3.547.07-.035.104-.174.313.035-.105zm-12.448.208-.035.104-.312.66-.035-.104zm45.131 0 .035.174h-.07zm-69.052.07.034.243h-.07zm68.983.278.035.173h-.07zM.73 42.28l.035.242h-.07zm35.952 0 .035.103-.104.174-.035-.104zm32.892.277.035.174h-.07zM.8 42.628l.034.174h-.07zm68.705.278.035.174h-.07zm-68.636.07.035.173h-.07zm45.618 0 .035.173h-.07zm-12.308.139.035.173h-.07zm35.256.07.035.173h-.07zM.94 43.253l.035.174h-.07zm45.618 0 .035.174h-.07zm-10.223.07.035.173h-.07zm-2.086.138.035.174h-.07zm12.378.14.035.173h-.07zm-10.361.069.035.243h-.07zm28.998.07.035.173h-.07zm-41.376.069.035.313h-.07zm10.43.07.036.243h-.07zm-29.067.07.035.173h-.07zm13.421.138.035.105-.139.069zm46.662 0 .034.174h-.07zm-64.186.07.035.173h-.07zm45.549 0 .035.8h-.07zm-41.515.139.034.313h-.07zm13.351.07.035.104-.174.313-.035-.105zm5.355.556.035.313h-.07zm10.43.07.036.243h-.07zm1.948.277.035.244h-.07zm10.361 0 .035.244h-.07zm22.253.07.035.174h-.07zm-44.923.139.035.174h-.07zm10.223.348.035.174h-.07zm12.308.139.035.174h-.07zm22.183.07.035.173h-.07zm-22.391.556.034.104-.104.174-.035-.105zm-21.836.417.104.174-.139-.07zm21.488.347-.035.105-.104.174.035-.105zm7.44.487.035.174h-.07zm-46.939.278.105.244h-.07zm10.71 0 .034.174h-.07zm-10.431.626.104.244h-.07zm19.54.348q.313.139.07.278l-.278.14.07-.14.242-.104zm27.468.14.035.173h-.07zm-9.04.277.244.174-.105-.035zm-27.885.07.035.174h-.07zm36.995 0 .035.174h-.07zm.07.347.034.174h-.07zM16.724 50l.035.174h-.07zm-.07.348.035.243h-.069zm37.274 0 .035.174h-.07zm9.04 0-.035.104-.104.174.035-.104zm-8.97.347.034.313h-.07zm-37.413.07.035.243h-.07zm37.482.417.035.383h-.07zm-37.551.14.034.243h-.07zm-.07.556.035.382h-.07zm37.69 0 .035.382h-.07zm-18.775.278-.07.139-.104-.035zm-12.378.278-.035.104-.104.174.034-.104zm-6.606.139.034 2.608h-.07zm37.83.278.034 2.26h-.07zm-31.502.07.035.104-.105.174-.035-.105zm42.419.973-.035.105-.104.173.035-.104zm-16.62 1.043.035.244h-.07zm-26.495.209.035.174h-.07zm26.565.278.034.243h-.07zm5.563.07.034.521h-.07zm-37.69.07.034.451h-.07zm5.493.069.034.382h-.069zm26.703.417.035.452h-.07zm-32.127.278.034.313h-.07zm37.551 0 .035.313h-.07zm-37.482.556.035.244h-.07zm37.413 0 .034.313h-.07zm-37.343.487.034.244h-.069zm37.273 0 .035.244h-.07zm-37.204.418.035.173h-.07zm37.135 0 .034.173h-.07zm-36.996.695.035.174h-.07zm36.856 0 .035.174h-.07zm-36.786.348.035.173h-.07zm.07.278.034.174h-.07zm.069.278.035.174h-.07zm36.23.765.035.174h-.07zm-.278 1.321-.07.14-.104-.036zm-4.381 2.434.035.104-.14.07zm-26.425.278.243.104-.104.035zm-5.076 1.53.243.174-.104-.035zm34.63.904-.07.14-.138.069.07-.14zm-32.336.417.174.105-.104-.035zm.279.14.938.451-.104.035-.834-.417zm29.832.556.104.034-.243.105v-.07zm-27.05.695.242.104-.104.035zm22.252 1.113.174.034-.174.035zm-.487.139.174.034-.174.035zm-17.872.07.174.034-.174.035zm.279.069.173.035-.173.034zm17.106 0 .174.035-.174.034zm-16.828.07.174.034-.174.035zm16.55 0 .174.034-.174.035zm-.278.069.174.035-.174.034zm-.278.07.174.034-.174.035zm-15.16.069.174.035-.174.034zm14.534.07.174.034-.174.035zm-13.908.07.243.034-.243.035zm13.56 0 .174.034-.174.035zm-13.143.069.174.034-.174.035zm12.796 0 .173.034-.173.035zm-12.448.07.174.034-.174.035zm12.1 0 .174.034-.174.035zm-11.752.069.173.034-.173.035zm11.335 0 .243.034-.243.035zm-10.918.07.243.034-.243.035zm10.5 0 .174.034-.174.035zm-10.083.069.313.035-.313.034zm9.596 0 .313.035-.312.034zm-9.11.07.314.034-.313.035zm8.554 0 .383.034-.383.035zm-7.997.069.313.035-.313.034zm7.44 0 .383.035-.382.034zm-6.814.07.452.034-.452.035zm6.05 0 .452.034-.452.035zm-5.285.069.591.035-.591.034zm4.52 0 .452.035-.452.034zm-3.547.07 3.025.034-3.025.035z" fill="#98abfb"/><path d="m34.388 0 3.268.07.07.07 1.53.069.069.07h.487l.07.069h.486l.07.07 1.182.138 3.755.904 3.477 1.252q7.17 3.123 12.065 8.519 4.034 4.346 6.537 10.222l1.252 3.477.764 2.92.487 2.782.14 1.739.069.07v.764l.07.07v1.112l.069.07-.07.139.07.07v1.947l-.07.07v1.181l-.07.07-.138 2.017-.626 3.546-.765 2.782-1.321 3.477q-2.97 6.557-7.823 11.23a36.3 36.3 0 0 1-5.842 4.59 36.5 36.5 0 0 1-6.606 3.268l-3.06.974-3.616.765-1.53.139-.07.07-1.46.069-.07.07h-3.824l-.07-.07-1.599-.07-.07-.07-1.947-.208-3.685-.834q-3.45-1.001-6.398-2.504-5.987-3.087-10.326-7.823a35 35 0 0 1-4.103-5.424l-1.739-3.199-1.46-3.546-.626-1.947-.417-1.67-.556-2.92-.14-1.6-.07-.069v-.765l-.069-.07V37.03l-.07-.07v-2.92l.07-.07v-1.112l.07-.07v-.765l.07-.07.139-1.668.556-2.921 1.182-4.033 1.39-3.338Q6.629 13.72 11.51 9.249a35 35 0 0 1 5.076-3.894l2.295-1.322 2.851-1.321 2.852-1.043 3.129-.835L29.52.487l1.39-.14.07-.069h.556l.696-.139h.765l.07-.07h1.251zm-.035 10.222-1.53.279-1.252.417q-1.53.625-2.642 1.6a10.1 10.1 0 0 0-2.504 3.059l-.765 1.808-.417 2.017v1.877q.209.07.07.556l.556 2.087a10.2 10.2 0 0 0 1.947 3.198q2.017 2.295 5.494 3.2.348-.14.278.138h-.556l-2.226.487-1.947.695q-2.92 1.253-5.076 3.269a11.6 11.6 0 0 0-2.156 2.364q-1.878-1.32-4.659-1.669 2.086-.555 3.477-1.808 1.113-1.043 1.808-2.573l.417-1.251.14-.765v-.974l.069-.07-.07-.069-.07-1.321-.347-1.252q-.487-1.251-1.252-2.156-1.599-2.085-4.659-2.642h-1.738L13.49 21q-1.53.487-2.573 1.46a7.15 7.15 0 0 0-1.947 2.573l-.556 1.67-.07 1.042-.07.07.07 1.46.417 1.6a8.8 8.8 0 0 0 1.739 2.712q1.39 1.46 3.755 2.016l-1.113.209-1.251.417q-1.74.696-2.99 1.808a10.3 10.3 0 0 0-2.435 2.851q-.904 1.461-1.32 3.477l.138.835.765 2.225 1.321 2.851a32.3 32.3 0 0 0 4.451 6.328 30.3 30.3 0 0 0 5.841 5.007h.07l-.556-1.6-.418-1.807-.139-1.252-.07-.07v-.486l-.069-.07v-.695l-.07-.07v-3.199l.07-.07.07-1.181.487-2.504.764-2.434q1.46-3.963 4.034-6.745 2.573-3.06 6.397-4.798l1.391-.557 1.878-.556 2.016-.348h.904l.07-.07h1.669l.07.07 1.46.07 1.808.348 1.947.626q3.408 1.39 5.98 3.755 2.99 2.781 4.799 6.814l.695 1.739.556 1.808.418 1.878.139 1.39.07.07v.626l.069.07v3.129l-.07.07-.07 1.32-.347 1.948-.765 2.712v.07a24 24 0 0 0 3.616-2.852 32.7 32.7 0 0 0 7.51-10.43l.696-1.67.626-1.878-.07-.973-.695-2.017q-.695-1.53-1.739-2.642a11 11 0 0 0-2.99-2.434l-1.808-.765-1.669-.348 1.669-.556 1.669-1.113a9.4 9.4 0 0 0 1.6-1.947l.695-1.6.278-1.39v-1.669l-.278-1.321q-.556-1.74-1.6-2.851a7.9 7.9 0 0 0-2.155-1.739L57.23 21l-1.251-.278H54.24l-1.043.208q-1.6.488-2.642 1.391a8.1 8.1 0 0 0-2.017 2.504l-.487 1.251-.278 1.6.07 1.669.347 1.39a8.4 8.4 0 0 0 1.53 2.573q1.461 1.6 3.894 2.295l-2.364.557-2.086 1.043-1.252-1.391q-2.364-2.573-5.702-4.103l-2.643-.904-1.32-.278-.974-.07-.21-.07 1.183-.277 1.113-.418a10 10 0 0 0 2.503-1.599q1.252-1.113 2.156-2.573.626-1.113 1.043-2.434l.348-1.808v-1.947L45.2 18.15l-.417-1.39q-.765-2.018-2.156-3.408-1.668-1.809-4.172-2.712l-1.947-.418zm-5.98 28.929-1.044.278-.834.417-.974.696-1.043 1.46-.417.973-.209.904v1.391l.209.974.348.904.695 1.043 1.252 1.113a6 6 0 0 0-1.67 1.043q-1.806 1.53-2.572 4.172l-.209 1.182v8.415q2.99 1.46 6.607 2.294l2.642.487 1.113.07.07.07h.764l.07.069h1.112l.07.07.139-.07.209.07 2.85-.07.07-.07 1.391-.07 3.13-.556 1.599-.417 2.294-.765 2.017-.834.626-.348-.07-.139v-5.563l.07-.209-.07-.139v-1.39l.07-.07-.139-1.53-.417-1.46q-.557-1.46-1.46-2.434-.975-1.182-2.504-1.808l.904-.696q.765-.765 1.252-1.877l.208-.557.209-1.182v-.765l-.209-1.182q-.347-1.182-1.043-1.947-1.113-1.53-3.199-1.947h-1.599l-.348.07q-1.251.278-2.016.973-1.6 1.182-2.087 3.546v1.808l.21.835a6.8 6.8 0 0 0 1.18 2.017l1.113.904a5.3 5.3 0 0 0-2.017 1.251q-.834.626-1.321 1.6l-.209.07-.556-.835a6.9 6.9 0 0 0-2.782-2.086l.557-.418q1.53-1.252 1.947-3.616v-1.32l-.14-.766q-.347-1.321-1.112-2.156a5.56 5.56 0 0 0-2.295-1.669l-.834-.208z" fill="#4b63f5"/><ellipse cx="35.5" cy="60.5" rx="15.5" ry="9.5" fill="url(#a)"/><ellipse cx="35.5" cy="44" rx="14.5" ry="6" transform="rotate(-180 35.5 44)" fill="url(#b)"/><defs><linearGradient id="a" x1="35.5" y1="51" x2="35.5" y2="70" gradientUnits="userSpaceOnUse"><stop stop-color="#4b63f5" stop-opacity="0"/><stop offset="1" stop-color="#4b63f5"/></linearGradient><linearGradient id="b" x1="35.5" y1="38" x2="35.5" y2="50" gradientUnits="userSpaceOnUse"><stop stop-color="#4b63f5" stop-opacity="0"/><stop offset="1" stop-color="#4b63f5"/></linearGradient></defs></svg>