<?xml version="1.0" encoding="UTF-8" standalone="no"?>
<svg
   viewBox="0 0 626 639.00598"
   version="1.1"
   id="svg6"
   width="626"
   height="639.00598"
   xmlns="http://www.w3.org/2000/svg"
   xmlns:svg="http://www.w3.org/2000/svg">
  <defs
     id="defs6" />
  <path
     fill="#fdfdfd"
     stroke="#fdfdfd"
     opacity="0.996"
     d="m 236,130.50595 5.5,0.5 -5.5,0.5 z m 6.5,0 6,1 q 1.1,2.7 -1.5,2 l -4.5,-1 z m 215,0 4,1.5 -4,0.5 z m 7.5,0 2.5,0.5 -2.5,0.5 z"
     id="path2" />
  <path
     fill="#fdfdfd"
     stroke="#fdfdfd"
     opacity="0.996"
     d="m 455,131.50595 q 2.6,-0.7 1.5,2 l -3,-0.5 z m 21,1 q 4,-0.5 4.5,2.5 l -1.5,-0.5 q -3.8,-0.2 -3,-2 z m -25,1 1.5,0.5 -3.5,1.5 v -1 z m -231,1 1.5,0.5 -3.5,1.5 v -1 z m 220,4 -1,2 -6,3 1,-2 z m -230,1 -1,2 -4,2 1,-2 z m 47,0 5.5,8.5 v 3 h -1 v -3 z m 230,2 3.5,7.5 h -1 z m -284,2 -1,2 z m 222,4 -1,2 -7,5 2,-3 z m -234,4 -2,3 -4,3 3,-4 z m 300,0 0.5,5.5 h -1 z m -228,1 0.5,4.5 h -1 z m 152,2 -2,3 z m -233,4 -4,5 z m 80,1 0.5,2.5 h -1 z m 147,0 -2,3 z m 81,1 0.5,2.5 -5.5,8.5 1.5,-2.5 z m -314,3 -19,20 z m 85,0 0.5,1.5 -10.5,13.5 -1.5,-0.5 6,-5 z m 143,0 -6,7 z m -14,14 -8,9 z m 88,0 1.5,0.5 -9.5,7.5 3,-4 z m -235,6 -4,5 -24.5,22.5 -23.5,30.5 0.5,-1.5 q 16,-26 38.5,-45.5 z m -89,3 -4,5 z m 226,2 -4,5 z m 85,0 -4,5 -27,26 26,-27 z m -316,4 -3,4 z m 225,3 -2,3 z m -229,2 -1,2 z m 226,2 -3,4 z m -229,2 -1,2 z m 225,3 -1.5,2.5 -2.5,3.5 1.5,-2.5 z m -228,1 -1.5,2.5 -4.5,6.5 1.5,-2.5 z m 220,10 -1,2 z m -230,5 -1,2 z m 304,0 -3.5,4.5 -6.5,8.5 1.5,-2.5 z m -79,3 -1,2 z m -228,2 -1,2 z m 226,1 -0.5,1.5 -1.5,2.5 0.5,-1.5 z m -228,2 -0.5,1.5 -2.5,4.5 0.5,-1.5 z m 298,6 -1.5,2.5 -5.5,8.5 0.5,-1.5 z m -232,8 -0.5,1.5 -2.5,4.5 0.5,-1.5 z m 153,0 -0.5,1.5 -4.5,9.5 -0.5,-1.5 z m -228,3 -0.5,1.5 -1.5,3.5 -0.5,-1.5 z m 299,1 -0.5,1.5 -1.5,2.5 0.5,-1.5 z m -302,5 0.5,1.5 -1.5,2.5 -0.5,-1.5 z m 299,0 -0.5,1.5 -5.5,11.5 -0.5,-1.5 z m -228,4 -0.5,1.5 -0.5,1.5 -0.5,-1.5 z m -2,4 0.5,1.5 -2.5,4.5 -0.5,-1.5 z m 153,1 0.5,1.5 -2.5,4.5 -0.5,-1.5 z m 70,5 0.5,1.5 -2.5,5.5 -0.5,-1.5 z m -299,3 0.5,1.5 -1.5,2.5 -0.5,-1.5 z m 71,4 0.5,2.5 h -1 z m 225,1 0.5,2.5 h -1 z m -73,2 0.5,1.5 -2.5,6.5 -0.5,-2.5 z m -153,1 1.5,11.5 v 2 l -0.5,1.5 -1.5,-2.5 z m 225,1 0.5,4.5 h -1 z m -75,7 0.5,1.5 -1.5,3.5 -0.5,-2.5 z m 75,2 0.5,2.5 h -1 z m 1,4 3.5,4.5 -4,-3 z m -304,2 0.5,2.5 h -1 z m 80,0 2,3 z m 145,1 0.5,2.5 h -1 z m 84,2 q 3.9,3.1 11.5,2.5 l -7.5,0.5 q -4,-0.5 -4,-3 z m -310,1 0.5,3.5 h -1 z m 90,1 5.5,0.5 -5.5,0.5 z m 135,0 0.5,2.5 h -1 z m -116,1 5.5,0.5 -5.5,0.5 z m 8,0 3.5,1.5 -4.5,0.5 z m 216,0 6.5,0.5 -6.5,0.5 z m -211,1 6.5,2.5 -2.5,0.5 -4.5,-1 z m 219,0 8.5,1.5 -3.5,0.5 -5,-1 z m -342,2 0.5,2.5 h -1 z m 225,0 0.5,3.5 -1.5,4.5 -0.5,-3.5 z m 127,0 5.5,1.5 -2.5,0.5 -3,-1 z m -221,1 4.5,1.5 -1.5,0.5 -3,-1 z m 228,1 3.5,1.5 -1.5,0.5 z m -222,1 3.5,1.5 -1.5,0.5 z m -138,1 0.5,2.5 h -1 z m 371,3 10.5,7.5 -2.5,-1.5 -7,-4 z m -223,1 7.5,5.5 -3.5,-2.5 q -4,-0.5 -4,-3 z m -149,1 0.5,2.5 h -1 z m 225,0 0.5,3.5 h -1 z m -226,5 0.5,3.5 h -1 z m 159,0 6.5,5 6,7.5 z m 66,1 0.5,2.5 h -1 z m 162,2 10.5,11.5 -4,-3 z m -388,3 0.5,2.5 h -1 z m 225,0 0.5,2.5 h -1 z m -226,6 0.5,4.5 h -1 z m 225,0 0.5,3.5 h -1 z m -51,2 2,3 z m 226,2 3.5,4.5 -2,-1 z m -223,2 1,2 z m 47,0 0.5,6.5 h -1 z m -225,1 0.5,5.5 h -1 z m 180,2 3,4 q 4,-0.5 4.5,2.5 l -2,0.5 1,4.5 h -1 z m 44,6 0.5,7.5 h -1 z m 184,0 2.5,4.5 h -1 z m -409,1 0.5,8.5 h -1 z m 412,5 1.5,3.5 h -1 z m -188,5 0.5,37.5 h -1 z m 191,3 0.5,2.5 h -1 z m -224,1 0.5,2.5 h -1 z m -192,1 0.5,24.5 h -1 z m 417,2 0.5,2.5 h -1 z m -224,1 0.5,2.5 h -1 z m 225,3 0.5,3.5 h -1 z m -224,1 0.5,3.5 h -1 z m 225,4 1.5,1.5 1,8 -1,1 -0.5,18.5 -0.5,-23.5 q -2.4,-1.3 -0.5,-5.5 z m -224,1 0.5,5.5 h -1 z m 1,7 0.5,19.5 h -1 z m -195,11 0.5,5.5 h -1 z m 225,5 0.5,5.5 h -1 z m -224,5 0.5,3.5 h -1 z m 193,0 0.5,6.5 h -1 z m 32,2 0.5,4.5 h -1 z m 192,1 0.5,4.5 h -1 z m -416,2 0.5,2.5 h -1 z m 191,3 0.5,4.5 -1.5,3.5 -0.5,-2.5 z m 34,0 2.5,10.5 h -1 z m -224,1 0.5,3.5 h -1 z m 414,0 0.5,3.5 h -1 z m -412,8 3.5,10.5 h -1 l -3,-8 z m 410,1 0.5,2.5 h -1 z m -1,4 0.5,2.5 -1.5,2.5 -0.5,-1.5 z m -225,2 0.5,2.5 -1.5,2.5 -0.5,-1.5 z m 223,4 0.5,1.5 -1.5,2.5 -0.5,-1.5 z m -403,1 6.5,12.5 -2,-1 -5,-10 z m 178,1 0.5,1.5 -6.5,11.5 0.5,-1.5 z m 47,1 5.5,10.5 -2,-1 -4,-8 z m 172,10 -0.5,1.5 -8.5,12.5 2.5,-3.5 z m -390,2 1,2 z m 224,0 1,2 z m -60,1 -0.5,1.5 -1.5,2.5 0.5,-1.5 z m -162,2 1,2 z m 224,0 1,2 z m -222,3 1,2 z m 157,0 -1.5,2.5 -3.5,4.5 2.5,-3.5 z m 67,0 2,3 z m -221,4 8,9 7.5,6.5 -5.5,-4.5 -5.5,-4.5 z m 224,0 5,6 z m 149,3 -12,13 z m -225,1 -11,12 -10,7 1,-2 q 11.9,-6.6 20,-17 z m 86,6 5,6 z m -217,6 2,3 z m 224,0 2,3 z m 118,0 -3,4 q -10.5,8.5 -26,12 v -1 q 17.8,-4.2 29,-15 z m -338,3 1,2 z m 224,0 17.5,9.5 -1.5,0.5 -12,-6 z m -221,2 9.5,5.5 -1.5,0.5 -7,-4 z m 101,2 -1,2 -12,5 v -1 z m -90,4 q 9,5 21.5,6.5 l -4.5,0.5 -13,-4 -4,-2 z m 229,2 11.5,3.5 -3.5,0.5 -8,-3 z m -162,3 2.5,0.5 -12.5,2.5 v -1 z m 224,0 2.5,0.5 -8.5,2.5 h -5 v -1 h 5 z m -49,1 3.5,0.5 -3.5,0.5 z m -219,1 4.5,0.5 -4.5,0.5 z m 224,0 4.5,0.5 -4.5,0.5 z m -218,1 25.5,0.5 -15.5,1.5 -1,-1 h -9 z m 224,0 25.5,0.5 -25.5,0.5 z"
     id="path3" />
  <path
     fill="#569928"
     stroke="#569928"
     opacity="0.996"
     d="m 232,132.50595 h 11 q 8.6,1.9 13.5,7.5 l 5,10 v 10 q -2.9,11.6 -11.5,17.5 -21.2,15.3 -38.5,34.5 -21,22 -34,52 l -4,13 v 12 l 5.5,7.5 7,3 26,1 19,5 q 16.9,7.1 28.5,19.5 11.4,13.1 18,31 l 4,18 v 28 q -7.1,42.4 -34.5,64.5 -12.7,10.3 -30,16 l -14,3 -18,1 -1,-1 h -11 l -11,-2 -15,-5 q -18.8,-8.2 -31.5,-22.5 -15.8,-17.2 -23,-43 l -4,-23 v -40 l 1,-1 v -10 l 1,-1 v -7 l 4,-23 5,-20 13,-35 q 24.3,-53.2 65.5,-89.5 21.6,-20.9 54,-31 z m 229,0 q 18,-1.5 24.5,8.5 6,6 4,20 -3.4,10.6 -11.5,16.5 -25.5,18 -45.5,41.5 -16.5,18.5 -28,42 l -6,17 v 11 q 1.4,6.1 6.5,8.5 l 6,2 26,1 16,4 q 19.7,7.8 32.5,22.5 l 8,11 9,20 3,15 1,21 -1,1 -1,15 -8,24 q -9.9,20.1 -26.5,33.5 -12.5,9.5 -29,15 l -15,3 -18,1 -1,-1 h -10 l -11,-2 -15,-5 q -17.9,-8.1 -30.5,-21.5 -14.8,-15.2 -22,-38 l -5,-24 -1,-30 1,-1 v -15 l 1,-1 1,-18 3,-17 6,-24 10,-27 q 23.5,-53 62.5,-90.5 l 33,-26 15,-8 z"
     id="path4"
     style="fill:#f07916;fill-opacity:1" />
  <path
     fill="#f3f7ef"
     stroke="#f3f7ef"
     opacity="0.996"
     d="m 305,0.50595134 35,0.99999996 1,1 h 9 l 1,1 17,2 23,4.9999997 38,13 q 60.8,25.7 103.5,69.5 l 31,35.999999 17,26 19,37 2,8 7,15 10,36 2,16 2,6 1,17 1,1 v 13 l 1,1 v 29 l -1,1 v 13 l -1,1 -1,17 -4,17 v 5 l -2,4 v 4 l -7,25 -13,33 q -30.2,65.3 -81.5,109.5 l -39,29 q -26.6,16.4 -58,28 l -21,7 -38,8 -18,1 -1,1 h -15 l -1,1 h -19 l -1,-1 h -15 l -1,-1 h -9 l -1,-1 -13,-1 -28,-6 -25,-8 -24,-10 q -65.6,-30.9 -110.5,-82.5 l -14,-17 -24,-37 -16,-33 -11,-32 -7,-28 v -5 l -3,-13 v -7 l -1,-1 v -10 l -1,-1 v -48 l 1,-1 v -10 l 1,-1 1,-15 6,-29 8,-27 9,-22 q 12.4,-27.1 28,-51 15.6,-22.9 34.5,-42.499999 l 2.5,-1.5 7.5,-8.5 28,-24 20,-14 15,-9 33,-16 27,-10 31,-7.9999997 h 5 l 12,-3 15,-1 1,-1 h 18 z M 236.5,130.50595 v 1 h 5 z m 6,0 v 2 h -10 l -11,4 -3,-1 v 2 l -8,4 -2,-1 v 2 l -4,2 h -2 l -1,2 -5,3 q -2,3 -3,1 l -3,4 -2,-1 v 2 q -2,4 -3,1 l -1,2 -5,5 -1,-1 -1,2 -23,22 v 2 l -8,10 -4,3 v 2 l -2,3 q -2,3 -4,2 l 1,2 -3,1 1,2 -4,6 -2,1 v 2 l -1,2 -2,1 v 2 l -2,4 -3,1 1,2 -9,18 h -2 l 1,2 -3,7 h -2 l 1,2 -1,3 h -2 l 1,3 h -2 l 1,2 -5,16 h -2 l 1,2 -2,10 -1,-2 h -1 l 1,4 v 2 l -1,-1 h -1 l 1,3 v 2 l -1,-1 h -1 l 1,3 v 3 l -1,-1 h -1 l 1,3 v 4 l -1,-2 h -1 l 1,4 -1,10 -1,-2 h -1 l 1,5 v 5 l -1,-3 h -1 q -1,4 1,6 v 8 l -1,-5 h -1 v 8 l 1,1 v 35 l -1,1 1,5 1,-4 1,9 -1,5 1,2 v -1 h 1 l -1,3 1,3 v -2 h 1 l -1,5 h 2 l -1,2 1,2 v -1 h 1 l -1,2 1,2 v -1 h 1 l -1,2 1,2 v -1 h 1 l -1,3 2,-1 1,3 -1,3 h 2 l -1,2 h 2 l -1,2 h 2 l -1,2 2,-1 2,5 v 2 h 2 q 2,1 0,3 h 2 l 2,4 5,5 -1,1 1,2 2,-1 q 4,2 1,4 l 3,1 v -2 l 6,8 2,-1 8,5 1,3 2,-1 v 2 l 2,-1 4,2 v 2 l 2,-1 3,2 h -1 v 1 l 3,-1 1,1 h -1 v 1 l 3,-1 1,1 h -1 v 1 l 3,-1 2,1 h -2 v 1 l 4,-1 3,1 h -3 v 1 l 5,-1 4,1 h -3 v 1 l 5,-1 10,1 -10,1 h 10 l 1,1 15,-1 -8,-1 v -1 h 10 l 1,1 h 4 l -3,-1 v -1 l 4,1 h 4 l -3,-1 v -1 l 4,1 h 2 l -1,-1 v -1 l 4,1 v -2 l 3,1 -1,-1 3,-2 2,1 h 2 l -2,-1 q 12,-5 21,-13 l 2,1 -1,-1 11,-12 q 3,-5 5,-3 l -1,-2 2,-3 3,-1 -1,-2 1,-2 3,-1 -1,-2 h 2 l -1,-2 h 2 l -1,-2 h 2 l -1,-2 h 2 l -1,-2 1,-3 h 2 l -1,-2 1,-2 v 2 h 1 l -1,-4 h 2 l -1,-3 h 2 l -1,-4 h 2 l -1,-3 1,-3 v 3 h 1 l -1,-5 1,-4 v 3 h 1 q 2,-6 -1,-7 v -21 l 1,-1 v -6 l -1,3 h -1 l 1,-4 v -4 l -1,2 h -1 l 1,-5 h -2 l 1,-2 v -3 l -1,2 h -1 l 1,-4 h -1 l -2,-2 1,-3 h -1 l -6,-10 1,-2 h -1 l -2,-2 v -2 l -1,-1 q -5,-2 -2,-3 l -1,-1 -4,-3 1,-1 q -2,-5 -3,-2 l -12,-10 -1,-3 -2,1 q -12,-8 -30,-10 l 4,-1 -2,-1 q -2,-3 -3,1 l -25,-1 -7,-3 -6,-7 v -12 l 7,-19 h 2 l -1,-2 8,-15 3,-1 -1,-2 1,-2 q 2,-4 4,-2 l -1,-2 q 15,-21 34,-38 l -1,2 h 2 q 2,-1 0,-2 l 8,-8 -1,2 h 2 q 2,-1 0,-2 l 10,-9 2,1 -1,-1 5,-5 1,1 -1,-2 q 2,-4 4,-2 l -1,-2 h 2 l -1,-2 2,-5 v 2 h 1 l -1,-3 q -2,-7 1,-8 v -4 l -1,2 h -1 l 1,-3 h -2 l 1,-2 h -2 l 1,-2 h -1 q -3,-1 -1,-2 l -8,-6 -5,-1 v -1 l 3,1 q 2,1 1,-2 z m 215,0 v 2 l 3,1 -8,2 -3,-1 v 2 l -9,4 -2,-1 v 2 l -6,3 h -2 l -1,2 -8,6 -2,-1 v 2 l -29,24 v 2 l -10,9 v 2 l -6,5 v 2 l -3,2 v 2 l -3,4 q -2,3 -4,2 l 1,2 -12,18 -3,1 1,2 -1,2 -2,1 v 2 l -4,8 -3,1 1,2 h -2 l 1,2 h -2 l 1,2 h -2 l 1,2 h -2 l 1,2 -3,7 h -2 l 1,2 -2,5 h -2 l 1,2 -2,6 h -2 l 1,2 v 1 l -1,-1 h -1 l 1,3 v 1 l -1,-1 h -1 l 1,4 h -2 l 1,2 v 1 l -1,-1 h -1 l 1,3 -1,5 -1,-1 h -1 l 1,3 v 2 l -1,-1 h -1 l 1,3 v 2 l -1,-1 h -1 l 1,4 v 2 l -1,-2 h -1 l 1,4 v 2 l -1,-1 h -1 l 1,6 h -2 l 1,3 v 3 l -1,-1 h -1 l 1,3 v 4 l -1,-1 h -1 l 1,4 v 6 l -1,-4 h -1 q -1,5 1,7 v 7 l -1,-5 h -1 q -2,6 1,8 v 13 l -1,-10 h -1 l 1,37 v -7 h 1 v 9 l -1,1 1,5 v -3 h 1 l -1,5 1,4 v -2 h 1 l -1,4 1,3 v -2 h 1 l -1,3 1,3 v -1 h 1 l -1,2 1,2 v -1 h 1 l -1,4 h 2 l -1,2 h 2 l 1,3 -1,3 2,-1 6,14 v 2 h 2 l 2,4 q 3,1 1,3 h 2 l 5,6 -1,1 17,12 1,3 2,-1 2,1 1,3 2,-1 v 2 l 2,-1 v 2 l 2,-1 v 2 l 2,-1 v 2 l 2,-1 3,1 v 2 l 2,-1 1,1 h -1 v 1 l 3,-1 1,1 h -1 v 1 l 3,-1 2,1 h -2 v 1 l 4,-1 3,1 h -2 v 1 l 4,-1 4,1 h -3 v 1 l 5,-1 9,1 h -8 v 1 h 25 l -9,-1 v -1 h 10 l 1,1 h 5 l -4,-1 v -1 l 5,1 h 4 l -3,-1 v -1 l 4,1 h 2 l -1,-1 v -1 l 3,1 h 2 l -1,-1 v -1 l 2,1 h 2 l -2,-1 3,-2 2,1 h 2 l -2,-1 18,-10 q 1,-4 3,-1 v -1 l 15,-14 -1,-1 q 2,-4 4,-2 l -1,-2 3,-1 -1,-2 3,-1 -1,-2 h 2 l -1,-2 1,-2 3,-2 -1,-1 2,-1 -1,-1 1,-3 h 2 l -1,-2 1,-3 h 2 l -1,-2 1,-2 v 2 h 1 l -1,-4 h 2 l -1,-4 h 2 l -1,-4 h 2 l -1,-4 1,-4 v 3 h 1 l -1,-5 1,-7 1,4 v -18 l 1,-1 -1,-8 -1,-2 -1,3 h -1 l 1,-4 v -4 l -1,2 h -1 l 1,-5 h -2 l 1,-4 h -1 l -3,-5 1,-3 h -1 l -8,-13 1,-2 h -1 q -3,-1 -1,-2 l -5,-4 1,-2 h -1 q -13,-16 -35,-22 l 2,-1 v -1 l -3,1 -7,-1 3,-1 v -1 l -4,1 h -4 l 4,-1 v -1 l -5,1 -26,-1 7,-1 v -1 q -7,-2 -8,1 l -4,-1 q -6,-2 -7,-8 v -11 l 5,-14 h 2 l -1,-2 12,-22 q 2,-4 4,-2 l -1,-2 2,-3 q 2,-4 4,-2 l -1,-2 8,-10 q 20,-23 45,-42 l 2,1 -1,-1 7,-6 -1,-1 3,-1 -1,-2 h 2 l -1,-2 h 2 l -1,-2 1,-2 v 2 h 1 l -1,-3 v -10 l 1,-1 v -3 l -1,2 h -1 l 1,-3 h -2 l 1,-2 h -1 l -2,-2 q -4,-6 -10,-8 -5,-2 -13,-1 -2,-3 -5,-2 z m 8,0 v 1 h 2 z m -10,1 -2,2 h 3 q 1,-3 -1,-2 z m 21,1 2,2 h 1 z m 15,19 -1,6 h 1 z m -228,1 -1,5 h 1 z m -49,58 -2,3 2,-1 z m 189,57 -2,5 2,-1 z m -227,5 -1,3 h 1 z m 225,1 -1,3 h 1 z m -226,3 -1,13 2,-1 z m 225,1 -1,5 h 1 z m 0,9 -1,3 h 1 z m -303,6 -1,3 h 1 z m 310,4 v 1 h 2 z m -221,1 v 1 h 5 z m 19,1 v 1 h 5 z m 224,0 v 1 h 6 z m -211,1 -1,2 5,1 h 2 z m 229,2 v 1 h 2 z m -221,1 v 1 h 2 z m 30,18 1,2 q 1,-3 -1,-2 z m -165,1 -1,3 h 1 z m 180,19 v 2 l 2,-1 -1,2 2,3 v -3 h 2 q -1,-4 -5,-3 z m -184,18 -1,25 h 1 z m 196,19 -1,20 h 1 z m -194,21 -1,4 h 1 z"
     id="path5"
     style="fill:#fff7e9;fill-opacity:1" />
  <path
     fill="#f3f7ef"
     stroke="#f3f7ef"
     opacity="0.996"
     d="m 506,374.50595 0.5,6.5 h -1 z"
     id="path6" />
</svg>
