<svg viewBox="0 0 1254 1254" version="1.1" xmlns="http://www.w3.org/2000/svg" desc="Created with imagetracer.js version 1.2.6" ><path fill="rgb(0,0,0)" stroke="rgb(0,0,0)" stroke-width="1" opacity="0" d="M 0 0 L 1254 0 L 1254 1254 L 0 1254 L 0 0 Z M 427 151 L 395 157 L 366 168 Q 341 180 322 198 Q 288 228 270 273 L 256 316 L 251 343 L 250 359 L 249 360 L 249 375 L 248 376 L 248 407 L 249 408 L 249 423 L 250 424 L 252 450 L 260 492 L 269 526 L 285 573 L 298 606 L 363 754 L 400 848 L 400 851 L 410 877 L 423 920 L 436 975 L 439 991 L 439 998 L 445 1010 L 457 1017 Q 471 1019 478 1013 L 514 980 L 589 922 L 701 844 L 854 742 Q 893 715 929 683 Q 974 643 1003 588 Q 1015 564 1022 537 L 1022 533 L 1026 519 L 1027 506 L 1028 505 L 1028 495 L 1029 494 L 1029 463 L 1028 462 L 1028 453 L 1024 431 L 1017 408 Q 1001 365 972 335 Q 948 309 917 291 L 882 276 L 862 271 L 846 270 L 845 269 L 822 269 L 821 270 L 805 271 L 781 277 L 765 283 Q 724 301 694 330 Q 675 346 660 367 L 655 370 L 644 338 L 622 290 Q 601 248 571 216 Q 543 184 503 164 L 481 156 L 468 153 L 455 152 L 454 151 L 427 151 Z " /><path fill="rgb(0,0,0)" stroke="rgb(0,0,0)" stroke-width="1" opacity="0" d="M 428.5 198 L 450.5 198 Q 452.2 200.8 458.5 199 L 479.5 205 L 492.5 211 Q 521.4 226.6 542 250.5 Q 571.5 283.5 591 326.5 L 610 372.5 L 619 399.5 L 625 420.5 L 626 428.5 L 633.5 438 L 640.5 442 L 647.5 443 Q 648.8 440.8 653.5 442 L 661.5 438 L 666 433.5 Q 689.9 393.4 723.5 363 Q 746.8 341.3 777.5 327 L 804.5 318 L 815.5 316 Q 826.4 317.4 833.5 315 L 834.5 316 L 848.5 316 L 859.5 318 L 883.5 326 Q 916 341 939 365.5 Q 963.2 390.8 977 426.5 L 985 458.5 L 986 488.5 L 985 489.5 L 985 499.5 L 982 515.5 L 976 537.5 Q 969 558 959 575.5 Q 935.9 615.9 902.5 646 Q 866.4 678.9 825.5 707 L 671.5 811 L 575.5 878 Q 524.1 914.6 476.5 955 L 462 895.5 L 433 809.5 L 399 724.5 L 339 587.5 L 325 551.5 L 312 512.5 L 301 469.5 L 299 453.5 L 296 441.5 L 295 424.5 L 294 423.5 L 294 412.5 L 293 411.5 L 293 372.5 L 294 371.5 L 294 360.5 L 295 359.5 L 295 352.5 L 299 330.5 Q 303.9 308.4 312 289.5 Q 327.1 253.6 354.5 230 Q 369.3 217.3 388.5 209 L 411.5 201 L 428.5 198 Z " /><path fill="rgb(238,185,125)" stroke="rgb(238,185,125)" stroke-width="1" opacity="1" d="M 426.5 151 L 453.5 151 L 454.5 152 L 467.5 153 L 480.5 156 L 502.5 164 Q 542.6 183.9 571 215.5 Q 600.5 248.5 622 289.5 L 644 337.5 L 655 370 L 660 366.5 Q 674.8 346.3 693.5 330 Q 723.6 301.1 764.5 283 L 780.5 277 L 804.5 271 L 820.5 270 L 821.5 269 L 844.5 269 L 845.5 270 L 861.5 271 L 881.5 276 L 916.5 291 Q 948.4 308.6 972 334.5 Q 1001 364.5 1017 407.5 L 1024 430.5 L 1028 452.5 L 1028 461.5 L 1029 462.5 L 1029 493.5 L 1028 494.5 L 1028 504.5 L 1027 505.5 L 1026 518.5 L 1022 532.5 L 1022 536.5 Q 1014.6 564.1 1003 587.5 Q 973.9 643.4 928.5 683 Q 893.1 714.6 853.5 742 L 700.5 844 L 588.5 922 L 513.5 980 L 477.5 1013 Q 470.8 1018.8 456.5 1017 L 445 1009.5 L 439 997.5 L 439 990.5 L 436 974.5 L 423 919.5 L 410 876.5 L 400 850.5 L 400 847.5 L 363 753.5 L 298 605.5 L 285 572.5 L 269 525.5 L 260 491.5 L 252 449.5 L 250 423.5 L 249 422.5 L 249 407.5 L 248 406.5 L 248 375.5 L 249 374.5 L 249 359.5 L 250 358.5 L 251 342.5 L 256 315.5 L 270 272.5 Q 288.4 227.9 321.5 198 Q 340.7 180.2 365.5 168 L 394.5 157 L 426.5 151 Z M 429 198 L 412 201 L 389 209 Q 369 217 355 230 Q 327 254 312 290 Q 304 308 299 331 L 295 353 L 295 360 L 294 361 L 294 372 L 293 373 L 293 412 L 294 413 L 294 424 L 295 425 L 296 442 L 299 454 L 301 470 L 312 513 L 325 552 L 339 588 L 399 725 L 433 810 L 462 896 L 477 955 Q 524 915 576 878 L 672 811 L 826 707 Q 866 679 903 646 Q 936 616 959 576 Q 969 558 976 538 L 982 516 L 985 500 L 985 490 L 986 489 L 985 459 L 977 427 Q 963 391 939 366 Q 916 341 884 326 L 860 318 L 849 316 L 835 316 L 834 315 Q 826 317 816 316 L 805 318 L 778 327 Q 747 341 724 363 Q 690 393 666 434 L 662 438 L 654 442 Q 649 441 648 443 L 641 442 L 634 438 L 626 429 L 625 421 L 619 400 L 610 373 L 591 327 Q 571 284 542 251 Q 521 227 493 211 L 480 205 L 459 199 Q 452 201 451 198 L 429 198 Z " /></svg>