<svg viewBox="0 0 1347 1168" xmlns="http://www.w3.org/2000/svg"><path fill="#fcaf03" stroke="#fcaf03" d="M598.5 128q15.5-1.5 25 3 20.8 9.7 34.5 26.5l19 24 61 95h-2l1.5 2.5 3.5 1.5 7.5 11.5 11-1 3 1 103-7 42-1q20.7-.7 36 4 17.8 6.3 28.5 19.5 11 12 10 36l-7 25-16 31-82 124v5q28.8 61.2 51 129l13 50 1 25q-5.7 23.3-22.5 35.5-11.8 11.7-37 10l-19-3-32-9q-63.7-25.8-134-45l-6 3-62 62-52 43-32 19q-10.4 5.1-27 4-21.7-3.2-32.5-17.5-8.9-10.6-12-27l-4-56 1-13-1-57 4-49-1-2 2-17-27.5-19.5-85-52-46.5-36.5q-16-14-15-45 4.8-26.7 23.5-39.5l32-18 129-48 17.5-9.5 21-98 14-50 14-32 18.5-23.5q10.6-10.4 28-14Zm3.5 35-7 4-9 11 7 4-1-1-1 2 4 1 2 6-3 8 1 3q-13 32-32 59l-3 2-2 3h-1l5-24v-7l-2 5-1-1q1 10-4 14l1 4-8 36-6 54 3 1 4 10q-1 9-7 13l-2 2q-8 1-10-4l-33 15-2 2-16 4-49 21-2-1-1 2-91 33-7 11 2 11 3 1 3-7 3-1 2 1 3-1 12 5q25 22 57 39l118 64 4 7v4l-2-2-3-2q-2 7 2 9l-4 6 4 7-2 6v2l-1-1-2 1v2l-1 2-2 5-3 2h3l1 2 3 1-1 14v2l-1 5-2 1v2l-4 2h-2l1 2v2l-1-2-2 3 1 3-2 6-1 1-4 5 1 5-3 2 1 2-3 2v-3l-3 5 5 2 1-2 3 7-3 1 1 2-2 1q-4-1-2 5-5-2-4 2l1 1-4-1-4 2-1-2-2 6 1 25-1 6 1 2-1 11q0 36 10 64l13 9 13-1 26-16 57-52q33-33 60-73l15-15 14-3 21 7 9 1 12 9 16 4 111 43-1 2 2 2 5-1 11 3 1 3 5 3q5-1 3 3l12 4 3-2q6-4 8-13l-3-16-55-128-18-58 1-19 10-21 52-70 4-3 3-7 35-47 5-11q2-14-4-20l-13-10-23-3-58 2-91 8-8-1-6 3v2l-3 1-12-4-32-37q-34-58-74-109l-13-13q-5-4-14-2Zm-53 120-1 3h1zm178 29-1 2 3 2zM335 468v3l4 3-1-4zm42 54 1 2h1zm19 10-2 2 4 2h1l-3-2zm58 24 2 7q13 2 20 12l5 9 4-1 8 6 6 9-2 1 7 2 4-5q2-6-1-5h-2l-2 2h-1l2-10-7-4 1-3-2-4-7 1v2l-20-11v-1l-3-7-2 3-2-1-2 1zm45 69 2 5-1 2 2 5 1-3-1-6q1-5-3-3Zm18 3v3l-3 2 1 1 3-2 1-2zm-22 19v10l1-2zm20 4v2l-3 2 4 1 1-4zm-10 4-1 2 4 1 3 1h1l-1-2h-1zm3 4-1 3h1zm-3 11-1 1-2 2 5-2zm-4 15-2 8 3 1zm467.5-555 6 2 3.5 1.5-1 2 1.5 4.5 1.5-.5-2 6-14.5 16.5-1.5-.5 1 2-22.5 23.5-1.5-.5-1 3.5-2 1.5-5 6.5-2 1.5-5 3-1 3.5q-2.8 4-11.5 3l-3.5-2.5-1-5 25-30.5 2-1.5 13.5-14.5 1.5-1.5 16.5-22.5zm-601 33h8l8.5 8.5 1 4.5 3 1.5 12 18v4.5l4 2.5 5 10v2l2.5 1.5 13.5 21.5 1.5 3.5 1.5 1.5 2 7-1 3.5-8.5 2-5.5-3.5-19-30 1-2-3-1 .5-1.5-2.5-1.5-27-40-2-7z"/><path fill="#fcaf03" stroke="#fcaf03" d="m588 221 2 .5-1.5 2.5zm-308.5 44-1.5 2.5-2.5 5.5-.5-1.5z"/><path fill="#fcaf03" stroke="#fcaf03" d="m285.5 267 6.5 4.5-1 3.5h8.5l.5-1.5h1l.5 1.5.5-2 4 .5-1 2 1.5-.5 5.5 1q-1.3 3.3 3.5 2l2-1 2.5 1 .5 4 4.5-2.5 1.5-1.5 1.5-.5-1 2.5 5.5-1 6.5 3.5v2l-1 6 8.5.5 4.5-2.5-.5-1.5 8.5 4.5-3 .5-2 5 3.5 1 8-3q4 2.5 2.5 10.5l-2 1q.9-3.4-4.5-1.5l-2.5 3.5.5 1.5-3 1-8.5-3-1.5-3-5-1-1.5.5-.5-1.5-1.5.5.5-1.5-1.5 1.5-1.5-.5-1.5-.5 4-7-1-2.5-2 1.5-2.5.5-2-1-8.5 3.5.5 1.5-2.5-.5.5-1.5-4 1v-1l2.5-.5-5.5-1.5v1l1.5.5-1.5.5-4.5-1-1.5-3-2.5.5 2 1-1.5.5-8.5-2.5.5-1.5-9-3-2 1-3.5-.5 1 2-1.5-.5-4-2-2-3h2l5.5-2.5v-2l-1.5-3.5-3.5-2.5 1-2q-3.2-2.2 2.5-4.5zm34.5 16-2 2h2zm-24 3 1 2z"/><path fill="#fcaf03" stroke="#fcaf03" d="M299.5 270q4.8-1.3 3.5 2zm-25 4 .5 5.5h-1zm1 7 .5 2.5h-1zm792 233q14.1-1.6 21.5 3.5l2 7-4.5 5.5-2.5-1q1.3 3.3-3.5 2l-15 1-4-5-1.5.5-.5 2.5-2.5 1.5q1.4 5.4-6.5 2.5l-3 1-10 1-2-1-2 1-3-1v1l1.5.5-27 3.5q1.3-3.3-3.5-2v2h-13l-14 3-5.5-4.5q-1-6.5 2.5-8.5l6 1 3.5-2.5-.5-1.5 15-2 5 1 2.5-1.5-.5-1.5 15-1 4 1v-2l23-3v1l-1.5.5 1 2-1 2 .5 1.5-2-1-.5 2.5 1.5 2.5h2.5q-2.2-5.8 1.5-5l8.5-3.5-5-3zm-538 97 .5 4.5h-1zm98 47-1 2zm22 7-4 5zm-124 3 .5 3.5-2.5 13.5-2-4-1.5.5 2-1.5v-5h2v-4.5zm117 5-1 2zm-9 11-1 2zm-32 7-1 2zm23 4-2 3zm-106 1 4.5 1.5-1.5 8.5q.3-6.9-4.5-8.5zm-14 1 2.5 1.5-1.5-.5zm9 3 2.5 1.5-.5 1.5zm103 5-2 3zm378 0q8.3-1.3 10.5 3.5v2l1.5 1.5 4 2 3 1 12.5 8.5v2l1.5 2.5 2.5-.5-.5-1.5 20.5 16.5.5 1.5 4 2 10.5 8.5 1 8-2 4.5-4.5 2h-2l-6-2-51.5-37-7-10-2-1.5-2-8 3.5-4.5zm-457 2-.5 1.5-1.5 1.5-2.5 1.5zm49 0-1 2zm23 6-3 4zm-90 4 .5 2.5h-1zm85 2-5 6zm-102 1 2.5.5-2.5.5zm58 3-1.5 2.5-1.5 2.5.5-1.5zm29 12-6 7zm-80 37 1.5 2.5-1.5-.5-1.5-.5zm8 29 .5 14.5h-1z"/><path fill="#fcaf03" stroke="#fcaf03" d="M514.5 804q3.3-.4 1.5 7.5l-2.5-1.5q-3.7.8-1.5-5zm-100 22 8.5 3.5 2 8-47.5 61.5-9 1-4.5-2-1-8.5q15.8-31.2 38.5-55.5l1.5-1.5 5.5-4.5 3 1v-1l-1.5-.5 1.5-.5 5 1v-1zm311 1 9.5.5.5 2.5 3 1v-2l6.5 5.5 7 20 6 69-7 30-8.5 11.5q-8.5 2-10.5-2.5-5-14-5-33l4-12.5 5 1.5 2 13-1 7 5 1.5-.5-7-1 5-.5-6.5q4.5-16.5 2-40l-4-36-6-13.5-4.5-1-12.5 8.5q-15.1 17.9-16 50l7.5 10.5 8.5 3.5-2 3.5-2 .5.5 1.5q-13.9-2.1-21.5-10.5-5-8-3-23 4.8-28.7 19.5-47.5 6.4-8.6 19-11Zm16.5 41-1 6h1zm-52 12-1 3h1zm65 7-2 3 1 7h1zm-11 9v13l2-7zm13 25-2 2h2zm-1 3-1 3h1zm-24 29-1 3h1z"/><path fill="#fdcb45" stroke="#fdcb45" d="m965.5 130-3 4zm11 1 2 3zm-402 7-1 2zm67 3 1 2zm-72 1-5 6zm78 4 10 11zm306 1-1 2zm21 3-2 3zm-413 1-2 3zm388 1-4 5zm-392 4-1 2zm411 1-1 2zm-600 5 2.5.5-2.5.5zm294 0 2 3zm278 0-6 7zm22 2-3 4zm-365 1-1 2zm-3 2-1 2zm72 0 1 2zm-47 1 7 8zm-236 2 1 2zm549 0-1 2zm-342 1-1 2zm79 0 2 3zm-283 3 2 3zm566 1-7 8zm-587 1 1 2zm308 0 1 2zm252 2-3 4zm-296 1 1 2zm46 0 1 2zm-307 1 2 3zm310 3 1 2zm-44 3 2 3zm46 0 1 2zm-306 2 1 2zm542 0-3 4zm-234 1 1 2zm-45 1 2 3zm47 2 1 2zm-285 2 1 2zm242 1 1 2zm45 0 1 2zm-87 3 1.5 1.5-1 4.5 9 5.5 6 13-53.5 92.5-1.5.5v2l-2 6.5-2 .5v2l-2.5 4.5-1.5.5-1 3-5 8 1.5.5q18-16 30.5-37.5l33-55 9-19.5 3 1.5 25 44-16 20-33 62.5-2 .5v2l-14 23-41 54 19.5-18.5 11.5-5 1.5 3 20.5-30.5 37-64 23.5-31.5q7.9-.9 9.5 4.5l7 17v9q-11.8 35.7-31 64l-63 89-2 6.5 3 1.5 3 1.5 64-85.5 46.5-52.5q3.1-5.4 13-4l6.5 5.5 2 11-7 12-52.5 65.5-1.5 1.5-50.5 59.5-1.5.5.5 1.5-2.5.5.5 1.5 3.5 1.5-1.5-.5-3.5 2.5-1 4 2.5.5 3.5 1.5h1l1-4 68-75 62.5-64.5 20-18 10-1 14.5 8.5 3 11-7.5 9.5-84.5 76-1.5 2-5 6-1.5 1.5-27 29-1 9.5-5.5-2-22.5 21.5 2.5 7.5 23.5-21.5 7.5-8.5q38.9-41.6 84-77l45-35 33-21 17-15q4.6-6.4 17-5l6.5 5.5 1 8q-35.4 40.1-61.5 89.5l-1-1-4.5 4.5 2.5 1.5v1l-4.5 1.5-3.5 4.5-47.5 45.5-2 3-80 93q-9.7 10.3-12 28l5-4 7.5-8.5 1.5-.5-1-1 6-6 42.5-49.5 89-74 10.5-5-1-8.5q41-64 89.5-120.5l4-1h2l5.5 3.5 1 2v2l-2 8-22 25-43 58-26.5 29.5-3.5 2.5 1.5 2.5 1.5 1.5 2 7q-9.6 26.9-25 48l-3 12-13 25q.8 9.8-4.5 13.5l-2.5-1.5-20 29-4 13.5 4-1.5 23-26 1-9.5 5.5 2 9-10 13.5-12.5 1.5-1.5q5-2.5 3.5-11.5l4.5-5.5 5.5 2.5 23 57 6 10-1 2h2l19.5 46.5 5 1 2-1 11.5 20.5 1 6-3 7.5-9.5 3-10.5-6-9.5-19-7.5 14q10.9.5 17 7.5l-3 9 .5 1.5L754 677.5l3-2 4.5-6.5 12 4 5.5-7.5-2-12 2-12-3 2-9 17-9 11.5-5 3.5-1.5 1.5q-12.5-2.5-19-11l-8-2-2 1-17-7h-10l-7 2v-1l2.5-1.5-1-11 2-4-1-4 1-5-1.5-4.5-3-1-3.5 1.5 1 5h-2l-1.5 2.5-27 24 2-4-1.5-1.5q3.7-1.9 2-8.5l-2-1.5-3.5-5.5-5.5 1 4 8.5-3.5 4.5-3 2-6.5-4.5-2.5-1.5-3.5.5 4-2-1-2 8.5-12.5.5 2.5-1 2 1.5-.5 1.5-.5-1-3 2-7h-1l-1.5 5.5-.5-3.5 5-13.5-3 1.5-21.5 26.5-2.5.5.5 1.5 1.5-.5-6 4 1 2-7.5 8.5-2.5 1.5-1.5 3.5-2.5 1.5-1.5 3.5-1.5.5-1.5 3.5-1.5-.5 1 2-4 2-1 2-1.5 3.5-1.5.5-1 3-3.5 4.5-1.5-3 2.5 1 1.5-3q-6.6-1.7-8.5 2l-6-3-2 1q-1.7-3.7-9-2l-5.5 1.5-.5 1.5-4.5-.5 4.5-5.5-1.5 2.5.5 1.5 6.5-2.5-.5-1.5 2.5-1.5-1.5-4.5-4.5 3.5 10-9-1-1 4.5-4.5 3.5-1.5-.5-1.5-1.5.5 11-9-1-2 12.5-14.5 1.5.5-1-2q12.7-13.3 20.5-31.5l-.5 1.5.5 1.5h2l1.5-2.5-1.5-2.5-1.5.5 35-58 4.5-13.5 1 3 1.5-3.5-3.5-1.5q-24.6 22.7-38.5 55l-2 .5v2l-1.5 3.5-1.5.5 1 2-3 2 .5 1.5h-2l-2.5 1.5-1 4 1 1-4 4-32.5 37.5-1.5 1.5-17 21-2.5 13.5q.9-8.9-5-11l-1.5.5-1-4 2-3-1.5-3.5-2.5 1-5 19 7.5-5 2.5 1.5v2l-13 13-2.5 1.5-3.5-8.5 2-12v-2l2-15.5 2-.5-1-2 2-4q-.2-9.2 5.5-12.5l3.5-1.5-1-6 2-8.5q3.5 1.1 2-6.5l1-6-5.5-14.5-4.5 3.5-1.5 2.5-1.5-.5q6.2-7.3 4-23l-5.5-7.5q-77.8-38.7-149.5-83.5l8-4.5 3-6-15.5 8-.5-2-33-21.5 6.5-5.5 1.5.5.5-1.5 1.5.5 1.5-2.5 12-7 1.5.5 1.5-2.5 2 1v-2l2 1v-2l3 1 2.5-1.5-2-1 1.5-.5 1.5.5 1.5-1.5 1.5.5 1.5-1.5 14-5 6 1v-1l-4.5-.5 4.5-.5 5 3 13-8v2q8.3.3 11.5-4.5l-5-1 11.5-1.5 42-19 1.5.5 1.5-1.5 12-7h9l11 7q4.5-2 1-4l-1.5 1.5h-1l4.5-6.5 10.5-8.5-8.5-.5-20 4-2.5-1.5 28.5-12.5q1.9 5.1 10 4l9.5-10.5v-9l-4.5-7.5q-3.4.9-1.5-4.5l5-37.5 3-1.5 20-27 16-30v-6l-8-3.5 1.5-5 .5 1.5-.5 1.5 2.5-1.5 3.5-8.5.5 2 4-2.5 6-14h-3l-5.5 8.5-.5-1.5zM588 333l-26 31q-8 13-25 17l-6 7-10 8-3 4-1 12 1 2 3-2 18-20 21-18q17-17 28-39zm-77 45-2 1 1 2h3l-1-1v-1zm302 21-76 70q-39 39-73 83l-20 38 2 1q26-44 61-79l45-43q35-30 61-68zm-221 20-11 12h2l10-11zm-87 6-8 5-8 11 2-1 2 1 13-15zm73 8-20 24-1 2 5-1 17-24zm-101 2-9 7-8 9 2 2v-2l6-2 10-11zm52 4-17 13-2 3 20-15zm-78 16-13 15 1 1 6-4 7-8zm-10 1-7 5 1 1 6-4zm124 1-2 1v1l1 2h3zm-62 1-1 3h2l1-2zm52 2-15 25 1 1 15-18zm-60 7-3 4v1l4-3zm41 6-2 1-9 11v1l5-3 6-8zm-49 3-2 3 2-1zm-6 7-8 10 1 1 7-9zm90 3-13 18 2 3v4h2l-1-3 2-1 12-15-1-2 3 1v-1l-4-2zm-52 11-10 12 2 1 8-11zm-71 2-8 7-2 3 4 1 7-10zm148 9-23 31-3 8 2 1 27-33zm-42 1-18 26-2 1v2h-2l1 2-2-2-4 3h3l2 1-10 13 4-2 27-32 4-9zm-88 9-2 1-4 6 3 1 4-7zm158 3-2 3 1 2 4-1-1-4-1 3zm-3 4q-20 18-33 43l-2 1-3 4q4 2 3-2h1q2 4-2 3l-33 45-2 1v4h-2l1 2-1 2 1 2-1 2-1-2-3 4h-2l-1 2v2l-9 13 1 1 13-18h2l3-4-1-2q13-10 19-26l4-3 31-45 5-4 15-16-3-4 1-4zm-121 4-9 12 3 1 6-11zm279 7-49 54 4 5 32-37 13-19zm-254 4-2 1v2h-1l1 2 4-3zm35 13-19 30-2 1 3 1q12-10 18-27zm-20 32-2 3 2-1zm276 6-13 29 2 7 4 1 11-14 1-3 1-2v-4l-1 2h-1l1-2-2-1zm-89 2-20 22q-2 9 2 13l19-27q2-8-1-8Zm-73 14-2 5 2 2 3-5zm144 22-4 11v9h2l7-11-1-7zm-62 1-17 22 5 3 7-3 3-3q-2-11 2-16zm94 1q-8 21-21 38l2 3 2 1 19-23 4-3-5-12zm-137 8-1 3h1zm58 16-3 2-7 10 6 2 4-9zm92 11-8 22 15-9-5-11zm-50 19v3l3-1zM402.5 199l1 2zm242 0 1 2zm3 4 1 2zm45 1 1 2zm-42 3 1 2zm44 0 1 2zm214 0 1 2zm-256 3 1 2zm-241 4 1 2zm288 1 1 2zm-42 2 1 2zm44 1 1 2z"/><path fill="#fdcb45" stroke="#fdcb45" d="m586.5 220 1.5 2.5h-1zm73 0 1 2zm-259 9 1 2zm308 0 1 2zm2 3 1 2zm-184 3 .5 2.5h-1zm144 1 1 2zm43 1 1 2zm-188 2 .5 2.5h-1zm190 1 1 2zm-307 1 1 2zm151 1 .5 4.5-2 3 1 4-2.5 10.5-1.5-4.5zm-129 3 .5 3.5h-1zm288 0 1 2zm-195 3 .5 2.5h-1zm197 0 1 2zm-41 2 1 2zm43 1 1 2zm-307 1 1 2zm107 0 .5 2.5h-1zm159 1 1 2zm-263 1 2.5 1.5-1.5.5zm306 0 1 2zm3 5 1 2zm-207 2 .5 2.5h-1zm209 1 1 2zm-175 2 1.5 5.5h-3zm-276 1-1 2zm241 0 .5 2.5h-1zm171 2 1 2zm-414 1-1 2zm242 1 .5 2.5h-1zm36 3 .5 3.5h-1zm182 1 1 2zm-184 1 1.5 8.5-5.5 18.5-.5-6.5 1.5-6.5 1 3 2.5-13.5h-1l-.5 1.5-.5-1.5zm143 1 1 2zm2 3 1 2zm43 1 1 2zm2 3 1 2z"/><path fill="#fdcb45" stroke="#fdcb45" d="m550.5 283 .5 2.5h-1zm340 0 17.5.5-17.5.5zm-23 1 7.5.5-7.5.5zm11 0 2.5.5-2.5.5zm46 0 2.5.5-2.5.5zm-75 1 6.5.5-6.5.5zm83 0 2.5.5-2.5.5zm-99 1 4.5.5-4.5.5zm-130 1 1 2zm114 0 4.5.5-4.5.5zm-15 1 8.5.5-8.5.5zm-18 1 10.5.5-10.5.5zm-37 1 2.5 1.5-1.5.5zm-40 2 1 2zm-342 2 2 3zm-49 4 2.5.5-2.5.5zm649 2 5 6zm-251 1 1 2zm-203 1 .5 2.5h-1zm208 5 3 4zm6 7 2 3zm194 0 4.5.5-4.5.5zm-86 3 4.5.5-4.5.5zm-9 1 2.5.5-2.5.5zm-10 1 3.5.5-3.5.5zm-17 1 3.5.5-3.5.5zm-14 1 3.5.5-3.5.5zm-16 1 3.5.5-3.5.5zm178 0 1 2zm-187 1 3.5.5-3.5.5zm-23 1 1 2zm-229 2 .5 2.5h-1zm-1 4 .5 2.5h-1zm-1 4 .5 2.5h-1zm478 1 .5 2.5h-1zm-479 3 .5 2.5h-1zm-1 4 .5 2.5h-1zm450 0 .5 2.5h-1zm29 2 .5 3.5h-1zm-34 11-1 2zm-2 3-1 2zm-4 6-1 2zm-2 3-1 2zm-6 8-1 2zm-2 3-2 3zm-4 5-1 2zm-8 11-1 2zm-5 7-1 2zm-3 4-1 2zm-567 3-1 2zm562 4-1 2zm-3 4-1 2zm-576 2-1 2zm574 1-1 2zm-579 3-2 3zm574 4-1 2zm45 1-1 2zm-627 3-2 3zm579 0-1 2zm46 0-1 2zm-49 4-1 2zm-3 4-1 2zm-2 3-1 2zm45 2-1 2zm-596 2-1 2zm547 1-1 2zm-80 4 .5 1.5-2 1zm77 0-1 2zm-576 1 .5 2.5h-1zm573 3-1 2zm-574 1 .5 3.5h-1zm36 3-1 2zm583 0-1 2zm-49 1-1 2zm-541 1 .5 2.5h-1zm-30 2 .5 12.5h-1zm568 1-2 3zm48 1-1 2zm-52 4-1 2zm-3 4-1 2zm-2 3-1 2zm-558 1 .5 2.5h-1zm606 2-1 2zm-528 2 1 2zm514 20-1 2zm-581 1 2 3zm291 4 .5 2.5h-1zm239 5 .5 3.5h-1zm-520 1 2 3zm755 2 2.5.5-2.5.5zm-14 1 2.5.5-2.5.5zm25 2 1 2zm-759 1 1 2zm708 1 2.5.5-2.5.5zm-8 1 2.5.5-2.5.5zm-8 1 3.5.5-3.5.5zm-10 1 5.5.5-5.5.5zm-676 1 1 2zm662 1 2.5.5-2.5.5zm-658 2 1 2zm641 1 2.5.5-2.5.5zm-637 2 1 2zm627 2-1 2zm-623 1 1 2zm621 2 1.5 6.5-2-1zm92 0 2.5.5-2.5.5zm-28 4 3.5.5-3.5.5zm-9 1 4.5.5-4.5.5zm-13 1 3.5.5-3.5.5zm-14 1 7.5.5-7.5.5zm-11 1 2.5.5-2.5.5zm-622 1 1 2zm22 14 1 2zm72 2 1 2 1.5-.5.5 3.5zm-61 5 1 2zm3 2 1 2zm66 1 1 2zm5 4 1 2zm6 5 3 4zm7 6 1 2zm5 4 1 2zm6 5 2 3zm4 5 2.5.5-1.5 1.5zm112 1-2 3zm-78.5 7 2 1.5v2l-2 11 1 3-1.5 4.5-.5-12.5 1-2-1-4zm-58.5 20 .5 5.5h-1zm215 8-2 3zm2 3 .5 2.5h-1zm-218 2 .5 3.5h-1zm158 16-1 2zm-4 6-2 3zm60 2-5 6zm-63 2-1 2zm-153 3 .5 9.5h-1zm180 0-3 4zm-30 1-2 3zm58 2-7 8zm-62 3-1 2zm29 0-3 4zm-32 4-2 3zm26 3-3 4zm30 0-2 3zm-60 2-2 3zm-63 1 1.5 3.5h-1zm120 1-2 3zm-121 2 1.5 4.5-3.5 5.5.5-1.5 2-6zm89 0-2 3zm-29 1-4 5zm-39 1 2 3-2.5-.5zm97 0-2 3zm-112 2-5 6zm79 1-2 3zm29 2-1 2zm-74 1-2 3h-2l-1.5.5 3 1-5 2 1-3 2.5-1.5zm12 2-3 4zm-52 1-2 3zm80 0-2 3zm31 0-1 2zm-115 2-2 3zm113 1-1 2zm-112 1-1 2zm397 0 .5 2.5h-1zm-360 1-1 2zm42 0-3 4zm-83 1-2 3zm53 0-10 11zm-51 1-1 2zm111 0-1 2zm-182 1 .5 32.5h-1zm107 1-2 3zm418 0 5.5.5-5.5.5zm-459 1-1 2zm3 0-4 5-1-2 1 1zm78 1-2 3zm32 0-2 3zm-75 2-3 4zm434 1 1 2zm-66 1 .5 2.5h-1zm47 0 .5 4.5h-1zm-344 1-2 3zm367 1 1 2zm-401 1-3 4zm-42 1-1 2zm10 1-19 20zm62 1-1 2zm377 0 1 2zm-491 1 2.5 1.5-5.5 7.5 1.5-2.5 2-5-4 2zm416 2 .5 11.5h-1zm-338 1-7 8zm93 1 2.5.5-2.5.5zm184 0-1 2-4 2-2.5-1.5 1.5-.5 3-1zm111 0 1 2zm-357 1-3 4zm390 0 1 2zm-464 1-1 2zm328 1 7.5 6.5-1 2h2l-3 1.5-2.5-4-2-1-.5 1.5.5 1.5-1.5-2.5 1-4zm-368 1-.5 1.5.5 1.5 1.5-.5-3 1.5zm168 1-31 32zm308 1 2 3zm36 1 1 2zm-407 4-8 9zm288 2-1 2zm128 1 1 2zm-495 1 1.5 1.5-7.5 7.5zm42 0-16 17zm312 0 1 2zm-345 2-11 12zm490 0 1 2zm-32 2 1 2zm37 2 1 2zm5 4 1 2zm-31 2 1 2zm35 1 2 3zm-524 1-2 3zm72 0-11 12zm423 2 1 2zm-499 3-1 2zm5 1-2 3zm29 2-6 7zm363 0-1 2zm-396 1-3 4zm-4 1-.5 1.5q1 3.8-2 2.5zm513 0 1 2zm-120 5-2 3zm127 0 1 2zm-460 3-8 9zm-35 1-4 5zm363 0-1 2zm139 0 2.5.5-2.5.5zm-586 4 .5 3.5h-1zm390 1 2.5.5-2.5.5zm-221 2-7 8zm238 1 3.5.5-3.5.5zm21 0 2.5.5-2.5.5zm-354 1-3 4zm32 2-6 7zm-38 3-1 2zm-5 2v3zm-62 2 .5 2.5h-1zm46 1 .5 2.5-.5 4.5zm14 0-1 2zm34 2-2 3zm59 0-3 4zm-104 1 5.5.5-5.5.5zm39 4-2 3zm-87 1 .5 2.5h-1zm143 2-2 3zm-62 2-1 2zm55 4-2 3zm-90 1 .5 9.5h-1zm28 0-1 2zm57 3-2 3zm-6 5-1 2zm-5 4-1 2zm-5 4-1 2zm-4 3-1 2zm-170 1 3.5.5-3.5.5zm8 2 2 3zm158 0-1 2zm142 0 2.5.5-3.5 1.5zm-316 2-1 2zm171 0-1 2zm166 2 2 3zm-170 1-1 2zm139 1-1 2zm-311 1-3 4zm87 2 4 5zm-93 5-1 2zm309 0-1 2zm-208 2 1 2zm206 1-1 2zm-310 1-2 3zm328 0-1 2zm-302 4-1 2zm-30 1-1 2zm328 0-1 2zm-203 1 2.5.5-2.5.5zm5 1 11.5.5-11.5.5zm196 1-1 2zm39 1 .5 4.5h-1zm-340 1-2 3zm325 1 .5 2.5h-1zm1 5 .5 2.5h-1zm-332 1-2 3zm347 0 .5 3.5h-1zm-375 1-1 2zm361 4 .5 4.5h-1zm-338 1-2 3zm353 0 .5 5.5h-1zm-51 5 .5 2.5-1.5 3.5-.5-2.5zm-308 2-1 2zm360 2 .5 6.5h-1zm-364 3-1 2zm310 0 .5 2.5h-1zm39 1 .5 3.5h-1zm-352 3-1 2zm312 0 .5 3.5h-1zm56 3 .5 7.5h-1zm-394 3 .5 4.5h-1zm337 0 .5 7.5h-1zm-317 3-1 2zm359 3 .5 5.5h-1zm-55 1 .5 2.5h-1zm71 3 .5 5.5h-1zm-55 5 3 4zm39 3 .5 9.5h-1zm-51 1 2 3zm23 2 1 2zm45 1 .5 11.5h-1zm-39 2 2.5 3.5h-1zm-8 5 3.5.5-3.5.5zm29 6 .5 2.5h-1zm17 3 .5 2.5h-1zm-18 6 .5 3-2-.5zm17 0 .5 2.5h-1zm-29 3 .5 4.5h-1zm28 1 .5 2.5h-1zm-26 15 .5 2.5h-1zm19 6-1 2zm-15 5 1 2z"/><path fill="#fdebb1" stroke="#fdebb1" d="m602.5 126 4.5.5-4.5.5zm-7 1 5.5.5-8.5 1.5v-1zm-9 3 1.5.5-2.5 1.5zm37 0 3.5 1.5-1.5.5zm340 1-1 2zm14 0 1 2zm-398 3-1 2zm382 0-.5 1.5-1.5 2.5.5-1.5zm18 0 1.5 7.5-2.5 4.5.5-1.5 1-9zm-346 1 1 2zm-57 1-1 2zm60 1 1 2zm-64 2-2 3zm67 0 1 2zm318 2-1 2zm-314 1 3 4zm312 2-2 3zm-307 2 7 8zm329 1-2 3zm-414 1-3 4zm388 1-5 6zm22 3-3.5 4.5-6.5 7.5 5.5-6.5zm-415 2-1 2zm100 3 5 6zm286 0-4 5zm-390 3-1 2zm-189 3-1.5 2.5-1 7 2 3-2-1-1-7zm12 0 6 7zm227 0 4.5.5-4.5.5zm9 2 2.5 1.5-1.5-.5zm52 0 2 3zm296 1-8 9zm-411 1-1 2zm67 0 1 2zm-25 2-1 2zm76 0 2 3zm-120 1 .5 1.5-2 1zm-163 2 2 3zm205 0-2.5 3.5 1 2-2 .5zm340 0-5 6zm-384 2 .5 1.5-1.5 2.5-.5-1.5zm126 0 1 2zm-47 1 3 4zm-260 2 6.5 7.5-5-4zm24 0 1 2zm201 1 4.5 3.5 2 4h-1l-4.5-6.5zm85 0 1 2zm275 0-29 30zm-559 2 1 2zm238 0 2 3zm48 1 2 3zm244 1-7 8zm-289 2 1 2zm-238 1 1 2zm286 0 1 2zm-308 1 1 2zm225 1 2.5 5.5h-1zm38 1 1 2zm47 0 1 2zm-308 1 1 2zm23 1 1 2zm287 1 1 2zm-308 1 1 2zm262 0 2 3zm274 0-4.5 5.5-1.5 7.5-.5-5.5zm-513 1 1 2zm201 1 1.5 4.5h-1zm86 0 1 2zm-308 1 2.5 3.5-2-1zm263 1 2 3zm-239 2 1 2zm287 1 1 2zm-308 1 1 2zm263 0 2 3zm-44 2 7.5 4.5 8 16-14.5 23.5 1.5-2.5 12-24-10.5-14.5-4.5-1zm91 0 2 3zm-286 1 1 2zm242 1 2 3zm-263 1 1 2zm310 1 1 2zm-308 2 1 2zm264 0 1 2zm269 0-1 2zm-9 1 6.5 1.5-5.5.5zm-501 1 1 2zm-21 1 1 2zm309 0 1 2zm-165 1 .5 1.5-1.5 3.5-.5-2.5zm121 0 1 2zm-242 1 1 2zm-21 1 1 2zm309 0 1 2zm-44 1 1 2zm-263 2 1 2zm309 0 1 2zm-287 1 1 2zm243 0 1 2zm-71 3 .5 2.5-2.5 5.5-1.5-.5 1 2h-2l1 2-2.5 1.5v-1l1.5-.5-1-2zm-191 1 1 2zm265 0 2 3zm44 0 1 2zm-287 1 1 2zm-20 2 2.5 3.5-2-1zm309 0 1 2zm-43 1 1 2zm-243 2 1 2zm288 0 1 2zm-43 1 1 2zm-265 1 4.5 5.5-3-2zm220 0 3.5 2.5 25 44-14 17-48 87-36 48 10.5-9.5q3-6 13-5l1.5.5 1.5-2.5-.5 1.5-2.5 4.5-1.5-3-11.5 5-20 20 .5-1.5 47-63 43-79 16-21-26.5-44.5-1.5 1.5-2.5 3.5.5-1.5zm90 1 1 2zm-43 1 2.5 3.5-2-1zm-242 4 1 2zm288 0 1 2zm-308 1 1 2zm265 0 1 2zm-243 2 1 2z"/><path fill="#fdebb1" stroke="#fdebb1" d="m615.5 239 .5 1.5-9.5 16.5.5-1.5zm100 0 1 2zm-43 1 1 2zm-264 2 1 2zm266 1 1 2zm44 1 1 2zm-308 1 2.5 3.5-2-1zm266 1 2.5 3.5-2-1zm-76 1-.5 1.5-2.5 4.5.5-1.5zm120 0 1 2zm-307 3 1 2zm309 0 1 2zm-43 1 1 2zm-250 1-3 4-1.5-.5zm-14 1 3.5 2.5-1.5-.5zm181 1-.5 1.5-8.5 15.5.5-1.5zm85 0 1 2zm-261 2 3.5.5-3.5.5zm263 1 2.5 3.5-2-1zm-78 1-.5 1.5-1.5 2.5.5-1.5zm122 0 1 2zm-442 3 5.5.5-5.5.5zm401 1 1 2zm-406 1-1 2zm275 0 .5 2.5h-1zm47 0-.5 1.5-6.5 10.5.5-1.5zm-302 2 2.5 1.5-1.5.5zm388 0 1 2zm44 1 1 2zm-456 1-1.5 2.5-1.5 13.5-.5-10.5zm414 1 1 2zm-136 1 .5 2.5-3 8 1 3-2.5 8.5-.5-4.5zm180 0 1 2zm-42 2 2.5 3.5-2-1zm-106 1-.5 1.5-11.5 19.5.5-1.5zm-263 2 3.5 1.5-1.5.5zm193 2 .5 2.5h-1zm78 0-.5 1.5-10.5 17.5.5-1.5zm101 0 1 2zm44 1 2 3zm-42 2 1 2zm-358 2 3.5 1.5-1.5.5zm176 0 .5 2.5h-1zm227 0 1 2zm-43 1 1 2zm183 1 7.5.5-7.5.5zm26 0 14.5.5-14.5.5zm-634 1 5.5 6.5-6-5zm589 0 3.5.5-3.5.5zm64 0 3.5.5-3.5.5zm-413 1 .5 3.5h-1zm187 0 1 2zm-351 1 2.5 1.5-1.5-.5zm395 0 1 2zm81 0 6.5.5-6.5.5zm-14 1 4.5.5-4.5.5zm-109 1 3 4zm93 0 5.5.5-5.5.5zm-27 1 14.5.5-32.5 1.5v-1zm-256 1 .5 3.5h-1zm143 1 2.5.5-2.5.5zm297 0 1 2zm-668 1 4.5.5-4.5.5zm369 0-4.5 5.5-2.5 3.5 1.5-2.5 3-5.5zm6 0 4.5 3.5-1.5-.5zm-369 1 4.5.5-4.5.5zm416 0 11.5 13.5-6-5zm-410 1 3.5.5-3.5.5zm69 0 1 2zm207 0-.5 1.5-13.5 25.5.5-1.5zm385 0 1 2zm-656 1 2.5.5-2.5.5zm210 0 .5 2.5h-1zm-206 1 2.5.5-2.5.5zm276 0-.5 1.5-9.5 15.5.5-1.5zm379 0 3 4zm-651 1 2.5.5-2.5.5zm355 0q8 8.5 7.5 25.5-11.6 35.9-31.5 63.5l.5-1.5 24-45 6-17v-9zm-296 2 .5 5.5h-1zm-44 2 2.5.5-2.5.5zm642 0 1 2zm-321 1-1.5 2.5-17.5 26.5.5-1.5zm-136 3 .5 3.5-1.5 4.5-.5-3.5zm-142 1-1 2zm603 0 2 3zm-625 2 3.5 1.5-1.5.5zm373 0 5 6zm-368 2 8.5 1.5-5.5.5zm623 0 1 2zm2 3 1.5 2.5h-1zm-468 1 .5 3.5h-1zm63 0-1 2zm305 0 42.5.5-42.5.5zm-15 1 8.5.5-8.5.5zm63 0 4.5.5-4.5.5zm-198 1 8 9zm121 0 6.5.5-6.5.5zm84 0 2.5.5-2.5.5zm-362 1-1.5 2.5-11.5 13.5 7.5-8.5zm269 0 3.5.5-3.5.5zm140 0 1.5 3.5h-1zm-151 1 4.5.5-4.5.5zm-9 1 5.5.5-5.5.5zm-17 1 10.5.5-10.5.5zm-14 1 7.5.5-7.5.5zm156 0 5 6zm-385 1 .5 1.5-3.5 5.5.5-1.5zm213 0 7.5.5-7.5.5zm-9 1 2.5.5-2.5.5zm-7 1 1.5.5-2.5 1.5zm226 1 .5 3.5h-1zm-240 3 6.5.5-6.5.5zm-187 2-.5 1.5-3.5 5.5.5-1.5zm428 0 .5 4.5h-1zm-394 2-.5 1.5-1 3.5-2 .5-.5 2.5-1.5-.5 1 2-2.5 3.5.5-1.5-.5-1.5-31 34-2 1 1-2 12.5-11.5zm38 0-1.5 2.5-8.5 14.5.5-1.5zm325 0 .5 2.5h-1zm-396 2-8 9-1.5-.5 3.5-4.5 1 1zm397 3 .5 4.5h-1zm30 1 .5 6.5h-1zm-284 4q12.1-1.6 14.5 6.5l1 5h-1q-.2-7.2-5.5-9.5l-9-1-1.5.5zm-3 2-2 3-14.5 13.5-27.5 32.5 3.5-4.5 37.5-42.5zm153 1 7.5.5-9.5 1.5v-1z"/><path fill="#fdebb1" stroke="#fdebb1" d="m580.5 346-.5 1.5-2.5 3.5 1.5-2.5zm277 0 5.5 4.5-4.5-3.5zm-13 1-1 2-3 2-.5-2zm-86 1q9-1.5 11.5 3.5l-2.5-1.5-9-1zm223 0 .5 3.5-2.5 7.5-.5-2.5zm-226 1 1.5.5-4.5 3.5zm-264 1-1 2zm124 0-.5 1.5-12.5 22.5.5-1.5zm223 1-6 7-39 27 2-3q24.5-12.5 43-31Zm64 0 3.5.5-3.5.5zm-326 1-1 2zm287 0 1.5 6.5h-1zm36 0 1.5.5-7.5 6.5zm-149 1-14 15zm24 0 5.5 3.5-2.5-1.5zm135 0 1 2zm38 1-1 2zm-373 1-1 2zm337 1 1.5 7.5-2.5 3.5.5-1.5 1-8zm34 1-1 2zm-373 1-1.5 2.5-2.5 3.5 1.5-2.5zm208 0 2.5 4.5h-1zm-67 2 .5 1.5-30.5 39.5 2.5-3.5 24-30zm179 0-1 2zm-30 2 .5 1.5-6 5zm80 0-2 3zm-52 1-1 2zm-107 1 .5 4.5-6.5 8.5 2.5-3.5zm-216 1-8 9zm321 1-.5 1.5-11.5 14.5 2.5-3.5zm51 0-1 2zm-495 2 1.5.5-6.5 2.5v-1zm290 0-39 40zm175 0-3 4zm66 0 .5 1.5-1.5 2.5-.5-1.5zm-38 1-1 2zm-81 1-4.5 5.5-8.5 10.5 2.5-3.5zm79 2-2 3zm-30 1-6 7zm-348 1-4 5zm44 1-.5 1.5-1.5 2.5.5-1.5zm-56 2 1.5.5q-9.9 2.1-15 9l-5.5 6.5-4 3 4-5 4.5-3.5 5.5-6.5zm386 0-1 2zm-157 1-11 12zm-359 1 1.5.5-3.5 1.5v-1zm108 0 8.5.5-14 12-1 4.5-5-3.5 4 2 5.5-7.5 7.5-6.5zm28 0-4 5-7 6 2-5 1 1 4-4zm-33 1 3.5.5-10 3-1.5 2.5-2.5-1.5.5-1.5-6 1v-1zm80 0-.5 1.5-11.5 17.5 1.5-2.5zm330 1-1 2zm-53 2-2.5 3.5-8.5 10.5 1.5-2.5zm21 0-3 4zm-494 1 1.5.5-3.5 1.5v-1zm96 0 2.5.5-5.5 1.5v-1zm293 1-1 2zm134 0-1 2zm42 0-.5 1.5-1.5 2.5.5-1.5zm-476 1 2.5.5-2.5.5zm-4 1 2.5.5-2.5.5zm153 0-.5 1.5-62.5 89.5.5-1.5zm148 0-2 3-41 32 3-4zm54 0-2.5 3.5-1.5 2.5.5-1.5zm50 1-3.5 4.5-11.5 15.5 2.5-3.5zm31 0-2 3zm-425 1 8.5.5q-12.2-.7-17.5 5.5l1-2zm10 1 2.5 1.5-1.5-.5zm253 0-12 13zm-286 1 1.5.5-3.5 1.5v-1z"/><path fill="#fdebb1" stroke="#fdebb1" d="m538.5 392-7.5 8.5-10.5 11.5-3 2-.5-2.5 1-12 2.5-3.5.5 1.5q-4 3.5-2 13l1.5-.5 8.5-7.5zm382 0-2 3zm-270 2-4.5 5.5-29.5 39.5 1.5-2.5zm187 0-1.5 2.5-9.5 14.5.5-1.5zm125 0-.5 1.5-1.5 2.5.5-1.5zm-475 1-1 2-10 5 1-2zm-24 1-1 2-1.5-.5zm454 0-1 2zm-549 1 1.5.5-6.5 2.5v-1zm90 1 1.5.5-3.5 1.5v-1zm405 0-2.5 3.5-42 57-9 15v6l1 2.5-9.5 5 3-4 4.5-2 1-10.5zm-51 1 .5 1.5Q786.5 439 751.5 469L707 511.5q-34.9 35.8-61 79.5l-2-1.5 20-38 14.5-17.5-3.5 4.5-10 13-17 33 3-2q24.4-41.1 57.5-73.5l2.5-1.5 1.5-1.5 68.5-67.5 26-32-3.5 2.5-72.5 66.5-2 3-5 4-1.5 2.5-1.5 1.5-41.5 46.5 3.5-4.5 53.5-59.5zm103 0-2 3zm-330 1-1.5 2.5-3.5 5.5.5-1.5zm-227 1 1.5.5-3.5 1.5v-1zm600 0-.5 1.5-1.5 2.5.5-1.5zm-485 1 1.5.5-3.5 1.5v-1zm209 0-2.5 3.5-17 23-52 59-9 14 3.5 4.5 89-97-10.5 11.5-79.5 87.5-3.5-7.5 52-63.5 3-1.5zm65 1-8 9zm165 0-1 2zm-561 1 1.5.5-3.5 1.5v-1zm117 0 1.5.5-6.5 2.5v-1zm-29 2 1.5.5-6.5 2.5v-1zm516 0-1 2zm-494 1-1 2-4 1v-1zm448 0-1 2zm-566 1-1 2-2 1 1-2zm236 1-1 2zm297 0-2 3zm-447 1 1.5.5-3.5 1.5v-1zm478 0-2 3zm-456 1 1.5.5-12.5 5.5v-1zm501 0-1 2zm-215 1-7 8-6 5 5-6zm88 0-1.5 2.5-1.5 2.5.5-1.5zm-491 1-1 2zm539 0-1.5 2.5-3.5 4.5 2.5-3.5zm-454 1 1.5.5-3.5 1.5v-1zm485 0-2 3zm46 0-.5 1.5-6.5 9.5 1.5-2.5zm-619 1-1 2-2 1 1-2zm100 2 7.5.5-7.5.5zm-4 1 2.5.5-5.5 3.5zm394 0-.5 1.5-4.5 7.5.5-1.5zm-496 1-2 3zm266 0 1.5.5-10.5 11.5-1.5-.5zm-187 1 1.5.5-3.5 1.5v-1zm463 1-2 3zm32 0-1 2zm-477 1-1 2zm321 0-3 4-22 18 4-5zm-423 1-8 9zm85.5 1 4 1.5-4 .5zm491.5 0-2 3zm-506 1 1.5.5-4.5 1.5v-1zm113 0 1.5.5-15 11 1.5 3.5 11-12-4.5 5.5-6.5 7.5-2-1-1.5.5 7.5-10.5zm218 0-8 9-1.5 1.5-45 44-11 13-1 9 4.5-3.5 56-54-8 9-55.5 53.5-11.5 12.5-12 10-2.5-7.5 23.5-21.5 4.5 2 1-9.5 27-30.5 3-1.5 3.5-4.5 3-2zM650 501l-22 21 2 5 15-13-2-1q-2-4 4-3l-1 2h2l7-8zm214.5-76-2 3zm-449 1-1 2-5 2-3.5-2.5 1.5-.5 3 1zm-30 1 1.5.5-3.5 1.5v-1zm11 0 4.5.5q-21.1 4.4-35.5 15.5l2-3zm419 1-.5 1.5-6.5 10.5-.5-1.5zm79 0-2 3zm-33 1-2 3zm-484 1 1.5.5-6.5 2.5v-1zm514 2-1 2zm47 0-1 2zm-627 1-1.5 2.5-6.5 12.5-.5-1.5zm57 0 2.5.5-2.5.5zm209 0 1.5.5-3 2zm281 0-1.5 2.5-11.5 14.5 2.5-3.5zm-382 2 1.5 2.5-10.5 11.5-7.5 3 2.5-4v2l11.5-8.5 3-5-3 1zm460 0-1 2zm-362 1 1 2-1-1-7.5 7.5-8 12.5 2-1.5 6-4 5.5-9.5.5 1.5-11.5 14.5-5 1 1.5-2.5zm314 0-1 2zm-535 2 1.5.5-4.5 1.5v-1z"/><path fill="#fdebb1" stroke="#fdebb1" d="m472.5 438-4 5-3.5 2.5-1.5 1.5 4-5zm58 0-9 10-11.5 7 1.5-3zm-7.5 6-2 3 3-2zm411.5-6-1 2zm-360 1-1 2zm41 1-1 2zm270 0-1 2zm-78 1-1 2zm125 0-1 2zm-591 1 2.5.5-2.5.5zm272 1-1 2zm270 0-2 3zm-547 1 1.5.5-5.5 4.5zm469 0 .5 1.5-3.5 5.5-.5-1.5zm-446 1-1 2-22 12 3-4h4zm252 1-1.5 2.5-2.5 3.5 1.5-2.5zm317 1-1 2zm-49 1-1 2zm47 2-1 2zm-82 1-5 6zm-43 1-1 2zm75 0-2 3zm-270 1-2 3zm318 0-2 3zm-594 1 .5 5.5h-1zm120 1 1.5 3.5-7 8.5-6.5 4-.5-1.5zm.5 1-6 8 6-5zm345.5-1 3.5.5-4 .5-5.5 7-14 13 14-15 4.5-3.5zm-356 1 .5 2-6.5 4-.5-1.5zm433 0-2 3zm-573 1 .5 4.5h-1zm205 0-1.5 2.5-1.5 1.5.5-1.5 1.5-1.5zm98 0-2.5 3.5-19.5 24.5-.5-1.5zm235 1-5.5 6.5-7.5 8.5 5.5-6.5zm-503 2-.5 1.5-2.5 4.5-1.5-3.5h1l.5 1.5zm219 0 1.5 5.5h-1l-.5-3.5-11.5 19.5 2-1 10.5-13.5-1.5 2.5-14.5 17.5.5-1.5zm315 1-3 4zm49 1-1 2zm-422 4-.5 1.5-3.5 4.5-1.5-.5 3.5-4.5zm369 0-1 2zm49 2-1 2zm-615 1 .5 3.5h-1zm563 1-2 3zm50 1-1 2zm-522 1-1 2-11 6 1-2zm2 0 .5 1.5-3 4.5-8.5 4-1-2 2 1 9.5-7.5zm143 1 .5 1.5-6.5 8.5-5 3 .5-1.5 8.5-10.5zm-2.5 4-2 3 2-1zm291.5-3-7.5 8.5 4 11-1.5 3.5-.5-2.5 1-5-2-4.5-3-1.5 2.5-3.5zm35 0-1 2zm51 0-1 2zm-610 1 .5 2.5h-1zm186 1 .5 1.5-3 2zm287 1 .5 1.5-29.5 28.5zm84 0-1 2zm-556 2 .5 2.5h-1zm275 0 3.5 5.5h-1l-1.5-2.5zm279 1-1 2zm50 2-1 2zm-425 1 .5 1.5-7.5 9.5-.5-1.5zm373 0-.5 1.5-1.5 2.5.5-1.5zm50 2-1 2zm-333 1 .5 1.5-12 17 3.5 1.5 7-8-4.5 5.5-2.5 3.5-4.5-1zm2 0 2.5 5.5-4.5 5.5.5-1.5 3-5zm227 1-4 5zm102 1-1 2zm-108 4-4 5-6 5 5-6zm55 0-.5 1.5-1.5 3.5-.5-1.5zm-542 1 2.5 3.5-2-1zm113 3-.5 1.5-.5 1.5-.5-1.5zm477 0-1 2zm-378 1 .5 1.5-8.5 11.5-1.5-1.5zm-209 1 2 3zm509 0 .5 1.5-2.5 4.5-.5-1.5zm27 0 .5 1.5-1.5 2.5-.5-1.5zm-533 4 10 11zm469 0-5 6zm110 2-1 2zm-76 1-.5 1.5-.5 1.5-.5-1.5zm27 1 .5 3.5h-1zm47 1-1 2zm-294 1 3.5 6.5-27.5 33.5-1.5-1.5 3-8 13.5-18.5-1.5 2.5-11 16-1 5 2-1 23-29-5-2.5-3.5 5 2.5-3.5zm179 0-3 4-11 9 5-6zm-221 1 3.5 2.5-.5 1.5-1.5-3-2 1.5-20.5 29.5.5-1.5q7.5-18 20.5-30.5Zm260 0-.5 1.5-3.5 6.5.5-1.5zm-72 1-10 11zm145 2-1 2zm179 1 4.5.5-4.5.5zm-740 1 4 5zm231 0-1 2zm504 0 2.5.5-2.5.5zm-176 1-1 2zm170 0 3.5.5-3.5.5zm-213 1 .5 5.5h-1zm205 0 5.5.5-5.5.5zm-492 1-1.5 2.5-3.5 4.5 2.5-3.5zm34 0-1 2zm453 0 3.5.5-3.5.5zm-576 1 1.5.5-4 7.5-3-1.5 3.5-5.5zm417 0-1 2zm151 0 3.5.5-3.5.5zm57 0 1.5 7.5-3.5 4.5 1.5-2.5 1-8zm-759 1 3 4zm694 0 3.5.5-3.5.5zm-8 1 3.5.5-3.5.5zm-259 1-3 4-6 5 5-6zm122 0-2 3zm125 0 5.5.5-5.5.5zm-275 1-3 4zm76 0-.5 1.5-12.5 26.5.5-1.5 1-7zm194 0 2.5.5-2.5.5zm-7 1 3.5.5-3.5.5zm-656 1 2 3zm505 0 .5 2.5h-1zm146 0 3.5.5-3.5.5zm-440 1-3.5 4.5-10.5 12.5 4.5-5.5zm72 0 1.5.5-1 4 3 4-14 13 13-14-3.5-5.5q-20.5 20-33 48l-4.5 2.5-10.5 14.5 1.5-2.5 11.5-15.5q4.6 1.4 2.5-4.5 13.5-25.5 33.5-44.5Zm363 0 3.5.5-3.5.5zm-7 1 3.5.5-3.5.5zm-635 1 2 3zm385 0-3.5 4.5-24.5 29.5-3.5 2.5-35 43-8.5 20.5-.5-3.5 11-21zm-70 1 1.5 1.5-1.5-.5-7.5 7.5q-22.9 25.6-37 60L600.5 610l2.5-3.5 11-15 21-39zm187 0 .5 2.5h-1zm129 0-1 2zm-473 1 .5 1.5-3.5 5.5-1.5-.5 1 2-4 2 2 1.5.5-2 .5 1.5-2.5 1.5-1.5-2.5zm-154 1 1 2zm402 0-3 4z"/><path fill="#fdebb1" stroke="#fdebb1" d="m656.5 531 .5 2.5-1.5 3.5-.5-2.5zm425 0 3.5.5-12.5 1.5v-1zm-732 2 1 2zm714 0 7.5.5-7.5.5zm-321 1-3 4-19 16 5-6zm312 0 4.5.5-4.5.5zm-6 1 3.5.5-3.5.5zm-270 1 .5 2.5-13 19-32.5 37.5-3.5-5.5 43.5-47.5 2.5-.5-.5-1.5-1.5.5zm-4.5 7-36 39v3l-1-1-5 4 2 1 1 4 6-7 2-2 31-39zm268.5-7 2.5.5-2.5.5zm-687 1 1 2zm681 0 2.5.5-2.5.5zm-382 1 .5 1.5-19.5 31.5.5-1.5zm-296 1 1 2zm656 0 8.5.5-8.5.5zm-45 1q2.8 4.3 10.5 3.5l-6.5.5zm35 0 5.5.5-5.5.5zm-643 1 2 3zm627 0 5.5.5-5.5.5zm-457 1-2 3zm450 0 3.5.5-3.5.5zm-448 1-6 7q-3.5-2 1-4l1 1zm-166 2 1 2zm481 0 1.5 5.5h-1zm-478 2 1 2zm239 1-1 2zm-236 1 1 2zm152 1v3l-3.5 2zm81 0-2 3zm-228 2 1 2zm181 1 .5 4.5h-1l-.5-1.5-5 7 1.5-2.5zm44 1-.5 1.5-10.5 15.5 1.5-2.5zm115 0-6 7-3.5 2.5-39.5 45.5 3.5-4.5 38.5-44.5zm73 0-.5 1.5-11.5 24.5-.5-1.5zm-407 2 1 2zm428 1-2.5 3.5q.8 9.8-4.5 13.5l-1.5 1.5-20 19-2.5 3.5 1.5-2.5 7.5-8.5 4.5-3.5 1.5-2.5 2.5-1.5 5.5-6.5 1.5-1.5 2-9zm5 0 3.5 5.5h-1zm-430 1 3.5 2.5-1.5-.5zm71 1 2.5 1 .5 2 2.5.5.5 3.5zm100 0 .5 2.5-2.5 4.5-.5-1.5zm-166 2 1 2zm160 3-2 3zm-154 1 1 2zm71 0 1 2zm353 1 1.5 4.5h-1zm-355 1 2 3zm88 0-1.5 2.5-4.5 5.5 3.5-4.5zm-81 1 4.5 3.5-1.5-.5zm75 0-.5 1.5-1.5 2.5.5-1.5zm-78 2 4 5zm-63 1 1 2zm183 1-2.5 3.5-8.5 12.5 1.5-2.5zm43 0-1 2zm190 0 9.5 21.5h-1zm-413 1 1 2zm135 0-.5 1.5-2 5 5-3-7 5 .5 1.5 1.5-.5-4 2.5-1.5 3-.5-1.5zm86 2-.5 1.5-6.5 11.5.5-1.5zm-216 1 1 2zm73 0 5.5 2.5-1.5.5zm-10 1 3 4zm21 4 2.5 1.5-1.5-.5zm-74 1 1 2zm60 1 1 2zm292 1 .5 3.5-2 5 3 5-2.5-1.5q-3.2-.4-1.5 7.5L750.5 633l-2.5-1.5 1.5.5 11.5-11.5 14-17v-6l-2.5-5.5-19.5 27.5-3.5 10.5-.5-4.5 23.5-35.5 2.5 1.5zm-345 2 1 2zm57 0 3 4zm11 0 .5 2.5h-1zm-65 2 1 2zm143 1-1.5 2.5-3.5 4.5 2.5-3.5zm45 0-.5 1.5-1.5 2.5.5-1.5zm-185 1 1 2zm61 0 .5 4.5q-2 3.5-4-1l3 1zm315 1 .5 1.5-12 30 2 4.5 4-1.5 11-14-5-17h1l5 17-13.5 16.5-3.5-1.5-2-7zm-371 2 1 2zm126 0-1 2zm156 0q3.3-.4 1.5 7.5L708.5 628l-1.5-10.5h1l.5 8.5 17.5-23.5 1-8-6 5-13.5 15.5 4.5-5.5zm108 2 1.5 2.5h-1zm-385 1 1 2zm119 0-1 2zm52 0-.5 1.5-3.5 6.5.5-1.5zm-47 1-1 2zm-121 1 1 2zm114 1-3 4zm4 0-1.5 2.5-.5 1.5-.5-1.5zm266 0 11.5 25.5h-1q-8.1-10.6-10.5-25.5Zm-381 1 1 2zm3 2 2 3zm104 2-1.5 2.5-6.5 8.5 1.5-2.5zm-100 1 1 2zm105 0-1 2zm303 0 1.5 3.5h-1zm-256 2-.5 1.5-.5 1.5-.5-1.5zm-148 1 1 2zm99 0-2.5 3.5-10.5 13.5 2.5-3.5zm-96 2 1 2zm199 0-5.5 6.5-12.5 14.5-.5-2.5 4-2zm-69 1-4.5 5.5q-24.6 23.4-43.5 52.5l-.5-1.5zm-127 1 2.5 4.5h-1zm139 1-.5 1.5-7.5 11.5 1.5-2.5zm-58 3-1 2zm93 0 1.5 1.5-1.5 2.5-1.5-2.5zm-95 3-.5 1.5-1.5 2.5.5-1.5zm93 0-5.5 6.5-5.5 6.5 3.5-4.5zm-171 1 .5 2.5h-1zm172 1 .5 1.5-4.5 14.5-.5-3.5zm-96 3 .5 2.5-.5 2.5-2.5 1.5-2.5 5.5-3.5.5 4-2-1-2zm299 2 1.5 3.5h-1zm-246 1-3 4zm88 2 .5 4.5-1 3 2 8-2 1-.5-7.5-1 3-.5-3.5 2-6zm107.5 0 4 1.5 1 7-6.5 9.5-.5-1.5 6-8v-5l-3-2 1 2-3 1-2 14 .5 1.5-1.5-.5v-9zm-62.5 1 .5 2.5q-3.6 5.4-2 16l-3.5 3.5-7 3-4.5-3.5zm-1.5 4-11 15h4l1 4 5-4 1-12zm95.5-3 1.5 3.5 5 12-4 3-19 23.5-2-.5q15-11 23-29l-4.5-10.5-6 13 .5-1.5zm-231 1-1.5 2.5-6.5 8.5 2.5-3.5zm90 0-2 3-4 2 1-2zm-56 1-2 3zm-89 4-1 2zm86 0-1.5 2.5-13 17.5-2-.5zm51 0-4 5-5 4 4-5zm172 0 1.5 3.5h-1zm-312 1-1 2zm100 0-3 4zm-99 2-1 2zm-70 1 .5 7.5h-1zm67 0-1 2zm240 0 .5 5.5h-1l-.5-3.5-7.5 14.5 1 2-10 8 13 3.5 4-5.5-1-4h1l1 4-5.5 7.5-12-4-6 8-2.5-1.5 5-3.5zm76 1 3.5 8.5h-1zm32 0 1.5 3.5h-1zm-347 1-2 3-1.5-.5-1 2 1 1-4.5 4.5.5-1.5 1.5-2.5 1.5-.5v-2l1.5-2.5zm97 0-2 3zm-47 1-4 5zm80 2-18 19zm-36 1-2.5 3.5-6.5 9.5 1.5-2.5zm56 0 1.5 10.5-3.5 2.5 1-2 1.5-3.5z"/><path fill="#fdebb1" stroke="#fdebb1" d="m822.5 647 .5 1.5-13 20 1 2h-1l-1-2zm-45 1 .5 4.5h-1zm-194 3-8 9zm275 1 7.5 16.5h-1zm-108 3 .5 4.5-4 9.5-4-1.5 1.5-.5 1.5.5 4-9-3-.5-5.5 9-.5-2.5 6.5-7.5zm26 0 .5 4.5h-1zm-164 3-2.5 3.5-19.5 25.5 1.5-2.5zm71 2 2.5.5-14 13zm-213 1 .5 3.5h-1zm153 0-1.5 2.5-2.5 3.5 1.5-2.5zm-50 1-4 5zm77 4-4 5zm192.5 0 2 1.5 5 11.5-8.5 6 1-2 6.5-5.5-4.5-9.5-4 9-.5-1.5zm-275.5 3-8 9zm50 0-2 3zm-66 1 .5 1.5-1.5 6.5-.5-5.5zm315 0 1.5 4q7.8-2 10 2.5l1 2-2-1-1.5-2.5-8.5-1.5zm-252 3-3 4zm30 0-3.5 4.5-5.5 6.5 4.5-5.5zm26 3-3 4zm-60 2-3 4zm-61 1 .5 2.5-1.5 2.5-.5-1.5zm9 0-3 4zm280 1-.5 1.5-2 5h2l-3 1.5zm-172 1-2 3zm-197 2 .5 19.5h-1zm137 0-4 5zm-52 1-8 9-1.5.5-1.5 3.5-1.5-.5 5.5-11.5.5 3.5-1 2zm327 0 5.5 10.5h-1zm55 0 .5 2.5h-1zm-302 1-3 4zm29 0-2 3zm129.5 0 3 1.5-3 1.5zm62.5 2 2.5 4.5h-1l-1.5-3.5-6.5 12 5 1.5-1.5.5-4.5-1zm-266 1-2.5 3.5-3.5 4.5 2.5-3.5zm348 0 .5 2.5h-1zm-277 1-2 3zm-60 1-5 6zm30 0-3.5 4.5-4.5 5.5 3.5-4.5zm308 2 .5 2.5h-1zm-281 1-1 2zm230 3 .5 2.5h-1zm52 0 .5 2.5h-1zm-357 1-2 3zm72 0-1 2zm-113 1 1.5.5-3 2-.5 2.5-1.5.5 1 1-5.5 5.5.5-1.5 4.5-6.5 1.5-.5zm52 0-9 10zm59 2-2 3zm209 0 3.5 6 6 3.5-2.5-1.5-2-1-2.5 8.5.5 1.5-2.5-.5 3-8-10-6 1.5.5 7 3 .5-1.5zm-282 1-1.5 2.5-3.5 4.5 2.5-3.5zm42 0-4 5zm319 0 .5 3.5h-1zm-53 1 .5 3.5-3.5 4.5-2 1 1-2 1.5-1.5zm-238 2-3 4zm344 0-1 2-3 2 2-3zm9 1 1 2zm-61 1 .5 3.5h-1zm-325 1-5 6zm389 0 1 2zm-432 2-4 5zm72 0-3 4zm363 0 2 3zm-136 1 2.5 1.5-1.5.5zm-292 2-10 11zm362 1 .5 5.5h-1zm71 0 1 2zm-403 1-5 6zm31 0-2 3zm-73 1-2.5 3.5-34 40q3.2 2.3-2.5 4.5l-.5-1.5 8-12zm451 2 2 3zm-493 1 .5 1.5-1 2.5-2 .5-1 3-1.5 2.5-.5-1.5 1-2.5 2-.5-1-2zm112 0-4 5zm225 0 5.5 2.5-1.5.5zm54 0 .5 4.5h-1zm72 0 2 3zm34 2 1 2zM877 721l4 .5-4.5 2.5.5-1.5zm5.5 0 2.5.5-2.5.5zm-279 1-13 14zm97 0 2.5.5-2.5.5zm186 0 2.5 1.5-1.5-.5zm106 0 4 5zm-287 1 4.5 1.5-1.5.5zm322 0 2 3zm-335 1-4 5zm198 0 6.5 5.5-3.5-2.5zm-324 2-6 7zm65 0-10 11zm400 0 1 2zm-141 3 4.5 3.5-1.5.5-3.5-2.5zm145 0 2 3zm-119 1-1 2zm84 0 3 4zm-315 1-5 6zm257 0 .5 3.5h-1zm97 1 2 3zm-141 1 2 3zm107 1 2 3z"/><path fill="#fdebb1" stroke="#fdebb1" d="m558.5 735-20 21-4 3 3-4 11.5-10.5.5-2.5 1 1zm485 0 2 3zm-574 1 .5 2.5h-1zm443 0-1 2-5 2-3.5-2.5 1.5.5 4 1zm29 0 .5 2.5h-1zm68 1 1 2zm3 2 1 2zm36 0 2 3zm-431 2-8 9zm399 1 1 2zm36 0 3 4zm-33 2 2 3zm-245 2 3.5 1.5-1.5.5zm283 0 2 3zm-388 1-33 34zm268 0-.5 1.5-3.5 5.5 1.5-2.5zm86 0 2 3zm-447 3-1 2zm451 0 1 2zm35 0 4.5 6.5h-1zm-32 2 1 2zm-458 1-10 11zm461 1 1 2zm-101 1-2 3zm104 1 2 3zm-437 2-9 10zm468 0 .5 3.5-1.5 2.5-.5-1.5zm-138 1-6 7zm111 0 2 3zm4 3 1 2zm-220 2 8.5 2.5-2.5.5zm223 0 2 3zm-488 1-8 9zm506 0-3 4zm-14 2 1 2zm-132 1-1 2zm-6 4-1 2zm-330 1-6 7zm-34 1-7 8zm313 1 2.5.5-2.5.5zm5 1 3.5.5-3.5.5zm5 1 4.5.5-4.5.5zm6 1 19.5.5-19.5.5zm-338 4-2 3zm32 1-6 7zm59 1-8 9zm-95 1-2 3zm-4 3-1 2zm-14 2 1 2zm45 1-3 4zm-41 1 2.5.5-2.5.5zm-4 1 .5 11.5h-1zm102 1-6 7zm-64 3-2 3zm-5 4-1 2zm61 0-4 5zm-139 4 .5 2.5h-1zm71 1-1 2zm61 1-3 4zm-64 1-1 2zm-5 3-1 2-2 1 1-2zm64 0-3 4zm-82 4 7.5 1.5-6.5.5zm77 0-3 4zm-5 4-2 3zm-5 4-1 2zm142 2 3.5.5-3.5.5zm-146 1-1 2zm-174 1-1 2zm15 0 1 2zm298 0-1 2-2 1 1-2zm17 0 4.5 3.5-2.5-1.5zm-333 2-6 7zm77 0 1 2zm96 0-1 2zm137 1 1.5.5-3.5 2.5zm-140 1-1 2zm169 0 1 2zm-318 1 .5 6.5-1.5 2.5-.5-1.5zm59 1 2 3zm226 0-8 9zm-140 1-1 2zm175 0 1 2zm-178 2-1 2zm-171 2-3 4zm168 0-1 2zm-72 3 2 3zm-69 1-2 3zm134 0-1 2zm168 0 2.5.5-2.5.5zm-333 1-2 3zm309 0-1 2zm22 0-1 2-6 5 5-6zm8 0 1 2zm-311 3-2 3zm79 0 1 2zm-111 2-1 2zm114 0 3.5 1.5-1.5.5zm232 0 1.5 3.5h-1zm-317 2-4 5zm298 1-1 2zm37 0 .5 2.5h-1zm-367 1-1 2zm144 0 2.5.5-2.5.5zm207 1 .5 2.5h-1zm-353 2-1.5 2.5-4.5 6.5 1.5-2.5zm28 2-4 5zm342 1 .5 3.5h-1zm-16 1 .5 2.5h-1zm-332 5-3 4zm333 0 .5 3.5h-1zm-362 1-1 2zm378 0 .5 2.5h-1zm-48 2 .5 1.5-1.5 2.5-.5-1.5zm-332 1-1 2zm315 2 .5 2.5h-1zm-317 1-1 2zm27 0-3 4zm340 1 .5 11.5h-1zm16 1 .5 3.5h-1zm-385 1-1 2zm318 0 .5 2.5h-1zm-320 3-.5 1.5-2.5 4.5.5-1.5zm26 0-2 3zm293 1 .5 2.5h-1zm-297 4-1 2zm296 1 .5 4.5h-1zm70 0 .5 3.5h-1zm-368 2-1.5 2.5-2.5 3.5 1.5-2.5zm352 0 .5 11.5h-1zm-40 3 .5 5.5h-1zm-15 1 .5 9.5h-1zm72 5 .5 5.5h-1zm-395 1 3.5 4.5-4-3zm18 2-2 3zm320 0 .5 3.5h-1zm-14 3 .5 2.5h-1zm55 2 .5 5.5h-1zm-54 2 2.5 4.5-2-1zm71 2 .5 5.5h-1zm-50 3 4.5 1.5-2.5.5zm-15 3 1 2zm47 1 .5 11.5h-1zm-20 1 2.5 3.5-3 2 2-3zm14 2 2.5 1.5-1.5-.5zm-19 4 3.5.5-3.5.5zm13 0 .5 2.5-1.5 3.5-.5-2.5zm10 1 1.5 12.5-1.5 2.5zm20 3 .5 4.5h-1zm-32 3 .5 11.5h-1zm31 4 .5 2.5h-1zm-30 11 .5 5.5h-1zm1 8 .5 4.5h-1zm1 6 .5 3.5h-1zm19 4-4 5zm-17 3 2 3zm4 3 5.5.5-5.5.5z"/><path fill="#fdbe17" stroke="#fdbe17" d="m602.5 127 8.5.5-8.5.5zm367 2 2.5.5-2.5.5zm4 1 1 2zm3 3 2.5 1 1 4.5-2 1zm-404 7-1 2zm386 1-1 2zm-2 3-2 3zm20 3-1 2zm-412 1-2 3zm388 1-2 3zm19 4-1 2zm-412 1-1 2zm386 3-4 5zm-287 1 3 4zm308 1-3 4-1.5-1.5zm-411 1-1 2zm56 3 1 2zm-234 1 5 6zm174 3-1 2zm407 1-3 4zm-574 4 2.5 3.5-2 .5zm547 0-5 6zm-343 1-1 2zm83 1 1 2zm-44 2 1 2zm-239 1 1 2zm202 3 2.5.5-.5 1.5 2.5 1.5q-2 3.5-4-1zm-219 1 3.5 4.5-2 1-1-3zm550 2-4 5zm23 0-13 14 4.5-5.5 2-3 2.5-3.5zm-311 1 1 2zm-37 4v2l1.5.5-.5 1.5 1.5 2.5 2 3-2 1 .5 1.5-3.5 1.5-.5 1.5-1.5-3.5v-2l2-7zm316 5-4 5zm-512 3 3.5 5.5-2.5-1.5q-3.5.8-1-4Zm525 5 .5 1.5-3 2zm-521 2 1 2zm188 5-.5 1.5-1.5 2.5-.5-1.5zm3 0 1.5 2.5-8.5 15.5-1.5-2.5h2l1-2-4-2 1.5-2.5 2.5-.5zm315 0 6.5 1.5-5.5.5zm-501 3 3.5 5.5-1.5-.5-2.5-1.5v-2zm-16 6 3.5 2.5 1 2-2 1 .5-1.5-1.5-.5-.5-2.5zm20 1 1 2zm248 4 1 2zm-245 1 1 2zm5 8 1 2zm140 3 .5 6.5-1.5 4.5-1-3-1.5.5.5-4.5 1.5.5zm17 0 .5 2 8 3.5v6l-16 30-21.5 28.5-1.5 2.5h-1l.5-8.5 1 3q6.7-15.8 8-37l1.5.5-1-6h1l.5 4.5 4.5-3.5zm-154 2 3.5 4.5-1.5.5zm-16 2v3zm151 9 .5 5.5h-1zm-144 2-1 2zm141 1 .5 5-2 .5 1 3h-1l-1-3z"/><path fill="#fdbe17" stroke="#fdbe17" d="m558.5 254 .5 2.5h-1zm-273 8 13.5 3 .5 2 1.5-.5.5 1.5 1.5-.5.5 1.5h2l21.5 7 .5 2h2l2.5 1.5-5 .5-2-2-1.5 3-3 1-.5-4-3.5-1-4.5 1-1.5-2-4-1-1.5.5 1-2-4-.5-.5 2-1-2-.5 2h-8.5l-.5-2.5q3.3-2.2-2.5-4.5l-3-1-6.5 4.5v2l1.5 2.5 3.5 1-1 4.5-1.5 3.5-4.5 1.5 3 1.5-.5 2-3-5-1.5-.5 1-3h-2l1-7-.5-1.5 1.5-1.5-.5-1.5 1.5.5 3-6.5zm14.5 8 3 2q1-3-3-2Zm437.5 5v2l2.5 1.5q-2 3.5-4-1zm-398 7 11 6 2.5.5-2.5.5q-3.7 3.3-12 2l.5-1.5-1-6zm-20 1 .5 2-2-.5zm229 0 .5 2.5h-1zm327 1 2.5.5-2.5.5zm6 0 8.5.5-8.5.5zm27 0 15.5.5-15.5.5zm-52 1 8.5.5-8.5.5zm-561 1 1.5 1.5zm449 0 1 2zm94 0 11.5.5-11.5.5zm-13 1 7.5.5-7.5.5z"/><path fill="#fdbe17" stroke="#fdbe17" d="m283.5 288 3 1 2-1 9.5 3.5-.5 2.5-12-2-2-2-2 1v-1zm528 0 5.5.5-5.5.5zm-106 1 1 2zm90 0 5.5.5-5.5.5zm-281 1 .5 2.5h-1zm256 0 9.5.5-9.5.5zm-222 1 .5 2.5h-1zm202 0 8.5.5-8.5.5zM356 292l9 2q1.3 3.3-3.5 2l-4 2-3.5-1zm353.5 0v3zm-404 1 3.5 1.5-2.5 1.5v-2l-4 1v-1zm29.5 0 2 1.5-1 3-2.5 5.5-8.5-2-.5-2-2 1v-3l8-3 3 2zm-21.5 2 7.5 2.5-2 1-2.5-1.5-1.5.5-1.5-1.5-2 1v-1zm200 0 .5 2.5h-1zm448 2 1 2zm-249 1 1 2zm-344 1 .5 5.5h-1zm-31.5 3 3 1.5.5 1.5 4-1 3.5 2.5 1.5 1.5v1l-5-3h-2l-5.5-2.5zm379.5 1 1 2zm-350 1-.5 1.5.5 1.5 1.5-.5-9.5 4.5v-1l1.5-.5-1-2zm180 4 .5 6.5-4 31.5 3 1.5 3 8h-1l-3-8.5-3-1.5zm179 3 4.5 5.5-.5 2.5-3.5-5.5zm179 2 8.5.5-8.5.5zm-395 1 .5 2.5h-1zm362 0 2.5.5-2.5.5zm-17 1 4.5.5-4.5.5zm-13 1 3.5.5-3.5.5zm-35 3 7.5.5-7.5.5zm-14 1 4.5.5-4.5.5zm151 0 1 2zm-170 1 9.5.5-9.5.5zm-18 1 2.5 1.5-7.5 3.5-1-2zm9 0 2.5.5-2.5.5zm183 2 1 2zm2 3 1 2zm-447 18-1 2zm478 4 .5 2.5h-1zm-33 7-1 2zm-2 3-1 2zm-397 2 .5 1.5-2 1zm395 1-1 2zm-397 3-7 8q-8.5 1-11-4l-9 4v-1l10-4q3 5 10.5 4l1.5-2zm389 8-1 2zm-423 2 1.5.5-4 2 2 1-.5 1.5 1.5.5-3.5.5-1-2 1.5-.5-2.5-.5-4.5 2.5-.5 2.5-7.5 2 1.5-2zm417 6-1 2zm-3 4-1 2zm-384 4-1 2zm381 0-1 2zM518 393l3 1.5q-2 4.5-4 1zm400.5 3-1 2zm-8 11 .5 1.5-1 2.5-2.5 1 1.5-2.5zm-5 7-1 2zm-336 2 1 2zm-140 3 5.5.5q-3.2 4.8-11.5 4.5l2-3zm517 0-1 2zm-46 2-1 2zm-2 3-1 2zm-579 1-4 5zm81 3 5.5.5-5.5.5zm-20 7-1 2-8 3v-1zm503 9-1 2zm-551 3-1 2zm469 1 .5 1.5-2 4.5-3-1.5zm-472 6 .5 4.5h-1zm10 2q19.5 5.5 31.5 18.5l-2.5-1.5q-9.4-9.6-24-14l-3 1-2-1-1.5.5zm225 1 2.5 3.5h-3l-1.5-1.5v-1zm309 0-1 2zm-542 8 2.5 1.5-1.5.5zm535 1-1 2zm-532 2 3.5 1.5 1 4-4-3zm38 7 4.5 3.5-1.5.5zm11 8 4.5 3.5-1.5-.5zm6 4 1 2zm185 0 2.5 3.5-3-2zm-182 2 3.5 2.5-1.5-.5zm7 4 3.5 2.5-1.5-.5zm498 0-1 2zm-491 4 3.5 2.5-1.5-.5zm195 1-.5 1.5-4.5 5.5 2.5-3.5zm-154 1 1.5.5-7.5 10.5-3.5-1 1.5-3zm-36 1 3.5 2.5-1.5.5zm-67 2 1 2zm256 1 2.5 1.5v3.5l2 1.5-1.5 2.5-.5-2-4.5-1-1.5.5zm-182 1 14.5 8.5-1.5.5zm142 3 1.5 4-2.5 1 .5-1.5zm325 5-1 2zm187 1 4.5.5-4.5.5zm-636 1 3.5 2.5-1.5-.5zm406 0 .5 8.5h-1zm238 0 2.5.5-2.5.5zm-753 1 1 2zm114 2 1 2zm606 0 7.5 3.5-10 3.5q2.5 6.3-2.5 5l-2.5-3.5 3-1.5 1-3.5-4-2 2.5-.5 2 1zm-15 2 2.5.5-2.5.5zm-699 1 1 2zm113 0 1 2zm180 0-.5 1.5 1 3.5-4.5 2 .5-1.5-1.5-1.5 2-3 1 3zm399 0 5.5.5-5.5.5zm-146 1-2 3zm138 0 4.5 1.5-3.5.5zm-641 1 2.5 1.5-1.5.5zm73 0 18.5 10.5-1.5-.5zm556 0 3.5.5-3.5.5zm-5 1 2.5 1.5-6.5 1.5-3.5-1.5zm-157 1 .5 2.5h-1zm145 1 3.5.5-3.5.5zm-5 1 2.5.5-2.5.5zm-577 1 2.5 1.5-1.5.5zm570 0 4.5 1.5-6.5 2.5-2.5-1.5zm84 0 2.5 1.5 2.5 3.5 4.5.5-13 1.5 1.5-4 2.5-1.5zm29 0-2 3-3.5.5 1.5-1.5zm-431 1 1.5 3.5-2 1zm-267 3 3 2 1.5-.5 1.5 1.5 2 3zm658 2 2.5 1.5-1.5.5-2.5-.5zm-19 2 4 1 2-1 3.5 1.5-10.5 1.5-1-2 3 1v-1zm14 0 2.5.5-2.5.5zm-511 1-.5 1.5-3.5 5.5v-2l-7 4-1-2 1.5-.5-.5-1.5 3-1 4-2 2 1zm468 2q4.8-1.3 3.5 2zm-520 1 25.5 13.5-1.5.5-20-10zm505 0 9.5 1.5-7.5.5zm-16 1 1 2zm-540 2 1 2zm3 2 3.5 2.5-1.5-.5zm174 7-2 3zm-99 2 24.5 14.5 2 3-3-2-1.5-1.5zm193 1-1 2zm-248 2 5.5 2.5h-2l3.5 4.5 2.5 1.5-1.5.5-5.5-2.5z"/><path fill="#fdbe17" stroke="#fdbe17" d="m465.5 556 3.5 6.5-2 1-.5-1.5h-2l-4.5-2 1.5-2 2 1zm246 6-1 2zm-242 2 1 2zm116 5 1.5.5-1 3.5-3-1.5zm-113 3 2 3zm18 0q6.3-1.2 7.5 2.5l-1.5 4.5-6-4-1.5.5-.5-1.5-1.5.5zm45 0 1.5 1.5v14l-4 9 1.5.5 5-6 2.5 1.5 4 18-1 7.5q-3.3-1.3-2 3.5l-2 9 2 3-2.5 3.5.5-1.5-2.5-1.5-4.5 5.5-2 8-1 3-4 19v2l-1 13 3.5 6.5 2.5-1.5 13-13-.5-2.5-2-1-7.5 5 5-19 2.5-1 .5 4.5-1 2 1.5 4.5 5.5 2.5.5-1.5.5 1.5-4 17-13 21 2.5.5 1.5-1.5 1-2.5 2-.5 1-3 11-15.5 2.5-1 3.5.5.5-1.5q2.5 2.8 5-1 7.4-1.4 10 2l2-1 5 3q1.5-3.5 8-2l3-3-2.5 3.5-15 21.5-2 1.5-7.5 9.5-1.5.5-1.5 3.5-2.5 1.5.5 1.5-1.5-.5-1 2 1 1-8.5 8.5-8.5 7.5-14 19.5q17.7-9.1 30-25.5l27.5-29.5 2.5-1.5 10.5-12.5 1.5-.5-1-1 5.5-5.5 1.5-1.5 20.5-26.5 2.5-1.5v-2l7.5-10.5-.5 1.5-1 2 3 .5 3.5 5 3 1 4.5-3.5 2-4q-5-1.5-4-7.5l5.5-1 3.5 7q3.5-1.1 2 6.5l-2 3.5 7.5-6-8.5 9.5-3.5 4.5-4.5 3.5-.5 2.5-3 2-4 6-1.5 1.5-2.5 3.5-2.5 1.5-6.5 9.5-3.5 2.5-1.5 3.5-1.5 1.5-1 2.5-4 2.5-3.5 5.5-4.5 3.5-.5 2.5-6.5 5.5-8.5 10.5-7.5 6.5-2 3-8 6.5-5.5 7-32 28-8 5h-6l-2.5-.5-1.5-2.5-1.5 3.5 2 4-1 2 1 3-1 15 8 2-9.5.5-12.5-9.5q-9.8-27.2-10-64l1-11-1-2 1-6-1-25 1.5-5.5 1 2 4-2 4 1-.5-1.5q-.8-3.4 4-1.5-2.2-5.8 1.5-5l2.5-1-1-2.5 3-.5-3.5-7-.5 2-5-2.5.5-3.5q-3.7 1-2.5-2l4.5-1 .5 2.5.5 1.5 2.5-1-1-2.5 3-1.5-1-5.5 3.5-4.5 1.5-1.5 2-6-2 1-.5 3.5-3.5-1.5 3-2 2-4-.5-1.5 1.5.5.5-1.5 1 2 .5-2.5-1-2 1.5.5 1.5-.5-.5-1.5h2l1.5-.5-.5-1.5 2.5-1.5 1-5v-2l1-13.5-3-1.5-1.5-1.5-2.5-.5 3-1.5 2-5.5 1-2-.5-1.5 3.5-2.5 2-6-4-7 4-6q-3.7-1.9-2-8.5l3 1.5 1.5 2.5.5-4.5zm-3.5 31-1 4 1 4-1 2 1 12 1-4-1-3 2-11v-2zm-2 8-1 5h1zm-4 57-2 3v4h-2v5l-2 2 2-1 2 4 2-13zm59 20v2l2-1zm-6 6 1 2 2-1zm-60 2-2 2q5 1 5 8l1-8zm-5 4 2 3v-1zm6 17-1 3h1zm7 0-7 10 2 2 7-10zm-24 3v1h2zm7 52-2 2h2l1 1zm5 32-3 1q-2 6 2 5l2 2q2-8-1-8Zm-34.5-225 3.5 5-3-1.5zm-49 5 1 2zm59 3 1 2zm300 2-2 3zm-285 1 2.5 1q1.1 7.6-4.5 10l-6.5-2.5 4-1.5.5-6 1 2 .5-2zm106 3-.5 1.5-5.5 7.5 1.5-2.5 1.5-4.5zm-164 1 1 2zm172 7 1.5 5-2.5-1-4 6 .5-1.5zm107 3-1 2zm94 0 2.5 6.5h-1zm-357 1 1 2zm190.5 2 2.5 1 1.5-.5-4.5 6.5-1.5-2.5zm10.5 9-1 2zm-190 2 .5 2.5h-1zm188 1-2 3zM499 625q4.1-1.7 3 2.5l1 6-1.5 3.5-1.5-5.5 1-2zm347.5 0 1.5 3.5h-1z"/><path fill="#fdbe17" stroke="#fdbe17" d="m552.5 626-1.5 2.5-3.5 5.5-.5-1.5zm83 1-1 2zm10 0 .5 2.5-2 7 .5 1.5-2 1-.5-1.5zM517 628l2 1.5-1 2.5-3.5 2-.5-1.5 3-1.5zm86.5 0-2.5 3.5-4.5 6.5.5-1.5zm82 0 3.5 1.5-3.5 4.5-2 1 .5-1.5zm6 5 .5 4.5h-1zm1 6 .5 2.5h-1zm-68 2-1.5 2.5-8.5 10.5 2.5-3.5zm-86 5-1 2zm-44 1 1.5 7.5-1.5 2.5zm91 3-.5 1.5-16.5 18.5 4.5-5.5zm-114 1 .5 4.5h-1zm33 4 5 2 1.5-.5 1 2-1.5.5-2.5.5-.5 2.5-.5-2.5.5-1.5-3.5-1zm191 3 4.5.5-4.5.5zm8 0 4.5 1.5-1.5.5zm-94 2-3 4zm78 0 2.5.5-2.5.5zm-82 5-3 4zm75 1-1 2zm51 0 13.5 8.5-2.5.5zm-130 4-2.5 3.5-6.5 8.5 2.5-3.5zm-36 3-.5 3.5-1.5 4.5-1.5.5-.5 2.5-5 1-.5-1.5zm306 2 2.5.5-2.5.5zm-200 1-1 2zm-201 2 .5 2.5h-1zm289 1 3.5 1.5-1.5.5zm5 2 16.5 6.5-1.5.5zm-263 3-.5 1.5 1 8.5-3-1.5q-1.5-7 2.5-8.5Zm281 4 2.5.5-2.5.5zm15 6 8.5 3.5-1.5.5zm13 5 2.5.5-2.5.5zm-157 1-1 2zm161 0 2.5 1.5-1.5.5zm4 2 8.5 3.5-2.5.5zm173 4-1 2zm14 2 1.5 3 4 1.5-1.5 1.5-4.5-2-1-2.5zm-359 1-1 2zm193 1 2.5 1.5-1.5-.5zm4 2 4.5 1.5-1.5.5zm-201 2-1 2zm210 1 3.5 1.5-1.5.5zm167 3 1 2zm-381 1-2 3zm232 3 5.5 2.5-5.5 1.5-1.5-2.5zm11 0 8.5 3.5-1 5 6 3-2.5.5-4.5-3.5-1.5-2.5-9.5-3.5zm113 1 4.5 2.5.5 3.5zm-303 1-1 2zm334 0 3.5 1.5 1.5 2.5 1.5-.5-2.5.5-3.5-1.5zm-394 3-4 5zm370 3 2 3zm-105 1 5.5 6.5-1.5.5-4.5-1 1-3.5zm110 3 1 2zm-536 4 .5 12.5h-1zm578 2 2.5 3.5h-1zm-32 1 1 2zm-400 2-5 6zm404 1 1 2zm33 0 1 2zm7 7 3.5 1.5v2l-.5 1.5zm-590 2 .5 19.5h-1zm567 3 1 2zm-380 2-13 14zm270 2-4 5zm117 1 1 2zm-448 1-4 5zm460 5-1 2-1.5-.5zm-414 6-2 3zm-62 4-2 3zm-109 3 .5 6.5h-1zm157 6-3 4zm-59 1-2 3zm-97 5 .5 3.5h-1zm90 1-1 2zm56 2-2 3zm-62 3-2 3zm55 3-2 3zm-63 3-1 2zm41 15-1 2zM412 826l5 1.5-8 1.5.5-2 2.5 1zm315.5 0 5.5.5-5.5.5zm8 1 2.5 1 1 2.5-1.5.5-3.5-2.5zm-332 4-.5 1.5-1.5 1.5zm81 1 1 2zm225 3-2 3zm-285 3-.5 1.5-.5 1.5-.5-1.5zm-28 1-1 2zm97 2 2.5.5q-2.1 3.3-2.5-.5Zm-71 1-1 2zm301 0-1 2zm-226 2 1 2zm-78 2-2 3zm298 1-2 3zm-207 3 2.5.5-2.5.5zm-95 1-3 4zm100 0 2.5.5-2.5.5zm15 0 3.5.5-3.5.5zm221 0 .5 2.5h-1zm-342 7-3 4zm343 1 .5 3.5h-1zm-349 6-3 4zm338 3 .5 5.5h-1zm-343 3-2 3zm356 3 .5 2.5h-1zm-361 3-2 3zm295 1 1.5 4.5h-1zm52 0 .5 2.5h-1zm-351 4-1 2zm366 2 .5 2.5-1.5 10.5-1.5-7.5zm-371 5-1 2zm302 1 .5 6.5h-1zm55 1 .5 4.5h-1zm15 4 .5 3.5h-1zm-13 1 2.5 5.5-2.5 7.5zm-364 1-1 2zm-10 3 5.5.5-5.5.5zm388 6 .5 5.5h-1zm-45 5 1 2zm3 2 5.5 3.5q1.3 3.8-2.5 2.5l-3 1-4.5-2.5 2-.5zm26 5 .5 3.5h-1zm15 3 .5 2-2-.5zm-19 1 .5 4.5h-1zm18 2 .5 2.5h-1zm2 0 .5 3.5h-1zm-17 4 .5 2.5h-1zm-3 4 .5 5 2.5 1 1-5 .5 7-5-1.5zm-6 21 .5 2.5h-1zm15 8-2 3zm-11 4 5.5.5-5.5.5z"/></svg>